<?xml version="1.0" encoding="UTF-8" standalone="no"?>
<!-- Created with Inkscape (http://www.inkscape.org/) -->

<svg
   xmlns:dc="http://purl.org/dc/elements/1.1/"
   xmlns:cc="http://creativecommons.org/ns#"
   xmlns:rdf="http://www.w3.org/1999/02/22-rdf-syntax-ns#"
   xmlns:svg="http://www.w3.org/2000/svg"
   xmlns="http://www.w3.org/2000/svg"
   xmlns:sodipodi="http://sodipodi.sourceforge.net/DTD/sodipodi-0.dtd"
   xmlns:inkscape="http://www.inkscape.org/namespaces/inkscape"
   width="105.83334mm"
   height="105.99902mm"
   viewBox="0 0 105.83334 105.99901"
   version="1.1"
   id="svg34278"
   inkscape:version="0.92.5 (2060ec1f9f, 2020-04-08)"
   sodipodi:docname="avatarPharmacist.svg">
  <defs
     id="defs34272" />
  <sodipodi:namedview
     id="base"
     pagecolor="#ffffff"
     bordercolor="#666666"
     borderopacity="1.0"
     inkscape:pageopacity="0.0"
     inkscape:pageshadow="2"
     inkscape:zoom="0.35"
     inkscape:cx="1142.1278"
     inkscape:cy="-379.2415"
     inkscape:document-units="mm"
     inkscape:current-layer="layer1"
     showgrid="false"
     inkscape:window-width="1920"
     inkscape:window-height="1016"
     inkscape:window-x="0"
     inkscape:window-y="27"
     inkscape:window-maximized="1" />
  <metadata
     id="metadata34275">
    <rdf:RDF>
      <cc:Work
         rdf:about="">
        <dc:format>image/svg+xml</dc:format>
        <dc:type
           rdf:resource="http://purl.org/dc/dcmitype/StillImage" />
        <dc:title></dc:title>
      </cc:Work>
    </rdf:RDF>
  </metadata>
  <g
     inkscape:label="Layer 1"
     inkscape:groupmode="layer"
     id="layer1"
     transform="translate(334.31595,57.506661)">
    <g
       id="g34974"
       transform="matrix(5.2851174,0,0,5.2851174,1432.5832,-207.79542)">
      <path
         d="m -322.51641,40.893167 c 0.29299,0.776816 2.29514,1.512358 3.18506,1.473905 2.47456,-0.107597 3.0215,0.204611 3.12871,2.445808 0.005,0.09525 0.0102,0.374297 0.0163,0.75812 -1.18209,1.256947 -2.63041,2.2606 -4.25457,2.921352 h -9.10043 c -1.4884,-0.605719 -2.8291,-1.499305 -3.95248,-2.611613 -10e-4,-0.4826 -6.7e-4,-0.841023 0.004,-0.945445 0.0936,-2.352322 0.61528,-2.67723 3.1338,-2.568222 0.77611,0.03387 2.72094,-0.892528 2.93247,-1.473905 0.21512,-0.591256 0.22461,-1.517298 0.0882,-2.128309 l 2.36566,0.04551 2.36569,-0.04551 c -0.13642,0.611011 -0.13423,1.539875 0.0881,2.128309"
         style="fill:#fcd797;fill-opacity:1;fill-rule:evenodd;stroke:none;stroke-width:0.03527778"
         id="path14785"
         inkscape:connector-curvature="0" />
      <path
         d="m -327.81908,41.32673 2.84163,0.304448 2.87736,-0.322792 -0.26582,7.183966 h -5.158 l -0.29517,-7.165622"
         style="fill:#6a2c16;fill-opacity:1;fill-rule:evenodd;stroke:none;stroke-width:0.03527778"
         id="path14787"
         inkscape:connector-curvature="0" />
      <path
         d="m -327.73074,36.898311 0.13694,-1.63195 c -0.24225,-0.238478 -0.41613,-0.395464 -0.54253,-0.591256 -0.34671,-0.538339 -0.56455,-0.662164 -0.77541,-0.505178 -0.0854,0.0635 -0.1156,0.265289 -0.0657,0.518937 0.0874,0.443088 0.36724,1.103841 0.45487,1.491897 0.0704,0.311855 0.47886,1.381125 0.79185,0.71755"
         style="fill:#fcd797;fill-opacity:1;fill-rule:evenodd;stroke:none;stroke-width:0.03527778"
         id="path14789"
         inkscape:connector-curvature="0" />
      <path
         d="m -322.25927,36.898311 -0.13684,-1.63195 c 0.24239,-0.238478 0.41617,-0.395464 0.54226,-0.591256 0.34685,-0.538339 0.56472,-0.662164 0.77558,-0.505178 0.0856,0.0635 0.11574,0.265289 0.0659,0.518937 -0.0874,0.443088 -0.3671,1.103841 -0.45491,1.491897 -0.0706,0.311855 -0.479,1.381125 -0.79195,0.71755"
         style="fill:#fcd797;fill-opacity:1;fill-rule:evenodd;stroke:none;stroke-width:0.03527778"
         id="path14791"
         inkscape:connector-curvature="0" />
      <path
         d="m -327.45667,41.119297 c 0.2202,0.0568 0.38738,1.412169 1.20826,1.167342 0.41356,-0.856545 0.8278,-1.568097 1.44336,-1.795992 0.43049,-0.159103 0.71977,-0.147814 1.07322,-0.427567 0.27961,-0.220838 0.6339,-0.708377 1.06729,-1.017411 0.0152,-0.128058 0.0353,-0.169686 0.0601,-0.280811 l -2.36569,0.04551 -2.36566,-0.04551 c 0.0617,0.276931 0.20782,1.514475 -0.12086,2.354439"
         style="fill:#ebb84f;fill-opacity:1;fill-rule:evenodd;stroke:none;stroke-width:0.03527778"
         id="path14793"
         inkscape:connector-curvature="0" />
      <path
         d="m -324.93346,40.184789 c -0.0132,0.0011 -0.0267,0.0011 -0.04,0.0011 -0.49171,0.0032 -0.73629,-0.0046 -1.00352,-0.117475 -0.25795,-0.109756 -0.38322,-0.363403 -0.73832,-0.705597 -0.30223,-0.290689 -0.84448,-0.587375 -0.97663,-0.90417 -0.18094,-0.434622 -0.10982,-0.912636 -0.22254,-1.586442 -0.0899,-0.536928 -0.34244,-1.013883 -0.37193,-1.551164 -0.0309,-0.581025 0.0621,-1.165225 0.0423,-1.821744 -0.0194,-0.64135 -0.0374,-1.172281 0.0412,-1.622778 0.0792,-0.45473 0.25757,-0.831497 0.62784,-1.163108 v 0 c 0,0 0,0 0,-0.0011 0.20532,-0.181681 0.43766,-0.336903 0.69039,-0.464256 0.003,-0.0011 0.005,-0.0021 0.008,-0.0032 0.0164,-0.0074 0.0335,-0.01587 0.0499,-0.02434 0.01,-0.0042 0.0185,-0.0085 0.0281,-0.01376 0.0129,-0.0063 0.0267,-0.0127 0.0397,-0.01834 0.0131,-0.0049 0.0261,-0.01164 0.0392,-0.01693 0.0142,-0.0074 0.0286,-0.0127 0.0423,-0.01764 0.0124,-0.0067 0.0247,-0.01199 0.0377,-0.01729 0.0176,-0.0074 0.0358,-0.01482 0.0542,-0.02117 0.008,-0.0032 0.0171,-0.0074 0.0261,-0.01058 0.026,-0.01094 0.0536,-0.02046 0.0805,-0.02963 0,0 0,0 5.3e-4,-0.0014 0.67359,-0.244122 1.43799,-0.311855 2.16203,-0.204963 0.72154,0.106538 1.4013,0.388408 1.90666,0.839258 0.3689,0.330905 0.54529,0.705555 0.62491,1.158169 0.0788,0.448381 0.063,0.977548 0.0447,1.616428 -0.0189,0.655108 0.0759,1.236839 0.0452,1.815394 -0.0285,0.535517 -0.28042,1.012473 -0.36805,1.548342 -0.11039,0.672395 -0.0398,1.147233 -0.21859,1.582914 -0.13172,0.318206 -0.66999,0.618773 -0.97013,0.912284 -0.35359,0.346428 -0.47802,0.600428 -0.73477,0.714022 -0.25672,0.112183 -0.49237,0.127 -0.9471,0.129117"
         style="fill:#fcd797;fill-opacity:1;fill-rule:evenodd;stroke:none;stroke-width:0.03527778"
         id="path14795"
         inkscape:connector-curvature="0" />
      <path
         d="m -322.65226,40.294855 c 0.0706,0.49777 0.222,0.726017 0.5534,0.9779 l -1.4206,2.4257 -1.50361,-2.103261 c 0.74761,-0.411339 2.07948,-0.92463 2.37081,-1.300339"
         style="fill:#8b351b;fill-opacity:1;fill-rule:evenodd;stroke:none;stroke-width:0.03527778"
         id="path14797"
         inkscape:connector-curvature="0" />
      <path
         d="m -327.32907,40.294855 c -0.0707,0.49777 -0.222,0.726017 -0.5534,0.9779 l 1.42046,2.4257 1.50361,-2.103261 c -0.74747,-0.411339 -2.07935,-0.92463 -2.37067,-1.300339"
         style="fill:#8b351b;fill-opacity:1;fill-rule:evenodd;stroke:none;stroke-width:0.03527778"
         id="path14799"
         inkscape:connector-curvature="0" />
      <path
         d="m -322.16264,41.275578 c 0.6387,0.540102 2.29634,1.126419 3.15955,1.091494 2.47177,-0.100189 3.15006,0.164394 3.32313,2.015067 0.007,0.07479 0.01,3.02648 0.0106,4.110213 h -8.49782 c 0.62026,-2.319866 1.45521,-5.587999 2.00452,-7.216774"
         style="fill:#e9f4f4;fill-opacity:1;fill-rule:evenodd;stroke:none;stroke-width:0.03527778"
         id="path14801"
         inkscape:connector-curvature="0" />
      <path
         d="m -327.81883,41.275578 c -0.63885,0.540102 -2.2962,1.126419 -3.15941,1.091494 -2.47205,-0.100189 -3.1502,0.164394 -3.32313,2.015067 -0.007,0.07338 -0.0116,3.032477 -0.0146,4.110213 h 8.50883 c -0.62798,-2.344208 -1.47077,-5.612694 -2.01168,-7.216774"
         style="fill:#e9f4f4;fill-opacity:1;fill-rule:evenodd;stroke:none;stroke-width:0.03527778"
         id="path14803"
         inkscape:connector-curvature="0" />
      <path
         d="m -324.92313,41.696089 0.73791,1.088319 -0.0184,0.276578 -0.60882,0.618067 0.68269,1.098197 -0.22902,3.715102 h -1.23585 l -0.257,-3.720747 0.68255,-1.097491 -0.60882,-0.618067 -0.0183,-0.276578 0.73543,-1.087614 0.13769,0.0042"
         style="fill:#ef324d;fill-opacity:1;fill-rule:evenodd;stroke:none;stroke-width:0.03527778"
         id="path14805"
         inkscape:connector-curvature="0" />
      <path
         d="m -327.38432,31.625694 c -0.22987,0.274814 -0.68901,1.929342 -0.61115,3.734153 -0.77734,-2.820811 -1.19532,-4.834819 0.49251,-6.103408 2.21531,-1.664759 4.97001,-0.343959 5.10685,0.0441 1.62775,0.89923 1.06193,3.429705 0.57302,5.6642 -0.0156,-1.120775 -0.25136,-2.512131 -0.81333,-3.489325 -0.13395,-0.129117 -0.28706,-0.207081 -0.40915,-0.155928 -5.09129,2.136775 -4.13604,0.0635 -4.33875,0.306211"
         style="fill:#192b39;fill-opacity:1;fill-rule:evenodd;stroke:none;stroke-width:0.03527778"
         id="path14807"
         inkscape:connector-curvature="0" />
      <path
         d="m -321.80189,41.612128 c 0.18948,0.132644 0.84501,0.333375 1.37199,0.419452 l 0.20214,2.77107 -1.21913,-0.148873 0.79262,0.7112 -1.76692,3.127375 h -1.65873 c 0.61295,-1.819275 1.61823,-5.260622 2.27803,-6.880224"
         style="fill:#d0e2e0;fill-opacity:1;fill-rule:evenodd;stroke:none;stroke-width:0.03527778"
         id="path14809"
         inkscape:connector-curvature="0" />
      <path
         d="m -322.1304,41.32673 c 0.31281,0.219075 0.86939,0.447323 1.45782,0.619831 l -0.0296,0.01834 0.0739,2.572455 -1.33121,-0.122414 0.77654,0.85725 -1.70325,3.220156 h -1.63036 c 0.61267,-1.797399 1.7133,-5.51356 2.38622,-7.165618"
         style="fill:#e9f4f4;fill-opacity:1;fill-rule:evenodd;stroke:none;stroke-width:0.03527778"
         id="path14811"
         inkscape:connector-curvature="0" />
      <path
         d="m -328.13108,41.544041 c -0.18933,0.132645 -0.88896,0.343606 -1.37597,0.47237 l -0.20214,2.771422 1.21913,-0.149225 -0.7928,0.711553 1.77549,3.142191 h 1.6557 c -0.61225,-1.819627 -1.61781,-5.324122 -2.27941,-6.948311"
         style="fill:#d0e2e0;fill-opacity:1;fill-rule:evenodd;stroke:none;stroke-width:0.03527778"
         id="path14813"
         inkscape:connector-curvature="0" />
      <path
         d="m -327.79954,41.32673 c -0.3128,0.219075 -0.86924,0.447323 -1.45781,0.619831 l 0.0298,0.01834 -0.074,2.572455 1.33134,-0.122414 -0.77667,0.85725 1.84933,3.220156 h 1.48745 c -0.61693,-1.818566 -1.72254,-5.528729 -2.3894,-7.165618"
         style="fill:#e9f4f4;fill-opacity:1;fill-rule:evenodd;stroke:none;stroke-width:0.03527778"
         id="path14815"
         inkscape:connector-curvature="0" />
      <path
         d="m -318.52684,41.378941 c -0.12153,0.303742 -0.24032,0.541514 -0.36724,0.839259 -0.33282,0.780697 -0.63458,1.104547 -0.7002,1.573741 -0.0661,0.473075 0.24793,1.059392 0.39839,1.745192 0.0991,0.451556 0.0331,1.423458 0.0521,1.89865 l 2.59663,0.249061 c 0.004,-0.492125 0.0879,-0.711553 0.21967,-0.850547 0.17141,-0.180975 0.42305,-0.22472 0.6809,-0.556331 0.26317,-0.338666 0.62314,-0.904875 0.83894,-1.26118 0.11451,-0.189442 0.35482,-0.769408 0.40844,-0.913695 0.0513,-0.138288 -0.2256,0.142523 -0.34699,-0.07585 0.19128,-0.661105 0.19555,-0.542219 0.016,-1.206147 0.27478,-0.755297 0.32315,-0.567972 -0.016,-1.286228 l -0.0322,-0.932744 -2.66897,0.434269 -1.07943,0.342547"
         style="fill:#fcd797;fill-opacity:1;fill-rule:evenodd;stroke:none;stroke-width:0.03527778"
         id="path14817"
         inkscape:connector-curvature="0" />
      <path
         d="m -315.03364,45.381558 c 0.0838,-0.132644 0.16136,-0.257881 0.22599,-0.364772 0.11451,-0.189442 0.35483,-0.769408 0.40845,-0.913695 0.0513,-0.138288 -0.2256,0.142523 -0.34699,-0.07585 0.19127,-0.661105 0.19554,-0.542219 0.016,-1.206147 0.27477,-0.755297 0.32314,-0.567972 -0.016,-1.286228 l -0.0322,-0.932744 -2.66898,0.434269 -0.82561,0.262114 0.16923,0.242358 c 0.009,0.906992 -0.3835,1.350434 -0.5231,1.907117 -0.0849,0.338314 -0.0809,0.635353 -0.0857,0.894292 -0.008,0.455083 0.0477,0.783872 0.2055,0.95003 0.10128,0.107245 0.23812,0.08714 0.40333,0.09066 1.32789,0.02928 2.4627,0.135114 3.07015,-0.0014"
         style="fill:#ebb84f;fill-opacity:1;fill-rule:evenodd;stroke:none;stroke-width:0.03527778"
         id="path14819"
         inkscape:connector-curvature="0" />
      <path
         d="m -319.2215,46.404614 c 0.95578,0.208138 2.01179,0.35948 2.97681,0.517877 l -0.0758,1.569861 -2.97462,-0.04269 0.0736,-2.045052"
         style="fill:#8b351b;fill-opacity:1;fill-rule:evenodd;stroke:none;stroke-width:0.03527778"
         id="path14821"
         inkscape:connector-curvature="0" />
      <path
         d="m -316.86769,48.145219 c 0.14538,-0.39123 0.21127,-0.8001 0.20588,-1.290108 0.14044,0.02223 0.27975,0.0448 0.41712,0.06738 l -0.0758,1.569861 -2.97462,-0.04269 0.006,-0.167569 2.42132,-0.136878"
         style="fill:#6a2c16;fill-opacity:1;fill-rule:evenodd;stroke:none;stroke-width:0.03527778"
         id="path14823"
         inkscape:connector-curvature="0" />
      <path
         d="m -318.85136,46.738341 c 0.14001,0 0.25354,0.113242 0.25354,0.253295 0,0.140053 -0.11353,0.253647 -0.25354,0.253647 -0.13988,0 -0.25344,-0.113594 -0.25344,-0.253647 0,-0.140053 0.11356,-0.253295 0.25344,-0.253295"
         style="fill:#ebb84f;fill-opacity:1;fill-rule:evenodd;stroke:none;stroke-width:0.03527778"
         id="path14825"
         inkscape:connector-curvature="0" />
      <path
         d="m -317.88881,38.783203 h 2.41558 c 0.0944,0 0.17155,0.07726 0.17155,0.171802 v 1.054453 c 0,0.09455 -0.0772,0.17145 -0.17155,0.17145 h -2.41558 c -0.0944,0 -0.17155,-0.07691 -0.17155,-0.17145 v -1.054453 c 0,-0.09454 0.0772,-0.171802 0.17155,-0.171802"
         style="fill:#c9edea;fill-opacity:1;fill-rule:evenodd;stroke:none;stroke-width:0.03527778"
         id="path14827"
         inkscape:connector-curvature="0" />
      <path
         d="m -317.8826,39.837655 h 2.40316 c 0.34381,0 0.62508,0.281164 0.62508,0.625475 v 4.168422 c 0,0.343959 -0.28127,0.625123 -0.62508,0.625123 h -2.40316 c -0.34396,0 -0.62537,-0.281164 -0.62537,-0.625123 V 40.46313 c 0,-0.344311 0.28141,-0.625475 0.62537,-0.625475"
         style="fill:#ddf3f2;fill-opacity:1;fill-rule:evenodd;stroke:none;stroke-width:0.03527778"
         id="path14829"
         inkscape:connector-curvature="0" />
      <path
         d="m -318.18923,38.219463 h 3.0161 c 0.0944,0 0.17174,0.07691 0.17174,0.17145 v 1.054454 c 0,0.09454 -0.0773,0.171802 -0.17174,0.171802 h -3.0161 c -0.0944,0 -0.17156,-0.07726 -0.17156,-0.171802 v -1.054454 c 0,-0.09454 0.0772,-0.17145 0.17156,-0.17145"
         style="fill:#ddf3f2;fill-opacity:1;fill-rule:evenodd;stroke:none;stroke-width:0.03527778"
         id="path14831"
         inkscape:connector-curvature="0" />
      <path
         d="m -318.50797,41.505236 h 3.65361 v 1.826683 h -3.65361 v -1.826683"
         style="fill:#ef324d;fill-opacity:1;fill-rule:evenodd;stroke:none;stroke-width:0.03527778"
         id="path14833"
         inkscape:connector-curvature="0" />
      <path
         d="m -316.74034,38.219463 h 0.12485 c 0.011,0 0.0201,0.0092 0.0201,0.02011 v 1.357137 c 0,0.01129 -0.009,0.02046 -0.0201,0.02046 h -0.12485 c -0.0113,0 -0.0204,-0.0092 -0.0204,-0.02046 v -1.357136 c 0,-0.01094 0.009,-0.02011 0.0204,-0.02011"
         style="fill:#c9edea;fill-opacity:1;fill-rule:evenodd;stroke:none;stroke-width:0.03527778"
         id="path14835"
         inkscape:connector-curvature="0" />
      <path
         d="m -317.31057,38.219463 h 0.12499 c 0.0109,0 0.0201,0.0092 0.0201,0.02011 v 1.357137 c 0,0.01129 -0.009,0.02046 -0.0201,0.02046 h -0.12499 c -0.0112,0 -0.0203,-0.0092 -0.0203,-0.02046 v -1.357136 c 0,-0.01094 0.009,-0.02011 0.0203,-0.02011"
         style="fill:#c9edea;fill-opacity:1;fill-rule:evenodd;stroke:none;stroke-width:0.03527778"
         id="path14837"
         inkscape:connector-curvature="0" />
      <path
         d="m -317.899,38.219463 h 0.12498 c 0.0109,0 0.0201,0.0092 0.0201,0.02011 v 1.357137 c 0,0.01129 -0.009,0.02046 -0.0201,0.02046 h -0.12498 c -0.0112,0 -0.0202,-0.0092 -0.0202,-0.02046 v -1.357136 c 0,-0.01094 0.009,-0.02011 0.0202,-0.02011"
         style="fill:#c9edea;fill-opacity:1;fill-rule:evenodd;stroke:none;stroke-width:0.03527778"
         id="path14839"
         inkscape:connector-curvature="0" />
      <path
         d="m -315.58803,38.219463 h 0.12499 c 0.0111,0 0.0202,0.0092 0.0202,0.02011 v 1.357137 c 0,0.01129 -0.009,0.02046 -0.0202,0.02046 h -0.12499 c -0.0112,0 -0.0201,-0.0092 -0.0201,-0.02046 v -1.357136 c 0,-0.01094 0.009,-0.02011 0.0201,-0.02011"
         style="fill:#c9edea;fill-opacity:1;fill-rule:evenodd;stroke:none;stroke-width:0.03527778"
         id="path14841"
         inkscape:connector-curvature="0" />
      <path
         d="m -316.17646,38.219463 h 0.12499 c 0.011,0 0.0201,0.0092 0.0201,0.02011 v 1.357137 c 0,0.01129 -0.009,0.02046 -0.0201,0.02046 h -0.12499 c -0.0111,0 -0.0202,-0.0092 -0.0202,-0.02046 v -1.357136 c 0,-0.01094 0.009,-0.02011 0.0202,-0.02011"
         style="fill:#c9edea;fill-opacity:1;fill-rule:evenodd;stroke:none;stroke-width:0.03527778"
         id="path14843"
         inkscape:connector-curvature="0" />
      <path
         d="m -316.68097,38.783203 h 1.2076 c 0.0944,0 0.17155,0.07726 0.17155,0.171802 v 1.0541 c 0,0.09455 -0.0772,0.171803 -0.17155,0.171803 h -1.2076 v -1.397705"
         style="fill:#b6d9d5;fill-opacity:1;fill-rule:evenodd;stroke:none;stroke-width:0.03527778"
         id="path14845"
         inkscape:connector-curvature="0" />
      <path
         d="m -316.68097,39.837655 h 1.20153 c 0.34381,0 0.62508,0.281164 0.62508,0.625475 v 4.168422 c 0,0.343959 -0.28127,0.625123 -0.62508,0.625123 h -1.20153 v -5.41902"
         style="fill:#c9edea;fill-opacity:1;fill-rule:evenodd;stroke:none;stroke-width:0.03527778"
         id="path14847"
         inkscape:connector-curvature="0" />
      <path
         d="m -316.68097,38.219463 h 1.50784 c 0.0944,0 0.17174,0.07691 0.17174,0.17145 v 1.054454 c 0,0.09454 -0.0773,0.171802 -0.17174,0.171802 h -1.50784 v -1.397706"
         style="fill:#c9edea;fill-opacity:1;fill-rule:evenodd;stroke:none;stroke-width:0.03527778"
         id="path14849"
         inkscape:connector-curvature="0" />
      <path
         d="m -316.68097,41.505236 h 1.82661 v 1.826683 h -1.82661 v -1.826683"
         style="fill:#921f1e;fill-opacity:1;fill-rule:evenodd;stroke:none;stroke-width:0.03527778"
         id="path14851"
         inkscape:connector-curvature="0" />
      <path
         d="m -316.68097,38.219463 h 0.0653 c 0.0111,0 0.0202,0.0092 0.0202,0.02011 v 1.357137 c 0,0.01129 -0.009,0.02046 -0.0202,0.02046 h -0.0653 v -1.397705"
         style="fill:#b6d9d5;fill-opacity:1;fill-rule:evenodd;stroke:none;stroke-width:0.03527778"
         id="path14853"
         inkscape:connector-curvature="0" />
      <path
         d="m -315.58803,38.219463 h 0.12499 c 0.0111,0 0.0202,0.0092 0.0202,0.02011 v 1.357137 c 0,0.01129 -0.009,0.02046 -0.0202,0.02046 h -0.12499 c -0.011,0 -0.0201,-0.0092 -0.0201,-0.02046 v -1.357136 c 0,-0.01094 0.009,-0.02011 0.0201,-0.02011"
         style="fill:#b6d9d5;fill-opacity:1;fill-rule:evenodd;stroke:none;stroke-width:0.03527778"
         id="path14855"
         inkscape:connector-curvature="0" />
      <path
         d="m -316.17646,38.219463 h 0.12499 c 0.011,0 0.0201,0.0092 0.0201,0.02011 v 1.357137 c 0,0.01129 -0.009,0.02046 -0.0201,0.02046 h -0.12499 c -0.0111,0 -0.0202,-0.0092 -0.0202,-0.02046 v -1.357136 c 0,-0.01094 0.009,-0.02011 0.0202,-0.02011"
         style="fill:#b6d9d5;fill-opacity:1;fill-rule:evenodd;stroke:none;stroke-width:0.03527778"
         id="path14857"
         inkscape:connector-curvature="0" />
      <path
         d="m -314.83633,41.627297 c -0.33348,0.111125 -0.52945,0.143581 -0.90576,0.238125 -0.26984,0.06773 -0.39137,-0.101247 -0.42361,-0.252942 -0.0724,-0.341136 0.28413,-0.517172 0.68365,-0.686505 0.26444,-0.111831 0.54543,-0.232481 0.75046,-0.312208 0.28967,-0.112889 0.47872,0.420158 0.38227,0.644877 -0.067,0.156281 -0.30716,0.257175 -0.48701,0.368653 z m 0.289,1.005417 c 0.13405,-0.09913 0.16908,-0.187325 0.15183,-0.3302 -0.0157,-0.131234 -0.0701,-0.342548 -0.17857,-0.407459 -0.055,-0.03281 -0.12168,-0.04233 -0.21195,-0.05009 -0.15268,0.03739 -0.35747,0.109714 -0.6131,0.191558 -0.45183,0.144639 -0.99451,0.325614 -1.18745,0.448734 -0.30536,0.194733 -0.24514,0.685447 0.13367,0.656872 0.71395,-0.165453 1.27826,-0.31997 1.90557,-0.509411 z m 0.11105,0.771877 -0.0843,0.0085 -0.14167,0.03034 -0.9222,0.231775 c -0.29697,0.08961 -0.70859,0.226836 -0.90096,0.128411 -0.11204,-0.05715 -0.19897,-0.134408 -0.17956,-0.3429 0.0149,-0.160161 0.0721,-0.269522 0.22807,-0.298097 0.67772,-0.12312 1.26767,-0.301978 1.92362,-0.503061 0.17625,0.02611 0.18754,0.176036 0.20574,0.312561 0.0169,0.129117 0.0596,0.334786 -0.12872,0.432505 z m -0.25672,1.178278 c 0.14595,-0.134055 0.26208,-0.279753 0.33391,-0.492478 0.0741,-0.21978 0.0843,-0.518936 -0.0921,-0.658636 -0.43201,0.102306 -0.86018,0.211667 -1.29039,0.321028 -0.16976,0.04339 -0.26829,0.302331 -0.14154,0.459317 0.11081,0.136878 0.56089,0.113241 0.86597,0.07867 0.18288,-0.02011 0.23015,-0.01517 0.24708,0.06738 0.0204,0.09772 0.0407,0.160514 0.0771,0.224719 v 0"
         style="fill:#fcd797;fill-opacity:1;fill-rule:evenodd;stroke:none;stroke-width:0.03527778"
         id="path14859"
         inkscape:connector-curvature="0" />
      <path
         d="m -315.85882,44.235383 c 0.14168,0.110772 0.55534,0.08784 0.84169,0.05539 0.18288,-0.02011 0.23015,-0.01517 0.24709,0.06738 0.0189,0.09066 0.0378,0.151341 0.0695,0.210608 0.005,-0.154869 0.0701,-0.360539 0.12114,-0.4826 -0.44679,0.137231 -0.83633,0.197556 -1.27938,0.149225"
         style="fill:#ebb84f;fill-opacity:1;fill-rule:evenodd;stroke:none;stroke-width:0.03527778"
         id="path14861"
         inkscape:connector-curvature="0" />
      <path
         d="m -314.54733,42.632714 c 0.09,-0.06668 0.13546,-0.128411 0.15032,-0.204611 -0.20324,0.1016 -0.55425,0.166863 -0.76906,0.22225 -0.32935,0.08537 -0.64467,0.183797 -1.02045,0.3175 -0.1597,0.05644 -0.33266,0.102658 -0.4936,0.10795 0.0544,0.04692 0.13049,0.07373 0.22722,0.06632 0.71395,-0.165453 1.27826,-0.31997 1.90557,-0.509411"
         style="fill:#ebb84f;fill-opacity:1;fill-rule:evenodd;stroke:none;stroke-width:0.03527778"
         id="path14863"
         inkscape:connector-curvature="0" />
      <path
         d="m -314.83633,41.627297 c 0.17985,-0.111478 0.42005,-0.212372 0.48701,-0.368653 0.007,-0.01552 0.0121,-0.03281 0.016,-0.05151 -0.47639,0.263877 -1.41111,0.692855 -1.77779,0.518936 l 0.02,0.04798 c 0.067,0.08255 0.17833,0.134055 0.34908,0.09137 0.3763,-0.09454 0.57227,-0.127 0.90575,-0.238125"
         style="fill:#ebb84f;fill-opacity:1;fill-rule:evenodd;stroke:none;stroke-width:0.03527778"
         id="path14865"
         inkscape:connector-curvature="0" />
      <path
         d="m -315.46815,41.649169 c -0.0692,0.03598 -0.27284,0.136878 -0.38873,0.117475 -0.16732,-0.02787 -0.26652,-0.27693 -0.15794,-0.409575 0.0732,-0.08961 0.28127,-0.192616 0.39356,-0.189794 0.0692,0.0021 0.15229,0.103011 0.18962,0.231775 0.0303,0.103716 0.0325,0.214136 -0.0365,0.250119"
         style="fill:#fef0d7;fill-opacity:1;fill-rule:evenodd;stroke:none;stroke-width:0.03527778"
         id="path14867"
         inkscape:connector-curvature="0" />
      <path
         d="m -316.11681,42.959386 c -0.0692,0.03598 -0.27269,0.136878 -0.38872,0.117475 -0.16715,-0.02822 -0.26638,-0.276931 -0.15794,-0.409928 0.0732,-0.08961 0.28141,-0.192617 0.39359,-0.189442 0.0692,0.0021 0.15226,0.102659 0.18973,0.231423 0.0302,0.104069 0.0325,0.214136 -0.0367,0.250472"
         style="fill:#fef0d7;fill-opacity:1;fill-rule:evenodd;stroke:none;stroke-width:0.03527778"
         id="path14869"
         inkscape:connector-curvature="0" />
      <path
         d="m -315.4793,43.80958 c -0.0602,0.0014 -0.23622,0.0092 -0.30731,0.06597 -0.1028,0.08184 -0.0766,0.287514 0.0464,0.336903 0.0833,0.03316 0.26293,0.02505 0.33789,-0.0194 0.0462,-0.02716 0.0645,-0.126647 0.0416,-0.227895 -0.0186,-0.08184 -0.0583,-0.157339 -0.11864,-0.155575"
         style="fill:#fef0d7;fill-opacity:1;fill-rule:evenodd;stroke:none;stroke-width:0.03527778"
         id="path14871"
         inkscape:connector-curvature="0" />
      <path
         d="m -314.29199,43.169289 c -0.24144,0.126647 -1.10713,0.340783 -1.64028,0.487891 -0.25079,0.06915 -0.42527,0.117123 -0.58141,0.131234 0.009,0.0049 0.0186,0.01023 0.0283,0.01517 0.19237,0.09843 0.60399,-0.0388 0.90096,-0.128411 l 0.75667,-0.190147 0.0473,-0.01199 0.11825,-0.02963 0.14168,-0.03034 0.0843,-0.0085 c 0.10625,-0.05539 0.13906,-0.144638 0.14428,-0.235302"
         style="fill:#ebb84f;fill-opacity:1;fill-rule:evenodd;stroke:none;stroke-width:0.03527778"
         id="path14873"
         inkscape:connector-curvature="0" />
      <path
         d="m -316.13236,43.193983 c -0.0773,0.0092 -0.30248,0.04022 -0.38725,0.121708 -0.12234,0.117475 -0.0642,0.378884 0.10005,0.427567 0.11109,0.03281 0.34107,7.14e-4 0.43201,-0.06491 0.0562,-0.04057 0.0681,-0.170744 0.0265,-0.298097 -0.0335,-0.103011 -0.0937,-0.195439 -0.17127,-0.186267"
         style="fill:#fef0d7;fill-opacity:1;fill-rule:evenodd;stroke:none;stroke-width:0.03527778"
         id="path14875"
         inkscape:connector-curvature="0" />
      <path
         d="m -318.53676,41.317558 c -0.12167,0.303742 -0.2304,0.602897 -0.35732,0.900642 -0.33282,0.780697 -0.63458,1.104547 -0.7002,1.573741 -0.0358,0.256117 0.0396,0.545042 0.14016,0.865011 l 0.9616,-0.682272 c -0.0185,-0.370769 0.0304,-0.597252 0.14771,-0.894644 0.25852,-0.65652 0.57877,-1.546225 -0.19195,-1.762478"
         style="fill:#fcd797;fill-opacity:1;fill-rule:evenodd;stroke:none;stroke-width:0.03527778"
         id="path14877"
         inkscape:connector-curvature="0" />
      <path
         d="m -318.70874,44.128139 0.21622,-0.153459 c -0.0185,-0.370769 0.0304,-0.597252 0.14771,-0.894644 0.18052,-0.458258 0.39081,-1.030111 0.2395,-1.407231 -0.028,0.819503 -0.38872,1.246011 -0.52158,1.775178 -0.0624,0.248708 -0.0768,0.474839 -0.0818,0.680156"
         style="fill:#ebb84f;fill-opacity:1;fill-rule:evenodd;stroke:none;stroke-width:0.03527778"
         id="path14879"
         inkscape:connector-curvature="0" />
      <path
         d="m -318.53676,41.317558 c -0.0845,0.210608 -0.16249,0.4191 -0.24475,0.626181 0.19815,0.142875 0.28292,0.05891 0.34879,-0.09772 0.0536,-0.128058 0.0993,-0.273403 0.14428,-0.411339 -0.066,-0.04904 -0.14788,-0.0889 -0.24832,-0.117122"
         style="fill:#fef0d7;fill-opacity:1;fill-rule:evenodd;stroke:none;stroke-width:0.03527778"
         id="path14881"
         inkscape:connector-curvature="0" />
    </g>
  </g>
</svg>
