<?xml version="1.0" encoding="UTF-8" standalone="no"?>
<!-- Created with Inkscape (http://www.inkscape.org/) -->

<svg
   xmlns:dc="http://purl.org/dc/elements/1.1/"
   xmlns:cc="http://creativecommons.org/ns#"
   xmlns:rdf="http://www.w3.org/1999/02/22-rdf-syntax-ns#"
   xmlns:svg="http://www.w3.org/2000/svg"
   xmlns="http://www.w3.org/2000/svg"
   xmlns:sodipodi="http://sodipodi.sourceforge.net/DTD/sodipodi-0.dtd"
   xmlns:inkscape="http://www.inkscape.org/namespaces/inkscape"
   width="358.20859mm"
   height="576.18048mm"
   viewBox="0 0 358.20859 576.18048"
   version="1.1"
   id="svg8"
   inkscape:version="0.92.5 (2060ec1f9f, 2020-04-08)"
   sodipodi:docname="ganador.svg">
  <defs
     id="defs2" />
  <sodipodi:namedview
     id="base"
     pagecolor="#ffffff"
     bordercolor="#666666"
     borderopacity="1.0"
     inkscape:pageopacity="0.0"
     inkscape:pageshadow="2"
     inkscape:zoom="0.175"
     inkscape:cx="-104.07089"
     inkscape:cy="1500.552"
     inkscape:document-units="mm"
     inkscape:current-layer="layer1"
     showgrid="false"
     inkscape:window-width="1920"
     inkscape:window-height="1016"
     inkscape:window-x="0"
     inkscape:window-y="27"
     inkscape:window-maximized="1" />
  <metadata
     id="metadata5">
    <rdf:RDF>
      <cc:Work
         rdf:about="">
        <dc:format>image/svg+xml</dc:format>
        <dc:type
           rdf:resource="http://purl.org/dc/dcmitype/StillImage" />
        <dc:title></dc:title>
      </cc:Work>
    </rdf:RDF>
  </metadata>
  <g
     inkscape:label="Layer 1"
     inkscape:groupmode="layer"
     id="layer1"
     transform="translate(-68.715872,-42.285331)">
    <g
       id="g1684">
      <path
         d="m 246.1523,603.87832 c 0,0 1.143,13.21152 -1.651,14.58736 l -35.73992,-0.0741 c 0,0 0,-4.12397 5.7397,-5.04119 5.73969,-0.91722 15.82561,-4.2792 17.53306,-11.76514 1.70744,-7.48594 14.11816,2.29306 14.11816,2.29306"
         style="fill:#233862;fill-opacity:1;fill-rule:nonzero;stroke:none;stroke-width:0.03527778"
         id="path835"
         inkscape:connector-curvature="0" />
      <g
         id="g837"
         transform="matrix(0.03605248,0,0,-0.03605248,-237.87295,689.84321)">
        <path
           d="m 16270.2,2526.31 c 0,0 29.8,-508.33 -47.7,-546.49 l -991.3,2.05 c 0,0 0,114.39 159.2,139.83 159.2,25.44 438.9,118.7 486.3,326.33 47.4,207.64 393.5,78.28 393.5,78.28"
           style="fill:#233862;fill-opacity:1;fill-rule:nonzero;stroke:none"
           id="path839"
           inkscape:connector-curvature="0" />
      </g>
      <g
         id="g841"
         transform="matrix(0.0360613,0,0,-0.0360613,-237.87295,689.84321)">
        <path
           d="m 16300,2463.2 c 0,0 -196.7,-101.45 -281,-119.84 -93.6,-20.64 -269.3,-7.54 -269.3,-7.54 -337.1,903.73 -1382.6,4577.45 -1382.6,4577.45 -45.4,-1015.84 -228.8,-2028.94 -419.3,-2843.36 -5,-21.81 -10.1,-43.43 -15.2,-64.95 v -0.3 c -4.6,-19.56 -9.3,-39.03 -14,-58.2 -0.2,-0.98 -0.4,-1.77 -0.5,-2.64 -231.3,-961.06 -463.1,-1615.53 -463.1,-1615.53 0,0 -59.9,-75.71 -226.6,-41.09 -191,39.62 -254.7,123.56 -254.7,123.56 123.5,3914.47 192.6,6121.75 192.6,6121.75 0,0 1654.7,893.94 2104.3,129.81 C 15720.1,7898.19 16300,2463.2 16300,2463.2"
           style="fill:#2a4e96;fill-opacity:1;fill-rule:nonzero;stroke:none"
           id="path843"
           inkscape:connector-curvature="0" />
      </g>
      <path
         d="m 325.88009,396.50494 c -7.73642,-27.65778 -9.00642,-53.91856 -8.94645,-75.66025 0.0811,-30.94567 2.86103,-52.74028 -6.45231,-56.4127 0,0 -28.77255,-8.36436 -48.5775,-12.05089 -3.15383,-1.73567 -6.65692,-3.556 -9.31333,-4.6355 -6.25123,-2.53647 -30.6317,-37.97653 -34.76625,-46.46084 -4.13103,-8.4843 -10.97492,-45.45189 -10.97492,-45.45189 l -9.50031,3.02683 c 0,0 -2.85397,41.49726 -1.48519,52.31342 1.36878,10.81264 31.55597,57.31934 34.06069,61.3904 v 0 c 10.74562,39.28181 0,103.20514 4.91067,117.45737 2.52589,7.33072 49.37831,20.7645 75.02173,19.07469 1.27705,-0.0847 2.50472,-0.20814 3.66889,-0.37042 0.004,0 0.007,-0.004 0.0106,-0.004 6.06778,-0.84314 10.48103,-2.77989 12.09675,-6.18067 0.79022,-1.651 0.91722,-3.65125 0.24695,-6.03603"
         style="fill:#aec3ff;fill-opacity:1;fill-rule:nonzero;stroke:none;stroke-width:0.03527778"
         id="path845"
         inkscape:connector-curvature="0" />
      <path
         d="m 206.84933,155.83287 c 0,0 5.36928,-15.59983 1.44286,-16.05139 -3.92642,-0.45508 -13.7795,-0.40569 -14.99306,2.22956 -1.21708,2.63525 4.04989,16.84866 4.04989,16.84866 l 9.50031,-3.02683"
         style="fill:#ffb27d;fill-opacity:1;fill-rule:nonzero;stroke:none;stroke-width:0.03527778"
         id="path847"
         inkscape:connector-curvature="0" />
      <path
         d="M 104.64854,194.69135 72.958864,175.52846 c 1.40582,-2.32481 3.622322,-3.85939 6.068484,-4.46264 2.448983,-0.60325 5.122333,-0.27164 7.449961,1.13594 2.048934,1.23825 4.715934,0.57856 5.95489,-1.46755 l 8.576031,-14.18167 7.41962,4.4838 -8.575676,14.18167 c -0.619831,1.02658 -0.766233,2.20486 -0.500239,3.28436 0.265642,1.0795 0.942975,2.0567 1.967445,2.67406 2.32516,1.40758 3.86115,3.62303 4.46369,6.06778 0.60255,2.44827 0.27129,5.12233 -1.13453,7.44714"
         style="fill:#ed7d2b;fill-opacity:1;fill-rule:nonzero;stroke:none;stroke-width:0.03527778"
         id="path849"
         inkscape:connector-curvature="0" />
      <path
         d="M 104.64854,194.69135 83.582062,181.95254 c -4.878212,-4.07106 -2.493434,-7.56003 -0.04727,-8.16328 2.448983,-0.59972 5.122686,-0.26811 7.449961,1.13947 2.048934,1.23825 4.715934,0.57856 5.955242,-1.47108 l 8.575675,-14.18167 2.91218,1.76036 -8.575674,14.18167 c -0.619831,1.02658 -0.766233,2.20486 -0.500239,3.28436 0.265642,1.0795 0.942973,2.0567 1.967443,2.67406 2.32516,1.40758 3.86115,3.62303 4.46369,6.06778 0.60255,2.44827 0.27129,5.12233 -1.13453,7.44714"
         style="fill:#f99746;fill-opacity:1;fill-rule:nonzero;stroke:none;stroke-width:0.03527778"
         id="path851"
         inkscape:connector-curvature="0" />
      <g
         id="g853"
         transform="matrix(0.03916151,0,0,-0.03916151,-237.87295,689.84321)">
        <path
           d="m 11113.5,15002.8 -654.9,-825.5 c -227.7,-376.4 -621.32,-557 -998.49,-572.1 -0.09,0 -0.09,0 -0.18,0 -128.55,-5.2 -255.03,8.8 -372.5,40.9 -96.97,26.4 -208.67,-25.8 -270.07,-127.2 l -12.83,-21.2 c -38.03,-62.7 -69.89,-115.4 -69.89,-115.4 l -137.9,83.4 c 0,0 32.11,53.3 70.34,116.5 67.27,111.6 63.61,247.6 -10.15,330.1 -315.16,352.6 -433.42,935.9 -132.01,1434.3 l 443.45,953.4 2145.13,-1297.2"
           style="fill:#f99746;fill-opacity:1;fill-rule:nonzero;stroke:none"
           id="path855"
           inkscape:connector-curvature="0" />
      </g>
      <g
         id="g857"
         transform="matrix(0.03978699,0,0,-0.03978699,-237.87295,689.84321)">
        <path
           d="m 8242.49,14446 c 52.66,304.4 -94.57,470.3 -250.44,645.9 -124.64,140.4 -253.53,285.6 -281.24,501.7 -30.74,239.7 80.83,484.4 277.66,608.8 149.72,94.6 315.05,97.6 453.95,8.6 197.21,-126.7 270.51,-371.9 211.99,-709 -41.92,-241.5 -135.75,-445.4 -139.72,-454 l -123.75,57.4 c 3.49,7.6 344.13,755.4 -22.24,990.8 -126.37,81.3 -246.81,29.1 -307.34,-9.1 -150.49,-95.2 -239,-290.9 -215.25,-476.1 22.36,-174.4 131.94,-297.9 247.95,-428.6 162.5,-183 346.69,-390.5 282.85,-759.7 l -134.42,23.3"
           style="fill:#ed7d2b;fill-opacity:1;fill-rule:nonzero;stroke:none"
           id="path859"
           inkscape:connector-curvature="0" />
      </g>
      <g
         id="g861"
         transform="matrix(0.03570887,0,0,-0.03570887,-237.87295,689.84321)">
        <path
           d="m 10895.9,15060.3 c 273.2,209.5 513.1,150.1 767,87.2 203.1,-50.4 413,-102.4 640.6,-17.9 252.4,93.7 436.1,330.4 457,589 15.8,196.7 -66.7,361.4 -226.4,452.4 -227.1,129 -506.9,74.5 -809.3,-157.7 -216.6,-166.4 -369.3,-364.5 -375.6,-372.8 l 120.6,-92.4 c 5.6,7.3 567.3,730.5 989.1,490.7 145.6,-82.6 156.5,-228.4 150.1,-308 -16,-197.7 -163.4,-386.3 -358.4,-458.7 -183.7,-68.2 -362.2,-23.9 -551.2,22.9 -264.7,65.6 -564.8,140 -895.9,-114.1 l 92.4,-120.6"
           style="fill:#f99746;fill-opacity:1;fill-rule:nonzero;stroke:none"
           id="path863"
           inkscape:connector-curvature="0" />
      </g>
      <g
         id="g865"
         transform="matrix(0.03916151,0,0,-0.03916151,-237.87295,689.84321)">
        <path
           d="m 9459.93,13605.2 c -128.55,-5.2 -255.03,8.8 -372.5,40.9 -96.97,26.4 -208.67,-25.8 -270.07,-127.2 l -12.83,-21.2 c -48.19,-24.8 -84.62,-56.3 -101.83,-96 l -105.96,64 c 0,0 32.11,53.3 70.34,116.5 67.27,111.6 63.61,247.6 -10.15,330.1 -315.16,352.6 -433.42,935.9 -132.01,1434.3 l 443.45,953.4 354.63,-214.4 c 0,0 -1439.82,-1951 136.93,-2480.4"
           style="fill:#ed7d2b;fill-opacity:1;fill-rule:nonzero;stroke:none"
           id="path867"
           inkscape:connector-curvature="0" />
      </g>
      <path
         d="m 107.59917,169.05498 -13.834882,-8.36789 c -1.878189,-1.13594 -2.485673,-3.60186 -1.349728,-5.47864 v 0 c 1.135591,-1.87677 3.601508,-2.48708 5.479697,-1.35113 l 13.834883,8.36788 c 1.87819,1.13595 2.48568,3.60187 1.34973,5.47864 v 0 c -1.13594,1.88031 -3.60151,2.48709 -5.4797,1.35114"
         style="fill:#f99746;fill-opacity:1;fill-rule:nonzero;stroke:none;stroke-width:0.03527778"
         id="path869"
         inkscape:connector-curvature="0" />
      <g
         id="g871"
         transform="matrix(0.03713269,0,0,-0.03713269,-237.87295,689.84321)">
        <path
           d="m 9417.73,15277.2 39.99,66.1 c 189.51,-102.4 213.93,-90.3 291.74,38.4 l 391.24,647 c 55.1,91.1 27.3,117.7 -40.7,171 l -48.1,41.3 35.6,59 c 147.3,-67.1 322.6,-124.3 450.8,-150.6 L 9987.16,15238 c -79.99,-132.3 -79.04,-154.8 97.84,-274 l -40,-66.2 -627.27,379.4"
           style="fill:#ffffff;fill-opacity:1;fill-rule:nonzero;stroke:none"
           id="path873"
           inkscape:connector-curvature="0" />
      </g>
      <path
         d="m 193.29913,142.01104 c 0,0 -0.508,5.36927 1.21356,6.38175 1.72155,1.01247 2.33186,-6.38175 2.33186,-6.38175 0,0 0.0988,6.06425 1.41817,6.477 1.31586,0.41275 2.12725,-6.985 2.12725,-6.985 0,0 0.13758,5.87727 1.03011,5.67266 0.89253,-0.20108 1.50283,-5.67266 1.50283,-5.67266 0,0 0.4057,4.26508 1.61925,3.49955 1.21708,-0.762 2.37067,-5.34105 2.37067,-5.34105 l -13.6137,2.3495"
         style="fill:#ffb27d;fill-opacity:1;fill-rule:nonzero;stroke:none;stroke-width:0.03527778"
         id="path875"
         inkscape:connector-curvature="0" />
      <path
         d="m 206.84933,155.83287 c 0,0 3.67241,-2.88219 4.48028,-5.51392 0.81139,-2.63525 3.19264,-7.06261 1.92616,-7.59883 -1.26647,-0.53622 -4.96358,5.16467 -4.96358,5.16467 l -1.44286,7.94808"
         style="fill:#ffb27d;fill-opacity:1;fill-rule:nonzero;stroke:none;stroke-width:0.03527778"
         id="path877"
         inkscape:connector-curvature="0" />
      <path
         d="m 270.48339,248.13718 -0.45861,2.39889 c 0,0 -2.13784,7.36953 6.87916,10.29053 9.01348,2.92453 16.61231,4.27567 17.50837,-1.55928 0.0529,-4.64255 -0.06,-11.89214 0.6103,-15.61042 0.25047,-1.38288 0.63147,-2.82575 1.21708,-4.42383 l -17.8188,-3.89467 -5.43984,-0.18344 -2.49766,12.98222"
         style="fill:#ffb27d;fill-opacity:1;fill-rule:nonzero;stroke:none;stroke-width:0.03527778"
         id="path879"
         inkscape:connector-curvature="0" />
      <path
         d="m 272.98105,235.15496 -1.65805,8.74889 c 16.92628,4.4838 24.33108,-3.0727 24.91669,-4.67078 l -17.8188,-3.89467 -5.43984,-0.18344"
         style="fill:#e2915a;fill-opacity:1;fill-rule:nonzero;stroke:none;stroke-width:0.03527778"
         id="path881"
         inkscape:connector-curvature="0" />
      <path
         d="m 298.85025,235.60299 c -5.24933,10.668 -19.67442,6.223 -25.75278,3.75355 -1.71097,-0.69144 -2.75872,-1.22766 -2.75872,-1.22766 -1.8415,-1.09009 -2.07433,-4.54025 -1.43581,-8.79475 1.25589,-8.42081 5.90198,-19.99898 8.13153,-22.66598 3.35845,-4.01461 8.64659,-7.89164 22.27086,-0.20108 13.62428,7.69408 6.27592,15.46578 -0.45508,29.13592"
         style="fill:#ffb27d;fill-opacity:1;fill-rule:nonzero;stroke:none;stroke-width:0.03527778"
         id="path883"
         inkscape:connector-curvature="0" />
      <path
         d="m 275.5528,194.69135 c 0,0 6.57578,1.31233 15.09889,0.14111 6.91445,-0.94898 13.86417,4.18394 16.01612,6.223 0.0459,-0.42686 0.0388,-1.02659 -0.1905,-1.69334 0,0 0.91016,1.12184 0.762,2.29306 0.0917,0.11994 0.127,0.19403 0.0917,0.20461 0,0 1.35114,0.127 2.0708,0.73025 0,0 -0.55386,-0.24694 -0.8643,0.067 -0.0317,0.0317 -0.0741,0.0564 -0.11995,0.0776 8.31145,7.34131 4.93537,22.78945 0.85373,25.43528 -4.91067,3.18558 -13.34206,11.95564 -13.34206,11.95564 0,0 0.29633,-3.20322 2.01789,-6.73453 1.72155,-3.53131 -1.49225,-4.43442 -5.08,-7.26722 -3.58422,-2.83281 1.12889,-6.61811 -1.61572,-10.49514 -2.74814,-3.8735 -16.25248,-5.83495 -15.46578,-7.99042 -4.3427,-3.11856 -0.37042,-12.44953 -0.23284,-12.94694"
         style="fill:#233862;fill-opacity:1;fill-rule:nonzero;stroke:none;stroke-width:0.03527778"
         id="path885"
         inkscape:connector-curvature="0" />
      <path
         d="m 277.71886,231.66951 c 0,0 -0.87842,1.31939 -4.39561,-0.23988 0,0 -2.94922,-1.30528 -2.26836,-2.86103 0,0 3.34786,-0.0459 6.66397,3.10091"
         style="fill:#ffffff;fill-opacity:1;fill-rule:nonzero;stroke:none;stroke-width:0.03527778"
         id="path887"
         inkscape:connector-curvature="0" />
      <path
         d="m 273.76069,267.74104 c 0,0 -8.128,53.92915 -68.91514,91.38004 l -5.67267,16.48178 h 21.93925 c 0,0 54.44773,-45.66003 58.09545,-106.30959 l -5.44689,-1.55223"
         style="fill:#ed7d2b;fill-opacity:1;fill-rule:nonzero;stroke:none;stroke-width:0.03527778"
         id="path889"
         inkscape:connector-curvature="0" />
      <path
         d="m 273.76069,267.74104 v -8.17386 l 10.01889,2.83634 -4.572,6.88975 -5.44689,-1.55223"
         style="fill:#db6516;fill-opacity:1;fill-rule:nonzero;stroke:none;stroke-width:0.03527778"
         id="path891"
         inkscape:connector-curvature="0" />
      <path
         d="m 270.48339,248.13718 -5.86317,5.00945 c 0,0 -1.61925,7.00264 2.33186,14.59441 l 11.81806,-6.75569 c 0,0 -6.98147,-3.37256 -8.28675,-12.84817"
         style="fill:#9db0f4;fill-opacity:1;fill-rule:nonzero;stroke:none;stroke-width:0.03527778"
         id="path893"
         inkscape:connector-curvature="0" />
      <path
         d="m 278.77014,260.98535 c 0,0 1.17122,6.34647 4.25097,9.48619 0,0 13.31383,-2.32833 17.01095,-8.71008 l -5.57742,-8.71361 c 0,0 -1.3335,5.94431 -15.6845,7.9375"
         style="fill:#9db0f4;fill-opacity:1;fill-rule:nonzero;stroke:none;stroke-width:0.03527778"
         id="path895"
         inkscape:connector-curvature="0" />
      <g
         id="g897"
         transform="matrix(0.03659188,0,0,-0.03659188,-237.87295,689.84321)">
        <path
           d="m 16299.3,7900.15 c 0,0 0.7,-330 -29.7,-395.56 -30.3,-65.66 -166.6,-279.4 -229.3,-325.1 -62.8,-45.79 13.6,264.26 -6.2,320.95 -19.7,56.69 -43.9,-111.83 -72.9,-118.77 -29,-6.95 -36.9,141.62 -43.7,195.23 -6.6,53.7 123.8,201.59 162.7,321.42 38.8,119.84 219.1,1.83 219.1,1.83"
           style="fill:#ffb27d;fill-opacity:1;fill-rule:nonzero;stroke:none"
           id="path899"
           inkscape:connector-curvature="0" />
      </g>
      <g
         id="g901"
         transform="matrix(0.03681272,0,0,-0.03681272,-237.87295,689.84321)">
        <path
           d="m 14890.7,11556.2 c 0,0 318,-86.7 533.5,-560.9 226.1,-497.3 831,-1602 853.4,-1754.46 22.4,-152.37 -40.1,-1576.22 -40.1,-1576.22 0,0 -264.7,-10.25 -346.4,115.28 0,0 -92.2,1249.92 -132.9,1317.86 -40.9,67.95 -1082.4,1310.24 -994.7,1625.44 87.7,315.2 127.2,833 127.2,833"
           style="fill:#aec3ff;fill-opacity:1;fill-rule:nonzero;stroke:none"
           id="path903"
           inkscape:connector-curvature="0" />
      </g>
      <path
         d="m 325.63314,402.54097 c -2.89983,2.49061 -6.81919,4.65667 -12.09675,6.18067 -0.004,0 -0.007,0.004 -0.0106,0.004 -1.29823,0.37395 -2.51531,0.48684 -3.66889,0.37042 -21.42773,-2.20839 -18.13278,-85.46395 -7.75053,-91.61639 10.93964,-6.48053 14.82725,3.3655 14.82725,3.3655 -0.06,21.74169 1.21003,48.00247 8.94645,75.66025 0.67027,2.38478 0.54327,4.38503 -0.24695,6.03603"
         style="fill:#9db0f4;fill-opacity:1;fill-rule:nonzero;stroke:none;stroke-width:0.03527778"
         id="path905"
         inkscape:connector-curvature="0" />
      <path
         d="m 264.04872,547.52912 c 0.14464,-0.64911 0.31044,-1.34761 0.50447,-2.09903 -0.1658,0.70556 -0.33514,1.40758 -0.50447,2.09903"
         style="fill:#233862;fill-opacity:1;fill-rule:nonzero;stroke:none;stroke-width:0.03527778"
         id="path907"
         inkscape:connector-curvature="0" />
      <path
         d="m 265.10353,543.07706 c 6.55814,-31.03386 -0.51153,-114.19417 2.64583,-115.77462 3.24203,-1.61925 12.47422,13.23975 12.47422,13.23975 -1.63689,36.63245 -8.25147,73.16612 -15.12005,102.53487"
         style="fill:#233862;fill-opacity:1;fill-rule:nonzero;stroke:none;stroke-width:0.03527778"
         id="path909"
         inkscape:connector-curvature="0" />
      <path
         d="m 105.70057,457.7779 c -0.19826,0.40922 -0.47413,1.13947 -0.71967,1.82739 -0.004,-0.18698 -0.007,-0.37395 -0.009,-0.55387 -0.0127,-1.3723 -5.12868,-8.8265 -7.232294,-9.29569 -2.103614,-0.46567 -5.072592,6.51933 -2.445456,10.38225 1.349375,1.98261 4.647495,8.77358 4.647495,8.77358 l 5.451825,-2.81869 c 0,0 0.31468,-2.45181 1.08797,-3.07269 0.77294,-0.61737 0.63676,-4.43442 0.85478,-6.02898 0,0 -0.90382,-0.72672 -1.63548,0.7867"
         style="fill:#ffb27d;fill-opacity:1;fill-rule:nonzero;stroke:none;stroke-width:0.03527778"
         id="path923"
         inkscape:connector-curvature="0" />
      <path
         d="m 99.38515,216.90176 c 0,0 4.38291,6.00075 3.91336,12.84817 -0.34889,5.08353 -4.87997,10.22703 -5.18442,10.42811 l 7.15046,3.81353 c 0,0 5.30366,-9.41211 3.51613,-17.27906 -0.54786,-2.40947 -3.08363,-6.26533 -4.94594,-7.98689 -2.05246,-1.89089 -4.44959,-1.82386 -4.44959,-1.82386"
         style="fill:#6bb7bf;fill-opacity:1;fill-rule:nonzero;stroke:none;stroke-width:0.03527778"
         id="path1033"
         inkscape:connector-curvature="0" />
      <path
         d="m 146.83521,285.75342 -4.52897,-10.01183 c 0,0 21.13457,0.71614 28.13721,17.93522 0,0 -14.78915,-10.54806 -23.60824,-7.92339"
         style="fill:#86d1cd;fill-opacity:1;fill-rule:nonzero;stroke:none;stroke-width:0.03527778"
         id="path1035"
         inkscape:connector-curvature="0" />
      <path
         d="m 100.04898,366.84972 c 0,0 -5.037668,-3.80294 -6.337654,-9.48619 -0.964847,-4.21922 1.455914,-9.51089 1.653469,-9.75078 l -6.75005,-1.34761 c 0,0 -1.999192,8.96056 1.386064,14.91545 1.037167,1.82386 4.045656,4.33563 5.982053,5.27755 2.133247,1.03364 4.066118,0.39158 4.066118,0.39158"
         style="fill:#6bb7bf;fill-opacity:1;fill-rule:nonzero;stroke:none;stroke-width:0.03527778"
         id="path1037"
         inkscape:connector-curvature="0" />
      <path
         d="m 172.2464,373.26395 6.1408,7.02381 c 0,0 -17.35772,4.6108 -27.2803,-7.66939 0,0 14.61346,4.94241 21.1395,0.64558"
         style="fill:#86d1cd;fill-opacity:1;fill-rule:nonzero;stroke:none;stroke-width:0.03527778"
         id="path1039"
         inkscape:connector-curvature="0" />
      <g
         id="g1041"
         transform="matrix(0.06051162,0,0,-0.06051162,-554.10519,576.30605)">
        <path
           d="m 15806.3,3560.32 c 0,0 -7.3,109.08 197.5,161.9 91.8,23.67 296.2,-18.42 166.6,-219.5 -134.7,-209.12 -254.9,-133.62 -254.9,-133.62 0,0 281.1,219.96 168.6,320.59 -124.1,111 -171.8,-108.96 -171.8,-108.96 0,0 -50,2.62 -106,-20.41"
           style="fill:#f1a34f;fill-opacity:1;fill-rule:nonzero;stroke:none"
           id="path1043"
           inkscape:connector-curvature="0" />
      </g>
      <g
         id="g1045"
         transform="matrix(0.05941307,0,0,-0.05941307,-597.08319,469.61312)">
        <path
           d="m 16172.6,3418.57 c 0,0 -78,42.22 -47,135.98 l 112.1,-19.48 c 0,0 -43.2,-101.48 62.3,-113.77 0,0 -101.5,-24.1 -127.4,-2.73"
           style="fill:#db7714;fill-opacity:1;fill-rule:nonzero;stroke:none"
           id="path1047"
           inkscape:connector-curvature="0" />
      </g>
      <path
         d="m 288.40097,132.67654 c 0,0 6.92503,-9.97303 17.54364,-2.91042 l 6.46642,-6.1842 c 0,0 -6.04308,-4.58611 -19.97781,3.64067 -9.1193,5.37986 -4.03225,5.45395 -4.03225,5.45395"
         style="fill:#5685d8;fill-opacity:1;fill-rule:nonzero;stroke:none;stroke-width:0.03527778"
         id="path1049"
         inkscape:connector-curvature="0" />
      <path
         d="m 281.56767,142.45201 c 0,0 -1.37231,-11.44764 17.79058,-18.58786 0,0 -6.92503,3.35844 -9.06286,14.76728 l -8.72772,3.82058"
         style="fill:#739af0;fill-opacity:1;fill-rule:nonzero;stroke:none;stroke-width:0.03527778"
         id="path1051"
         inkscape:connector-curvature="0" />
      <g
         id="g1053"
         transform="matrix(0.03779132,0,0,-0.03779132,-237.87295,689.84321)">
        <path
           d="m 15782,16091 c 0,0 149.8,94.6 165.6,209 0,0 145.9,-7.9 177.4,-55.2 0,0 -67,-189.3 -145.9,-224.8 0,0 -177.5,-11.8 -197.1,71"
           style="fill:#f99746;fill-opacity:1;fill-rule:nonzero;stroke:none"
           id="path1055"
           inkscape:connector-curvature="0" />
      </g>
      <path
         d="m 176.32699,489.77939 c 0,0 -6.03955,-3.81353 -6.67455,-8.42433 0,0 -5.88434,0.3175 -7.15434,2.22603 0,0 2.70228,7.63058 5.88081,9.05933 0,0 7.15433,0.47625 7.94808,-2.86103"
         style="fill:#f99746;fill-opacity:1;fill-rule:nonzero;stroke:none;stroke-width:0.03527778"
         id="path1057"
         inkscape:connector-curvature="0" />
      <g
         id="g1059"
         transform="matrix(0.04147467,0,0,-0.04147467,-274.91464,673.9682)">
        <path
           d="m 15965.1,11945.3 c 0,0 146.3,92.4 161.7,204 0,0 142.4,-7.7 173.2,-53.9 0,0 -65.4,-184.8 -142.4,-219.4 0,0 -173.3,-11.6 -192.5,69.3"
           style="fill:#86d1cd;fill-opacity:1;fill-rule:nonzero;stroke:none"
           id="path1061"
           inkscape:connector-curvature="0" />
      </g>
    </g>
  </g>
</svg>
