<?xml version="1.0" encoding="UTF-8" standalone="no"?>
<!-- Created with Inkscape (http://www.inkscape.org/) -->

<svg
   xmlns:dc="http://purl.org/dc/elements/1.1/"
   xmlns:cc="http://creativecommons.org/ns#"
   xmlns:rdf="http://www.w3.org/1999/02/22-rdf-syntax-ns#"
   xmlns:svg="http://www.w3.org/2000/svg"
   xmlns="http://www.w3.org/2000/svg"
   xmlns:sodipodi="http://sodipodi.sourceforge.net/DTD/sodipodi-0.dtd"
   xmlns:inkscape="http://www.inkscape.org/namespaces/inkscape"
   width="105.83334mm"
   height="14.946096mm"
   viewBox="0 0 105.83334 14.946096"
   version="1.1"
   id="svg16928"
   inkscape:version="0.92.5 (2060ec1f9f, 2020-04-08)"
   sodipodi:docname="imagotipoBionutrec3_white.svg">
  <defs
     id="defs16922" />
  <sodipodi:namedview
     id="base"
     pagecolor="#ffffff"
     bordercolor="#666666"
     borderopacity="1.0"
     inkscape:pageopacity="0.0"
     inkscape:pageshadow="2"
     inkscape:zoom="0.35"
     inkscape:cx="-495.03509"
     inkscape:cy="392.6697"
     inkscape:document-units="mm"
     inkscape:current-layer="layer1"
     showgrid="false"
     inkscape:window-width="1920"
     inkscape:window-height="1016"
     inkscape:window-x="0"
     inkscape:window-y="27"
     inkscape:window-maximized="1" />
  <metadata
     id="metadata16925">
    <rdf:RDF>
      <cc:Work
         rdf:about="">
        <dc:format>image/svg+xml</dc:format>
        <dc:type
           rdf:resource="http://purl.org/dc/dcmitype/StillImage" />
        <dc:title></dc:title>
      </cc:Work>
    </rdf:RDF>
  </metadata>
  <g
     inkscape:label="Layer 1"
     inkscape:groupmode="layer"
     id="layer1"
     transform="translate(-98.850057,-237.78109)">
    <g
       transform="matrix(0,1.4325788,1.4325788,0,-963.3736,-682.20382)"
       id="g16892">
      <g
         transform="translate(647.9591,755.3293)"
         id="g5823">
        <path
           inkscape:connector-curvature="0"
           id="path5825"
           style="fill:#ffffff;fill-opacity:1;fill-rule:nonzero;stroke:none"
           d="M 0,0 H 1.724 V 1.455 C 1.724,1.961 1.27,2.219 0.846,2.219 0.443,2.219 0,1.961 0,1.424 Z m -1.249,1.187 c 0,0.391 -0.31,0.66 -0.732,0.66 -0.445,0 -0.744,-0.227 -0.744,-0.671 V 0 h 1.476 z m 0.506,1.279 c 0.237,0.939 1.042,1.342 1.62,1.342 1.177,0 2.178,-0.857 2.178,-2.271 v -3.055 h -7.111 v 2.849 c 0,1.279 0.764,2.105 1.982,2.105 0.464,0 1.053,-0.237 1.331,-0.97" />
      </g>
      <path
         inkscape:connector-curvature="0"
         id="path5827"
         style="fill:#ffffff;fill-opacity:1;fill-rule:nonzero;stroke:none"
         d="m 643.903,762.658 h 7.11 v -1.506 h -7.11 z" />
      <g
         transform="translate(649.6202,768.2853)"
         id="g5829">
        <path
           inkscape:connector-curvature="0"
           id="path5831"
           style="fill:#ffffff;fill-opacity:1;fill-rule:nonzero;stroke:none"
           d="m 0,0 c 0,1.177 -0.96,2.105 -2.146,2.105 -1.187,0 -2.158,-0.928 -2.158,-2.105 0,-1.176 0.971,-2.095 2.158,-2.095 C -0.96,-2.095 0,-1.176 0,0 m -5.8,0 c 0,2.023 1.631,3.612 3.654,3.612 2.001,0 3.642,-1.589 3.642,-3.612 0,-2.012 -1.641,-3.602 -3.642,-3.602 -2.023,0 -3.654,1.59 -3.654,3.602" />
      </g>
      <g
         transform="translate(650.8849,778.8591)"
         id="g5833">
        <path
           inkscape:connector-curvature="0"
           id="path5835"
           style="fill:#ffffff;fill-opacity:1;fill-rule:nonzero;stroke:none"
           d="M 0,0 V -1.352 L -4.303,-3.829 H 0 v -1.506 h -7.11 v 1.383 l 4.252,2.435 H -7.11 V 0 Z" />
      </g>
      <g
         transform="translate(648.4132,784.7648)"
         id="g5837">
        <path
           inkscape:connector-curvature="0"
           id="path5839"
           style="fill:#ffffff;fill-opacity:1;fill-rule:nonzero;stroke:none"
           d="M 0,0 H -4.571 V 1.517 H 0 c 1.61,0 2.643,-1.29 2.643,-2.746 C 2.643,-2.694 1.61,-3.994 0,-3.994 h -4.571 v 1.538 H 0 c 0.733,0 1.218,0.588 1.218,1.227 C 1.218,-0.599 0.733,0 0,0" />
      </g>
      <g
         transform="translate(643.7745,788.1828)"
         id="g5841">
        <path
           inkscape:connector-curvature="0"
           id="path5843"
           style="fill:#ffffff;fill-opacity:1;fill-rule:nonzero;stroke:none"
           d="M 0,0 V 5.367 H 1.362 V 3.447 H 7.11 V 1.92 H 1.362 V 0 Z" />
      </g>
      <g
         transform="translate(645.1056,796.9059)"
         id="g5845">
        <path
           inkscape:connector-curvature="0"
           id="path5847"
           style="fill:#ffffff;fill-opacity:1;fill-rule:nonzero;stroke:none"
           d="M 0,0 H 2.002 V 1.279 C 2.002,1.868 1.466,2.177 1.001,2.177 0.558,2.177 0,1.889 0,1.321 Z M 5.779,3.746 V 1.93 L 3.323,0.34 V 0 h 2.456 v -1.517 h -7.11 v 2.91 c 0,1.61 1.166,2.363 2.332,2.363 1.012,0 2.003,-0.557 2.261,-1.775 z" />
      </g>
      <g
         transform="translate(643.7745,802.6774)"
         id="g5849">
        <path
           inkscape:connector-curvature="0"
           id="path5851"
           style="fill:#ffffff;fill-opacity:1;fill-rule:nonzero;stroke:none"
           d="M 0,0 V 4.499 H 1.331 V 1.506 h 1.62 V 4.127 H 4.263 V 1.506 H 5.779 V 4.592 H 7.11 V 0 Z" />
      </g>
      <g
         transform="translate(649.4298,815.3527)"
         id="g5853">
        <path
           inkscape:connector-curvature="0"
           id="path5855"
           style="fill:#ffffff;fill-opacity:1;fill-rule:nonzero;stroke:none"
           d="m 0,0 c 0.939,-0.619 1.559,-1.703 1.559,-2.993 0,-2.033 -1.641,-3.57 -3.643,-3.57 -2.023,0 -3.653,1.537 -3.653,3.57 0,1.269 0.597,2.343 1.506,2.962 l 0.846,-1.228 c -0.557,-0.382 -0.928,-1.001 -0.928,-1.734 0,-1.187 0.99,-2.054 2.229,-2.054 1.228,0 2.219,0.867 2.219,2.054 0,0.743 -0.404,1.393 -0.981,1.775 z" />
      </g>
      <g
         transform="translate(648.67,750.8986)"
         id="g5857">
        <path
           inkscape:connector-curvature="0"
           id="path5859"
           style="fill:#ffffff;fill-opacity:1;fill-rule:nonzero;stroke:none"
           d="m 0,0 c 1.204,0 2.198,-0.911 2.337,-2.079 -0.33,0.145 -0.693,0.226 -1.076,0.227 -0.396,0 -0.77,-0.086 -1.109,-0.241 -0.076,0.78 -0.485,1.459 -1.083,1.902 C -0.646,-0.068 -0.33,0 0,0 m -6.146,-4.539 c 0,0.769 0.373,1.452 0.945,1.882 0.088,-0.775 0.506,-1.449 1.108,-1.883 -0.603,-0.433 -1.022,-1.107 -1.11,-1.882 -0.572,0.431 -0.944,1.114 -0.943,1.883 m 4.88,0.924 c -0.206,0.559 -0.59,1.033 -1.088,1.347 0.03,0.799 0.458,1.495 1.091,1.899 0.633,-0.404 1.06,-1.102 1.088,-1.9 -0.497,-0.314 -0.884,-0.787 -1.091,-1.346 m -1.262,-1.432 c 0.156,0 0.309,0.016 0.458,0.042 -0.369,-0.442 -0.597,-1.004 -0.621,-1.618 -0.33,-0.175 -0.704,-0.273 -1.101,-0.273 -0.393,0 -0.763,0.098 -1.089,0.269 0.033,0.797 0.464,1.492 1.1,1.893 0.375,-0.199 0.8,-0.312 1.253,-0.313 m 4.09,0.503 c 0.603,0.433 1.022,1.106 1.11,1.881 C 3.243,-3.094 3.615,-3.775 3.615,-4.546 3.614,-5.314 3.242,-5.997 2.669,-6.427 2.582,-5.652 2.164,-4.978 1.562,-4.544 M 1.257,-6.9 c -0.398,0 -0.772,0.1 -1.1,0.275 -0.023,0.614 -0.25,1.176 -0.619,1.618 0.15,-0.025 0.302,-0.042 0.458,-0.042 0.452,0 0.879,0.113 1.254,0.311 C 1.885,-5.14 2.313,-5.835 2.347,-6.631 2.021,-6.803 1.65,-6.9 1.257,-6.9 M 0.149,-6.994 c 0.338,-0.153 0.712,-0.241 1.108,-0.242 0.383,0 0.746,0.082 1.076,0.225 -0.14,-1.167 -1.135,-2.076 -2.34,-2.075 -0.33,0 -0.643,0.069 -0.93,0.192 0.598,0.442 1.009,1.122 1.086,1.9 m -1.75,-1.899 c -0.286,-0.124 -0.6,-0.191 -0.93,-0.191 -1.204,10e-4 -2.198,0.911 -2.337,2.078 0.33,-0.144 0.693,-0.226 1.076,-0.226 0.396,0 0.77,0.086 1.108,0.241 0.076,-0.78 0.486,-1.46 1.083,-1.902 m -0.755,2.078 c 0.497,0.315 0.882,0.787 1.089,1.346 0.206,-0.56 0.592,-1.033 1.089,-1.348 -0.03,-0.798 -0.457,-1.495 -1.091,-1.898 -0.632,0.404 -1.059,1.102 -1.087,1.9 M 2.35,-2.457 C 2.315,-3.254 1.886,-3.949 1.25,-4.35 c -0.375,0.199 -0.801,0.313 -1.253,0.313 -0.157,0 -0.309,-0.016 -0.459,-0.042 0.37,0.442 0.598,1.005 0.622,1.618 0.329,0.175 0.703,0.274 1.1,0.273 0.393,0 0.763,-0.098 1.09,-0.269 m -6.139,0.273 c 0.397,0 0.771,-0.1 1.101,-0.274 0.023,-0.615 0.25,-1.177 0.619,-1.62 -0.15,0.025 -0.302,0.043 -0.459,0.043 -0.452,0 -0.878,-0.113 -1.253,-0.312 -0.635,0.403 -1.065,1.098 -1.097,1.895 0.326,0.171 0.696,0.268 1.089,0.268 m 1.265,2.186 c 0.33,0 0.644,-0.069 0.929,-0.193 -0.597,-0.441 -1.009,-1.121 -1.086,-1.9 -0.338,0.154 -0.713,0.242 -1.108,0.242 -0.382,10e-4 -0.746,-0.08 -1.076,-0.224 0.14,1.167 1.136,2.076 2.341,2.075 m 0,0.336 c -1.454,0 -2.639,-1.157 -2.69,-2.598 -0.76,-0.475 -1.267,-1.318 -1.268,-2.278 0,-0.961 0.505,-1.804 1.265,-2.281 0.049,-1.442 1.233,-2.6 2.686,-2.601 0.456,-10e-4 0.885,0.113 1.262,0.316 0.376,-0.203 0.806,-0.318 1.262,-0.318 1.453,-10e-4 2.639,1.155 2.69,2.598 0.759,0.475 1.267,1.317 1.268,2.278 10e-4,0.961 -0.507,1.804 -1.265,2.281 C 2.637,-0.824 1.453,0.335 0,0.335 -0.456,0.336 -0.886,0.221 -1.263,0.021 -1.64,0.222 -2.068,0.337 -2.524,0.338" />
      </g>
    </g>
  </g>
</svg>
