<?xml version="1.0" encoding="UTF-8" standalone="no"?>
<!-- Created with Inkscape (http://www.inkscape.org/) -->

<svg
   xmlns:dc="http://purl.org/dc/elements/1.1/"
   xmlns:cc="http://creativecommons.org/ns#"
   xmlns:rdf="http://www.w3.org/1999/02/22-rdf-syntax-ns#"
   xmlns:svg="http://www.w3.org/2000/svg"
   xmlns="http://www.w3.org/2000/svg"
   xmlns:sodipodi="http://sodipodi.sourceforge.net/DTD/sodipodi-0.dtd"
   xmlns:inkscape="http://www.inkscape.org/namespaces/inkscape"
   width="105.83334mm"
   height="19.171942mm"
   viewBox="0 0 105.83334 19.171942"
   version="1.1"
   id="svg15389"
   inkscape:version="0.92.5 (2060ec1f9f, 2020-04-08)"
   sodipodi:docname="imagotipoBionutrec1_blue.svg">
  <defs
     id="defs15383" />
  <sodipodi:namedview
     id="base"
     pagecolor="#ffffff"
     bordercolor="#666666"
     borderopacity="1.0"
     inkscape:pageopacity="0.0"
     inkscape:pageshadow="2"
     inkscape:zoom="0.35"
     inkscape:cx="-1063.1224"
     inkscape:cy="-141.4048"
     inkscape:document-units="mm"
     inkscape:current-layer="layer1"
     showgrid="false"
     inkscape:window-width="1920"
     inkscape:window-height="1016"
     inkscape:window-x="0"
     inkscape:window-y="27"
     inkscape:window-maximized="1" />
  <metadata
     id="metadata15386">
    <rdf:RDF>
      <cc:Work
         rdf:about="">
        <dc:format>image/svg+xml</dc:format>
        <dc:type
           rdf:resource="http://purl.org/dc/dcmitype/StillImage" />
        <dc:title></dc:title>
      </cc:Work>
    </rdf:RDF>
  </metadata>
  <g
     inkscape:label="Layer 1"
     inkscape:groupmode="layer"
     id="layer1"
     transform="translate(-249.15649,-92.248038)">
    <g
       transform="matrix(0.81212597,0,0,-0.81212597,-163.47976,612.29323)"
       id="g14336"
       style="fill:#1f184b;fill-opacity:1">
      <g
         transform="translate(536.9142,631.6525)"
         id="g837"
         style="fill:#1f184b;fill-opacity:1">
        <path
           inkscape:connector-curvature="0"
           id="path839"
           style="fill:#1f184b;fill-opacity:1;fill-rule:nonzero;stroke:none"
           d="m 0,0 v -2.914 h 2.46 c 0.855,0 1.292,0.768 1.292,1.483 C 3.752,-0.75 3.315,0 2.408,0 Z m 2.007,2.111 c 0.663,0 1.116,0.525 1.116,1.24 0,0.751 -0.384,1.256 -1.134,1.256 H 0 V 2.111 Z M 4.171,1.257 c 1.588,-0.402 2.267,-1.763 2.267,-2.74 0,-1.99 -1.447,-3.682 -3.837,-3.682 H -2.565 V 6.858 h 4.816 c 2.163,0 3.56,-1.291 3.56,-3.35 0,-0.785 -0.402,-1.78 -1.64,-2.251" />
      </g>
      <path
         inkscape:connector-curvature="0"
         id="path841"
         style="fill:#1f184b;fill-opacity:1;fill-rule:nonzero;stroke:none"
         d="m 549.308,626.487 h -2.547 v 12.023 h 2.547 z" />
      <g
         transform="translate(558.8234,628.843)"
         id="g843"
         style="fill:#1f184b;fill-opacity:1">
        <path
           inkscape:connector-curvature="0"
           id="path845"
           style="fill:#1f184b;fill-opacity:1;fill-rule:nonzero;stroke:none"
           d="M 0,0 C 1.989,0 3.56,1.623 3.56,3.63 3.56,5.637 1.989,7.277 0,7.277 -1.989,7.277 -3.543,5.637 -3.543,3.63 -3.543,1.623 -1.989,0 0,0 M 0,9.808 C 3.42,9.808 6.107,7.05 6.107,3.63 6.107,0.245 3.42,-2.53 0,-2.53 c -3.403,0 -6.091,2.775 -6.091,6.16 0,3.42 2.688,6.178 6.091,6.178" />
      </g>
      <g
         transform="translate(576.7023,626.7043)"
         id="g847"
         style="fill:#1f184b;fill-opacity:1">
        <path
           inkscape:connector-curvature="0"
           id="path849"
           style="fill:#1f184b;fill-opacity:1;fill-rule:nonzero;stroke:none"
           d="M 0,0 H -2.286 L -6.474,7.276 V 0 h -2.547 v 12.023 h 2.337 l 4.12,-7.189 v 7.189 H 0 Z" />
      </g>
      <g
         transform="translate(586.6886,630.884)"
         id="g851"
         style="fill:#1f184b;fill-opacity:1">
        <path
           inkscape:connector-curvature="0"
           id="path853"
           style="fill:#1f184b;fill-opacity:1;fill-rule:nonzero;stroke:none"
           d="M 0,0 V 7.73 H 2.565 V 0 c 0,-2.723 -2.182,-4.468 -4.642,-4.468 -2.479,0 -4.677,1.745 -4.677,4.468 v 7.73 h 2.601 V 0 c 0,-1.239 0.994,-2.06 2.076,-2.06 C -1.013,-2.06 0,-1.239 0,0" />
      </g>
      <g
         transform="translate(592.4689,638.7277)"
         id="g855"
         style="fill:#1f184b;fill-opacity:1">
        <path
           inkscape:connector-curvature="0"
           id="path857"
           style="fill:#1f184b;fill-opacity:1;fill-rule:nonzero;stroke:none"
           d="M 0,0 H 9.074 V -2.304 H 5.828 v -9.719 H 3.245 v 9.719 H 0 Z" />
      </g>
      <g
         transform="translate(607.2179,636.4767)"
         id="g859"
         style="fill:#1f184b;fill-opacity:1">
        <path
           inkscape:connector-curvature="0"
           id="path861"
           style="fill:#1f184b;fill-opacity:1;fill-rule:nonzero;stroke:none"
           d="m 0,0 v -3.386 h 2.164 c 0.994,0 1.518,0.908 1.518,1.694 C 3.682,-0.942 3.193,0 2.233,0 Z M 6.335,-9.772 H 3.263 L 0.576,-5.619 H 0 V -9.772 H -2.564 V 2.251 h 4.92 c 2.722,0 3.997,-1.972 3.997,-3.943 0,-1.711 -0.943,-3.386 -3.002,-3.823 z" />
      </g>
      <g
         transform="translate(616.9777,638.7277)"
         id="g863"
         style="fill:#1f184b;fill-opacity:1">
        <path
           inkscape:connector-curvature="0"
           id="path865"
           style="fill:#1f184b;fill-opacity:1;fill-rule:nonzero;stroke:none"
           d="M 0,0 H 7.607 V -2.251 H 2.547 V -4.99 H 6.979 V -7.207 H 2.547 v -2.565 h 5.219 v -2.251 H 0 Z" />
      </g>
      <g
         transform="translate(638.4103,629.1652)"
         id="g867"
         style="fill:#1f184b;fill-opacity:1">
        <path
           inkscape:connector-curvature="0"
           id="path869"
           style="fill:#1f184b;fill-opacity:1;fill-rule:nonzero;stroke:none"
           d="m 0,0 c -1.047,-1.589 -2.879,-2.636 -5.061,-2.636 -3.438,0 -6.038,2.776 -6.038,6.16 0,3.421 2.6,6.178 6.038,6.178 2.147,0 3.961,-1.012 5.009,-2.548 l -2.077,-1.43 c -0.645,0.942 -1.692,1.57 -2.932,1.57 -2.006,0 -3.472,-1.675 -3.472,-3.77 0,-2.076 1.466,-3.752 3.472,-3.752 1.256,0 2.356,0.681 3.002,1.659 z" />
      </g>
      <g
         transform="translate(528.9669,625.9914)"
         id="g871"
         style="fill:#1f184b;fill-opacity:1">
        <path
           inkscape:connector-curvature="0"
           id="path873"
           style="fill:#1f184b;fill-opacity:1;fill-rule:nonzero;stroke:none"
           d="m 0,0 c -0.001,-2.669 -2.018,-4.871 -4.605,-5.178 0.322,0.731 0.501,1.536 0.503,2.384 0.001,0.876 -0.193,1.705 -0.533,2.456 1.725,0.167 3.232,1.075 4.21,2.4 C -0.151,1.428 0.001,0.731 0,0 m -10.056,13.616 c 1.705,0 3.218,-0.827 4.169,-2.095 -1.717,-0.194 -3.211,-1.12 -4.172,-2.456 -0.958,1.339 -2.452,2.265 -4.169,2.461 0.955,1.268 2.469,2.092 4.172,2.09 M -8.009,2.802 c 1.24,0.457 2.288,1.31 2.987,2.412 C -3.255,5.147 -1.713,4.2 -0.817,2.796 -1.714,1.394 -3.259,0.45 -5.025,0.386 -5.724,1.487 -6.77,2.344 -8.009,2.802 m -3.172,2.799 c 0,-0.347 0.035,-0.686 0.093,-1.017 -0.98,0.82 -2.225,1.324 -3.585,1.378 -0.387,0.729 -0.606,1.559 -0.606,2.437 0,0.872 0.218,1.691 0.598,2.414 1.764,-0.075 3.305,-1.029 4.192,-2.437 -0.439,-0.83 -0.691,-1.772 -0.692,-2.775 m 1.114,-9.06 c 0.958,-1.338 2.452,-2.266 4.168,-2.462 -0.954,-1.266 -2.466,-2.09 -4.171,-2.089 -1.704,10e-4 -3.216,0.826 -4.168,2.096 1.717,0.192 3.211,1.118 4.171,2.455 m -5.22,0.673 c 0,0.88 0.222,1.709 0.609,2.436 1.361,0.051 2.607,0.555 3.587,1.372 -0.058,-0.33 -0.094,-0.668 -0.094,-1.015 -10e-4,-1.002 0.25,-1.945 0.687,-2.777 -0.889,-1.406 -2.428,-2.357 -4.193,-2.43 -0.38,0.722 -0.596,1.544 -0.596,2.414 m -0.208,2.454 c -0.34,-0.748 -0.534,-1.577 -0.536,-2.453 v -10e-4 c 0,-0.848 0.18,-1.653 0.499,-2.384 -2.586,0.31 -4.599,2.516 -4.596,5.184 0,0.73 0.152,1.426 0.426,2.059 0.976,-1.323 2.482,-2.233 4.207,-2.405 m -4.206,3.878 c -0.273,0.633 -0.424,1.329 -0.424,2.06 0.002,2.669 2.019,4.872 4.604,5.178 -0.321,-0.731 -0.502,-1.536 -0.501,-2.384 -0.001,-0.876 0.192,-1.705 0.534,-2.456 -1.726,-0.167 -3.234,-1.075 -4.213,-2.398 m 4.602,1.675 c 0.698,-1.103 1.743,-1.958 2.984,-2.415 -1.242,-0.457 -2.288,-1.312 -2.988,-2.413 -1.768,0.066 -3.311,1.013 -4.204,2.417 0.897,1.402 2.441,2.346 4.208,2.411 m 9.656,-10.428 c -1.766,0.075 -3.306,1.028 -4.194,2.437 0.44,0.83 0.693,1.773 0.693,2.776 -10e-4,0.347 -0.035,0.684 -0.092,1.015 0.979,-0.819 2.225,-1.324 3.585,-1.377 0.386,-0.728 0.607,-1.557 0.605,-2.436 -0.002,-0.872 -0.218,-1.691 -0.597,-2.415 m 0.606,13.6 C -4.838,7.512 -5.06,6.684 -5.446,5.956 -6.808,5.904 -8.053,5.401 -9.034,4.583 -8.978,4.914 -8.94,5.252 -8.94,5.6 c 0,1.001 -0.25,1.945 -0.688,2.776 0.889,1.406 2.431,2.357 4.196,2.431 0.378,-0.724 0.595,-1.543 0.595,-2.414 M 0.004,5.592 C 0.004,4.86 -0.15,4.164 -0.423,3.531 -1.4,4.856 -2.907,5.767 -4.631,5.937 c 0.341,0.75 0.535,1.579 0.536,2.456 10e-4,0.846 -0.178,1.652 -0.499,2.383 2.586,-0.309 4.6,-2.514 4.598,-5.184 m 0.744,0 c 0.002,3.219 -2.562,5.846 -5.755,5.959 -1.054,1.682 -2.92,2.807 -5.047,2.808 -2.129,0.002 -3.996,-1.121 -5.053,-2.802 -3.194,-0.109 -5.761,-2.731 -5.762,-5.95 -0.001,-1.01 0.251,-1.962 0.698,-2.796 -0.447,-0.835 -0.702,-1.787 -0.702,-2.797 -0.002,-3.219 2.56,-5.846 5.755,-5.958 1.054,-1.683 2.918,-2.808 5.048,-2.81 2.127,-0.002 3.995,1.122 5.052,2.803 3.192,0.108 5.759,2.73 5.761,5.949 0.001,1.011 -0.254,1.963 -0.697,2.798 0.445,0.835 0.7,1.785 0.702,2.796" />
      </g>
      <g
         transform="translate(536.1476,618.4221)"
         id="g875"
         style="fill:#1f184b;fill-opacity:1">
        <path
           inkscape:connector-curvature="0"
           id="path877"
           style="fill:#1f184b;fill-opacity:1;fill-rule:nonzero;stroke:none"
           d="M 0,0 -1.261,3.231 C -1.298,3.32 -1.328,3.336 -1.418,3.357 l -0.32,0.068 0.09,0.41 h 1.567 V 3.425 L -0.597,3.365 0.411,0.582 1.433,3.365 0.934,3.425 1.016,3.835 H 2.463 V 3.425 L 2.217,3.38 C 2.112,3.357 2.067,3.343 2.03,3.253 L 0.776,0 Z" />
      </g>
      <g
         transform="translate(540.2804,623.0861)"
         id="g879"
         style="fill:#1f184b;fill-opacity:1">
        <path
           inkscape:connector-curvature="0"
           id="path881"
           style="fill:#1f184b;fill-opacity:1;fill-rule:nonzero;stroke:none"
           d="m 0,0 c -0.306,0 -0.484,0.172 -0.484,0.478 0,0.297 0.178,0.47 0.484,0.47 0.307,0 0.478,-0.173 0.478,-0.47 C 0.478,0.172 0.307,0 0,0 m -0.851,-4.664 v 0.41 l 0.493,0.045 c 0.104,0.008 0.12,0.037 0.12,0.149 v 2.538 c 0,0.082 -0.023,0.133 -0.097,0.157 l -0.426,0.141 0.068,0.395 H 0.44 V -4.06 c 0,-0.12 0.008,-0.134 0.12,-0.149 l 0.477,-0.052 v -0.403 z" />
      </g>
      <g
         transform="translate(545.048,621.3693)"
         id="g883"
         style="fill:#1f184b;fill-opacity:1">
        <path
           inkscape:connector-curvature="0"
           id="path885"
           style="fill:#1f184b;fill-opacity:1;fill-rule:nonzero;stroke:none"
           d="m 0,0 c -0.224,0.187 -0.626,0.403 -1.021,0.403 -0.703,0 -0.978,-0.612 -0.978,-1.5 0,-1.037 0.351,-1.373 0.873,-1.373 0.439,0 0.798,0.291 1.126,0.619 z m 0.128,-2.947 -0.061,0.492 -0.029,0.008 c -0.344,-0.328 -0.731,-0.59 -1.313,-0.59 -0.851,0 -1.411,0.553 -1.411,1.926 0,1.469 0.665,2.074 1.56,2.074 0.447,0 0.851,-0.15 1.142,-0.359 V 2 c 0,0.074 -0.031,0.127 -0.097,0.149 l -0.448,0.142 0.067,0.396 H 0.68 v -5.03 c 0,-0.12 0.007,-0.135 0.119,-0.149 L 1.18,-2.544 v -0.403 z" />
      </g>
      <g
         transform="translate(549.7032,620.1379)"
         id="g887"
         style="fill:#1f184b;fill-opacity:1">
        <path
           inkscape:connector-curvature="0"
           id="path889"
           style="fill:#1f184b;fill-opacity:1;fill-rule:nonzero;stroke:none"
           d="m 0,0 -0.843,-0.074 c -0.641,-0.061 -0.821,-0.246 -0.821,-0.634 0,-0.403 0.172,-0.567 0.522,-0.567 0.441,0 0.911,0.357 1.142,0.574 z M 0.127,-1.716 0.06,-1.231 0.037,-1.224 c -0.357,-0.335 -0.775,-0.582 -1.35,-0.582 -0.933,0 -1.052,0.642 -1.052,1.023 0,0.746 0.463,1.096 1.358,1.172 L 0,0.471 V 0.866 C 0,1.411 -0.104,1.68 -0.753,1.68 -1.209,1.68 -1.537,1.664 -1.545,1.105 l -0.642,0.067 c 0,0.918 0.852,1.022 1.441,1.022 1.059,0 1.418,-0.298 1.418,-1.328 v -1.977 c 0,-0.12 0.008,-0.135 0.119,-0.15 l 0.381,-0.051 v -0.404 z" />
      </g>
      <g
         transform="translate(555.2755,619.3771)"
         id="g891"
         style="fill:#1f184b;fill-opacity:1">
        <path
           inkscape:connector-curvature="0"
           id="path893"
           style="fill:#1f184b;fill-opacity:1;fill-rule:nonzero;stroke:none"
           d="M 0,0 C 0.254,-0.246 0.627,-0.485 1.022,-0.485 1.731,-0.485 2,0.104 2,1.045 2,2.06 1.604,2.381 1.143,2.381 0.665,2.381 0.217,2.089 0,1.918 Z m -1.104,-2.537 v 0.41 l 0.306,0.045 c 0.105,0.015 0.127,0.037 0.127,0.149 v 4.12 c 0,0.082 -0.022,0.133 -0.098,0.157 l -0.424,0.141 0.067,0.395 h 0.984 L -0.074,2.447 -0.052,2.44 c 0.41,0.306 0.828,0.515 1.336,0.515 0.835,0 1.404,-0.537 1.404,-1.851 0,-1.119 -0.381,-2.149 -1.553,-2.149 -0.425,0 -0.783,0.105 -1.135,0.41 v -1.29 c 0,-0.12 0.008,-0.142 0.12,-0.15 l 0.701,-0.06 v -0.402 z" />
      </g>
      <g
         transform="translate(559.1925,618.4221)"
         id="g895"
         style="fill:#1f184b;fill-opacity:1">
        <path
           inkscape:connector-curvature="0"
           id="path897"
           style="fill:#1f184b;fill-opacity:1;fill-rule:nonzero;stroke:none"
           d="M 0,0 V 0.41 L 0.373,0.455 C 0.478,0.47 0.492,0.492 0.492,0.604 v 2.538 c 0,0.082 -0.022,0.133 -0.096,0.157 L -0.03,3.44 0.037,3.835 H 1.015 L 1.089,3.32 1.112,3.313 C 1.357,3.589 1.724,3.91 2.23,3.91 2.402,3.91 2.634,3.881 2.769,3.843 V 2.717 L 2.238,2.738 2.148,3.253 C 2.142,3.313 2.127,3.328 2.06,3.328 1.724,3.328 1.343,3.022 1.171,2.858 V 0.611 c 0,-0.119 0.008,-0.141 0.12,-0.148 L 1.978,0.403 V 0 Z" />
      </g>
      <g
         transform="translate(565.8624,620.3547)"
         id="g899"
         style="fill:#1f184b;fill-opacity:1">
        <path
           inkscape:connector-curvature="0"
           id="path901"
           style="fill:#1f184b;fill-opacity:1;fill-rule:nonzero;stroke:none"
           d="m 0,0 c 0,0.978 -0.358,1.41 -1.082,1.41 -0.731,0 -1.156,-0.432 -1.156,-1.418 0,-0.992 0.38,-1.47 1.119,-1.47 C -0.396,-1.478 0,-1.022 0,0 m -2.94,0 c 0,1.172 0.597,1.978 1.873,1.978 1.276,0 1.768,-0.814 1.768,-1.933 0,-1.254 -0.566,-2.067 -1.843,-2.067 -1.298,0 -1.798,0.835 -1.798,2.022" />
      </g>
      <g
         transform="translate(570.2863,618.5637)"
         id="g903"
         style="fill:#1f184b;fill-opacity:1">
        <path
           inkscape:connector-curvature="0"
           id="path905"
           style="fill:#1f184b;fill-opacity:1;fill-rule:nonzero;stroke:none"
           d="m 0,0 c -0.298,-0.119 -0.657,-0.231 -1.037,-0.231 -0.717,0 -1.037,0.335 -1.037,1.007 v 2.328 c 0,0.044 0,0.075 -0.06,0.075 h -0.545 v 0.432 c 0.582,0.076 0.746,0.307 0.843,1.068 h 0.44 v -0.91 c 0,-0.045 0,-0.076 0.06,-0.076 h 1.097 V 3.179 H -1.396 V 0.978 c 0,-0.47 0.113,-0.65 0.538,-0.65 0.231,0 0.493,0.068 0.694,0.15 z" />
      </g>
      <g
         transform="translate(573.6583,620.6906)"
         id="g907"
         style="fill:#1f184b;fill-opacity:1">
        <path
           inkscape:connector-curvature="0"
           id="path909"
           style="fill:#1f184b;fill-opacity:1;fill-rule:nonzero;stroke:none"
           d="m 0,0 c -0.015,0.851 -0.403,1.097 -0.858,1.097 -0.5,0 -0.918,-0.269 -0.978,-1.097 z m 0.59,-2.022 c -0.374,-0.209 -0.821,-0.336 -1.359,-0.336 -1.35,0 -1.791,0.887 -1.791,2 0,1.365 0.761,2 1.702,2 0.911,0 1.537,-0.494 1.537,-1.785 0,-0.096 -0.007,-0.246 -0.015,-0.373 h -2.508 c 0.024,-0.754 0.329,-1.268 1.143,-1.268 0.418,0 0.679,0.075 1.074,0.269 z" />
      </g>
      <g
         transform="translate(577.1788,621.7873)"
         id="g911"
         style="fill:#1f184b;fill-opacity:1">
        <path
           inkscape:connector-curvature="0"
           id="path913"
           style="fill:#1f184b;fill-opacity:1;fill-rule:nonzero;stroke:none"
           d="m 0,0 c -0.544,0 -0.933,-0.269 -0.933,-0.851 0,-0.44 0.254,-0.798 0.912,-0.798 0.559,0 0.91,0.329 0.91,0.843 C 0.889,-0.299 0.561,0 0,0 m -0.775,-3.402 c -0.135,-0.142 -0.329,-0.36 -0.329,-0.619 0,-0.404 0.418,-0.494 1.149,-0.501 0.395,0 1.157,0.06 1.157,0.626 0,0.352 -0.291,0.381 -0.776,0.426 z m 2.051,3.342 c 0.158,-0.194 0.277,-0.425 0.277,-0.776 0,-0.881 -0.68,-1.373 -1.553,-1.373 -0.253,0 -0.478,0.03 -0.634,0.09 l -0.336,-0.65 0.918,-0.051 c 1.344,-0.076 1.948,-0.142 1.948,-1.023 0,-0.739 -0.634,-1.201 -1.933,-1.201 -1.291,0 -1.738,0.351 -1.738,0.918 0,0.364 0.201,0.582 0.455,0.843 -0.209,0.066 -0.328,0.201 -0.328,0.402 0,0.127 0.059,0.255 0.164,0.411 0.119,0.171 0.275,0.359 0.41,0.537 -0.328,0.179 -0.56,0.552 -0.56,1.06 0,0.836 0.605,1.418 1.619,1.418 0.269,0 0.508,-0.029 0.664,-0.075 h 1.329 v -0.478 z" />
      </g>
      <g
         transform="translate(580.8273,623.0861)"
         id="g915"
         style="fill:#1f184b;fill-opacity:1">
        <path
           inkscape:connector-curvature="0"
           id="path917"
           style="fill:#1f184b;fill-opacity:1;fill-rule:nonzero;stroke:none"
           d="m 0,0 c -0.306,0 -0.485,0.172 -0.485,0.478 0,0.297 0.179,0.47 0.485,0.47 0.306,0 0.478,-0.173 0.478,-0.47 C 0.478,0.172 0.306,0 0,0 m -0.851,-4.664 v 0.41 l 0.493,0.045 c 0.104,0.008 0.119,0.037 0.119,0.149 v 2.538 c 0,0.082 -0.022,0.133 -0.097,0.157 l -0.425,0.141 0.067,0.395 H 0.44 V -4.06 c 0,-0.12 0.008,-0.134 0.12,-0.149 l 0.477,-0.052 v -0.403 z" />
      </g>
      <g
         transform="translate(585.3409,620.6906)"
         id="g919"
         style="fill:#1f184b;fill-opacity:1">
        <path
           inkscape:connector-curvature="0"
           id="path921"
           style="fill:#1f184b;fill-opacity:1;fill-rule:nonzero;stroke:none"
           d="m 0,0 c -0.015,0.851 -0.403,1.097 -0.858,1.097 -0.5,0 -0.918,-0.269 -0.978,-1.097 z m 0.59,-2.022 c -0.374,-0.209 -0.821,-0.336 -1.359,-0.336 -1.35,0 -1.791,0.887 -1.791,2 0,1.365 0.761,2 1.702,2 0.911,0 1.537,-0.494 1.537,-1.785 0,-0.096 -0.007,-0.246 -0.015,-0.373 h -2.507 c 0.023,-0.754 0.328,-1.268 1.141,-1.268 0.419,0 0.68,0.075 1.075,0.269 z" />
      </g>
      <g
         transform="translate(589.6534,618.4221)"
         id="g923"
         style="fill:#1f184b;fill-opacity:1">
        <path
           inkscape:connector-curvature="0"
           id="path925"
           style="fill:#1f184b;fill-opacity:1;fill-rule:nonzero;stroke:none"
           d="M 0,0 V 0.41 L 0.357,0.455 C 0.455,0.463 0.492,0.5 0.492,0.604 v 1.769 c 0,0.485 -0.096,0.955 -0.649,0.955 -0.425,0 -0.828,-0.209 -1.156,-0.477 V 0.604 c 0,-0.12 0.007,-0.134 0.119,-0.149 L -0.776,0.403 V 0 h -1.709 v 0.41 l 0.373,0.045 c 0.104,0.015 0.119,0.037 0.119,0.149 v 2.538 c 0,0.082 -0.022,0.133 -0.097,0.157 l -0.425,0.141 0.068,0.395 h 0.976 l 0.06,-0.439 0.023,-0.008 C -1,3.663 -0.545,3.91 -0.008,3.91 0.851,3.91 1.171,3.357 1.171,2.545 V 0.604 c 0,-0.12 0.008,-0.134 0.12,-0.149 L 1.716,0.403 V 0 Z" />
      </g>
      <g
         transform="translate(595.1593,621.3693)"
         id="g927"
         style="fill:#1f184b;fill-opacity:1">
        <path
           inkscape:connector-curvature="0"
           id="path929"
           style="fill:#1f184b;fill-opacity:1;fill-rule:nonzero;stroke:none"
           d="m 0,0 c -0.225,0.187 -0.627,0.403 -1.022,0.403 -0.703,0 -0.978,-0.612 -0.978,-1.5 0,-1.037 0.351,-1.373 0.873,-1.373 0.44,0 0.798,0.291 1.127,0.619 z m 0.127,-2.947 -0.061,0.492 -0.029,0.008 c -0.344,-0.328 -0.731,-0.59 -1.313,-0.59 -0.851,0 -1.411,0.553 -1.411,1.926 0,1.469 0.665,2.074 1.56,2.074 0.447,0 0.851,-0.15 1.142,-0.359 V 2 c 0,0.074 -0.031,0.127 -0.097,0.149 l -0.448,0.142 0.067,0.396 h 1.142 v -5.03 c 0,-0.12 0.008,-0.135 0.119,-0.149 l 0.381,-0.052 v -0.403 z" />
      </g>
      <g
         transform="translate(600.3439,620.3547)"
         id="g931"
         style="fill:#1f184b;fill-opacity:1">
        <path
           inkscape:connector-curvature="0"
           id="path933"
           style="fill:#1f184b;fill-opacity:1;fill-rule:nonzero;stroke:none"
           d="m 0,0 c 0,0.978 -0.358,1.41 -1.082,1.41 -0.731,0 -1.156,-0.432 -1.156,-1.418 0,-0.992 0.38,-1.47 1.118,-1.47 C -0.396,-1.478 0,-1.022 0,0 m -2.94,0 c 0,1.172 0.596,1.978 1.873,1.978 1.276,0 1.768,-0.814 1.768,-1.933 0,-1.254 -0.567,-2.067 -1.843,-2.067 -1.298,0 -1.798,0.835 -1.798,2.022" />
      </g>
      <g
         transform="translate(605.9161,618.4221)"
         id="g935"
         style="fill:#1f184b;fill-opacity:1">
        <path
           inkscape:connector-curvature="0"
           id="path937"
           style="fill:#1f184b;fill-opacity:1;fill-rule:nonzero;stroke:none"
           d="M 0,0 -1.261,3.231 C -1.299,3.32 -1.328,3.336 -1.418,3.357 l -0.321,0.068 0.09,0.41 h 1.566 v -0.41 l -0.515,-0.06 1.008,-2.783 1.023,2.783 -0.5,0.06 0.082,0.41 H 2.462 V 3.425 L 2.216,3.38 C 2.112,3.357 2.066,3.343 2.029,3.253 L 0.775,0 Z" />
      </g>
      <g
         transform="translate(610.049,623.0861)"
         id="g939"
         style="fill:#1f184b;fill-opacity:1">
        <path
           inkscape:connector-curvature="0"
           id="path941"
           style="fill:#1f184b;fill-opacity:1;fill-rule:nonzero;stroke:none"
           d="m 0,0 c -0.306,0 -0.485,0.172 -0.485,0.478 0,0.297 0.179,0.47 0.485,0.47 0.307,0 0.478,-0.173 0.478,-0.47 C 0.478,0.172 0.307,0 0,0 m -0.851,-4.664 v 0.41 l 0.493,0.045 c 0.104,0.008 0.12,0.037 0.12,0.149 v 2.538 c 0,0.082 -0.023,0.133 -0.098,0.157 l -0.426,0.141 0.068,0.395 H 0.44 V -4.06 c 0,-0.12 0.008,-0.134 0.12,-0.149 l 0.477,-0.052 v -0.403 z" />
      </g>
      <g
         transform="translate(614.8165,621.3693)"
         id="g943"
         style="fill:#1f184b;fill-opacity:1">
        <path
           inkscape:connector-curvature="0"
           id="path945"
           style="fill:#1f184b;fill-opacity:1;fill-rule:nonzero;stroke:none"
           d="m 0,0 c -0.224,0.187 -0.627,0.403 -1.022,0.403 -0.702,0 -0.978,-0.612 -0.978,-1.5 0,-1.037 0.351,-1.373 0.873,-1.373 0.44,0 0.799,0.291 1.127,0.619 z m 0.127,-2.947 -0.061,0.492 -0.029,0.008 c -0.344,-0.328 -0.731,-0.59 -1.313,-0.59 -0.851,0 -1.411,0.553 -1.411,1.926 0,1.469 0.665,2.074 1.56,2.074 0.447,0 0.851,-0.15 1.142,-0.359 V 2 c 0,0.074 -0.03,0.127 -0.097,0.149 l -0.447,0.142 0.066,0.396 h 1.142 v -5.03 c 0,-0.12 0.008,-0.135 0.12,-0.149 l 0.38,-0.052 v -0.403 z" />
      </g>
      <g
         transform="translate(619.4718,620.1379)"
         id="g947"
         style="fill:#1f184b;fill-opacity:1">
        <path
           inkscape:connector-curvature="0"
           id="path949"
           style="fill:#1f184b;fill-opacity:1;fill-rule:nonzero;stroke:none"
           d="m 0,0 -0.843,-0.074 c -0.642,-0.061 -0.821,-0.246 -0.821,-0.634 0,-0.403 0.172,-0.567 0.522,-0.567 0.441,0 0.911,0.357 1.142,0.574 z M 0.127,-1.716 0.06,-1.231 0.038,-1.224 c -0.359,-0.335 -0.776,-0.582 -1.351,-0.582 -0.933,0 -1.052,0.642 -1.052,1.023 0,0.746 0.463,1.096 1.357,1.172 L 0,0.471 V 0.866 C 0,1.411 -0.104,1.68 -0.754,1.68 -1.209,1.68 -1.537,1.664 -1.545,1.105 l -0.642,0.067 c 0,0.918 0.851,1.022 1.441,1.022 1.059,0 1.418,-0.298 1.418,-1.328 v -1.977 c 0,-0.12 0.007,-0.135 0.119,-0.15 l 0.381,-0.051 v -0.404 z" />
      </g>
      <path
         inkscape:connector-curvature="0"
         id="path951"
         style="fill:#1f184b;fill-opacity:1;fill-rule:nonzero;stroke:none"
         d="m 637.852,620.142 h -15.095 v 0.777 h 15.095 z" />
    </g>
  </g>
</svg>
