<?xml version="1.0" encoding="UTF-8" standalone="no"?>
<!-- Created with Inkscape (http://www.inkscape.org/) -->

<svg
   xmlns:dc="http://purl.org/dc/elements/1.1/"
   xmlns:cc="http://creativecommons.org/ns#"
   xmlns:rdf="http://www.w3.org/1999/02/22-rdf-syntax-ns#"
   xmlns:svg="http://www.w3.org/2000/svg"
   xmlns="http://www.w3.org/2000/svg"
   xmlns:sodipodi="http://sodipodi.sourceforge.net/DTD/sodipodi-0.dtd"
   xmlns:inkscape="http://www.inkscape.org/namespaces/inkscape"
   width="105.83334mm"
   height="51.898998mm"
   viewBox="0 0 105.83334 51.898998"
   version="1.1"
   id="svg16151"
   inkscape:version="0.92.5 (2060ec1f9f, 2020-04-08)"
   sodipodi:docname="imagotipoBionutrec2_white.svg">
  <defs
     id="defs16145" />
  <sodipodi:namedview
     id="base"
     pagecolor="#ffffff"
     bordercolor="#666666"
     borderopacity="1.0"
     inkscape:pageopacity="0.0"
     inkscape:pageshadow="2"
     inkscape:zoom="0.35"
     inkscape:cx="76.257708"
     inkscape:cy="38.151104"
     inkscape:document-units="mm"
     inkscape:current-layer="layer1"
     showgrid="false"
     inkscape:window-width="1920"
     inkscape:window-height="1016"
     inkscape:window-x="0"
     inkscape:window-y="27"
     inkscape:window-maximized="1" />
  <metadata
     id="metadata16148">
    <rdf:RDF>
      <cc:Work
         rdf:about="">
        <dc:format>image/svg+xml</dc:format>
        <dc:type
           rdf:resource="http://purl.org/dc/dcmitype/StillImage" />
        <dc:title></dc:title>
      </cc:Work>
    </rdf:RDF>
  </metadata>
  <g
     inkscape:label="Layer 1"
     inkscape:groupmode="layer"
     id="layer1"
     transform="translate(52.304495,-379.17134)">
    <g
       transform="matrix(0.97933919,0,0,-0.97933919,-173.70544,545.03545)"
       id="g16114"
       style="fill:#ffffff;fill-opacity:1">
      <g
         transform="translate(128.4874,151.2921)"
         id="g10303"
         style="fill:#ffffff;fill-opacity:1">
        <path
           inkscape:connector-curvature="0"
           id="path10305"
           style="fill:#ffffff;fill-opacity:1;fill-rule:nonzero;stroke:none"
           d="m 0,0 0.008,-5.163 h 4.337 c 1.505,0 2.274,1.362 2.274,2.627 C 6.619,-1.335 5.85,0 4.25,0 Z m 3.542,3.739 c 1.169,0 1.972,0.921 1.977,2.192 C 5.514,7.256 4.831,8.155 3.516,8.155 H 0.008 V 3.739 Z M 7.365,2.227 c 2.8,-0.72 3.997,-3.122 3.993,-4.854 0.004,-3.519 -2.554,-6.519 -6.772,-6.519 h -9.109 v 21.292 h 8.497 c 3.819,0 6.282,-2.291 6.282,-5.94 0,-1.386 -0.71,-3.146 -2.891,-3.979" />
      </g>
      <g
         transform="translate(146.8888,163.4377)"
         id="g10307"
         style="fill:#ffffff;fill-opacity:1">
        <path
           inkscape:connector-curvature="0"
           id="path10309"
           style="fill:#ffffff;fill-opacity:1;fill-rule:nonzero;stroke:none"
           d="M 0,0 V -21.293 H -4.501 L -4.497,0 Z" />
      </g>
      <g
         transform="translate(160.0792,146.3127)"
         id="g10311"
         style="fill:#ffffff;fill-opacity:1">
        <path
           inkscape:connector-curvature="0"
           id="path10313"
           style="fill:#ffffff;fill-opacity:1;fill-rule:nonzero;stroke:none"
           d="m 0,0 c 3.516,0 6.282,2.873 6.282,6.427 0,3.555 -2.766,6.456 -6.282,6.456 -3.506,0 -6.244,-2.901 -6.244,-6.456 C -6.244,2.873 -3.506,0 0,0 m 0,17.364 c 6.04,0 10.783,-4.88 10.775,-10.937 C 10.775,0.433 6.04,-4.481 0,-4.481 c -6.004,0 -10.744,4.914 -10.744,10.908 0,6.057 4.74,10.937 10.744,10.937" />
      </g>
      <g
         transform="translate(139.8771,116.6828)"
         id="g10315"
         style="fill:#ffffff;fill-opacity:1">
        <path
           inkscape:connector-curvature="0"
           id="path10317"
           style="fill:#ffffff;fill-opacity:1;fill-rule:nonzero;stroke:none"
           d="m 0,0 h -4.033 l -7.383,12.883 -0.003,-12.877 h -4.496 v 21.28 h 4.129 L -4.531,8.563 -4.525,21.28 h 4.527 z" />
      </g>
      <g
         transform="translate(155.3678,124.2804)"
         id="g10319"
         style="fill:#ffffff;fill-opacity:1">
        <path
           inkscape:connector-curvature="0"
           id="path10321"
           style="fill:#ffffff;fill-opacity:1;fill-rule:nonzero;stroke:none"
           d="M 0,0 V 13.681 H 4.525 V 0 c 0,-4.814 -3.847,-7.905 -8.185,-7.905 -4.369,0 -8.251,3.091 -8.251,7.905 v 13.681 h 4.584 V 0 c 0,-2.192 1.757,-3.646 3.667,-3.646 C -1.785,-3.646 0,-2.192 0,0" />
      </g>
      <g
         transform="translate(161.4176,137.963)"
         id="g10323"
         style="fill:#ffffff;fill-opacity:1">
        <path
           inkscape:connector-curvature="0"
           id="path10325"
           style="fill:#ffffff;fill-opacity:1;fill-rule:nonzero;stroke:none"
           d="M 0,0 H 16 V -4.075 H 10.282 V -21.28 H 5.717 V -4.075 H 0 Z" />
      </g>
      <g
         transform="translate(183.5607,133.9777)"
         id="g10327"
         style="fill:#ffffff;fill-opacity:1">
        <path
           inkscape:connector-curvature="0"
           id="path10329"
           style="fill:#ffffff;fill-opacity:1;fill-rule:nonzero;stroke:none"
           d="m 0,0 v -5.988 l 3.823,-0.007 c 1.753,0 2.675,1.616 2.669,3.001 C 6.492,-1.666 5.632,0 3.944,0 Z m 11.172,-17.304 -5.409,0.009 -4.747,7.351 H 0 v -7.351 H -4.521 V 3.985 H 4.16 c 4.807,0 7.044,-3.49 7.044,-6.979 0,-3.025 -1.658,-5.997 -5.291,-6.773 z" />
      </g>
      <g
         transform="translate(197.4015,137.963)"
         id="g10331"
         style="fill:#ffffff;fill-opacity:1">
        <path
           inkscape:connector-curvature="0"
           id="path10333"
           style="fill:#ffffff;fill-opacity:1;fill-rule:nonzero;stroke:none"
           d="M 0,0 H 13.424 V -3.987 H 4.489 v -4.851 h 7.825 v -3.918 H 4.489 l 0.005,-4.547 h 9.21 v -3.984 L 0,-21.28 Z" />
      </g>
      <g
         transform="translate(231.9201,121.0324)"
         id="g10335"
         style="fill:#ffffff;fill-opacity:1">
        <path
           inkscape:connector-curvature="0"
           id="path10337"
           style="fill:#ffffff;fill-opacity:1;fill-rule:nonzero;stroke:none"
           d="m 0,0 c -1.844,-2.812 -5.076,-4.663 -8.927,-4.663 -6.068,0 -10.644,4.909 -10.644,10.914 0,6.05 4.592,10.934 10.65,10.926 3.785,0.008 6.985,-1.785 8.838,-4.518 l -3.668,-2.528 c -1.139,1.674 -2.985,2.79 -5.176,2.778 -3.535,0.012 -6.123,-2.958 -6.123,-6.669 0,-3.666 2.588,-6.638 6.123,-6.638 2.225,0 4.158,1.2 5.302,2.926 z" />
      </g>
      <g
         transform="translate(199.7116,152.0793)"
         id="g10339"
         style="fill:#ffffff;fill-opacity:1">
        <path
           inkscape:connector-curvature="0"
           id="path10341"
           style="fill:#ffffff;fill-opacity:1;fill-rule:nonzero;stroke:none"
           d="m 0,0 c 0,-3.208 -2.417,-5.852 -5.526,-6.215 0.388,0.875 0.599,1.843 0.599,2.858 0,1.051 -0.224,2.05 -0.639,2.951 2.07,0.202 3.88,1.287 5.048,2.875 C -0.185,1.716 0,0.881 0,0 m -12.084,16.341 c 2.052,0 3.861,-0.991 5.003,-2.516 -2.056,-0.226 -3.851,-1.335 -5.003,-2.949 -1.152,1.604 -2.942,2.723 -5.004,2.949 1.144,1.525 2.964,2.516 5.004,2.516 M -9.621,3.357 c 1.485,0.561 2.75,1.577 3.583,2.899 C -3.912,6.175 -2.06,5.043 -0.983,3.357 -2.06,1.672 -3.912,0.541 -6.038,0.464 -6.871,1.78 -8.136,2.81 -9.621,3.357 m -3.811,3.361 c 0,-0.418 0.045,-0.824 0.117,-1.217 -1.178,0.976 -2.675,1.592 -4.303,1.649 -0.472,0.875 -0.734,1.871 -0.734,2.919 0,1.053 0.262,2.035 0.714,2.904 2.13,-0.096 3.97,-1.236 5.034,-2.93 -0.521,-0.993 -0.828,-2.125 -0.828,-3.325 m 1.348,-10.878 c 1.152,-1.607 2.947,-2.719 5.001,-2.95 -1.14,-1.53 -2.949,-2.511 -5.001,-2.519 -2.05,0 -3.86,0.989 -5.004,2.519 2.062,0.231 3.852,1.343 5.004,2.95 m -6.268,0.803 c 0,1.059 0.262,2.05 0.734,2.919 1.628,0.077 3.125,0.676 4.303,1.66 -0.072,-0.403 -0.117,-0.803 -0.117,-1.222 0,-1.208 0.307,-2.34 0.828,-3.333 -1.064,-1.693 -2.904,-2.836 -5.034,-2.925 -0.452,0.868 -0.714,1.86 -0.714,2.901 m -0.252,2.951 c -0.402,-0.906 -0.644,-1.9 -0.644,-2.951 0,-1.015 0.22,-1.983 0.607,-2.858 -3.108,0.363 -5.529,3.007 -5.529,6.215 0,0.881 0.187,1.716 0.512,2.469 1.174,-1.588 2.986,-2.673 5.054,-2.875 m -5.054,4.645 c -0.325,0.758 -0.512,1.595 -0.512,2.479 0,3.205 2.421,5.844 5.529,6.213 -0.383,-0.876 -0.603,-1.844 -0.607,-2.862 0,-1.048 0.242,-2.044 0.644,-2.946 -2.068,-0.203 -3.88,-1.289 -5.054,-2.884 m 5.529,2.017 c 0.836,-1.322 2.093,-2.338 3.579,-2.899 -1.486,-0.547 -2.747,-1.577 -3.579,-2.893 -2.13,0.077 -3.978,1.208 -5.057,2.893 1.079,1.686 2.927,2.818 5.057,2.899 M -6.53,-6.258 c -2.117,0.089 -3.973,1.232 -5.036,2.925 0.527,0.993 0.825,2.125 0.825,3.333 0.008,0.419 -0.04,0.819 -0.108,1.222 1.175,-0.984 2.669,-1.583 4.304,-1.66 0.465,-0.869 0.731,-1.86 0.731,-2.919 C -5.822,-4.408 -6.08,-5.39 -6.53,-6.258 m 0.716,16.327 C -5.814,9.021 -6.08,8.025 -6.545,7.15 -8.18,7.083 -9.674,6.477 -10.849,5.501 c 0.068,0.393 0.116,0.799 0.108,1.217 0,1.2 -0.298,2.332 -0.825,3.325 1.063,1.694 2.919,2.834 5.036,2.93 0.45,-0.869 0.716,-1.851 0.716,-2.904 M 0,6.718 C 0,5.834 -0.185,4.997 -0.518,4.239 -1.686,5.834 -3.496,6.92 -5.566,7.123 c 0.415,0.902 0.639,1.898 0.639,2.946 0.008,1.018 -0.211,1.986 -0.595,2.862 C -2.417,12.562 0,9.923 0,6.718 m 0.895,0 c 0,3.861 -3.088,7.011 -6.917,7.146 -1.265,2.015 -3.504,3.367 -6.062,3.367 -2.552,0 -4.792,-1.352 -6.062,-3.367 -3.84,-0.135 -6.916,-3.277 -6.916,-7.146 0,-1.217 0.31,-2.352 0.845,-3.361 -0.545,-1.003 -0.845,-2.141 -0.845,-3.357 0,-3.867 3.076,-7.018 6.916,-7.15 1.27,-2.011 3.506,-3.373 6.062,-3.373 2.55,0 4.797,1.356 6.062,3.373 3.829,0.132 6.917,3.283 6.917,7.15 0,1.216 -0.314,2.354 -0.837,3.357 0.523,1.001 0.837,2.144 0.837,3.361" />
      </g>
    </g>
  </g>
</svg>
