<?xml version="1.0" encoding="UTF-8" standalone="no"?>
<!-- Created with Inkscape (http://www.inkscape.org/) -->

<svg
   xmlns:dc="http://purl.org/dc/elements/1.1/"
   xmlns:cc="http://creativecommons.org/ns#"
   xmlns:rdf="http://www.w3.org/1999/02/22-rdf-syntax-ns#"
   xmlns:svg="http://www.w3.org/2000/svg"
   xmlns="http://www.w3.org/2000/svg"
   xmlns:sodipodi="http://sodipodi.sourceforge.net/DTD/sodipodi-0.dtd"
   xmlns:inkscape="http://www.inkscape.org/namespaces/inkscape"
   width="102.25082mm"
   height="42.840744mm"
   viewBox="0 0 102.25081 42.840744"
   version="1.1"
   id="svg11912"
   inkscape:version="0.92.5 (2060ec1f9f, 2020-04-08)"
   sodipodi:docname="inmufortKidsDrawing02.svg">
  <defs
     id="defs11906">
    <clipPath
       clipPathUnits="userSpaceOnUse"
       id="clipPath6595">
      <path
         d="m 746.554,506.312 h 23.513 v -39.853 h -23.513 z"
         id="path6593"
         inkscape:connector-curvature="0" />
    </clipPath>
    <clipPath
       clipPathUnits="userSpaceOnUse"
       id="clipPath6611">
      <path
         d="m 747.542,464.561 h 2.602 v -8.863 h -2.602 z"
         id="path6609"
         inkscape:connector-curvature="0" />
    </clipPath>
    <clipPath
       clipPathUnits="userSpaceOnUse"
       id="clipPath6627">
      <path
         d="m 749.457,479.244 h 1.827 v -18.447 h -1.827 z"
         id="path6625"
         inkscape:connector-curvature="0" />
    </clipPath>
    <clipPath
       clipPathUnits="userSpaceOnUse"
       id="clipPath6643">
      <path
         d="m 758.698,479.746 h 2.347 v -18.541 h -2.347 z"
         id="path6641"
         inkscape:connector-curvature="0" />
    </clipPath>
    <clipPath
       clipPathUnits="userSpaceOnUse"
       id="clipPath6659">
      <path
         d="m 773.439,501.739 h 8.383 v -7.846 h -8.383 z"
         id="path6657"
         inkscape:connector-curvature="0" />
    </clipPath>
    <clipPath
       clipPathUnits="userSpaceOnUse"
       id="clipPath6679">
      <path
         d="m 617.931,457.827 h 14.007 v -12.903 h -14.007 z"
         id="path6677"
         inkscape:connector-curvature="0" />
    </clipPath>
    <clipPath
       clipPathUnits="userSpaceOnUse"
       id="clipPath6695">
      <path
         d="m 612.048,457.086 h 4.614 v -6.015 h -4.614 z"
         id="path6693"
         inkscape:connector-curvature="0" />
    </clipPath>
    <clipPath
       clipPathUnits="userSpaceOnUse"
       id="clipPath6711">
      <path
         d="m 615.089,455.419 h 9.386 v -3.306 h -9.386 z"
         id="path6709"
         inkscape:connector-curvature="0" />
    </clipPath>
    <clipPath
       clipPathUnits="userSpaceOnUse"
       id="clipPath6735">
      <path
         d="m 771.704,431.136 h 20.799 v -2.043 h -20.799 z"
         id="path6733"
         inkscape:connector-curvature="0" />
    </clipPath>
    <clipPath
       clipPathUnits="userSpaceOnUse"
       id="clipPath6751">
      <path
         d="m 750.013,439.193 h 41.073 v -4.912 h -41.073 z"
         id="path6749"
         inkscape:connector-curvature="0" />
    </clipPath>
    <clipPath
       clipPathUnits="userSpaceOnUse"
       id="clipPath6767">
      <path
         d="m 776.398,482.626 h 37.836 v -24.659 h -37.836 z"
         id="path6765"
         inkscape:connector-curvature="0" />
    </clipPath>
    <clipPath
       clipPathUnits="userSpaceOnUse"
       id="clipPath6783">
      <path
         d="m 760.302,456.614 h 23.469 v -7.306 h -23.469 z"
         id="path6781"
         inkscape:connector-curvature="0" />
    </clipPath>
    <clipPath
       clipPathUnits="userSpaceOnUse"
       id="clipPath6799">
      <path
         d="m 583.622,469.543 h 13.932 V 449.36 h -13.932 z"
         id="path6797"
         inkscape:connector-curvature="0" />
    </clipPath>
    <clipPath
       clipPathUnits="userSpaceOnUse"
       id="clipPath6815">
      <path
         d="m 588.675,457.523 h 9.022 v -23.432 h -9.022 z"
         id="path6813"
         inkscape:connector-curvature="0" />
    </clipPath>
    <clipPath
       clipPathUnits="userSpaceOnUse"
       id="clipPath6831">
      <path
         d="m 601.278,455.091 h 70.128 v -21.867 h -70.128 z"
         id="path6829"
         inkscape:connector-curvature="0" />
    </clipPath>
    <clipPath
       clipPathUnits="userSpaceOnUse"
       id="clipPath6863">
      <path
         d="m 601.575,473.696 h 1.829 v -3.2 h -1.829 z"
         id="path6861"
         inkscape:connector-curvature="0" />
    </clipPath>
    <clipPath
       clipPathUnits="userSpaceOnUse"
       id="clipPath6879">
      <path
         d="m 583.024,477.651 h 18.119 v -9.412 h -18.119 z"
         id="path6877"
         inkscape:connector-curvature="0" />
    </clipPath>
    <clipPath
       clipPathUnits="userSpaceOnUse"
       id="clipPath6895">
      <path
         d="m 608.913,445.127 h 3.617 v -8.535 h -3.617 z"
         id="path6893"
         inkscape:connector-curvature="0" />
    </clipPath>
    <clipPath
       clipPathUnits="userSpaceOnUse"
       id="clipPath6911">
      <path
         d="m 608.913,436.592 h 14.715 v -13.951 h -14.715 z"
         id="path6909"
         inkscape:connector-curvature="0" />
    </clipPath>
    <clipPath
       clipPathUnits="userSpaceOnUse"
       id="clipPath6939">
      <path
         d="m 605.801,470.496 h 17.279 v -7.638 h -17.279 z"
         id="path6937"
         inkscape:connector-curvature="0" />
    </clipPath>
    <clipPath
       clipPathUnits="userSpaceOnUse"
       id="clipPath6955">
      <path
         d="m 599.023,441.305 h 12.178 v -8.973 h -12.178 z"
         id="path6953"
         inkscape:connector-curvature="0" />
    </clipPath>
    <clipPath
       clipPathUnits="userSpaceOnUse"
       id="clipPath7011">
      <path
         d="m 655.532,472.48 h 6.795 v -10.503 h -6.795 z"
         id="path7009"
         inkscape:connector-curvature="0" />
    </clipPath>
    <clipPath
       clipPathUnits="userSpaceOnUse"
       id="clipPath7027">
      <path
         d="m 641.66,461.222 h 2.544 v -2.345 h -2.544 z"
         id="path7025"
         inkscape:connector-curvature="0" />
    </clipPath>
    <clipPath
       clipPathUnits="userSpaceOnUse"
       id="clipPath7043">
      <path
         d="m 642.052,472.48 h 5.842 v -4.101 h -5.842 z"
         id="path7041"
         inkscape:connector-curvature="0" />
    </clipPath>
    <clipPath
       clipPathUnits="userSpaceOnUse"
       id="clipPath7059">
      <path
         d="m 642.398,445.159 h 9.689 v -11.44 h -9.689 z"
         id="path7057"
         inkscape:connector-curvature="0" />
    </clipPath>
    <clipPath
       clipPathUnits="userSpaceOnUse"
       id="clipPath7075">
      <path
         d="m 655.89,439.588 h 15.016 V 426.892 H 655.89 Z"
         id="path7073"
         inkscape:connector-curvature="0" />
    </clipPath>
    <clipPath
       clipPathUnits="userSpaceOnUse"
       id="clipPath7099">
      <path
         d="m 645.918,430.494 h 9.04 v -5.152 h -9.04 z"
         id="path7097"
         inkscape:connector-curvature="0" />
    </clipPath>
    <clipPath
       clipPathUnits="userSpaceOnUse"
       id="clipPath7115">
      <path
         d="m 668.49,428.276 h 8.097 v -6.658 h -8.097 z"
         id="path7113"
         inkscape:connector-curvature="0" />
    </clipPath>
    <clipPath
       clipPathUnits="userSpaceOnUse"
       id="clipPath7227">
      <path
         d="m 630.724,434.968 h 12.093 v -12.093 h -12.093 z"
         id="path7225"
         inkscape:connector-curvature="0" />
    </clipPath>
    <clipPath
       clipPathUnits="userSpaceOnUse"
       id="clipPath7243">
      <path
         d="m 633.424,428.922 h 9.397 v -6.08 h -9.397 z"
         id="path7241"
         inkscape:connector-curvature="0" />
    </clipPath>
    <clipPath
       clipPathUnits="userSpaceOnUse"
       id="clipPath7359">
      <path
         d="m 730.153,476.738 h 43.475 v -42.491 h -43.475 z"
         id="path7357"
         inkscape:connector-curvature="0" />
    </clipPath>
    <clipPath
       clipPathUnits="userSpaceOnUse"
       id="clipPath7379">
      <path
         d="m 723.057,454.994 h 58.15 v -31.33 h -58.15 z"
         id="path7377"
         inkscape:connector-curvature="0" />
    </clipPath>
    <clipPath
       clipPathUnits="userSpaceOnUse"
       id="clipPath7395">
      <path
         d="m 737.654,444.762 h 28.467 v -10.515 h -28.467 z"
         id="path7393"
         inkscape:connector-curvature="0" />
    </clipPath>
    <clipPath
       clipPathUnits="userSpaceOnUse"
       id="clipPath7455">
      <path
         d="m 771.862,436.704 h 3.841 v -5.653 h -3.841 z"
         id="path7453"
         inkscape:connector-curvature="0" />
    </clipPath>
    <clipPath
       clipPathUnits="userSpaceOnUse"
       id="clipPath7503">
      <path
         d="m 742.294,416.515 h 13.4 v -7.638 h -13.4 z"
         id="path7501"
         inkscape:connector-curvature="0" />
    </clipPath>
  </defs>
  <sodipodi:namedview
     id="base"
     pagecolor="#ffffff"
     bordercolor="#666666"
     borderopacity="1.0"
     inkscape:pageopacity="0.0"
     inkscape:pageshadow="2"
     inkscape:zoom="1.979899"
     inkscape:cx="84.220787"
     inkscape:cy="123.83767"
     inkscape:document-units="mm"
     inkscape:current-layer="layer1"
     showgrid="false"
     inkscape:window-width="1920"
     inkscape:window-height="1016"
     inkscape:window-x="0"
     inkscape:window-y="27"
     inkscape:window-maximized="1" />
  <metadata
     id="metadata11909">
    <rdf:RDF>
      <cc:Work
         rdf:about="">
        <dc:format>image/svg+xml</dc:format>
        <dc:type
           rdf:resource="http://purl.org/dc/dcmitype/StillImage" />
        <dc:title></dc:title>
      </cc:Work>
    </rdf:RDF>
  </metadata>
  <g
     inkscape:label="Layer 1"
     inkscape:groupmode="layer"
     id="layer1"
     transform="translate(-40.876301,-140.08002)">
    <g
       id="g6585"
       transform="matrix(0.41906542,0,0,-0.41906542,120.21963,171.5053)">
      <path
         d="M 0,0 C -3.032,-1.627 -6.889,-1.299 -9.622,1.116 -23.158,13.057 -24.521,33.446 -24.627,35.729 -24.089,61.313 -5.438,72.371 4.32,74.75 8.872,75.849 13.455,73.053 14.558,68.503 15.662,63.973 12.922,59.42 8.378,58.279 6.75,57.828 -7.288,53.604 -7.676,35.951 -7.453,32.32 -5.333,19.951 1.603,13.831 5.116,10.734 5.448,5.376 2.352,1.863 1.666,1.082 0.865,0.464 0,0"
         style="fill:#ffada3;fill-opacity:1;fill-rule:nonzero;stroke:none"
         id="path6587"
         inkscape:connector-curvature="0" />
    </g>
    <g
       id="g6589"
       transform="matrix(0.41906542,0,0,-0.41906542,-201.92061,353.73376)">
      <g
         id="g6591" />
      <g
         id="g6603">
        <g
           clip-path="url(#clipPath6595)"
           id="g6601">
          <g
             transform="translate(747.3156,466.5187)"
             id="g6599">
            <path
               d="m 0,0 c -0.032,-0.03 -0.072,-0.051 -0.119,-0.058 -0.117,-0.016 -0.226,0.066 -0.243,0.184 -2.063,14.834 4.253,24.827 9.914,30.598 6.142,6.266 12.836,9.027 12.903,9.053 0.109,0.044 0.235,-0.007 0.28,-0.118 0.045,-0.11 -0.005,-0.234 -0.119,-0.28 C 22.551,39.351 15.888,36.582 9.849,30.412 4.26,24.711 -1.973,14.84 0.065,0.185 0.074,0.114 0.049,0.046 0,0"
               style="fill:#ffddd7;fill-opacity:1;fill-rule:nonzero;stroke:none"
               id="path6597"
               inkscape:connector-curvature="0" />
          </g>
        </g>
      </g>
    </g>
    <g
       id="g6605"
       transform="matrix(0.41906542,0,0,-0.41906542,-201.92061,353.73376)">
      <g
         id="g6607" />
      <g
         id="g6619">
        <g
           clip-path="url(#clipPath6611)"
           id="g6617">
          <g
             transform="translate(750.0773,455.757)"
             id="g6615">
            <path
               d="M 0,0 C -0.019,-0.018 -0.04,-0.031 -0.064,-0.042 -0.174,-0.088 -0.3,-0.039 -0.347,0.071 -2.061,4.062 -2.529,8.522 -2.533,8.567 -2.548,8.686 -2.46,8.793 -2.342,8.803 -2.224,8.815 -2.119,8.729 -2.106,8.611 -2.102,8.567 -1.638,4.17 0.05,0.24 0.086,0.156 0.063,0.061 0,0"
               style="fill:#ffddd7;fill-opacity:1;fill-rule:nonzero;stroke:none"
               id="path6613"
               inkscape:connector-curvature="0" />
          </g>
        </g>
      </g>
    </g>
    <g
       id="g6621"
       transform="matrix(0.41906542,0,0,-0.41906542,-201.92061,353.73376)">
      <g
         id="g6623" />
      <g
         id="g6635">
        <g
           clip-path="url(#clipPath6627)"
           id="g6633">
          <g
             transform="translate(751.2169,460.8566)"
             id="g6631">
            <path
               d="m 0,0 c -0.023,-0.021 -0.051,-0.039 -0.083,-0.049 -0.114,-0.036 -0.233,0.027 -0.271,0.14 -0.022,0.073 -2.31,7.446 -1.001,18.107 0.015,0.118 0.12,0.203 0.24,0.188 0.117,-0.014 0.201,-0.122 0.186,-0.24 C -2.225,7.585 0.033,0.294 0.057,0.222 0.083,0.14 0.058,0.055 0,0"
               style="fill:#ffddd7;fill-opacity:1;fill-rule:nonzero;stroke:none"
               id="path6629"
               inkscape:connector-curvature="0" />
          </g>
        </g>
      </g>
    </g>
    <g
       id="g6637"
       transform="matrix(0.41906542,0,0,-0.41906542,-201.92061,353.73376)">
      <g
         id="g6639" />
      <g
         id="g6651">
        <g
           clip-path="url(#clipPath6643)"
           id="g6649">
          <g
             transform="translate(760.9777,461.2648)"
             id="g6647">
            <path
               d="m 0,0 c -0.017,-0.017 -0.037,-0.031 -0.061,-0.041 -0.109,-0.049 -0.235,0.001 -0.285,0.109 -0.04,0.094 -4.052,9.328 -0.399,18.28 0.049,0.109 0.171,0.162 0.281,0.119 0.11,-0.046 0.163,-0.172 0.119,-0.281 C -3.929,9.407 0.009,0.333 0.049,0.244 0.086,0.158 0.064,0.062 0,0"
               style="fill:#ffddd7;fill-opacity:1;fill-rule:nonzero;stroke:none"
               id="path6645"
               inkscape:connector-curvature="0" />
          </g>
        </g>
      </g>
    </g>
    <g
       id="g6653"
       transform="matrix(0.41906542,0,0,-0.41906542,-201.92061,353.73376)">
      <g
         id="g6655" />
      <g
         id="g6667">
        <g
           clip-path="url(#clipPath6659)"
           id="g6665">
          <g
             transform="translate(779.9552,497.0353)"
             id="g6663">
            <path
               d="m 0,0 c -2.324,-2.212 -6.02,-3.084 -6.253,-3.137 -0.115,-0.027 -0.231,0.046 -0.257,0.161 -0.029,0.117 0.045,0.233 0.16,0.257 0.084,0.02 8.246,1.95 7.767,7.189 C 1.405,4.589 1.492,4.694 1.61,4.702 1.729,4.714 1.833,4.627 1.844,4.509 2.019,2.609 1.187,1.13 0,0"
               style="fill:#ffddd7;fill-opacity:1;fill-rule:nonzero;stroke:none"
               id="path6661"
               inkscape:connector-curvature="0" />
          </g>
        </g>
      </g>
    </g>
    <g
       id="g6721"
       transform="matrix(0.41906542,0,0,-0.41906542,54.521277,160.07881)">
      <path
         d="m 0,0 c 4.653,3.888 10.253,6.519 16.043,8.32 20.058,6.245 41.817,2.742 62.103,-2.715 20.287,-5.456 40.285,-12.853 61.236,-14.377 9.986,-0.726 20.979,0.273 28.285,7.119 2.167,2.03 3.977,4.695 4.075,7.663 0.099,2.968 -2.035,6.115 -4.998,6.32 -2.962,0.205 -5.589,-3.612 -3.804,-5.985 -5.522,5.412 -2.307,13.515 4.258,15.972 5.51,2.062 13.976,1.687 19.662,0.179 10.217,-2.709 19.276,-10.213 22.91,-20.139 3.633,-9.924 1.267,-22.032 -6.511,-29.188 -4.454,-4.097 -10.28,-6.423 -16.176,-7.784 -21.865,-5.049 -44.481,2.17 -65.795,9.192 -21.313,7.023 -44.072,13.997 -65.824,8.481 -9.894,-2.51 -18.949,-7.483 -28.125,-11.954 -9.176,-4.471 -18.838,-8.544 -29.033,-9.027 -10.197,-0.481 -21.118,3.252 -26.887,11.673 -4.629,6.756 -5.279,16.039 -1.638,23.375 3.643,7.336 9.346,12.45 17.527,12.847 C -10.747,10.065 -8.74,9.9 -6.981,9.066 -3.488,7.411 -1.52,3.553 0,0"
         style="fill:#d9d8f4;fill-opacity:1;fill-rule:nonzero;stroke:none"
         id="path6723"
         inkscape:connector-curvature="0" />
    </g>
    <g
       id="g6725"
       transform="matrix(0.41906542,0,0,-0.41906542,50.783256,174.22432)">
      <path
         d="m 0,0 c -0.336,0 -0.524,0.003 -0.543,0.005 -0.275,0.007 -0.492,0.236 -0.483,0.513 0.007,0.275 0.225,0.49 0.513,0.483 0.181,0 18.165,-0.421 29.535,7.804 7.503,5.428 34.893,22.359 72.303,12.268 13.296,-3.588 23.63,-6.829 31.933,-9.432 13.198,-4.14 21.917,-6.875 31.686,-7.793 0.275,-0.027 0.477,-0.27 0.451,-0.545 -0.028,-0.275 -0.284,-0.473 -0.544,-0.45 -9.874,0.929 -18.634,3.676 -31.892,7.835 -8.294,2.602 -18.617,5.839 -31.895,9.42 C 64.085,30.083 37.02,13.36 29.607,7.996 19.091,0.389 3.134,0 0,0"
         style="fill:#d9d8f4;fill-opacity:1;fill-rule:nonzero;stroke:none"
         id="path6727"
         inkscape:connector-curvature="0" />
    </g>
    <g
       id="g6729"
       transform="matrix(0.41906542,0,0,-0.41906542,-201.92061,353.73376)">
      <g
         id="g6731" />
      <g
         id="g6743">
        <g
           clip-path="url(#clipPath6735)"
           id="g6741"
           style="opacity:0.58000201">
          <g
             transform="translate(785.7755,429.0929)"
             id="g6739">
            <path
               d="m 0,0 c -6.361,0 -13.254,0.994 -13.645,1.051 -0.272,0.04 -0.46,0.293 -0.421,0.565 0.04,0.274 0.294,0.462 0.565,0.422 C -13.372,2.02 -0.589,0.181 6.136,1.454 6.416,1.51 6.669,1.326 6.719,1.058 6.771,0.787 6.592,0.525 6.321,0.475 4.501,0.129 2.284,0 0,0"
               style="fill:#d9d8f4;fill-opacity:1;fill-rule:nonzero;stroke:none"
               id="path6737"
               inkscape:connector-curvature="0" />
          </g>
        </g>
      </g>
    </g>
    <g
       id="g6745"
       transform="matrix(0.41906542,0,0,-0.41906542,-201.92061,353.73376)">
      <g
         id="g6747" />
      <g
         id="g6759">
        <g
           clip-path="url(#clipPath6751)"
           id="g6757"
           style="opacity:0.58000201">
          <g
             transform="translate(779.5519,434.2804)"
             id="g6755">
            <path
               d="m 0,0 c -12.518,0 -28.267,3.714 -29.155,3.928 -0.27,0.062 -0.434,0.332 -0.369,0.599 0.064,0.268 0.333,0.441 0.599,0.369 0.292,-0.067 29.255,-6.9 39.759,-2.285 0.254,0.115 0.547,-0.002 0.657,-0.255 C 11.603,2.104 11.487,1.81 11.235,1.699 8.419,0.46 4.409,0 0,0"
               style="fill:#d9d8f4;fill-opacity:1;fill-rule:nonzero;stroke:none"
               id="path6753"
               inkscape:connector-curvature="0" />
          </g>
        </g>
      </g>
    </g>
    <g
       id="g6761"
       transform="matrix(0.41906542,0,0,-0.41906542,-201.92061,353.73376)">
      <g
         id="g6763" />
      <g
         id="g6775">
        <g
           clip-path="url(#clipPath6767)"
           id="g6773"
           style="opacity:0.58000201">
          <g
             transform="translate(812.1017,457.9669)"
             id="g6771">
            <path
               d="m 0,0 c -0.068,0 -0.138,0.015 -0.205,0.044 -0.251,0.113 -0.363,0.408 -0.25,0.66 2.022,4.51 2.11,8.508 0.263,11.879 -4.11,7.498 -16.332,10.046 -21.396,10.794 -9.961,1.472 -13.162,-3.392 -13.193,-3.44 -0.147,-0.234 -0.456,-0.305 -0.688,-0.157 -0.232,0.145 -0.304,0.451 -0.159,0.684 0.137,0.224 3.524,5.476 14.187,3.9 C -16.23,23.596 -3.642,20.954 0.683,13.063 2.689,9.402 2.612,5.106 0.455,0.295 0.372,0.11 0.19,0 0,0"
               style="fill:#d9d8f4;fill-opacity:1;fill-rule:nonzero;stroke:none"
               id="path6769"
               inkscape:connector-curvature="0" />
          </g>
        </g>
      </g>
    </g>
    <g
       id="g6777"
       transform="matrix(0.41906542,0,0,-0.41906542,-201.92061,353.73376)">
      <g
         id="g6779" />
      <g
         id="g6791">
        <g
           clip-path="url(#clipPath6783)"
           id="g6789"
           style="opacity:0.58000201">
          <g
             transform="translate(763.9269,449.3078)"
             id="g6787">
            <path
               d="m 0,0 c -1.051,0 -2.116,0.063 -3.19,0.203 -0.273,0.036 -0.466,0.287 -0.43,0.56 0.036,0.272 0.28,0.46 0.558,0.43 C 8.145,-0.273 18.952,7.142 19.06,7.216 19.284,7.374 19.596,7.318 19.755,7.092 19.912,6.864 19.856,6.555 19.631,6.397 19.219,6.11 10.305,0 0,0"
               style="fill:#d9d8f4;fill-opacity:1;fill-rule:nonzero;stroke:none"
               id="path6785"
               inkscape:connector-curvature="0" />
          </g>
        </g>
      </g>
    </g>
    <g
       id="g7145"
       transform="matrix(0.41906542,0,0,-0.41906542,133.39685,154.46032)">
      <path
         d="M 0,0 1.186,-1.186 2.372,0 1.186,1.186 Z"
         style="fill:#262c61;fill-opacity:1;fill-rule:nonzero;stroke:none"
         id="path7147"
         inkscape:connector-curvature="0" />
    </g>
    <g
       id="g7149"
       transform="matrix(0.41906542,0,0,-0.41906542,133.39685,155.79567)">
      <path
         d="M 0,0 1.186,-1.186 2.372,0 1.186,1.187 Z"
         style="fill:#262c61;fill-opacity:1;fill-rule:nonzero;stroke:none"
         id="path7151"
         inkscape:connector-curvature="0" />
    </g>
    <g
       id="g7153"
       transform="matrix(0.41906542,0,0,-0.41906542,133.39685,157.13064)">
      <path
         d="M 0,0 1.186,-1.187 2.372,0 1.186,1.186 Z"
         style="fill:#262c61;fill-opacity:1;fill-rule:nonzero;stroke:none"
         id="path7155"
         inkscape:connector-curvature="0" />
    </g>
    <g
       id="g7157"
       transform="matrix(0.41906542,0,0,-0.41906542,131.35638,151.56981)">
      <path
         d="M 0,0 1.619,-1.619 3.237,0 1.619,1.619 Z"
         style="fill:#262c61;fill-opacity:1;fill-rule:nonzero;stroke:none"
         id="path7159"
         inkscape:connector-curvature="0" />
    </g>
    <g
       id="g7161"
       transform="matrix(0.41906542,0,0,-0.41906542,131.35638,153.39258)">
      <path
         d="M 0,0 1.619,-1.618 3.237,0 1.619,1.619 Z"
         style="fill:#262c61;fill-opacity:1;fill-rule:nonzero;stroke:none"
         id="path7163"
         inkscape:connector-curvature="0" />
    </g>
    <g
       id="g7165"
       transform="matrix(0.41906542,0,0,-0.41906542,131.35638,155.21497)">
      <path
         d="M 0,0 1.619,-1.619 3.237,0 1.619,1.618 Z"
         style="fill:#262c61;fill-opacity:1;fill-rule:nonzero;stroke:none"
         id="path7167"
         inkscape:connector-curvature="0" />
    </g>
    <g
       id="g7169"
       transform="matrix(0.41906542,0,0,-0.41906542,129.49715,150.82664)">
      <path
         d="M 0,0 1.619,-1.619 3.237,0 1.619,1.619 Z"
         style="fill:#262c61;fill-opacity:1;fill-rule:nonzero;stroke:none"
         id="path7171"
         inkscape:connector-curvature="0" />
    </g>
    <g
       id="g7173"
       transform="matrix(0.41906542,0,0,-0.41906542,129.49715,152.64941)">
      <path
         d="M 0,0 1.619,-1.618 3.237,0 1.619,1.619 Z"
         style="fill:#262c61;fill-opacity:1;fill-rule:nonzero;stroke:none"
         id="path7175"
         inkscape:connector-curvature="0" />
    </g>
    <g
       id="g7177"
       transform="matrix(0.41906542,0,0,-0.41906542,129.49715,154.47176)">
      <path
         d="M 0,0 1.619,-1.619 3.237,0 1.619,1.618 Z"
         style="fill:#262c61;fill-opacity:1;fill-rule:nonzero;stroke:none"
         id="path7179"
         inkscape:connector-curvature="0" />
    </g>
    <g
       id="g7181"
       transform="matrix(0.41906542,0,0,-0.41906542,133.39685,150.45464)">
      <path
         d="M 0,0 1.186,-1.187 2.372,0 1.186,1.186 Z"
         style="fill:#262c61;fill-opacity:1;fill-rule:nonzero;stroke:none"
         id="path7183"
         inkscape:connector-curvature="0" />
    </g>
    <g
       id="g7185"
       transform="matrix(0.41906542,0,0,-0.41906542,129.67844,143.71766)">
      <path
         d="M 0,0 1.187,-1.186 2.372,0 1.187,1.187 Z"
         style="fill:#262c61;fill-opacity:1;fill-rule:nonzero;stroke:none"
         id="path7187"
         inkscape:connector-curvature="0" />
    </g>
    <g
       id="g7189"
       transform="matrix(0.41906542,0,0,-0.41906542,133.39685,153.12534)">
      <path
         d="M 0,0 1.186,-1.186 2.372,0 1.186,1.187 Z"
         style="fill:#262c61;fill-opacity:1;fill-rule:nonzero;stroke:none"
         id="path7191"
         inkscape:connector-curvature="0" />
    </g>
    <g
       id="g7193"
       transform="matrix(0.41906542,0,0,-0.41906542,131.35638,146.10193)">
      <path
         d="M 0,0 1.619,-1.619 3.237,0 1.619,1.618 Z"
         style="fill:#262c61;fill-opacity:1;fill-rule:nonzero;stroke:none"
         id="path7195"
         inkscape:connector-curvature="0" />
    </g>
    <g
       id="g7197"
       transform="matrix(0.41906542,0,0,-0.41906542,131.35638,147.9247)">
      <path
         d="M 0,0 1.619,-1.618 3.237,0 1.619,1.619 Z"
         style="fill:#262c61;fill-opacity:1;fill-rule:nonzero;stroke:none"
         id="path7199"
         inkscape:connector-curvature="0" />
    </g>
    <g
       id="g7201"
       transform="matrix(0.41906542,0,0,-0.41906542,131.35638,149.74705)">
      <path
         d="M 0,0 1.619,-1.619 3.237,0 1.619,1.618 Z"
         style="fill:#262c61;fill-opacity:1;fill-rule:nonzero;stroke:none"
         id="path7203"
         inkscape:connector-curvature="0" />
    </g>
    <g
       id="g7205"
       transform="matrix(0.41906542,0,0,-0.41906542,129.49715,145.35872)">
      <path
         d="M 0,0 1.619,-1.619 3.237,0 1.619,1.619 Z"
         style="fill:#262c61;fill-opacity:1;fill-rule:nonzero;stroke:none"
         id="path7207"
         inkscape:connector-curvature="0" />
    </g>
    <g
       id="g7209"
       transform="matrix(0.41906542,0,0,-0.41906542,129.49715,149.00387)">
      <path
         d="M 0,0 1.619,-1.619 3.237,0 1.619,1.618 Z"
         style="fill:#262c61;fill-opacity:1;fill-rule:nonzero;stroke:none"
         id="path7211"
         inkscape:connector-curvature="0" />
    </g>
    <g
       id="g7341"
       transform="matrix(0.41906542,0,0,-0.41906542,141.16674,172.03324)">
      <path
         d="m 0,0 h -4.08 l 3.79,1.511 -0.491,1.231 -4.008,-1.597 3.051,3.051 -0.937,0.937 -2.887,-2.886 1.613,3.749 -1.217,0.525 -1.705,-3.964 v 4.314 h -1.325 v -4.08 l -1.511,3.791 -1.231,-0.491 1.597,-4.01 -3.052,3.052 -0.937,-0.937 2.886,-2.885 -3.749,1.612 L -14.717,1.705 -10.753,0 h -4.315 v -1.325 h 4.081 l -3.791,-1.511 0.491,-1.231 4.009,1.597 -3.052,-3.051 0.937,-0.938 2.885,2.886 -1.611,-3.749 1.217,-0.524 1.706,3.965 v -4.315 h 1.325 v 4.08 l 1.511,-3.791 1.231,0.491 -1.598,4.009 3.052,-3.052 0.937,0.938 -2.885,2.885 3.748,-1.612 0.523,1.218 -3.964,1.705 H 0 Z"
         style="fill:#1f184b;fill-opacity:1;fill-rule:nonzero;stroke:none"
         id="path7343"
         inkscape:connector-curvature="0" />
    </g>
    <g
       id="g7345"
       transform="matrix(0.41906542,0,0,-0.41906542,96.22935,179.00837)">
      <path
         d="M 0,0 C 0,5.155 20.657,9.335 46.139,9.335 71.621,9.335 92.278,5.155 92.278,0 92.278,-5.156 71.621,-9.336 46.139,-9.336 20.657,-9.336 0,-5.156 0,0"
         style="fill:#8e91dd;fill-opacity:1;fill-rule:nonzero;stroke:none"
         id="path7347"
         inkscape:connector-curvature="0" />
    </g>
    <g
       id="g7349"
       transform="matrix(0.41906542,0,0,-0.41906542,122.27976,161.66015)">
      <path
         d="M 0,0 V 9.861 C 0,14.577 -3.822,18.4 -8.538,18.4 h -26.398 c -4.715,0 -8.539,-3.823 -8.539,-8.539 V 0 c 0,0 7.88,-2.143 7.549,-12.647 0,0 0.231,-8.721 -0.048,-11.444 h 28.468 c 0,0 -0.048,22.201 7.506,24.091"
         style="fill:#ff766d;fill-opacity:1;fill-rule:nonzero;stroke:none"
         id="path7351"
         inkscape:connector-curvature="0" />
    </g>
    <g
       id="g7353"
       transform="matrix(0.41906542,0,0,-0.41906542,-201.92061,353.73376)">
      <g
         id="g7355" />
      <g
         id="g7367">
        <g
           clip-path="url(#clipPath7359)"
           id="g7365">
          <g
             transform="translate(773.6271,458.338)"
             id="g7363">
            <path
               d="M 0,0 V 9.861 C 0,14.577 -3.822,18.4 -8.538,18.4 h -26.398 c -4.715,0 -8.539,-3.823 -8.539,-8.539 V 0 c 0,0 7.88,-2.143 7.549,-12.647 0,0 0.231,-8.721 -0.048,-11.444 h 28.468 c 0,0 -0.048,22.201 7.506,24.091"
               style="fill:#ff766d;fill-opacity:1;fill-rule:nonzero;stroke:none"
               id="path7361"
               inkscape:connector-curvature="0" />
          </g>
        </g>
      </g>
    </g>
    <g
       id="g7369"
       transform="matrix(0.41906542,0,0,-0.41906542,113.15934,171.75577)">
      <path
         d="m 0,0 h -14.21 c 0,0 0.431,3.66 0,12.488 -0.431,8.827 -4.845,10.765 -9.366,12.273 -4.521,1.507 -10.012,-1.83 -10.55,-8.72 -0.538,-6.891 9.259,-7.752 9.259,-7.752 V -12.17 c 0,-0.723 0.593,-1.305 1.315,-1.291 L 0,-13.025 H 0.048 L 23.6,-13.461 c 0.722,-0.014 1.316,0.568 1.316,1.291 V 8.289 c 0,0 9.796,0.861 9.258,7.752 -0.538,6.89 -6.028,10.227 -10.55,8.72 C 19.103,23.253 14.688,21.315 14.258,12.488 13.827,3.66 14.258,0 14.258,0 H 0.048 Z"
         style="fill:#ff766d;fill-opacity:1;fill-rule:nonzero;stroke:none"
         id="path7371"
         inkscape:connector-curvature="0" />
    </g>
    <g
       id="g7373"
       transform="matrix(0.41906542,0,0,-0.41906542,-201.92061,353.73376)">
      <g
         id="g7375" />
      <g
         id="g7387">
        <g
           clip-path="url(#clipPath7379)"
           id="g7385">
          <g
             transform="translate(744.545,431.8605)"
             id="g7383">
            <path
               d="m 0,0 h -8.942 c 0,0 0.271,9.631 0,15.187 -0.271,5.554 -3.048,6.774 -5.894,7.722 -2.846,0.948 -6.3,-1.151 -6.639,-5.487 -0.338,-4.336 5.827,-4.878 5.827,-4.878 V -8.196 H 0 0.029 30.822 v 20.74 c 0,0 6.165,0.542 5.826,4.878 -0.338,4.336 -3.794,6.435 -6.639,5.487 C 27.164,21.961 24.387,20.741 24.115,15.187 23.845,9.631 24.115,0 24.115,0 H 0.029 Z"
               style="fill:#ff766d;fill-opacity:1;fill-rule:nonzero;stroke:none"
               id="path7381"
               inkscape:connector-curvature="0" />
          </g>
        </g>
      </g>
    </g>
    <g
       id="g7389"
       transform="matrix(0.41906542,0,0,-0.41906542,-201.92061,353.73376)">
      <g
         id="g7391" />
      <g
         id="g7403">
        <g
           clip-path="url(#clipPath7395)"
           id="g7401">
          <g
             transform="translate(766.1212,434.2472)"
             id="g7399">
            <path
               d="m 0,0 -0.071,8.767 c -0.008,0.967 -0.794,1.748 -1.762,1.748 h -24.833 c -0.97,0 -1.758,-0.785 -1.762,-1.754 L -28.468,0 Z"
               style="fill:#ff766d;fill-opacity:1;fill-rule:nonzero;stroke:none"
               id="path7397"
               inkscape:connector-curvature="0" />
          </g>
        </g>
      </g>
    </g>
    <g
       id="g7405"
       transform="matrix(0.41906542,0,0,-0.41906542,105.76309,178.11132)">
      <path
         d="m 0,0 c 0,0.941 -1.302,1.704 -2.907,1.704 -1.606,0 -2.907,-0.763 -2.907,-1.704 0,-0.94 1.301,-1.703 2.907,-1.703 C -1.302,-1.703 0,-0.94 0,0"
         style="fill:#262b62;fill-opacity:1;fill-rule:nonzero;stroke:none"
         id="path7407"
         inkscape:connector-curvature="0" />
    </g>
    <g
       id="g7409"
       transform="matrix(0.41906542,0,0,-0.41906542,122.82282,178.11132)">
      <path
         d="m 0,0 c 0,0.941 -1.302,1.704 -2.907,1.704 -1.606,0 -2.906,-0.763 -2.906,-1.704 0,-0.94 1.3,-1.703 2.906,-1.703 C -1.302,-1.703 0,-0.94 0,0"
         style="fill:#262b62;fill-opacity:1;fill-rule:nonzero;stroke:none"
         id="path7411"
         inkscape:connector-curvature="0" />
    </g>
    <g
       id="g7413"
       transform="matrix(0.41906542,0,0,-0.41906542,114.34123,180.48327)">
      <path
         d="m 0,0 -4.756,-3.932 c 0,0 -5.047,-1.71 -7.569,0.526 0,0 -0.534,2.053 1.553,3.406 2.085,1.353 5.729,4.181 6.964,4.102 C -2.572,4.021 0.873,3.788 0.922,2.037 0.97,0.285 0,0 0,0"
         style="fill:#fc504e;fill-opacity:1;fill-rule:nonzero;stroke:none"
         id="path7415"
         inkscape:connector-curvature="0" />
    </g>
    <g
       id="g7417"
       transform="matrix(0.41906542,0,0,-0.41906542,122.54331,179.13648)">
      <path
         d="m 0,0 c 0,0 -1.968,0.775 -3.101,0.537 l -0.477,1.73 c 0,0 -7.098,-2.983 -12.167,-1.789 l -0.981,1.277 c -0.943,1.228 -0.502,3.028 0.915,3.652 1.723,0.758 4.524,1.597 8.953,2.048 0,0 2.982,-0.656 4.831,2.565 1.848,3.22 4.174,6.62 6.798,3.936 C 7.396,11.272 5.976,1.295 2.386,0.537 0.874,0.218 0,0 0,0"
         style="fill:#d9d8f4;fill-opacity:1;fill-rule:nonzero;stroke:none"
         id="path7419"
         inkscape:connector-curvature="0" />
    </g>
    <g
       id="g7421"
       transform="matrix(0.41906542,0,0,-0.41906542,121.24395,178.9114)">
      <path
         d="m 0,0 c 0,0 -0.004,-1.835 -0.272,-2.612 -0.27,-0.777 0.209,-1.673 1.105,-1.494 0.896,0.179 3.257,-0.12 3.137,0.507 -0.119,0.628 -0.869,3.062 -0.869,3.062 0,0 -2.202,0.848 -3.101,0.537"
         style="fill:#ffddd7;fill-opacity:1;fill-rule:nonzero;stroke:none"
         id="path7423"
         inkscape:connector-curvature="0" />
    </g>
    <g
       id="g7425"
       transform="matrix(0.41906542,0,0,-0.41906542,120.07187,171.34203)">
      <path
         d="m 0,0 -8.029,-5.933 c -0.238,-0.174 -0.449,-0.383 -0.625,-0.62 l -6.624,-8.832 c 0,0 2.297,-0.374 2.938,-1.762 l 5.662,7.478 6.25,4.707 z"
         style="fill:#262b62;fill-opacity:1;fill-rule:nonzero;stroke:none"
         id="path7427"
         inkscape:connector-curvature="0" />
    </g>
    <g
       id="g7429"
       transform="matrix(0.41906542,0,0,-0.41906542,124.75036,171.31953)">
      <path
         d="m 0,0 5.663,-8.066 c 0,0 4.259,-4.114 4.453,-6.998 0,0 -2.744,0.961 -3.919,0 l -5.619,8.141 c 0,0 -0.286,1.482 -1.073,2.226 z"
         style="fill:#262b62;fill-opacity:1;fill-rule:nonzero;stroke:none"
         id="path7431"
         inkscape:connector-curvature="0" />
    </g>
    <g
       id="g7433"
       transform="matrix(0.41906542,0,0,-0.41906542,124.54288,173.28796)">
      <path
         d="m 0,0 c 0,0 -1.553,2.006 -3.737,0.207 0,0 -1.154,-0.799 -2.409,-3.042 -1.256,-2.243 -2.241,-3.111 -3.172,-3.403 0,0 -1.456,-0.51 -2.312,-0.263 l 0.961,11.145 c 0,0 1.281,1.388 3.419,1.282 0,0 -1.282,-6.065 0.32,-6.211 1.603,-0.147 3.9,0.441 4.648,5.142 0,0 1.495,0.748 2.777,-0.16 L 0,0"
         style="fill:#262b62;fill-opacity:1;fill-rule:nonzero;stroke:none"
         id="path7435"
         inkscape:connector-curvature="0" />
    </g>
    <g
       id="g7437"
       transform="matrix(0.41906542,0,0,-0.41906542,121.54023,170.72609)">
      <path
         d="m 0,0 -0.085,-0.187 c 0,0 -1.304,-6.106 0.32,-6.211 0,0 2.324,-0.348 3.606,1.912 z"
         style="fill:#ffddd7;fill-opacity:1;fill-rule:nonzero;stroke:none"
         id="path7439"
         inkscape:connector-curvature="0" />
    </g>
    <g
       id="g7441"
       transform="matrix(0.41906542,0,0,-0.41906542,121.67039,170.94953)">
      <path
         d="m 0,0 c 0,0 1.162,-4.248 3.53,-3.953 0,0 0.818,-0.05 1.463,0.896 0.647,0.948 2.195,0.561 2.583,2.669 0.388,2.11 0.776,0.819 0.947,2.11 0.172,1.292 1.464,5.854 -0.559,7.404 -2.024,1.55 -6.285,3.659 -8.395,-1.033 0,0 -0.602,-1.636 -0.559,-3.702 0,0 -0.861,0.456 -0.732,-0.892 0.129,-1.347 0.388,-2.638 1.119,-2.466 z"
         style="fill:#ffddd7;fill-opacity:1;fill-rule:nonzero;stroke:none"
         id="path7443"
         inkscape:connector-curvature="0" />
    </g>
    <g
       id="g7445"
       transform="matrix(0.41906542,0,0,-0.41906542,128.98971,177.6325)">
      <path
         d="m 0,0 c 0,0 0.835,-0.944 0.165,-2.57 -0.67,-1.627 -0.605,-1.914 -1.116,-1.819 -0.51,0.096 -1.658,1.754 -2.552,1.595 -0.893,-0.159 -1.308,-0.957 -1.627,-0.351 -0.318,0.606 1.432,2.367 1.211,3.145 0,0 0.755,0.976 3.919,0"
         style="fill:#ffddd7;fill-opacity:1;fill-rule:nonzero;stroke:none"
         id="path7447"
         inkscape:connector-curvature="0" />
    </g>
    <g
       id="g7449"
       transform="matrix(0.41906542,0,0,-0.41906542,-201.92061,353.73376)">
      <g
         id="g7451" />
      <g
         id="g7463">
        <g
           clip-path="url(#clipPath7455)"
           id="g7461">
          <g
             transform="translate(775.7032,432.2179)"
             id="g7459">
            <path
               d="m 0,0 c 0,0 -1.424,-0.487 -2.675,1.906 0,0 -0.749,1.363 -0.855,2.047 l -0.311,0.533 c 0,0 0.184,-8.737 3.841,-4.486"
               style="fill:#ffddd7;fill-opacity:1;fill-rule:nonzero;stroke:none"
               id="path7457"
               inkscape:connector-curvature="0" />
          </g>
        </g>
      </g>
    </g>
    <g
       id="g7465"
       transform="matrix(0.41906542,0,0,-0.41906542,122.54331,179.13648)">
      <path
         d="m 0,0 c 0,0 5.176,4.93 5.035,10.025 0,0 0.955,-4.819 -0.001,-6.81 C 4.104,1.278 2.919,0.754 2.386,0.537 1.774,0.288 0,0 0,0"
         style="fill:#b3b3e9;fill-opacity:1;fill-rule:nonzero;stroke:none"
         id="path7467"
         inkscape:connector-curvature="0" />
    </g>
    <g
       id="g7469"
       transform="matrix(0.41906542,0,0,-0.41906542,121.04385,178.18663)">
      <path
         d="m 0,0 c 0,0 1.992,7.089 2.461,9.298 0,0 -2.872,-8.551 -6.07,-9.803 -3.463,-1.356 -8.558,-1.284 -8.558,-1.284 0,0 3.988,-1.35 12.167,1.789"
         style="fill:#b3b3e9;fill-opacity:1;fill-rule:nonzero;stroke:none"
         id="path7471"
         inkscape:connector-curvature="0" />
    </g>
    <g
       id="g7473"
       transform="matrix(0.41906542,0,0,-0.41906542,121.25539,169.10959)">
      <path
         d="m 0,0 c 0,0 1.193,-1.694 1.193,-2.492 0,0 0.92,0.624 1.084,1.734 L 1.956,-2.007 c 0,0 0.951,1.006 1.117,2.637 0,0 -0.076,-1.492 0.999,-1.562 0,0 -0.763,0.66 0.243,1.562 0,0 0.832,-0.556 0.624,-1.284 0,0 0.937,-0.624 1.284,0.555 0,0 0.971,-0.555 0.554,-1.284 0,0 0.66,-0.023 0.764,0.491 0,0 0.712,-0.421 0.304,-0.907 0,0 0.702,-0.173 0.945,0.347 0,0 0.624,-0.347 0,-0.832 0,0 1.769,-0.416 1.873,1.63 0.104,2.047 0.104,7.458 -5.585,7.388 0,0 -3.122,0.624 -4.231,-1.768 C -0.264,2.572 0,0 0,0"
         style="fill:#7c81d7;fill-opacity:1;fill-rule:nonzero;stroke:none"
         id="path7475"
         inkscape:connector-curvature="0" />
    </g>
    <g
       id="g7477"
       transform="matrix(0.41906542,0,0,-0.41906542,127.76934,178.61755)">
      <path
         d="M 0,0 H -2.351 C -2.7,0 -3.016,-0.211 -3.15,-0.533 L -3.279,-1.418 C -3.333,-1.783 -3.646,-2.055 -4.016,-2.055 H -6.11 L -7.012,-4.83 h 1.404 c 0,0 1.14,2.399 4.015,0 h 3.969 c 0,0 1.323,1.943 3.65,0 H 7.349 L 5.74,-2.099 H 3.004 c -0.389,0 -0.739,0.23 -0.895,0.586 l -0.43,0.992 C 1.541,-0.205 1.229,0 0.884,0 Z"
         style="fill:#ff766d;fill-opacity:1;fill-rule:nonzero;stroke:none"
         id="path7479"
         inkscape:connector-curvature="0" />
    </g>
    <g
       id="g7481"
       transform="matrix(0.41906542,0,0,-0.41906542,127.20009,180.97396)">
      <path
         d="M 0,0 C 0,1.235 -1.001,2.236 -2.235,2.236 -3.47,2.236 -4.471,1.235 -4.471,0 c 0,-1.234 1.001,-2.235 2.236,-2.235 C -1.001,-2.235 0,-1.234 0,0"
         style="fill:#262b62;fill-opacity:1;fill-rule:nonzero;stroke:none"
         id="path7483"
         inkscape:connector-curvature="0" />
    </g>
    <g
       id="g7485"
       transform="matrix(0.41906542,0,0,-0.41906542,126.75399,180.97396)">
      <path
         d="m 0,0 c 0,0.646 -0.524,1.171 -1.171,1.171 -0.646,0 -1.171,-0.525 -1.171,-1.171 0,-0.646 0.525,-1.171 1.171,-1.171 C -0.524,-1.171 0,-0.646 0,0"
         style="fill:#d2d4ee;fill-opacity:1;fill-rule:nonzero;stroke:none"
         id="path7487"
         inkscape:connector-curvature="0" />
    </g>
    <g
       id="g7489"
       transform="matrix(0.41906542,0,0,-0.41906542,130.39994,180.97396)">
      <path
         d="m 0,0 c 0,1.235 -1.001,2.236 -2.235,2.236 -1.236,0 -2.237,-1.001 -2.237,-2.236 0,-1.234 1.001,-2.235 2.237,-2.235 C -1.001,-2.235 0,-1.234 0,0"
         style="fill:#262b62;fill-opacity:1;fill-rule:nonzero;stroke:none"
         id="path7491"
         inkscape:connector-curvature="0" />
    </g>
    <g
       id="g7493"
       transform="matrix(0.41906542,0,0,-0.41906542,129.95347,180.97396)">
      <path
         d="m 0,0 c 0,0.646 -0.523,1.171 -1.17,1.171 -0.647,0 -1.171,-0.525 -1.171,-1.171 0,-0.646 0.524,-1.171 1.171,-1.171 C -0.523,-1.171 0,-0.646 0,0"
         style="fill:#d2d4ee;fill-opacity:1;fill-rule:nonzero;stroke:none"
         id="path7495"
         inkscape:connector-curvature="0" />
    </g>
    <g
       id="g7497"
       transform="matrix(0.41906542,0,0,-0.41906542,-201.92061,353.73376)">
      <g
         id="g7499" />
      <g
         id="g7511">
        <g
           clip-path="url(#clipPath7503)"
           id="g7509">
          <g
             transform="translate(742.6173,411.9748)"
             id="g7507">
            <path
               d="m 0,0 c 0,0 4.756,-1.4 6.335,-0.541 1.578,0.86 6.058,5.081 6.058,5.081 0,0 1.737,-1.303 -0.327,-3.094 L 7.311,-2.485 c 0,0 -5.052,-1.681 -7.57,0.525 0,0 -0.257,1.1 0.259,1.96"
               style="fill:#fc504e;fill-opacity:1;fill-rule:nonzero;stroke:none"
               id="path7505"
               inkscape:connector-curvature="0" />
          </g>
        </g>
      </g>
    </g>
    <g
       id="g7513"
       transform="matrix(0.41906542,0,0,-0.41906542,113.19207,181.43765)">
      <path
         d="m 0,0 c 0,0.797 -0.384,1.443 -0.857,1.443 -0.474,0 -0.857,-0.646 -0.857,-1.443 0,-0.798 0.383,-1.444 0.857,-1.444 C -0.384,-1.444 0,-0.798 0,0"
         style="fill:#262b62;fill-opacity:1;fill-rule:nonzero;stroke:none"
         id="path7515"
         inkscape:connector-curvature="0" />
    </g>
    <g
       id="g7517"
       transform="matrix(0.41906542,0,0,-0.41906542,114.83724,180.22752)">
      <path
         d="m 0,0 c 0,0.798 -0.384,1.444 -0.857,1.444 -0.474,0 -0.857,-0.646 -0.857,-1.444 0,-0.798 0.383,-1.444 0.857,-1.444 C -0.384,-1.444 0,-0.798 0,0"
         style="fill:#262b62;fill-opacity:1;fill-rule:nonzero;stroke:none"
         id="path7519"
         inkscape:connector-curvature="0" />
    </g>
    <g
       id="g7521"
       transform="matrix(0.41906542,0,0,-0.41906542,113.66926,177.78923)">
      <path
         d="m 0,0 c 0,0 -1.86,-1.396 -2.204,-2.327 -0.343,-0.932 -0.539,-1.251 -0.417,-1.521 0.123,-0.269 1.52,-1.642 1.937,-1.176 0.416,0.465 1.03,0.285 1.348,1.809 0,0 0.638,0.789 0.49,-0.216 -0.146,-1.005 -0.495,-1.936 0.023,-1.961 0.517,-0.024 0.37,0.687 0.836,1.177 0.466,0.49 0.269,1.101 0.417,1.519 0.146,0.418 0.508,0.933 0.508,0.933 0,0 -0.513,1.345 -2.938,1.763"
         style="fill:#ffddd7;fill-opacity:1;fill-rule:nonzero;stroke:none"
         id="path7523"
         inkscape:connector-curvature="0" />
    </g>
    <g
       id="g7525"
       transform="matrix(0.41906542,0,0,-0.41906542,110.46609,180.04908)">
      <path
         d="M 0,0 C 0,0 2.231,-1.542 6.2,-0.271 L 5.979,1.695 1.556,1.867 Z"
         style="fill:#262b62;fill-opacity:1;fill-rule:nonzero;stroke:none"
         id="path7527"
         inkscape:connector-curvature="0" />
    </g>
    <g
       id="g7529"
       transform="matrix(0.41906542,0,0,-0.41906542,119.36595,178.72764)">
      <path
         d="M 0,0 H 4.36 L 4.004,1.291 Z"
         style="fill:#ffddd7;fill-opacity:1;fill-rule:nonzero;stroke:none"
         id="path7531"
         inkscape:connector-curvature="0" />
    </g>
    <g
       id="g7545"
       transform="matrix(0.41906542,0,0,-0.41906542,109.18149,142.9172)">
      <path
         d="M 0,0 C 0.774,0.293 1.641,-0.097 1.935,-0.871 2.229,-1.646 1.839,-2.513 1.063,-2.806 0.632,-2.97 0.173,-2.921 -0.201,-2.712 c -0.003,0.002 -0.007,0.003 -0.01,0.005 -0.001,10e-4 -0.001,10e-4 -0.002,10e-4 -1.042,0.608 -1.537,-0.397 -1.537,-0.397 -0.114,-0.22 -0.307,-0.402 -0.558,-0.498 -0.541,-0.205 -1.146,0.068 -1.351,0.609 -0.205,0.541 0.067,1.145 0.608,1.35 0.251,0.096 0.516,0.087 0.748,-0.003 0.008,-0.002 0.015,-0.005 0.023,-0.008 l 0.035,-0.015 c 0.932,-0.373 1.299,0.576 1.353,0.736 l 0.006,0.018 c 0.001,0.003 0.001,0.005 0.001,0.005 C -0.743,-0.506 -0.432,-0.164 0,0"
         style="fill:#fc504e;fill-opacity:1;fill-rule:nonzero;stroke:none"
         id="path7547"
         inkscape:connector-curvature="0" />
    </g>
    <g
       id="g7549"
       transform="matrix(0.41906542,0,0,-0.41906542,112.65801,144.00086)">
      <path
         d="m 0,0 c 0.97,-0.182 1.608,-1.115 1.427,-2.085 -0.183,-0.969 -1.115,-1.607 -2.085,-1.426 -0.54,0.102 -0.977,0.437 -1.227,0.88 -0.003,0.004 -0.005,0.008 -0.007,0.012 -0.001,0.001 -0.001,0.002 -0.002,0.002 -0.681,1.263 -1.807,0.551 -1.807,0.551 -0.253,-0.155 -0.562,-0.22 -0.876,-0.161 -0.677,0.127 -1.122,0.779 -0.995,1.456 0.127,0.676 0.778,1.122 1.455,0.995 0.314,-0.059 0.578,-0.232 0.758,-0.467 l 10e-4,0.001 c 0.004,-0.009 0.01,-0.016 0.016,-0.024 0.01,-0.012 0.019,-0.024 0.028,-0.037 0.715,-0.957 1.676,-0.219 1.831,-0.091 0.005,0.005 0.01,0.01 0.016,0.015 0.003,0.002 0.005,0.004 0.005,0.004 V -0.376 C -1.068,-0.053 -0.54,0.102 0,0"
         style="fill:#fc504e;fill-opacity:1;fill-rule:nonzero;stroke:none"
         id="path7551"
         inkscape:connector-curvature="0" />
    </g>
    <g
       id="g7553"
       transform="matrix(0.41906542,0,0,-0.41906542,116.60519,144.70066)">
      <path
         d="M 0,0 C 0.794,0.585 1.912,0.416 2.498,-0.378 3.083,-1.172 2.914,-2.29 2.12,-2.875 1.678,-3.201 1.135,-3.292 0.64,-3.173 0.636,-3.172 0.631,-3.171 0.626,-3.17 c 0,0 -0.001,10e-4 -0.002,10e-4 -1.389,0.362 -1.635,-0.948 -1.635,-0.948 v 0.001 c -0.06,-0.291 -0.222,-0.561 -0.479,-0.751 -0.555,-0.408 -1.335,-0.29 -1.744,0.264 -0.409,0.554 -0.29,1.335 0.263,1.744 0.258,0.189 0.564,0.264 0.859,0.236 l 0.029,-0.003 c 0.015,-0.002 0.03,-0.003 0.045,-0.006 1.187,-0.129 1.304,1.077 1.314,1.278 0.001,0.007 0.001,0.015 0.001,0.022 0.001,0.004 0.001,0.007 0.001,0.007 v -0.001 c 0.033,0.509 0.281,1 0.722,1.326"
         style="fill:#fc504e;fill-opacity:1;fill-rule:nonzero;stroke:none"
         id="path7555"
         inkscape:connector-curvature="0" />
    </g>
    <g
       id="g7557"
       transform="matrix(0.41906542,0,0,-0.41906542,121.79645,147.88992)">
      <path
         d="m 0,0 c 0.781,-0.603 0.926,-1.724 0.323,-2.505 -0.603,-0.78 -1.724,-0.925 -2.505,-0.322 -0.435,0.336 -0.672,0.833 -0.693,1.342 v -10e-4 c 0,0.005 -10e-4,0.009 -10e-4,0.014 v 0.002 c -0.032,1.436 -1.36,1.313 -1.36,1.313 h 10e-4 c -0.296,-0.023 -0.601,0.059 -0.854,0.255 -0.545,0.421 -0.645,1.204 -0.224,1.749 0.42,0.545 1.203,0.645 1.749,0.224 0.252,-0.195 0.408,-0.468 0.462,-0.759 10e-4,-0.01 0.003,-0.019 0.005,-0.03 0.002,-0.014 0.005,-0.029 0.007,-0.045 0.202,-1.176 1.394,-0.957 1.59,-0.913 0.007,0.002 0.015,0.004 0.021,0.005 0.004,0.001 0.006,0.002 0.006,0.002 V 0.33 C -0.975,0.439 -0.435,0.336 0,0"
         style="fill:#fc504e;fill-opacity:1;fill-rule:nonzero;stroke:none"
         id="path7559"
         inkscape:connector-curvature="0" />
    </g>
    <g
       id="g7561"
       transform="matrix(0.41906542,0,0,-0.41906542,115.54072,144.14573)">
      <path
         d="m 0,0 c 0.779,-0.989 0.607,-2.423 -0.382,-3.201 -0.99,-0.779 -2.424,-0.608 -3.202,0.382 -0.434,0.551 -0.571,1.24 -0.438,1.877 l -10e-4,-0.001 c 10e-4,0.006 0.002,0.011 0.003,0.018 v 0.003 c 0.408,1.787 -1.274,2.048 -1.274,2.048 -0.372,0.065 -0.724,0.262 -0.977,0.582 -0.542,0.691 -0.423,1.692 0.268,2.236 0.691,0.543 1.691,0.424 2.235,-0.267 0.253,-0.321 0.361,-0.708 0.336,-1.086 V 2.592 C -3.433,2.579 -3.434,2.566 -3.435,2.555 -3.437,2.535 -3.437,2.516 -3.439,2.496 -3.557,0.976 -2.013,0.876 -1.757,0.869 h 0.029 0.008 L -1.721,0.868 C -1.07,0.848 -0.434,0.552 0,0"
         style="fill:#fc504e;fill-opacity:1;fill-rule:nonzero;stroke:none"
         id="path7563"
         inkscape:connector-curvature="0" />
    </g>
    <g
       id="g7565"
       transform="matrix(0.41906542,0,0,-0.41906542,120.1398,148.82707)">
      <path
         d="m 0,0 c 0.644,-1.082 0.289,-2.481 -0.793,-3.126 -1.083,-0.644 -2.481,-0.289 -3.126,0.793 -0.358,0.604 -0.406,1.304 -0.192,1.918 h -0.001 c 0.002,0.006 0.004,0.011 0.006,0.017 0,0.001 10e-4,0.002 10e-4,0.002 0.634,1.72 -0.999,2.197 -0.999,2.197 -0.362,0.113 -0.684,0.352 -0.893,0.704 -0.45,0.755 -0.202,1.732 0.554,2.182 0.756,0.45 1.732,0.202 2.182,-0.554 0.208,-0.351 0.265,-0.749 0.193,-1.12 C -3.071,3.001 -3.073,2.989 -3.076,2.977 -3.08,2.958 -3.083,2.938 -3.088,2.92 -3.401,1.427 -1.883,1.128 -1.63,1.089 -1.62,1.088 -1.611,1.087 -1.602,1.085 -1.597,1.084 -1.594,1.084 -1.594,1.084 L -1.595,1.083 C -0.952,0.979 -0.359,0.603 0,0"
         style="fill:#fc504e;fill-opacity:1;fill-rule:nonzero;stroke:none"
         id="path7567"
         inkscape:connector-curvature="0" />
    </g>
    <g
       id="g7569"
       transform="matrix(0.41906542,0,0,-0.41906542,111.64882,142.32091)">
      <path
         d="M 0,0 C 0.707,-0.432 0.93,-1.355 0.497,-2.063 0.064,-2.77 -0.858,-2.992 -1.565,-2.56 c -0.394,0.241 -0.637,0.634 -0.701,1.057 h -10e-4 c 0,0.004 -10e-4,0.008 -0.002,0.012 v 0.002 c -0.158,1.195 -1.255,0.971 -1.255,0.971 h 10e-4 c -0.246,-0.044 -0.507,-0.004 -0.737,0.136 -0.493,0.302 -0.648,0.946 -0.346,1.441 0.301,0.493 0.946,0.648 1.439,0.346 0.229,-0.139 0.385,-0.354 0.456,-0.593 0.002,-0.007 0.005,-0.015 0.007,-0.023 0.004,-0.012 0.008,-0.024 0.011,-0.037 0.275,-0.965 1.251,-0.673 1.41,-0.618 0.006,0.003 0.012,0.005 0.017,0.007 0.003,0.001 0.005,0.002 0.005,0.002 V 0.142 C -0.854,0.278 -0.395,0.241 0,0"
         style="fill:#fc504e;fill-opacity:1;fill-rule:nonzero;stroke:none"
         id="path7571"
         inkscape:connector-curvature="0" />
    </g>
    <g
       id="g7573"
       transform="matrix(0.41906542,0,0,-0.41906542,117.47932,148.37813)">
      <path
         d="m 0,0 c 0.007,-0.828 -0.66,-1.505 -1.488,-1.512 -0.829,-0.006 -1.506,0.66 -1.512,1.49 -0.004,0.46 0.201,0.875 0.527,1.153 h -0.001 c 0.004,0.002 0.006,0.005 0.01,0.008 0,0 10e-4,0 10e-4,10e-4 0.932,0.765 0.162,1.579 0.162,1.579 -0.167,0.184 -0.271,0.427 -0.273,0.696 -0.005,0.578 0.461,1.051 1.039,1.056 0.579,0.004 1.052,-0.461 1.056,-1.04 C -0.478,3.162 -0.577,2.918 -0.742,2.73 h 0.001 C -0.747,2.725 -0.752,2.719 -0.758,2.713 -0.767,2.703 -0.775,2.693 -0.784,2.685 -1.457,1.94 -0.694,1.267 -0.563,1.16 L -0.549,1.148 C -0.547,1.146 -0.545,1.146 -0.545,1.146 -0.216,0.873 -0.004,0.462 0,0"
         style="fill:#fc504e;fill-opacity:1;fill-rule:nonzero;stroke:none"
         id="path7575"
         inkscape:connector-curvature="0" />
    </g>
    <g
       id="g7577"
       transform="matrix(0.41906542,0,0,-0.41906542,119.79482,145.40746)">
      <path
         d="m 0,0 c 0.829,0 1.5,-0.673 1.5,-1.501 -10e-4,-0.829 -0.673,-1.5 -1.502,-1.5 -0.461,10e-4 -0.873,0.21 -1.148,0.538 v -10e-4 c -0.003,0.003 -0.005,0.006 -0.008,0.009 0,10e-4 -0.001,10e-4 -0.001,0.002 -0.758,0.937 -1.578,0.175 -1.578,0.175 -0.186,-0.166 -0.43,-0.268 -0.699,-0.268 -0.578,0 -1.046,0.47 -1.046,1.048 0,0.579 0.469,1.048 1.047,1.047 0.269,0 0.513,-0.102 0.699,-0.269 v 0.001 c 0.006,-0.006 0.011,-0.01 0.017,-0.016 0.01,-0.009 0.02,-0.018 0.029,-0.027 0.738,-0.679 1.419,0.077 1.526,0.208 0.004,0.004 0.008,0.01 0.012,0.014 0.002,0.003 0.003,0.005 0.003,0.005 V -0.536 C -0.874,-0.208 -0.461,0 0,0"
         style="fill:#fc504e;fill-opacity:1;fill-rule:nonzero;stroke:none"
         id="path7579"
         inkscape:connector-curvature="0" />
    </g>
    <g
       id="g7581"
       transform="matrix(0.41906542,0,0,-0.41906542,119.94745,150.82622)">
      <path
         d="m 0,0 c 0.873,-0.453 1.214,-1.528 0.761,-2.401 -0.453,-0.874 -1.53,-1.214 -2.403,-0.761 -0.486,0.253 -0.806,0.698 -0.917,1.194 L -2.56,-1.969 c -10e-4,0.005 -0.002,0.009 -0.003,0.014 v 0.003 c -0.287,1.402 -1.568,1.047 -1.568,1.047 h 0.001 c -0.287,-0.074 -0.599,-0.048 -0.883,0.099 -0.609,0.317 -0.847,1.067 -0.531,1.677 0.316,0.609 1.067,0.847 1.677,0.53 0.283,-0.146 0.485,-0.387 0.59,-0.664 0.003,-0.009 0.006,-0.017 0.009,-0.027 0.005,-0.014 0.011,-0.028 0.016,-0.043 0.406,-1.12 1.537,-0.693 1.722,-0.614 l 0.02,0.009 0.006,0.001 C -1.035,0.258 -0.486,0.253 0,0"
         style="fill:#fc504e;fill-opacity:1;fill-rule:nonzero;stroke:none"
         id="path7583"
         inkscape:connector-curvature="0" />
    </g>
    <g
       id="g7585"
       transform="matrix(0.41906542,0,0,-0.41906542,118.9305,144.48501)">
      <path
         d="m 0,0 c 0.488,-0.521 0.463,-1.338 -0.058,-1.826 -0.52,-0.487 -1.338,-0.462 -1.826,0.058 -0.271,0.29 -0.384,0.672 -0.34,1.038 0,0.003 0,0.006 0.001,0.01 v 0.001 c 0.142,1.03 -0.82,1.094 -0.82,1.094 -0.213,0.019 -0.421,0.111 -0.579,0.28 -0.341,0.364 -0.323,0.934 0.04,1.275 0.363,0.341 0.935,0.323 1.275,-0.04 0.159,-0.169 0.238,-0.382 0.243,-0.597 h 10e-4 V 1.272 1.239 c 0.008,-0.864 0.884,-0.844 1.029,-0.835 0.006,0 0.011,0.001 0.016,0.001 h 0.005 -0.001 C -0.646,0.426 -0.271,0.29 0,0"
         style="fill:#fc504e;fill-opacity:1;fill-rule:nonzero;stroke:none"
         id="path7587"
         inkscape:connector-curvature="0" />
    </g>
    <g
       id="g7589"
       transform="matrix(0.41906542,0,0,-0.41906542,115.86772,142.56485)">
      <path
         d="m 0,0 c 0.562,-0.019 1.003,-0.488 0.985,-1.05 -0.017,-0.561 -0.487,-1.003 -1.049,-0.985 -0.313,0.01 -0.588,0.16 -0.768,0.389 -0.001,10e-4 -0.003,0.003 -0.005,0.005 0,0 0,0.001 -0.001,0.001 -0.494,0.653 -1.066,0.153 -1.066,0.153 -0.129,-0.109 -0.297,-0.173 -0.479,-0.167 -0.392,0.012 -0.7,0.341 -0.688,0.732 0.012,0.393 0.341,0.701 0.733,0.689 0.182,-0.006 0.346,-0.08 0.468,-0.198 v 0.001 c 0.004,-0.005 0.008,-0.007 0.012,-0.011 0.005,-0.007 0.012,-0.013 0.018,-0.019 0.486,-0.477 0.963,0.023 1.039,0.108 0.003,0.003 0.005,0.007 0.008,0.01 l 0.003,0.003 V -0.34 C -0.597,-0.123 -0.312,0.01 0,0"
         style="fill:#fc504e;fill-opacity:1;fill-rule:nonzero;stroke:none"
         id="path7591"
         inkscape:connector-curvature="0" />
    </g>
    <g
       id="g7593"
       transform="matrix(0.41906542,0,0,-0.41906542,122.15207,153.20559)">
      <path
         d="m 0,0 c 0.219,-0.518 -0.023,-1.115 -0.542,-1.334 -0.518,-0.219 -1.114,0.023 -1.333,0.541 -0.122,0.289 -0.101,0.602 0.031,0.86 0.001,0.002 0.002,0.004 0.003,0.007 10e-4,0 10e-4,0.001 10e-4,0.001 0.386,0.722 -0.307,1.032 -0.307,1.032 C -2.301,1.18 -2.429,1.305 -2.5,1.473 -2.652,1.835 -2.483,2.252 -2.122,2.404 -1.76,2.558 -1.343,2.388 -1.19,2.026 -1.119,1.858 -1.119,1.679 -1.174,1.52 h 10e-4 C -1.176,1.514 -1.177,1.509 -1.179,1.504 -1.182,1.496 -1.185,1.487 -1.187,1.479 -1.417,0.838 -0.765,0.613 -0.654,0.581 -0.65,0.58 -0.646,0.578 -0.643,0.577 c 0.002,0 0.004,-0.001 0.004,-0.001 H -0.64 C -0.361,0.491 -0.122,0.288 0,0"
         style="fill:#fc504e;fill-opacity:1;fill-rule:nonzero;stroke:none"
         id="path7595"
         inkscape:connector-curvature="0" />
    </g>
    <g
       id="g7597"
       transform="matrix(0.41906542,0,0,-0.41906542,123.18624,154.43249)">
      <path
         d="M 0,0 C -0.415,0.379 -0.445,1.022 -0.066,1.437 0.312,1.853 0.957,1.883 1.372,1.504 1.604,1.292 1.715,0.999 1.702,0.709 H 1.703 C 1.702,0.706 1.703,0.704 1.702,0.701 V 0.7 C 1.654,-0.117 2.414,-0.109 2.414,-0.109 H 2.413 c 0.169,-0.001 0.339,-0.062 0.473,-0.185 0.29,-0.265 0.31,-0.714 0.046,-1.004 -0.264,-0.29 -0.714,-0.31 -1.004,-0.046 -0.135,0.123 -0.21,0.285 -0.227,0.453 H 1.7 c 0,0.006 -10e-4,0.011 -10e-4,0.017 -0.001,0.009 -0.002,0.018 -0.002,0.026 -0.059,0.678 -0.747,0.61 -0.86,0.593 -0.004,0 -0.008,-0.001 -0.013,-0.002 H 0.821 C 0.533,-0.295 0.231,-0.211 0,0"
         style="fill:#fc504e;fill-opacity:1;fill-rule:nonzero;stroke:none"
         id="path7599"
         inkscape:connector-curvature="0" />
    </g>
    <g
       id="g7601"
       transform="matrix(0.41906542,0,0,-0.41906542,112.93753,146.42235)">
      <path
         d="M 0,0 C 0.556,-0.085 0.937,-0.604 0.852,-1.16 0.766,-1.716 0.246,-2.097 -0.31,-2.012 c -0.309,0.048 -0.564,0.231 -0.714,0.479 h -10e-4 c -0.001,0.002 -0.002,0.004 -0.004,0.007 l -0.001,0.001 c -0.411,0.707 -1.04,0.279 -1.04,0.279 -0.142,-0.092 -0.316,-0.136 -0.495,-0.108 -0.389,0.06 -0.655,0.423 -0.595,0.811 0.059,0.388 0.423,0.654 0.81,0.594 0.18,-0.028 0.333,-0.121 0.441,-0.251 0.004,-0.005 0.007,-0.009 0.011,-0.014 0.004,-0.007 0.01,-0.013 0.015,-0.019 0.426,-0.533 0.959,-0.094 1.045,-0.019 0.003,0.003 0.006,0.006 0.01,0.009 0.001,0.002 0.002,0.003 0.002,0.003 V -0.241 C -0.607,-0.05 -0.31,0.048 0,0"
         style="fill:#fc504e;fill-opacity:1;fill-rule:nonzero;stroke:none"
         id="path7603"
         inkscape:connector-curvature="0" />
    </g>
    <g
       id="g7605"
       transform="matrix(0.41906542,0,0,-0.41906542,124.4819,152.06297)">
      <path
         d="M 0,0 C 0.556,-0.086 0.937,-0.605 0.852,-1.161 0.766,-1.717 0.246,-2.098 -0.31,-2.013 c -0.309,0.048 -0.564,0.231 -0.714,0.479 -0.002,0.002 -0.003,0.004 -0.005,0.007 v 10e-4 c -0.412,0.707 -1.04,0.279 -1.04,0.279 -0.142,-0.092 -0.317,-0.135 -0.496,-0.107 -0.388,0.059 -0.655,0.422 -0.595,0.81 0.059,0.388 0.423,0.654 0.81,0.595 0.181,-0.029 0.334,-0.122 0.441,-0.252 0.004,-0.005 0.007,-0.009 0.011,-0.013 0.004,-0.007 0.01,-0.014 0.015,-0.02 0.426,-0.533 0.96,-0.094 1.045,-0.018 0.003,0.003 0.007,0.006 0.01,0.008 0.001,0.002 0.003,0.003 0.003,0.003 H -0.826 C -0.607,-0.05 -0.31,0.047 0,0"
         style="fill:#fc504e;fill-opacity:1;fill-rule:nonzero;stroke:none"
         id="path7607"
         inkscape:connector-curvature="0" />
    </g>
    <g
       id="g7609"
       transform="matrix(0.41906542,0,0,-0.41906542,107.26581,143.13122)">
      <path
         d="m 0,0 c 0.433,-0.358 0.493,-1 0.134,-1.434 -0.359,-0.432 -1.001,-0.492 -1.434,-0.132 -0.24,0.199 -0.365,0.487 -0.367,0.777 0,0.003 -10e-4,0.005 0,0.008 -10e-4,0.001 -10e-4,0.001 -10e-4,0.002 0.011,0.817 -0.748,0.774 -0.748,0.774 -0.169,-0.007 -0.341,0.046 -0.48,0.162 -0.303,0.251 -0.344,0.698 -0.094,1.001 0.251,0.302 0.699,0.344 1.001,0.093 0.14,-0.116 0.223,-0.275 0.248,-0.442 h 0.001 c 0,-0.005 10e-4,-0.011 0.002,-0.016 l 0.003,-0.026 c 0.091,-0.675 0.774,-0.574 0.887,-0.552 0.004,0.001 0.008,0.002 0.012,0.002 0.003,0.001 0.004,0.001 0.004,0.001 C -0.547,0.27 -0.241,0.2 0,0"
         style="fill:#fc504e;fill-opacity:1;fill-rule:nonzero;stroke:none"
         id="path7611"
         inkscape:connector-curvature="0" />
    </g>
    <g
       id="g7613"
       transform="matrix(0.41906542,0,0,-0.41906542,110.48533,145.41726)">
      <path
         d="m 0,0 c 0.179,-0.533 -0.109,-1.11 -0.642,-1.288 -0.533,-0.179 -1.11,0.108 -1.289,0.642 -0.098,0.296 -0.053,0.607 0.098,0.855 0.002,0.002 0.003,0.004 0.004,0.007 10e-4,0 10e-4,0.001 10e-4,0.001 0.44,0.689 -0.228,1.053 -0.228,1.053 -0.146,0.083 -0.264,0.218 -0.323,0.391 -0.124,0.372 0.076,0.775 0.449,0.9 0.372,0.124 0.775,-0.077 0.9,-0.449 C -0.973,1.939 -0.985,1.76 -1.053,1.605 -1.055,1.6 -1.057,1.595 -1.06,1.59 -1.063,1.582 -1.066,1.574 -1.07,1.566 -1.348,0.944 -0.714,0.671 -0.607,0.63 -0.604,0.628 -0.6,0.627 -0.596,0.625 -0.594,0.624 -0.592,0.624 -0.592,0.624 H -0.593 C -0.322,0.518 -0.1,0.297 0,0"
         style="fill:#fc504e;fill-opacity:1;fill-rule:nonzero;stroke:none"
         id="path7615"
         inkscape:connector-curvature="0" />
    </g>
    <g
       id="g7617"
       transform="matrix(0.41906542,0,0,-0.41906542,109.94515,140.5051)">
      <path
         d="M 0,0 C 0.521,0.21 1.114,-0.043 1.324,-0.564 1.534,-1.086 1.281,-1.679 0.76,-1.889 0.469,-2.006 0.156,-1.979 -0.1,-1.842 c -0.002,0.001 -0.004,0.002 -0.006,0.003 l -0.001,10e-4 c -0.715,0.399 -1.039,-0.29 -1.039,-0.29 -0.074,-0.151 -0.202,-0.277 -0.371,-0.346 -0.364,-0.146 -0.778,0.031 -0.924,0.395 -0.147,0.364 0.03,0.778 0.394,0.925 0.169,0.067 0.349,0.065 0.507,0.008 0.005,-0.002 0.011,-0.004 0.016,-0.006 0.007,-0.003 0.016,-0.006 0.024,-0.009 0.637,-0.241 0.873,0.408 0.907,0.517 0.001,0.004 0.003,0.008 0.004,0.012 0.001,0.002 0.001,0.004 0.001,0.004 V -0.629 C -0.497,-0.353 -0.291,-0.117 0,0"
         style="fill:#fc504e;fill-opacity:1;fill-rule:nonzero;stroke:none"
         id="path7619"
         inkscape:connector-curvature="0" />
    </g>
    <g
       id="g7621"
       transform="matrix(0.41906542,0,0,-0.41906542,122.17541,150.73621)">
      <path
         d="m 0,0 c 0.358,-0.616 0.15,-1.406 -0.467,-1.766 -0.616,-0.359 -1.407,-0.15 -1.765,0.466 -0.201,0.344 -0.224,0.741 -0.099,1.088 l -10e-4,-0.001 c 0.002,0.004 0.002,0.007 0.004,0.01 v 0.002 c 0.369,0.971 -0.554,1.249 -0.554,1.249 -0.204,0.066 -0.386,0.204 -0.502,0.403 -0.251,0.431 -0.105,0.983 0.325,1.234 0.431,0.251 0.983,0.105 1.234,-0.326 0.116,-0.2 0.146,-0.425 0.102,-0.635 h 0.001 C -1.724,1.717 -1.725,1.71 -1.727,1.703 -1.729,1.692 -1.731,1.682 -1.733,1.671 -1.919,0.827 -1.061,0.649 -0.918,0.626 -0.912,0.625 -0.907,0.625 -0.901,0.624 -0.898,0.623 -0.897,0.623 -0.897,0.623 -0.534,0.561 -0.2,0.344 0,0"
         style="fill:#fc504e;fill-opacity:1;fill-rule:nonzero;stroke:none"
         id="path7623"
         inkscape:connector-curvature="0" />
    </g>
    <g
       id="g7625"
       transform="matrix(0.41906542,0,0,-0.41906542,114.84994,146.6548)">
      <path
         d="m 0,0 c 0.495,-0.665 0.357,-1.604 -0.307,-2.1 -0.665,-0.495 -1.604,-0.357 -2.099,0.307 -0.277,0.37 -0.356,0.826 -0.257,1.242 l 0.003,0.012 v 0.002 c 0.299,1.168 -0.803,1.369 -0.803,1.369 -0.244,0.05 -0.472,0.185 -0.633,0.399 -0.344,0.464 -0.249,1.121 0.215,1.466 0.464,0.346 1.12,0.25 1.466,-0.214 C -2.255,2.268 -2.19,2.012 -2.213,1.764 -2.214,1.755 -2.214,1.747 -2.216,1.739 -2.217,1.727 -2.218,1.714 -2.22,1.701 -2.323,0.703 -1.31,0.61 -1.141,0.602 h 0.019 0.006 L -1.117,0.601 C -0.689,0.576 -0.276,0.37 0,0"
         style="fill:#fc504e;fill-opacity:1;fill-rule:nonzero;stroke:none"
         id="path7627"
         inkscape:connector-curvature="0" />
    </g>
    <g
       id="g7629"
       transform="matrix(0.41906542,0,0,-0.41906542,108.65028,141.49301)">
      <path
         d="m 0,0 c 0.828,-0.044 1.463,-0.751 1.418,-1.578 -0.045,-0.828 -0.751,-1.463 -1.579,-1.418 -0.46,0.024 -0.861,0.255 -1.118,0.598 v -10e-4 c -0.003,0.003 -0.005,0.006 -0.007,0.009 -10e-4,0 -10e-4,0.001 -0.002,0.002 -0.707,0.977 -1.566,0.258 -1.566,0.258 v 10e-4 c -0.194,-0.156 -0.444,-0.245 -0.711,-0.23 -0.579,0.031 -1.022,0.524 -0.991,1.101 0.032,0.578 0.525,1.022 1.103,0.99 0.267,-0.014 0.507,-0.128 0.682,-0.305 v 0.001 c 0.006,-0.007 0.012,-0.012 0.017,-0.018 0.009,-0.01 0.019,-0.018 0.027,-0.027 0.702,-0.719 1.42,0.002 1.535,0.126 0.005,0.005 0.008,0.009 0.012,0.013 0.002,0.003 0.004,0.004 0.004,0.004 C -0.884,-0.161 -0.461,0.025 0,0"
         style="fill:#fc504e;fill-opacity:1;fill-rule:nonzero;stroke:none"
         id="path7631"
         inkscape:connector-curvature="0" />
    </g>
  </g>
</svg>
