<?xml version="1.0" encoding="UTF-8" standalone="no"?>
<!-- Created with Inkscape (http://www.inkscape.org/) -->

<svg
   xmlns:dc="http://purl.org/dc/elements/1.1/"
   xmlns:cc="http://creativecommons.org/ns#"
   xmlns:rdf="http://www.w3.org/1999/02/22-rdf-syntax-ns#"
   xmlns:svg="http://www.w3.org/2000/svg"
   xmlns="http://www.w3.org/2000/svg"
   xmlns:sodipodi="http://sodipodi.sourceforge.net/DTD/sodipodi-0.dtd"
   xmlns:inkscape="http://www.inkscape.org/namespaces/inkscape"
   width="102.25082mm"
   height="49.442314mm"
   viewBox="0 0 102.25081 49.442314"
   version="1.1"
   id="svg11912"
   inkscape:version="0.92.5 (2060ec1f9f, 2020-04-08)"
   sodipodi:docname="inmufortKidsDrawing01.svg">
  <defs
     id="defs11906">
    <clipPath
       clipPathUnits="userSpaceOnUse"
       id="clipPath6595">
      <path
         d="m 746.554,506.312 h 23.513 v -39.853 h -23.513 z"
         id="path6593"
         inkscape:connector-curvature="0" />
    </clipPath>
    <clipPath
       clipPathUnits="userSpaceOnUse"
       id="clipPath6611">
      <path
         d="m 747.542,464.561 h 2.602 v -8.863 h -2.602 z"
         id="path6609"
         inkscape:connector-curvature="0" />
    </clipPath>
    <clipPath
       clipPathUnits="userSpaceOnUse"
       id="clipPath6627">
      <path
         d="m 749.457,479.244 h 1.827 v -18.447 h -1.827 z"
         id="path6625"
         inkscape:connector-curvature="0" />
    </clipPath>
    <clipPath
       clipPathUnits="userSpaceOnUse"
       id="clipPath6643">
      <path
         d="m 758.698,479.746 h 2.347 v -18.541 h -2.347 z"
         id="path6641"
         inkscape:connector-curvature="0" />
    </clipPath>
    <clipPath
       clipPathUnits="userSpaceOnUse"
       id="clipPath6659">
      <path
         d="m 773.439,501.739 h 8.383 v -7.846 h -8.383 z"
         id="path6657"
         inkscape:connector-curvature="0" />
    </clipPath>
    <clipPath
       clipPathUnits="userSpaceOnUse"
       id="clipPath6679">
      <path
         d="m 617.931,457.827 h 14.007 v -12.903 h -14.007 z"
         id="path6677"
         inkscape:connector-curvature="0" />
    </clipPath>
    <clipPath
       clipPathUnits="userSpaceOnUse"
       id="clipPath6695">
      <path
         d="m 612.048,457.086 h 4.614 v -6.015 h -4.614 z"
         id="path6693"
         inkscape:connector-curvature="0" />
    </clipPath>
    <clipPath
       clipPathUnits="userSpaceOnUse"
       id="clipPath6711">
      <path
         d="m 615.089,455.419 h 9.386 v -3.306 h -9.386 z"
         id="path6709"
         inkscape:connector-curvature="0" />
    </clipPath>
    <clipPath
       clipPathUnits="userSpaceOnUse"
       id="clipPath6735">
      <path
         d="m 771.704,431.136 h 20.799 v -2.043 h -20.799 z"
         id="path6733"
         inkscape:connector-curvature="0" />
    </clipPath>
    <clipPath
       clipPathUnits="userSpaceOnUse"
       id="clipPath6751">
      <path
         d="m 750.013,439.193 h 41.073 v -4.912 h -41.073 z"
         id="path6749"
         inkscape:connector-curvature="0" />
    </clipPath>
    <clipPath
       clipPathUnits="userSpaceOnUse"
       id="clipPath6767">
      <path
         d="m 776.398,482.626 h 37.836 v -24.659 h -37.836 z"
         id="path6765"
         inkscape:connector-curvature="0" />
    </clipPath>
    <clipPath
       clipPathUnits="userSpaceOnUse"
       id="clipPath6783">
      <path
         d="m 760.302,456.614 h 23.469 v -7.306 h -23.469 z"
         id="path6781"
         inkscape:connector-curvature="0" />
    </clipPath>
    <clipPath
       clipPathUnits="userSpaceOnUse"
       id="clipPath6799">
      <path
         d="m 583.622,469.543 h 13.932 V 449.36 h -13.932 z"
         id="path6797"
         inkscape:connector-curvature="0" />
    </clipPath>
    <clipPath
       clipPathUnits="userSpaceOnUse"
       id="clipPath6815">
      <path
         d="m 588.675,457.523 h 9.022 v -23.432 h -9.022 z"
         id="path6813"
         inkscape:connector-curvature="0" />
    </clipPath>
    <clipPath
       clipPathUnits="userSpaceOnUse"
       id="clipPath6831">
      <path
         d="m 601.278,455.091 h 70.128 v -21.867 h -70.128 z"
         id="path6829"
         inkscape:connector-curvature="0" />
    </clipPath>
    <clipPath
       clipPathUnits="userSpaceOnUse"
       id="clipPath6863">
      <path
         d="m 601.575,473.696 h 1.829 v -3.2 h -1.829 z"
         id="path6861"
         inkscape:connector-curvature="0" />
    </clipPath>
    <clipPath
       clipPathUnits="userSpaceOnUse"
       id="clipPath6879">
      <path
         d="m 583.024,477.651 h 18.119 v -9.412 h -18.119 z"
         id="path6877"
         inkscape:connector-curvature="0" />
    </clipPath>
    <clipPath
       clipPathUnits="userSpaceOnUse"
       id="clipPath6895">
      <path
         d="m 608.913,445.127 h 3.617 v -8.535 h -3.617 z"
         id="path6893"
         inkscape:connector-curvature="0" />
    </clipPath>
    <clipPath
       clipPathUnits="userSpaceOnUse"
       id="clipPath6911">
      <path
         d="m 608.913,436.592 h 14.715 v -13.951 h -14.715 z"
         id="path6909"
         inkscape:connector-curvature="0" />
    </clipPath>
    <clipPath
       clipPathUnits="userSpaceOnUse"
       id="clipPath6939">
      <path
         d="m 605.801,470.496 h 17.279 v -7.638 h -17.279 z"
         id="path6937"
         inkscape:connector-curvature="0" />
    </clipPath>
    <clipPath
       clipPathUnits="userSpaceOnUse"
       id="clipPath6955">
      <path
         d="m 599.023,441.305 h 12.178 v -8.973 h -12.178 z"
         id="path6953"
         inkscape:connector-curvature="0" />
    </clipPath>
    <clipPath
       clipPathUnits="userSpaceOnUse"
       id="clipPath7011">
      <path
         d="m 655.532,472.48 h 6.795 v -10.503 h -6.795 z"
         id="path7009"
         inkscape:connector-curvature="0" />
    </clipPath>
    <clipPath
       clipPathUnits="userSpaceOnUse"
       id="clipPath7027">
      <path
         d="m 641.66,461.222 h 2.544 v -2.345 h -2.544 z"
         id="path7025"
         inkscape:connector-curvature="0" />
    </clipPath>
    <clipPath
       clipPathUnits="userSpaceOnUse"
       id="clipPath7043">
      <path
         d="m 642.052,472.48 h 5.842 v -4.101 h -5.842 z"
         id="path7041"
         inkscape:connector-curvature="0" />
    </clipPath>
    <clipPath
       clipPathUnits="userSpaceOnUse"
       id="clipPath7059">
      <path
         d="m 642.398,445.159 h 9.689 v -11.44 h -9.689 z"
         id="path7057"
         inkscape:connector-curvature="0" />
    </clipPath>
    <clipPath
       clipPathUnits="userSpaceOnUse"
       id="clipPath7075">
      <path
         d="m 655.89,439.588 h 15.016 V 426.892 H 655.89 Z"
         id="path7073"
         inkscape:connector-curvature="0" />
    </clipPath>
    <clipPath
       clipPathUnits="userSpaceOnUse"
       id="clipPath7099">
      <path
         d="m 645.918,430.494 h 9.04 v -5.152 h -9.04 z"
         id="path7097"
         inkscape:connector-curvature="0" />
    </clipPath>
    <clipPath
       clipPathUnits="userSpaceOnUse"
       id="clipPath7115">
      <path
         d="m 668.49,428.276 h 8.097 v -6.658 h -8.097 z"
         id="path7113"
         inkscape:connector-curvature="0" />
    </clipPath>
    <clipPath
       clipPathUnits="userSpaceOnUse"
       id="clipPath7227">
      <path
         d="m 630.724,434.968 h 12.093 v -12.093 h -12.093 z"
         id="path7225"
         inkscape:connector-curvature="0" />
    </clipPath>
    <clipPath
       clipPathUnits="userSpaceOnUse"
       id="clipPath7243">
      <path
         d="m 633.424,428.922 h 9.397 v -6.08 h -9.397 z"
         id="path7241"
         inkscape:connector-curvature="0" />
    </clipPath>
    <clipPath
       clipPathUnits="userSpaceOnUse"
       id="clipPath7359">
      <path
         d="m 730.153,476.738 h 43.475 v -42.491 h -43.475 z"
         id="path7357"
         inkscape:connector-curvature="0" />
    </clipPath>
    <clipPath
       clipPathUnits="userSpaceOnUse"
       id="clipPath7379">
      <path
         d="m 723.057,454.994 h 58.15 v -31.33 h -58.15 z"
         id="path7377"
         inkscape:connector-curvature="0" />
    </clipPath>
    <clipPath
       clipPathUnits="userSpaceOnUse"
       id="clipPath7395">
      <path
         d="m 737.654,444.762 h 28.467 v -10.515 h -28.467 z"
         id="path7393"
         inkscape:connector-curvature="0" />
    </clipPath>
    <clipPath
       clipPathUnits="userSpaceOnUse"
       id="clipPath7455">
      <path
         d="m 771.862,436.704 h 3.841 v -5.653 h -3.841 z"
         id="path7453"
         inkscape:connector-curvature="0" />
    </clipPath>
    <clipPath
       clipPathUnits="userSpaceOnUse"
       id="clipPath7503">
      <path
         d="m 742.294,416.515 h 13.4 v -7.638 h -13.4 z"
         id="path7501"
         inkscape:connector-curvature="0" />
    </clipPath>
  </defs>
  <sodipodi:namedview
     id="base"
     pagecolor="#ffffff"
     bordercolor="#666666"
     borderopacity="1.0"
     inkscape:pageopacity="0.0"
     inkscape:pageshadow="2"
     inkscape:zoom="1.979899"
     inkscape:cx="84.220788"
     inkscape:cy="123.83767"
     inkscape:document-units="mm"
     inkscape:current-layer="layer1"
     showgrid="false"
     inkscape:window-width="1920"
     inkscape:window-height="1016"
     inkscape:window-x="0"
     inkscape:window-y="27"
     inkscape:window-maximized="1" />
  <metadata
     id="metadata11909">
    <rdf:RDF>
      <cc:Work
         rdf:about="">
        <dc:format>image/svg+xml</dc:format>
        <dc:type
           rdf:resource="http://purl.org/dc/dcmitype/StillImage" />
        <dc:title></dc:title>
      </cc:Work>
    </rdf:RDF>
  </metadata>
  <g
     inkscape:label="Layer 1"
     inkscape:groupmode="layer"
     id="layer1"
     transform="translate(-40.876301,-130.5924)">
    <g
       id="g88695">
      <g
         transform="matrix(0.41906542,0,0,-0.41906542,93.830368,164.93247)"
         id="g6669">
        <path
           inkscape:connector-curvature="0"
           id="path6671"
           style="fill:#ff766d;fill-opacity:1;fill-rule:nonzero;stroke:none"
           d="m 0,0 c 2.451,-3.678 2.504,-8.647 -0.249,-12.438 -13.608,-18.765 -39.508,-23 -42.414,-23.416 -32.771,-2.443 -49.191,20.046 -53.425,32.231 -1.962,5.685 1.052,11.886 6.734,13.851 5.655,1.967 11.812,-0.98 13.826,-6.649 0.775,-2.026 7.892,-19.455 30.507,-17.791 4.615,0.73 20.168,4.953 27.143,14.568 3.529,4.871 10.338,5.951 15.209,2.421 C -1.587,1.997 -0.699,1.049 0,0" />
      </g>
      <g
         transform="matrix(0.41906542,0,0,-0.41906542,-201.92061,353.73376)"
         id="g6673">
        <g
           id="g6675" />
        <g
           id="g6687">
          <g
             id="g6685"
             clip-path="url(#clipPath6679)">
            <g
               id="g6683"
               transform="translate(631.587,445.2755)">
              <path
                 inkscape:connector-curvature="0"
                 id="path6681"
                 style="fill:none;stroke:#ff766d;stroke-width:0.70200002;stroke-linecap:round;stroke-linejoin:miter;stroke-miterlimit:10;stroke-dasharray:none;stroke-opacity:1"
                 d="m 0,0 -4.249,7.932 c 0,0 -2.754,4.925 -9.056,4.195" />
            </g>
          </g>
        </g>
      </g>
      <g
         transform="matrix(0.41906542,0,0,-0.41906542,-201.92061,353.73376)"
         id="g6689">
        <g
           id="g6691" />
        <g
           id="g6703">
          <g
             id="g6701"
             clip-path="url(#clipPath6695)">
            <g
               id="g6699"
               transform="translate(616.3107,456.7355)">
              <path
                 inkscape:connector-curvature="0"
                 id="path6697"
                 style="fill:none;stroke:#ff766d;stroke-width:0.70200002;stroke-linecap:round;stroke-linejoin:miter;stroke-miterlimit:10;stroke-dasharray:none;stroke-opacity:1"
                 d="M 0,0 C 0,0 -3.142,-1.684 -3.912,-5.313" />
            </g>
          </g>
        </g>
      </g>
      <g
         transform="matrix(0.41906542,0,0,-0.41906542,-201.92061,353.73376)"
         id="g6705">
        <g
           id="g6707" />
        <g
           id="g6719">
          <g
             id="g6717"
             clip-path="url(#clipPath6711)">
            <g
               id="g6715"
               transform="translate(624.1241,453.799)">
              <path
                 inkscape:connector-curvature="0"
                 id="path6713"
                 style="fill:none;stroke:#ff766d;stroke-width:0.70200002;stroke-linecap:round;stroke-linejoin:miter;stroke-miterlimit:10;stroke-dasharray:none;stroke-opacity:1"
                 d="M 0,0 C 0,0 -5.842,3.604 -8.684,-1.335" />
            </g>
          </g>
        </g>
      </g>
      <g
         transform="matrix(0.41906542,0,0,-0.41906542,54.521277,160.07881)"
         id="g6721">
        <path
           inkscape:connector-curvature="0"
           id="path6723"
           style="fill:#d9d8f4;fill-opacity:1;fill-rule:nonzero;stroke:none"
           d="m 0,0 c 4.653,3.888 10.253,6.519 16.043,8.32 20.058,6.245 41.817,2.742 62.103,-2.715 20.287,-5.456 40.285,-12.853 61.236,-14.377 9.986,-0.726 20.979,0.273 28.285,7.119 2.167,2.03 3.977,4.695 4.075,7.663 0.099,2.968 -2.035,6.115 -4.998,6.32 -2.962,0.205 -5.589,-3.612 -3.804,-5.985 -5.522,5.412 -2.307,13.515 4.258,15.972 5.51,2.062 13.976,1.687 19.662,0.179 10.217,-2.709 19.276,-10.213 22.91,-20.139 3.633,-9.924 1.267,-22.032 -6.511,-29.188 -4.454,-4.097 -10.28,-6.423 -16.176,-7.784 -21.865,-5.049 -44.481,2.17 -65.795,9.192 -21.313,7.023 -44.072,13.997 -65.824,8.481 -9.894,-2.51 -18.949,-7.483 -28.125,-11.954 -9.176,-4.471 -18.838,-8.544 -29.033,-9.027 -10.197,-0.481 -21.118,3.252 -26.887,11.673 -4.629,6.756 -5.279,16.039 -1.638,23.375 3.643,7.336 9.346,12.45 17.527,12.847 C -10.747,10.065 -8.74,9.9 -6.981,9.066 -3.488,7.411 -1.52,3.553 0,0" />
      </g>
      <g
         transform="matrix(0.41906542,0,0,-0.41906542,50.783256,174.22432)"
         id="g6725">
        <path
           inkscape:connector-curvature="0"
           id="path6727"
           style="fill:#d9d8f4;fill-opacity:1;fill-rule:nonzero;stroke:none"
           d="m 0,0 c -0.336,0 -0.524,0.003 -0.543,0.005 -0.275,0.007 -0.492,0.236 -0.483,0.513 0.007,0.275 0.225,0.49 0.513,0.483 0.181,0 18.165,-0.421 29.535,7.804 7.503,5.428 34.893,22.359 72.303,12.268 13.296,-3.588 23.63,-6.829 31.933,-9.432 13.198,-4.14 21.917,-6.875 31.686,-7.793 0.275,-0.027 0.477,-0.27 0.451,-0.545 -0.028,-0.275 -0.284,-0.473 -0.544,-0.45 -9.874,0.929 -18.634,3.676 -31.892,7.835 -8.294,2.602 -18.617,5.839 -31.895,9.42 C 64.085,30.083 37.02,13.36 29.607,7.996 19.091,0.389 3.134,0 0,0" />
      </g>
      <g
         transform="matrix(0.41906542,0,0,-0.41906542,-201.92061,353.73376)"
         id="g6793">
        <g
           id="g6795" />
        <g
           id="g6807">
          <g
             style="opacity:0.58000201"
             id="g6805"
             clip-path="url(#clipPath6799)">
            <g
               id="g6803"
               transform="translate(584.2657,449.3605)">
              <path
                 inkscape:connector-curvature="0"
                 id="path6801"
                 style="fill:#d9d8f4;fill-opacity:1;fill-rule:nonzero;stroke:none"
                 d="m 0,0 c -0.243,0 -0.455,0.177 -0.493,0.423 -1.757,11.369 12.435,19.363 13.041,19.698 0.241,0.132 0.545,0.047 0.678,-0.195 0.133,-0.241 0.045,-0.544 -0.195,-0.678 C 12.889,19.168 -1.158,11.254 0.494,0.576 0.536,0.304 0.349,0.048 0.077,0.006 0.051,0.002 0.025,0 0,0" />
            </g>
          </g>
        </g>
      </g>
      <g
         transform="matrix(0.41906542,0,0,-0.41906542,-201.92061,353.73376)"
         id="g6809">
        <g
           id="g6811" />
        <g
           id="g6823">
          <g
             style="opacity:0.58000201"
             id="g6821"
             clip-path="url(#clipPath6815)">
            <g
               id="g6819"
               transform="translate(597.1974,434.091)">
              <path
                 inkscape:connector-curvature="0"
                 id="path6817"
                 style="fill:#d9d8f4;fill-opacity:1;fill-rule:nonzero;stroke:none"
                 d="m 0,0 c -0.085,0 -0.172,0.022 -0.251,0.068 -13.497,7.885 -6.431,22.93 -6.357,23.081 0.12,0.249 0.418,0.354 0.665,0.232 0.248,-0.119 0.352,-0.418 0.233,-0.666 C -5.991,22.133 -12.444,8.347 0.252,0.932 0.49,0.791 0.57,0.486 0.432,0.248 0.339,0.089 0.172,0 0,0" />
            </g>
          </g>
        </g>
      </g>
      <g
         transform="matrix(0.41906542,0,0,-0.41906542,-201.92061,353.73376)"
         id="g6825">
        <g
           id="g6827" />
        <g
           id="g6839">
          <g
             style="opacity:0.58000201"
             id="g6837"
             clip-path="url(#clipPath6831)">
            <g
               id="g6835"
               transform="translate(603.674,433.2238)">
              <path
                 inkscape:connector-curvature="0"
                 id="path6833"
                 style="fill:#d9d8f4;fill-opacity:1;fill-rule:nonzero;stroke:none"
                 d="m 0,0 c -1.215,0 -1.916,0.062 -1.944,0.063 -0.274,0.027 -0.475,0.27 -0.451,0.545 0.027,0.273 0.238,0.476 0.545,0.451 0.117,-0.013 11.808,-1.016 23.652,5.591 12.583,7.021 31.12,14.705 45.414,15.216 0.275,0.018 0.506,-0.205 0.515,-0.481 0.01,-0.276 -0.205,-0.506 -0.481,-0.516 C 53.136,20.363 34.77,12.742 22.287,5.778 13.049,0.624 3.89,0 0,0" />
            </g>
          </g>
        </g>
      </g>
      <g
         transform="matrix(0.41906542,0,0,-0.41906542,56.136984,165.36788)"
         id="g6841">
        <path
           inkscape:connector-curvature="0"
           id="path6843"
           style="fill:#ffddd7;fill-opacity:1;fill-rule:nonzero;stroke:none"
           d="m 0,0 -2.228,-13.325 c 0,0 4.342,-1.799 8.375,-10.485 0,0 2.916,-2.916 1.118,-3.04 -1.799,-0.124 -7.073,0 -7.073,0 0,0 -0.744,0.496 0.372,0.993 1.118,0.497 4.095,0.152 3.165,1.596 -0.931,1.444 -10.609,9.881 -10.609,9.881 v 11.494 4.885 z" />
      </g>
      <g
         transform="matrix(0.41906542,0,0,-0.41906542,49.997508,157.51124)"
         id="g6845">
        <path
           inkscape:connector-curvature="0"
           id="path6847"
           style="fill:#ffddd7;fill-opacity:1;fill-rule:nonzero;stroke:none"
           d="m 0,0 c 0,0 -6.791,0.966 -14.311,6.873 l -3.807,2.539 v 3.272 c 0,0 0.342,0.39 0.439,-0.391 0.098,-0.781 1.221,-2.197 0.879,-0.635 -0.342,1.563 -1.318,1.563 -1.318,1.563 0,0 -0.337,0.354 0,0.354 0.336,0 2.464,-0.451 2.265,-2.019 -0.198,-1.569 0.126,-1.893 0.126,-1.893 0,0 8.102,-3.305 8.988,-4.16 C -5.853,4.647 0.08,2.813 0.08,2.813 0.08,2.813 -0.472,2.809 0,0" />
      </g>
      <g
         transform="matrix(0.41906542,0,0,-0.41906542,51.802255,155.49855)"
         id="g6849">
        <path
           inkscape:connector-curvature="0"
           id="path6851"
           style="fill:#ffddd7;fill-opacity:1;fill-rule:nonzero;stroke:none"
           d="M 0,0 C 0,0 -0.543,-0.117 -0.333,0.965 -0.122,2.048 0.99,2.679 0.539,4.634 0.088,6.588 -1.535,9.385 -5.023,8.152 -8.512,6.919 -8.662,4.96 -8.211,4.226 -7.76,3.491 -7.64,1.928 -8.001,1.356 -8.361,0.785 -7.249,0.814 -7.249,0.814 l 0.24,-0.818 c 0,0 0.693,0.037 1.113,0.518 0,0 -0.241,-0.782 -0.841,-0.993 0,0 0.016,-1.773 1.451,-1.172 1.435,0.601 1.412,0.752 1.412,0.752 l 0.128,-1.138 c 0,0 -0.198,-3.406 1.953,-0.698 0,0 0.788,1.18 1.072,1.707 C -0.436,-0.502 -0.208,-0.024 0,0" />
      </g>
      <g
         transform="matrix(0.41906542,0,0,-0.41906542,48.344169,153.12413)"
         id="g6853">
        <path
           inkscape:connector-curvature="0"
           id="path6855"
           style="fill:#4255c5;fill-opacity:1;fill-rule:nonzero;stroke:none"
           d="m 0,0 c 0,0 1.05,0.616 1.935,-0.349 0.883,-0.964 2.048,-2.21 2.732,-1.968 0.684,0.24 0.714,0.994 1.487,0.803 0.773,-0.191 0.523,-2.167 0.523,-2.167 0,0 0.602,-0.807 1.647,-0.767 0,0 3.939,-2.29 6.39,-1.205 2.451,1.085 6.551,-0.804 7.716,-2.934 1.166,-2.13 4.742,-0.482 4.742,-0.482 0,0 -2.531,-0.724 -3.858,1.326 -1.326,2.05 -2.089,2.448 -2.089,2.448 0,0 1.968,-0.961 3.214,-2.046 1.246,-1.086 1.809,-0.643 1.809,-0.643 0,0 -1.081,0.249 -1.505,1.29 -0.425,1.041 -1.831,2.608 -4.162,2.809 0,0 2.384,0.216 3.222,-0.856 0,0 -1.663,5.129 -8.607,2.101 0,0 -3.376,-2.123 -6.068,-1.041 0,0 0.684,4.417 -1.688,5.865 C 5.069,3.63 0.839,3.002 0,0" />
      </g>
      <g
         transform="matrix(0.41906542,0,0,-0.41906542,-201.92061,353.73376)"
         id="g6857">
        <g
           id="g6859" />
        <g
           id="g6871">
          <g
             id="g6869"
             clip-path="url(#clipPath6863)">
            <g
               id="g6867"
               transform="translate(601.5753,472.1418)">
              <path
                 inkscape:connector-curvature="0"
                 id="path6865"
                 style="fill:#ffddd7;fill-opacity:1;fill-rule:nonzero;stroke:none"
                 d="m 0,0 c 0,0 1.755,1.002 1.829,1.555 0,0 -0.675,-2.199 -1.701,-3.201 0,0 0.033,1.05 -0.128,1.646" />
            </g>
          </g>
        </g>
      </g>
      <g
         transform="matrix(0.41906542,0,0,-0.41906542,-201.92061,353.73376)"
         id="g6873">
        <g
           id="g6875" />
        <g
           id="g6887">
          <g
             id="g6885"
             clip-path="url(#clipPath6879)">
            <g
               id="g6883"
               transform="translate(601.1427,468.2384)">
              <path
                 inkscape:connector-curvature="0"
                 id="path6881"
                 style="fill:#ffddd7;fill-opacity:1;fill-rule:nonzero;stroke:none"
                 d="m 0,0 -0.227,1.514 -17.891,7.898 c 0,0 5.39,-3.72 7.504,-5.114 C -8.425,2.853 -3.318,0.48 0,0" />
            </g>
          </g>
        </g>
      </g>
      <g
         transform="matrix(0.41906542,0,0,-0.41906542,-201.92061,353.73376)"
         id="g6889">
        <g
           id="g6891" />
        <g
           id="g6903">
          <g
             id="g6901"
             clip-path="url(#clipPath6895)">
            <g
               id="g6899"
               transform="translate(608.9132,445.1271)">
              <path
                 inkscape:connector-curvature="0"
                 id="path6897"
                 style="fill:#ffddd7;fill-opacity:1;fill-rule:nonzero;stroke:none"
                 d="M 0,0 3.616,-1.129 2.522,-8.535 0,-5.877 Z" />
            </g>
          </g>
        </g>
      </g>
      <g
         transform="matrix(0.41906542,0,0,-0.41906542,-201.92061,353.73376)"
         id="g6905">
        <g
           id="g6907" />
        <g
           id="g6919">
          <g
             id="g6917"
             clip-path="url(#clipPath6911)">
            <g
               id="g6915"
               transform="translate(611.4357,436.5919)">
              <path
                 inkscape:connector-curvature="0"
                 id="path6913"
                 style="fill:#ffddd7;fill-opacity:1;fill-rule:nonzero;stroke:none"
                 d="m 0,0 c 0,0 8.402,-6.479 10.505,-10.911 0,0 2.879,-2.988 1.117,-3.04 H 4.55 c 0,0 -0.693,0.419 0.372,0.992 1.064,0.574 4.309,0.327 3.164,1.597 -1.146,1.269 -10.608,9.881 -10.608,9.881 z" />
            </g>
          </g>
        </g>
      </g>
      <g
         transform="matrix(0.41906542,0,0,-0.41906542,56.323175,172.5763)"
         id="g6921">
        <path
           inkscape:connector-curvature="0"
           id="path6923"
           style="fill:#ffddd7;fill-opacity:1;fill-rule:nonzero;stroke:none"
           d="m 0,0 c -0.959,0.661 -1.763,0.473 -2.424,1.332 -3.908,5.088 -6.484,7.684 -9.385,8.211 l 8.36,3.958 c 0.592,0.123 1.132,0.386 1.587,0.751 l 0.002,10e-4 c 0.862,0.693 1.416,1.755 1.416,2.948 0,2.088 -1.693,3.78 -3.781,3.78 -0.449,0 -0.878,-0.082 -1.277,-0.225 -0.597,-0.215 -1.123,-0.574 -1.538,-1.038 -2.417,-1.732 -7.142,-5.537 -10.175,-10.702 0,0 7.606,-6.606 12.178,-8.973 1.175,-0.607 1.64,-2.108 0.941,-3.231 -0.039,-0.063 -0.082,-0.126 -0.129,-0.19 -1.123,-1.516 -2.507,-3.032 -2.112,-3.626 0,0 1.582,-0.527 3.758,1.649 1.061,1.061 2.076,2.123 2.836,2.931 C 0.932,-1.706 0.811,-0.559 0,0" />
      </g>
      <g
         transform="matrix(0.41906542,0,0,-0.41906542,50.674383,166.10246)"
         id="g6925">
        <path
           inkscape:connector-curvature="0"
           id="path6927"
           style="fill:#ff766d;fill-opacity:1;fill-rule:nonzero;stroke:none"
           d="m 0,0 c 0,0 1.835,-2.058 4.26,-2.173 2.425,-0.115 7.043,-3.348 11.777,-1.154 0,0 -0.808,2.308 -0.808,4.733 0,2.425 -2.339,10.301 -4.765,12.643 -2.425,2.343 -2.676,11.208 -6.775,11.626 0,0 -1.001,-0.058 -1.433,-0.873 -0.433,-0.817 -2.927,-5.525 -3.311,-2.043 v 0.508 l -0.48,0.047 c 0,0 -1.107,-0.122 0.885,-6.393 C 1.341,10.649 8.216,4.184 0,0" />
      </g>
      <g
         transform="matrix(0.41906542,0,0,-0.41906542,52.749259,156.03466)"
         id="g6929">
        <path
           inkscape:connector-curvature="0"
           id="path6931"
           style="fill:#ffddd7;fill-opacity:1;fill-rule:nonzero;stroke:none"
           d="m 0,0 7.61,-3.531 c 0,0 7.163,-1.692 8.905,-2.936 0.932,-0.666 1.565,-1.203 1.952,-1.559 0.294,-0.271 0.366,-0.703 0.179,-1.056 l -0.707,-1.326 c -0.172,-0.324 -0.509,-0.527 -0.877,-0.527 -0.255,0 -0.501,0.099 -0.686,0.275 l -0.672,0.64 c -0.183,0.174 -0.292,0.411 -0.307,0.662 l -0.026,0.454 c 0,0 -1.194,1.244 -5.323,1.94 -4.128,0.696 -10.993,4.377 -10.993,4.377 0,0 -1.443,0.896 -0.796,2.14 C -1.095,0.796 0,0 0,0" />
      </g>
      <g
         transform="matrix(0.41906542,0,0,-0.41906542,-201.92061,353.73376)"
         id="g6933">
        <g
           id="g6935" />
        <g
           id="g6947">
          <g
             id="g6945"
             clip-path="url(#clipPath6939)">
            <g
               id="g6943"
               transform="translate(605.8019,470.4962)">
              <path
                 inkscape:connector-curvature="0"
                 id="path6941"
                 style="fill:#ffddd7;fill-opacity:1;fill-rule:nonzero;stroke:none"
                 d="m 0,0 c 0,0 16.997,-5.884 17.278,-7.639 0,0 -0.508,0.61 -2.699,1.327 -2.19,0.719 -3.667,0.481 -5.94,1.541 0,0 -4.885,1.889 -6.87,3.032 0,0 -1.525,0.603 -1.769,1.739" />
            </g>
          </g>
        </g>
      </g>
      <g
         transform="matrix(0.41906542,0,0,-0.41906542,-201.92061,353.73376)"
         id="g6949">
        <g
           id="g6951" />
        <g
           id="g6963">
          <g
             id="g6961"
             clip-path="url(#clipPath6955)">
            <g
               id="g6959"
               transform="translate(599.0226,441.3048)">
              <path
                 inkscape:connector-curvature="0"
                 id="path6957"
                 style="fill:#ffddd7;fill-opacity:1;fill-rule:nonzero;stroke:none"
                 d="m 0,0 c 0,0 9.938,-5.932 12.178,-8.973 0,0 -7.03,4.075 -12.178,8.973" />
            </g>
          </g>
        </g>
      </g>
      <g
         transform="matrix(0.41906542,0,0,-0.41906542,73.472547,165.43744)"
         id="g6965">
        <path
           inkscape:connector-curvature="0"
           id="path6967"
           style="fill:#ffddd7;fill-opacity:1;fill-rule:nonzero;stroke:none"
           d="m 0,0 c 0,2.318 -1.879,4.198 -4.197,4.198 -0.74,0 -1.433,-0.193 -2.036,-0.528 0,0 -8.25,-4.515 -13.232,-10.419 0,0 5.166,-6.002 11.531,-10.243 0,0 1.938,-1.105 2.861,1.387 0,0 -3.875,6.781 -7.197,8.51 l 8.957,2.992 C -1.42,-3.696 0,-2.015 0,0" />
      </g>
      <g
         transform="matrix(0.41906542,0,0,-0.41906542,78.962556,172.40235)"
         id="g6969">
        <path
           inkscape:connector-curvature="0"
           id="path6971"
           style="fill:#ffddd7;fill-opacity:1;fill-rule:nonzero;stroke:none"
           d="m 0,0 c -4.613,4.981 -8.487,6.089 -8.487,6.089 l -2.045,11.461 c -0.096,2.411 -2.074,4.337 -4.508,4.337 -2.495,0 -4.518,-2.023 -4.518,-4.518 0,-0.783 0.2,-1.519 0.551,-2.162 l 6.645,-12.255 c 0,0 1.199,-0.184 4.243,-1.846 3.045,-1.66 8.765,-6.918 8.765,-6.918 2.213,-0.185 3.043,2.724 3.043,2.724 C 1.752,-2.208 0,0 0,0" />
      </g>
      <g
         transform="matrix(0.41906542,0,0,-0.41906542,69.053125,168.16958)"
         id="g6973">
        <path
           inkscape:connector-curvature="0"
           id="path6975"
           style="fill:#262c61;fill-opacity:1;fill-rule:nonzero;stroke:none"
           d="m 0,0 c 0,0 -0.128,3.979 -2.909,5.38 l 4.952,3.785 c 0,0 5.182,3.521 8.503,3.151 0,0 3.321,-2.512 3.418,-6.898 l 0.995,-8.31 -6.812,-0.663 -1.876,5.651 z" />
      </g>
      <g
         transform="matrix(0.41906542,0,0,-0.41906542,69.95508,164.43889)"
         id="g6977">
        <path
           inkscape:connector-curvature="0"
           id="path6979"
           style="fill:#4255c5;fill-opacity:1;fill-rule:nonzero;stroke:none"
           d="m 0,0 c 0,0 10.694,-4.293 10.702,0.598 l -6.655,14.372 -4.92,5.802 c 0,0 -2.689,-6.053 -4.189,-3.449 0,0 -1.268,0.298 -1.653,-1.163 z" />
      </g>
      <g
         transform="matrix(0.41906542,0,0,-0.41906542,69.589236,155.7339)"
         id="g6981">
        <path
           inkscape:connector-curvature="0"
           id="path6983"
           style="fill:#4255c5;fill-opacity:1;fill-rule:nonzero;stroke:none"
           d="M 0,0 H 8.687 L 7.303,-5.012 4.92,-5.803 c 0,0 -7.379,-1.768 -4.92,5.803" />
      </g>
      <g
         transform="matrix(0.41906542,0,0,-0.41906542,67.141139,157.66675)"
         id="g6985">
        <path
           inkscape:connector-curvature="0"
           id="path6987"
           style="fill:#4255c5;fill-opacity:1;fill-rule:nonzero;stroke:none"
           d="M 0,0 -1.46,-6.251 2.152,-7.04 1.653,1.163 C 1.653,1.163 0.326,1.395 0,0" />
      </g>
      <g
         transform="matrix(0.41906542,0,0,-0.41906542,73.229447,155.7339)"
         id="g6989">
        <path
           inkscape:connector-curvature="0"
           id="path6991"
           style="fill:#ffddd7;fill-opacity:1;fill-rule:nonzero;stroke:none"
           d="m 0,0 h 3.613 c 0,0 2.562,-4.831 3.55,-7.775 0.41,-1.226 1.03,-2.371 1.805,-3.407 l 2.312,-3.093 c 0,0 -2.412,-1.971 -4.347,0.645 0,0 -0.51,0.815 -0.409,-0.578 0.103,-1.393 -0.778,-1.664 -0.778,-1.664 0,0 -0.302,3.091 0,3.77 0.303,0.68 0.371,1.189 -0.683,2.854 -1.052,1.664 -3.77,5.639 -3.77,5.639 l -2.342,-0.189 z" />
      </g>
      <g
         transform="matrix(0.41906542,0,0,-0.41906542,66.529304,160.28629)"
         id="g6993">
        <path
           inkscape:connector-curvature="0"
           id="path6995"
           style="fill:#ffddd7;fill-opacity:1;fill-rule:nonzero;stroke:none"
           d="m 0,0 -0.756,-3.932 c -0.012,-0.059 -0.016,-0.12 -0.016,-0.179 v -0.452 c 0,-0.283 0.125,-0.55 0.341,-0.732 l 0.419,-0.351 C 0.291,-5.899 0.72,-5.939 1.064,-5.747 l 1.149,0.64 c 0.115,0.065 0.217,0.153 0.297,0.258 l 1.775,2.353 c 0,0 1.041,0.558 1.86,1.376 0.818,0.818 1.264,1.115 0.483,1.748 C 5.847,1.26 4.241,1.624 3.612,-0.789 Z" />
      </g>
      <g
         transform="matrix(0.41906542,0,0,-0.41906542,67.83398,157.17934)"
         id="g6997">
        <path
           inkscape:connector-curvature="0"
           id="path6999"
           style="fill:#ffddd7;fill-opacity:1;fill-rule:nonzero;stroke:none"
           d="M 0,0 C 0,0 0.251,1.101 -1.308,1.295 -2.865,1.488 -4.23,0.78 -4.251,1.804 v 1.131 c 0,0 1.322,0.02 1.674,0.657 0,0 -1.49,-0.37 -1.797,-0.165 v 0.839 c 0,0 -0.9,-0.082 -0.696,0.368 0.205,0.45 0.962,1.105 1.044,1.761 0.082,0.654 -0.471,1.535 -0.184,2.23 0.286,0.696 1.924,3.72 5.731,2.328 C 5.328,9.561 5.594,7.084 5.287,5.877 4.979,4.669 4.188,3.449 4.188,3.449 4.188,3.449 1.618,-2.588 0,0" />
      </g>
      <g
         transform="matrix(0.41906542,0,0,-0.41906542,69.589236,155.7339)"
         id="g7001">
        <path
           inkscape:connector-curvature="0"
           id="path7003"
           style="fill:#fc504e;fill-opacity:1;fill-rule:nonzero;stroke:none"
           d="m 0,0 c 0,0 -1.367,-0.838 -1.496,0.927 -0.128,1.764 -1.86,2.406 -2.759,1.508 -0.898,-0.899 -1.187,-0.161 -0.898,0.673 0.289,0.834 -1.412,1.668 -0.994,2.374 0,0 -2.6,-0.352 -2.471,0.995 0,0 0.192,-0.289 0.481,0 0,0 -1.004,0.499 -0.486,1.388 0,0 0.167,-0.536 1.321,0 C -6.147,8.402 0.461,10.23 0.75,5.579 0.75,5.579 2.716,2.507 0,0" />
      </g>
      <g
         transform="matrix(0.41906542,0,0,-0.41906542,-201.92061,353.73376)"
         id="g7005">
        <g
           id="g7007" />
        <g
           id="g7019">
          <g
             id="g7017"
             clip-path="url(#clipPath7011)">
            <g
               id="g7015"
               transform="translate(656.5802,472.4796)">
              <path
                 inkscape:connector-curvature="0"
                 id="path7013"
                 style="fill:#ffddd7;fill-opacity:1;fill-rule:nonzero;stroke:none"
                 d="m 0,0 c 0,0 5.034,-6 5.746,-10.503 0,0 -2.006,3.563 -4.453,6.894 l -2.342,-0.189 z" />
            </g>
          </g>
        </g>
      </g>
      <g
         transform="matrix(0.41906542,0,0,-0.41906542,-201.92061,353.73376)"
         id="g7021">
        <g
           id="g7023" />
        <g
           id="g7035">
          <g
             id="g7033"
             clip-path="url(#clipPath7027)">
            <g
               id="g7031"
               transform="translate(644.2042,460.8273)">
              <path
                 inkscape:connector-curvature="0"
                 id="path7029"
                 style="fill:#ffddd7;fill-opacity:1;fill-rule:nonzero;stroke:none"
                 d="m 0,0 -2.544,-1.95 0.735,2.345 z" />
            </g>
          </g>
        </g>
      </g>
      <g
         transform="matrix(0.41906542,0,0,-0.41906542,-201.92061,353.73376)"
         id="g7037">
        <g
           id="g7039" />
        <g
           id="g7051">
          <g
             id="g7049"
             clip-path="url(#clipPath7043)">
            <g
               id="g7047"
               transform="translate(647.8937,472.4796)">
              <path
                 inkscape:connector-curvature="0"
                 id="path7045"
                 style="fill:#ffddd7;fill-opacity:1;fill-rule:nonzero;stroke:none"
                 d="m 0,0 c 0,0 -3.626,-2.432 -5.842,-2.126 0,0 1.946,-0.057 1.654,-1.323 0,0 1.259,-2.872 4.188,3.449" />
            </g>
          </g>
        </g>
      </g>
      <g
         transform="matrix(0.41906542,0,0,-0.41906542,-201.92061,353.73376)"
         id="g7053">
        <g
           id="g7055" />
        <g
           id="g7067">
          <g
             id="g7065"
             clip-path="url(#clipPath7059)">
            <g
               id="g7063"
               transform="translate(646.1368,445.1593)">
              <path
                 inkscape:connector-curvature="0"
                 id="path7061"
                 style="fill:#ffddd7;fill-opacity:1;fill-rule:nonzero;stroke:none"
                 d="m 0,0 -3.739,-2.77 9.689,-8.67 c 0,0 -3.832,6.737 -7.196,8.51 l 1.724,0.576 c 0,0 0.288,0.815 -0.478,2.354" />
            </g>
          </g>
        </g>
      </g>
      <g
         transform="matrix(0.41906542,0,0,-0.41906542,-201.92061,353.73376)"
         id="g7069">
        <g
           id="g7071" />
        <g
           id="g7083">
          <g
             id="g7081"
             clip-path="url(#clipPath7075)">
            <g
               id="g7079"
               transform="translate(655.8898,439.3595)">
              <path
                 inkscape:connector-curvature="0"
                 id="path7077"
                 style="fill:#ffddd7;fill-opacity:1;fill-rule:nonzero;stroke:none"
                 d="m 0,0 2.009,-3.703 c 0,0 3.655,-0.811 7.94,-4.435 4.286,-3.625 5.068,-4.33 5.068,-4.33 0,0 -6.743,6.974 -10.487,9.45 L 2.345,0.229 Z" />
            </g>
          </g>
        </g>
      </g>
      <g
         transform="matrix(0.41906542,0,0,-0.41906542,70.356963,172.66062)"
         id="g7085">
        <path
           inkscape:connector-curvature="0"
           id="path7087"
           style="fill:#262c61;fill-opacity:1;fill-rule:nonzero;stroke:none"
           d="m 0,0 c 0,0 1.805,-0.301 2.361,1.631 0,0 1.886,-1.606 2.764,-3.225 C 5.289,-1.896 5.218,-2.271 4.967,-2.505 3.618,-3.77 -0.806,-7.62 -3.565,-6.531 l -0.123,0.258 c -0.246,0.51 -0.105,1.124 0.342,1.471 0.277,0.216 0.628,0.456 1.048,0.678 C -1.158,-3.521 1.25,-1.71 0,0" />
      </g>
      <g
         transform="matrix(0.41906542,0,0,-0.41906542,80.508656,173.69638)"
         id="g7089">
        <path
           inkscape:connector-curvature="0"
           id="path7091"
           style="fill:#262c61;fill-opacity:1;fill-rule:nonzero;stroke:none"
           d="M 0,0 C 0,0 1.698,-0.484 2.491,-1.692 2.69,-1.995 2.659,-2.396 2.42,-2.67 l -4.18,-4.794 c 0,0 -1.903,-1.326 -3.568,0.246 -0.076,0.072 -0.118,0.176 -0.118,0.281 v 0.628 c 0,0.148 0.083,0.281 0.216,0.345 0.362,0.174 1.118,0.494 1.778,0.494 0,0 0.877,1.502 0.408,2.745 0,0 2.388,1.003 3.044,2.725" />
      </g>
      <g
         transform="matrix(0.41906542,0,0,-0.41906542,-201.92061,353.73376)"
         id="g7093">
        <g
           id="g7095" />
        <g
           id="g7107">
          <g
             id="g7105"
             clip-path="url(#clipPath7099)">
            <g
               id="g7103"
               transform="translate(654.8507,430.4943)">
              <path
                 inkscape:connector-curvature="0"
                 id="path7101"
                 style="fill:#262c61;fill-opacity:1;fill-rule:nonzero;stroke:none"
                 d="m 0,0 c 0,0 -6.176,-5.67 -8.933,-4.125 l 0.243,-0.812 c 0,0 2.243,-1.62 8.532,4.026 0,0 0.47,0.395 0.158,0.911" />
            </g>
          </g>
        </g>
      </g>
      <g
         transform="matrix(0.41906542,0,0,-0.41906542,-201.92061,353.73376)"
         id="g7109">
        <g
           id="g7111" />
        <g
           id="g7123">
          <g
             id="g7121"
             clip-path="url(#clipPath7115)">
            <g
               id="g7119"
               transform="translate(668.504,423.3078)">
              <path
                 inkscape:connector-curvature="0"
                 id="path7117"
                 style="fill:#262c61;fill-opacity:1;fill-rule:nonzero;stroke:none"
                 d="m 0,0 c 0,0 1.729,-1.393 3.018,-0.411 1.287,0.981 4.644,5.379 4.644,5.379 0,0 0.79,-0.658 0.204,-1.329 -0.585,-0.672 -4.179,-4.794 -4.179,-4.794 0,0 -1.621,-1.203 -3.276,0 0,0 -0.515,0.157 -0.411,1.155" />
            </g>
          </g>
        </g>
      </g>
      <g
         transform="matrix(0.41906542,0,0,-0.41906542,43.048565,152.76603)"
         id="g7125">
        <path
           inkscape:connector-curvature="0"
           id="path7127"
           style="fill:#1f184b;fill-opacity:1;fill-rule:nonzero;stroke:none"
           d="m 0,0 h -0.436 v 3.796 c 0,1.545 0.601,2.996 1.694,4.088 C 2.349,8.976 3.8,9.575 5.344,9.575 H 5.346 L 16.723,9.57 h 0.007 c 2.961,0 5.744,1.154 7.839,3.246 2.096,2.095 3.25,4.881 3.25,7.845 v 7.497 c 0,4.635 3.77,8.405 8.405,8.405 H 62.146 V 36.126 H 36.224 c -4.393,0 -7.968,-3.575 -7.968,-7.968 v -7.497 c 0,-3.08 -1.199,-5.975 -3.378,-8.153 C 22.7,10.332 19.808,9.134 16.73,9.134 H 16.723 L 5.346,9.139 H 5.344 C 3.916,9.139 2.576,8.584 1.566,7.574 0.558,6.566 0,5.224 0,3.796 Z" />
      </g>
      <g
         transform="matrix(0.41906542,0,0,-0.41906542,86.480338,136.76746)"
         id="g7129">
        <path
           inkscape:connector-curvature="0"
           id="path7131"
           style="fill:#ffddd7;fill-opacity:1;fill-rule:nonzero;stroke:none"
           d="M 0,0 -19.672,14.735 -43.602,-1.856 -17.67,-13.268 Z" />
      </g>
      <g
         transform="matrix(0.41906542,0,0,-0.41906542,86.480338,136.76746)"
         id="g7133">
        <path
           inkscape:connector-curvature="0"
           id="path7135"
           style="fill:#fc504e;fill-opacity:1;fill-rule:nonzero;stroke:none"
           d="m 0,0 -18.482,0.653 0.812,-13.921 z" />
      </g>
      <g
         transform="matrix(0.41906542,0,0,-0.41906542,78.236525,130.5924)"
         id="g7137">
        <path
           inkscape:connector-curvature="0"
           id="path7139"
           style="fill:#fc504e;fill-opacity:1;fill-rule:nonzero;stroke:none"
           d="m 0,0 1.189,-14.082 -25.119,-2.51 z" />
      </g>
      <g
         transform="matrix(0.41906542,0,0,-0.41906542,43.103379,170.69789)"
         id="g7213">
        <path
           inkscape:connector-curvature="0"
           id="path7215"
           style="fill:#262c61;fill-opacity:1;fill-rule:nonzero;stroke:none"
           d="m 0,0 c -1.71,0 -3.102,-1.39 -3.102,-3.1 0,-1.71 1.392,-3.101 3.102,-3.101 1.71,0 3.101,1.391 3.101,3.101 C 3.101,-1.39 1.71,0 0,0 m 0,-7.471 c -2.411,0 -4.371,1.961 -4.371,4.371 0,2.41 1.96,4.37 4.371,4.37 2.41,0 4.371,-1.96 4.371,-4.37 C 4.371,-5.51 2.41,-7.471 0,-7.471" />
      </g>
      <g
         transform="matrix(0.41906542,0,0,-0.41906542,67.461976,173.98738)"
         id="g7217">
        <path
           inkscape:connector-curvature="0"
           id="path7219"
           style="fill:#fc504e;fill-opacity:1;fill-rule:nonzero;stroke:none"
           d="m 0,0 c 0,3.339 -2.707,6.046 -6.047,6.046 -3.339,0 -6.046,-2.707 -6.046,-6.046 0,-3.34 2.707,-6.047 6.046,-6.047 C -2.707,-6.047 0,-3.34 0,0" />
      </g>
      <g
         transform="matrix(0.41906542,0,0,-0.41906542,-201.92061,353.73376)"
         id="g7221">
        <g
           id="g7223" />
        <g
           id="g7235">
          <g
             id="g7233"
             clip-path="url(#clipPath7227)">
            <g
               id="g7231"
               transform="translate(642.8175,428.922)">
              <path
                 inkscape:connector-curvature="0"
                 id="path7229"
                 style="fill:#ff766d;fill-opacity:1;fill-rule:nonzero;stroke:none"
                 d="m 0,0 c 0,3.339 -2.707,6.046 -6.047,6.046 -3.339,0 -6.046,-2.707 -6.046,-6.046 0,-3.34 2.707,-6.047 6.046,-6.047 C -2.707,-6.047 0,-3.34 0,0" />
            </g>
          </g>
        </g>
      </g>
      <g
         transform="matrix(0.41906542,0,0,-0.41906542,-201.92061,353.73376)"
         id="g7237">
        <g
           id="g7239" />
        <g
           id="g7251">
          <g
             id="g7249"
             clip-path="url(#clipPath7243)">
            <g
               id="g7247"
               transform="translate(633.424,423.8859)">
              <path
                 inkscape:connector-curvature="0"
                 id="path7245"
                 style="fill:#ff766d;fill-opacity:1;fill-rule:nonzero;stroke:none"
                 d="m 0,0 c 0,0 7.08,-0.379 9.394,5.036 0,0 0.254,-3.699 -3.519,-5.492 0,0 -2.703,-1.588 -5.875,0.456" />
            </g>
          </g>
        </g>
      </g>
      <g
         transform="matrix(0.41906542,0,0,-0.41906542,80.385492,150.28932)"
         id="g7253">
        <path
           inkscape:connector-curvature="0"
           id="path7255"
           style="fill:#4255c5;fill-opacity:1;fill-rule:nonzero;stroke:none"
           d="m 0,0 c -0.486,-0.791 -0.241,-1.826 0.55,-2.313 0.79,-0.488 1.826,-0.242 2.312,0.549 0.272,0.44 0.316,0.956 0.164,1.411 H 3.027 C 3.025,-0.349 3.024,-0.345 3.022,-0.34 v 0.002 C 2.574,0.937 3.783,1.27 3.783,1.27 4.051,1.349 4.292,1.522 4.45,1.778 4.79,2.33 4.618,3.054 4.066,3.394 3.515,3.733 2.791,3.562 2.451,3.01 2.293,2.754 2.247,2.461 2.297,2.187 H 2.296 C 2.299,2.177 2.3,2.169 2.302,2.159 2.305,2.146 2.307,2.131 2.31,2.117 2.523,1.014 1.401,0.811 1.214,0.784 1.207,0.783 1.2,0.783 1.193,0.781 H 1.187 V 0.78 C 0.713,0.711 0.271,0.44 0,0" />
      </g>
      <g
         transform="matrix(0.41906542,0,0,-0.41906542,80.843028,154.34407)"
         id="g7257">
        <path
           inkscape:connector-curvature="0"
           id="path7259"
           style="fill:#4255c5;fill-opacity:1;fill-rule:nonzero;stroke:none"
           d="m 0,0 c -0.005,-1.105 0.887,-2.005 1.992,-2.01 1.105,-0.005 2.005,0.887 2.01,1.992 C 4.004,0.598 3.729,1.149 3.293,1.519 H 3.294 C 3.289,1.521 3.285,1.525 3.281,1.528 L 3.279,1.53 C 2.033,2.548 3.057,3.636 3.057,3.636 H 3.056 C 3.279,3.882 3.416,4.207 3.418,4.565 3.421,5.337 2.799,5.966 2.026,5.969 1.255,5.973 0.627,5.35 0.623,4.578 0.622,4.22 0.757,3.894 0.978,3.645 H 0.977 C 0.984,3.637 0.991,3.629 0.999,3.621 1.011,3.608 1.021,3.596 1.033,3.583 1.935,2.594 0.921,1.691 0.746,1.55 0.74,1.544 0.733,1.539 0.727,1.534 0.724,1.531 0.721,1.529 0.721,1.529 H 0.722 C 0.283,1.164 0.002,0.615 0,0" />
      </g>
      <g
         transform="matrix(0.41906542,0,0,-0.41906542,80.778366,158.83553)"
         id="g7261">
        <path
           inkscape:connector-curvature="0"
           id="path7263"
           style="fill:#4255c5;fill-opacity:1;fill-rule:nonzero;stroke:none"
           d="m 0,0 c -0.812,-0.75 -0.862,-2.016 -0.112,-2.828 0.75,-0.812 2.015,-0.861 2.827,-0.112 0.453,0.418 0.668,0.996 0.64,1.566 l 10e-4,-10e-4 c -10e-4,0.006 -10e-4,0.011 -10e-4,0.016 v 0.003 C 3.25,0.249 4.744,0.242 4.744,0.242 5.076,0.247 5.407,0.368 5.671,0.611 6.237,1.135 6.272,2.02 5.749,2.586 5.226,3.152 4.341,3.188 3.774,2.664 3.512,2.421 3.364,2.101 3.333,1.77 V 1.771 C 3.332,1.759 3.331,1.749 3.33,1.737 3.329,1.721 3.327,1.703 3.326,1.687 3.217,0.353 1.865,0.479 1.643,0.51 1.635,0.511 1.626,0.513 1.618,0.514 1.613,0.515 1.61,0.515 1.61,0.515 L 1.611,0.514 C 1.045,0.586 0.452,0.418 0,0" />
      </g>
      <g
         transform="matrix(0.41906542,0,0,-0.41906542,83.190046,165.22221)"
         id="g7265">
        <path
           inkscape:connector-curvature="0"
           id="path7267"
           style="fill:#4255c5;fill-opacity:1;fill-rule:nonzero;stroke:none"
           d="M 0,0 C 0.498,-0.987 1.701,-1.383 2.688,-0.885 3.675,-0.387 4.07,0.817 3.572,1.804 3.295,2.354 2.799,2.719 2.242,2.85 H 2.243 C 2.238,2.851 2.233,2.853 2.228,2.854 H 2.226 C 0.653,3.193 1.069,4.628 1.069,4.628 1.155,4.948 1.13,5.301 0.969,5.62 0.621,6.31 -0.22,6.586 -0.908,6.238 -1.597,5.89 -1.873,5.05 -1.525,4.361 -1.364,4.041 -1.096,3.812 -0.787,3.69 -0.776,3.688 -0.767,3.683 -0.757,3.68 -0.74,3.674 -0.725,3.667 -0.709,3.661 0.544,3.19 0.051,1.926 -0.039,1.72 -0.043,1.712 -0.047,1.704 -0.05,1.696 L -0.053,1.69 h 0.001 C -0.277,1.166 -0.277,0.549 0,0" />
      </g>
      <g
         transform="matrix(0.41906542,0,0,-0.41906542,80.392868,157.54682)"
         id="g7269">
        <path
           inkscape:connector-curvature="0"
           id="path7271"
           style="fill:#4255c5;fill-opacity:1;fill-rule:nonzero;stroke:none"
           d="M 0,0 C 0.924,-1.066 2.538,-1.181 3.604,-0.257 4.67,0.668 4.784,2.281 3.86,3.348 3.345,3.941 2.616,4.239 1.888,4.228 V 4.229 C 1.881,4.228 1.875,4.229 1.868,4.228 H 1.864 C -0.188,4.158 -0.12,6.063 -0.12,6.063 -0.113,6.487 -0.255,6.915 -0.555,7.261 -1.2,8.005 -2.326,8.085 -3.071,7.439 -3.815,6.794 -3.896,5.668 -3.25,4.924 -2.95,4.578 -2.547,4.377 -2.126,4.324 -2.112,4.323 -2.099,4.32 -2.085,4.319 -2.063,4.317 -2.042,4.314 -2.02,4.312 -0.321,4.12 -0.538,2.4 -0.586,2.117 L -0.592,2.085 C -0.593,2.08 -0.593,2.076 -0.593,2.076 V 2.077 C -0.707,1.357 -0.516,0.594 0,0" />
      </g>
      <g
         transform="matrix(0.41906542,0,0,-0.41906542,84.57162,163.59707)"
         id="g7273">
        <path
           inkscape:connector-curvature="0"
           id="path7275"
           style="fill:#4255c5;fill-opacity:1;fill-rule:nonzero;stroke:none"
           d="M 0,0 C 1.055,-0.937 2.67,-0.843 3.607,0.212 4.545,1.266 4.45,2.881 3.396,3.818 2.808,4.341 2.047,4.542 1.325,4.436 L 1.326,4.437 C 1.319,4.436 1.313,4.435 1.307,4.434 H 1.303 C -0.724,4.099 -0.902,5.997 -0.902,5.997 -0.95,6.418 -1.146,6.824 -1.488,7.128 -2.224,7.783 -3.352,7.717 -4.006,6.98 -4.661,6.244 -4.595,5.116 -3.858,4.462 -3.517,4.158 -3.09,4.012 -2.666,4.013 h -10e-4 c 0.015,0.001 0.028,0 0.042,0.001 0.021,0 0.044,0 0.065,10e-4 1.709,0.029 1.717,-1.704 1.706,-1.992 0,-0.01 0,-0.021 -0.001,-0.032 V 1.982 C -0.876,1.254 -0.587,0.521 0,0" />
      </g>
      <g
         transform="matrix(0.41906542,0,0,-0.41906542,79.207667,152.87818)"
         id="g7277">
        <path
           inkscape:connector-curvature="0"
           id="path7279"
           style="fill:#4255c5;fill-opacity:1;fill-rule:nonzero;stroke:none"
           d="M 0,0 C 0.326,-0.869 1.295,-1.31 2.164,-0.983 3.033,-0.657 3.474,0.312 3.147,1.182 2.966,1.665 2.585,2.016 2.133,2.176 2.129,2.178 2.125,2.179 2.12,2.181 H 2.118 C 0.836,2.608 1.314,3.768 1.314,3.768 1.416,4.028 1.427,4.324 1.321,4.606 1.093,5.213 0.416,5.521 -0.19,5.293 -0.798,5.064 -1.104,4.389 -0.877,3.781 -0.771,3.5 -0.568,3.283 -0.321,3.154 -0.312,3.15 -0.306,3.146 -0.297,3.142 -0.284,3.136 -0.271,3.129 -0.259,3.123 0.745,2.615 0.218,1.604 0.123,1.44 0.12,1.434 0.116,1.428 0.113,1.422 0.111,1.419 0.109,1.417 0.109,1.417 H 0.11 C -0.125,0.999 -0.182,0.484 0,0" />
      </g>
      <g
         transform="matrix(0.41906542,0,0,-0.41906542,84.63997,160.57482)"
         id="g7281">
        <path
           inkscape:connector-curvature="0"
           id="path7283"
           style="fill:#4255c5;fill-opacity:1;fill-rule:nonzero;stroke:none"
           d="M 0,0 C 0.91,-0.183 1.796,0.408 1.979,1.318 2.16,2.229 1.57,3.114 0.66,3.297 0.153,3.398 -0.347,3.26 -0.721,2.96 V 2.961 C -0.724,2.958 -0.728,2.955 -0.731,2.952 L -0.732,2.951 C -1.772,2.088 -2.505,3.106 -2.505,3.106 -2.672,3.33 -2.918,3.495 -3.213,3.555 -3.849,3.682 -4.467,3.27 -4.595,2.634 -4.722,1.998 -4.31,1.38 -3.674,1.253 c 0.295,-0.06 0.586,-10e-4 0.826,0.141 0.008,0.004 0.016,0.008 0.024,0.014 0.011,0.007 0.024,0.014 0.036,0.023 0.961,0.583 1.542,-0.399 1.631,-0.566 C -1.154,0.859 -1.15,0.854 -1.147,0.847 -1.146,0.844 -1.145,0.842 -1.145,0.842 -0.914,0.422 -0.507,0.102 0,0" />
      </g>
      <g
         transform="matrix(0.41906542,0,0,-0.41906542,80.881498,162.4946)"
         id="g7285">
        <path
           inkscape:connector-curvature="0"
           id="path7287"
           style="fill:#4255c5;fill-opacity:1;fill-rule:nonzero;stroke:none"
           d="m 0,0 c -0.175,-0.912 0.423,-1.793 1.335,-1.968 0.912,-0.175 1.793,0.423 1.968,1.335 0.096,0.508 -0.046,1.006 -0.349,1.378 H 2.955 C 2.952,0.748 2.949,0.752 2.946,0.755 2.946,0.756 2.945,0.756 2.945,0.757 2.073,1.789 3.086,2.53 3.086,2.53 3.308,2.699 3.472,2.946 3.528,3.242 3.65,3.879 3.233,4.494 2.597,4.615 1.96,4.737 1.345,4.32 1.223,3.684 1.166,3.388 1.227,3.098 1.37,2.858 1.375,2.851 1.38,2.844 1.385,2.836 1.393,2.823 1.399,2.811 1.407,2.799 1.999,1.843 1.022,1.255 0.856,1.164 0.851,1.16 0.844,1.157 0.838,1.154 0.835,1.152 0.832,1.151 0.832,1.151 H 0.833 C 0.414,0.917 0.098,0.508 0,0" />
      </g>
      <g
         transform="matrix(0.41906542,0,0,-0.41906542,86.812238,163.80866)"
         id="g7289">
        <path
           inkscape:connector-curvature="0"
           id="path7291"
           style="fill:#4255c5;fill-opacity:1;fill-rule:nonzero;stroke:none"
           d="M 0,0 C 0.313,-1.057 1.425,-1.658 2.481,-1.344 3.539,-1.03 4.141,0.081 3.826,1.138 3.651,1.727 3.229,2.174 2.706,2.4 H 2.707 C 2.702,2.402 2.697,2.404 2.692,2.407 2.691,2.407 2.691,2.407 2.69,2.408 1.207,3.02 1.87,4.354 1.87,4.354 H 1.869 C 2.011,4.653 2.049,5.004 1.947,5.347 1.728,6.084 0.951,6.505 0.214,6.285 -0.524,6.065 -0.944,5.29 -0.725,4.552 -0.623,4.209 -0.4,3.937 -0.118,3.764 L -0.119,3.763 C -0.109,3.758 -0.101,3.752 -0.091,3.746 -0.076,3.738 -0.062,3.729 -0.047,3.721 1.1,3.036 0.391,1.882 0.266,1.695 0.261,1.688 0.256,1.682 0.252,1.675 0.249,1.672 0.247,1.669 0.247,1.669 H 0.248 C -0.065,1.194 -0.176,0.589 0,0" />
      </g>
      <g
         transform="matrix(0.41906542,0,0,-0.41906542,80.049486,161.3487)"
         id="g7293">
        <path
           inkscape:connector-curvature="0"
           id="path7295"
           style="fill:#4255c5;fill-opacity:1;fill-rule:nonzero;stroke:none"
           d="M 0,0 C 0.469,-0.647 1.374,-0.791 2.021,-0.322 2.668,0.147 2.813,1.052 2.343,1.699 2.082,2.06 1.685,2.264 1.273,2.293 1.27,2.293 1.266,2.294 1.262,2.294 H 1.26 C 0.099,2.355 0.23,3.428 0.23,3.428 0.255,3.667 0.196,3.915 0.045,4.125 -0.283,4.576 -0.915,4.678 -1.367,4.35 -1.818,4.022 -1.919,3.391 -1.592,2.938 -1.439,2.729 -1.222,2.596 -0.987,2.545 -0.979,2.543 -0.972,2.542 -0.964,2.54 -0.952,2.538 -0.939,2.535 -0.928,2.533 0.021,2.341 -0.186,1.381 -0.227,1.224 -0.228,1.218 -0.229,1.212 -0.231,1.206 -0.232,1.203 -0.232,1.201 -0.232,1.201 -0.332,0.801 -0.262,0.36 0,0" />
      </g>
      <g
         transform="matrix(0.41906542,0,0,-0.41906542,78.583972,157.57263)"
         id="g7297">
        <path
           inkscape:connector-curvature="0"
           id="path7299"
           style="fill:#4255c5;fill-opacity:1;fill-rule:nonzero;stroke:none"
           d="m 0,0 c -0.099,-0.622 0.325,-1.207 0.947,-1.306 0.622,-0.099 1.206,0.325 1.306,0.947 0.056,0.346 -0.052,0.681 -0.266,0.926 H 1.988 C 1.986,0.57 1.984,0.572 1.982,0.574 1.981,0.575 1.981,0.575 1.981,0.576 1.368,1.258 2.039,1.781 2.039,1.781 2.187,1.9 2.292,2.071 2.324,2.273 2.394,2.708 2.098,3.116 1.663,3.186 1.229,3.255 0.82,2.959 0.751,2.524 0.719,2.322 0.767,2.127 0.869,1.968 0.873,1.963 0.876,1.958 0.879,1.952 0.885,1.944 0.89,1.937 0.896,1.929 1.316,1.292 0.667,0.873 0.557,0.808 0.552,0.806 0.548,0.803 0.544,0.801 L 0.54,0.799 H 0.541 C 0.262,0.631 0.056,0.347 0,0" />
      </g>
      <g
         transform="matrix(0.41906542,0,0,-0.41906542,88.964474,166.73721)"
         id="g7301">
        <path
           inkscape:connector-curvature="0"
           id="path7303"
           style="fill:#4255c5;fill-opacity:1;fill-rule:nonzero;stroke:none"
           d="M 0,0 C 0.523,-0.351 1.231,-0.21 1.582,0.313 1.933,0.837 1.792,1.545 1.269,1.896 0.977,2.091 0.628,2.133 0.315,2.043 L 0.307,2.04 H 0.306 C -0.57,1.769 -0.765,2.597 -0.765,2.597 -0.812,2.78 -0.923,2.948 -1.093,3.062 -1.458,3.307 -1.953,3.208 -2.197,2.843 -2.442,2.478 -2.344,1.982 -1.979,1.738 -1.809,1.624 -1.611,1.586 -1.424,1.612 h -0.001 c 0.007,10e-4 0.013,0.002 0.019,0.003 0.01,0.001 0.019,0.002 0.029,0.004 0.754,0.117 0.863,-0.648 0.876,-0.776 0,-0.005 0,-0.01 0.001,-0.015 V 0.824 l 0.001,0.001 C -0.464,0.501 -0.292,0.195 0,0" />
      </g>
      <g
         transform="matrix(0.41906542,0,0,-0.41906542,90.095992,168.1348)"
         id="g7305">
        <path
           inkscape:connector-curvature="0"
           id="path7307"
           style="fill:#4255c5;fill-opacity:1;fill-rule:nonzero;stroke:none"
           d="m 0,0 c -0.329,0.537 -1.032,0.706 -1.568,0.377 -0.537,-0.329 -0.706,-1.032 -0.377,-1.568 0.183,-0.3 0.482,-0.485 0.804,-0.533 h -10e-4 c 0.003,-0.001 0.006,-0.001 0.009,-0.002 h 0.002 c 0.909,-0.119 0.739,-0.953 0.739,-0.953 h 0.001 c -0.034,-0.186 -0.004,-0.384 0.104,-0.559 0.229,-0.375 0.72,-0.492 1.095,-0.263 0.375,0.23 0.492,0.72 0.262,1.095 -0.106,0.175 -0.269,0.292 -0.451,0.346 -0.006,0.002 -0.012,0.003 -0.017,0.005 -0.01,0.003 -0.019,0.006 -0.029,0.008 -0.733,0.209 -0.512,0.95 -0.47,1.072 0.001,0.004 0.002,0.009 0.004,0.013 0.001,0.003 0.001,0.004 0.001,0.004 C 0.212,-0.649 0.183,-0.299 0,0" />
      </g>
      <g
         transform="matrix(0.41906542,0,0,-0.41906542,83.448274,155.16338)"
         id="g7309">
        <path
           inkscape:connector-curvature="0"
           id="path7311"
           style="fill:#4255c5;fill-opacity:1;fill-rule:nonzero;stroke:none"
           d="m 0,0 c -0.023,-0.63 0.468,-1.159 1.097,-1.183 0.63,-0.023 1.159,0.468 1.182,1.098 C 2.292,0.266 2.146,0.585 1.904,0.803 1.902,0.805 1.9,0.808 1.897,0.81 L 1.896,0.811 C 1.206,1.413 1.809,2.014 1.809,2.014 1.94,2.15 2.024,2.333 2.032,2.537 2.049,2.977 1.705,3.346 1.266,3.362 0.826,3.379 0.457,3.035 0.44,2.596 0.433,2.392 0.504,2.203 0.625,2.058 H 0.624 C 0.629,2.054 0.632,2.049 0.637,2.044 0.643,2.036 0.649,2.029 0.655,2.021 1.15,1.441 0.556,0.946 0.454,0.868 0.45,0.865 0.446,0.863 0.442,0.86 L 0.439,0.857 C 0.183,0.658 0.013,0.351 0,0" />
      </g>
      <g
         transform="matrix(0.41906542,0,0,-0.41906542,87.21454,169.05968)"
         id="g7313">
        <path
           inkscape:connector-curvature="0"
           id="path7315"
           style="fill:#4255c5;fill-opacity:1;fill-rule:nonzero;stroke:none"
           d="m 0,0 c -0.023,-0.63 0.468,-1.159 1.098,-1.183 0.629,-0.022 1.158,0.469 1.181,1.098 0.013,0.351 -0.133,0.67 -0.375,0.889 L 1.898,0.81 C 1.897,0.81 1.897,0.811 1.896,0.811 1.206,1.413 1.809,2.015 1.809,2.015 1.94,2.15 2.024,2.333 2.032,2.537 2.049,2.977 1.706,3.346 1.267,3.362 0.826,3.379 0.457,3.036 0.44,2.597 0.434,2.393 0.504,2.204 0.625,2.059 H 0.624 C 0.629,2.054 0.633,2.049 0.637,2.044 0.643,2.037 0.649,2.029 0.655,2.022 1.15,1.441 0.556,0.946 0.454,0.869 L 0.442,0.86 0.439,0.857 H 0.44 C 0.184,0.658 0.013,0.351 0,0" />
      </g>
      <g
         transform="matrix(0.41906542,0,0,-0.41906542,81.02595,148.22672)"
         id="g7317">
        <path
           inkscape:connector-curvature="0"
           id="path7319"
           style="fill:#4255c5;fill-opacity:1;fill-rule:nonzero;stroke:none"
           d="M 0,0 C 0.304,-0.552 0.997,-0.754 1.549,-0.45 2.101,-0.146 2.303,0.547 1.999,1.099 1.83,1.406 1.54,1.604 1.221,1.668 1.218,1.669 1.215,1.67 1.212,1.67 H 1.211 C 0.309,1.832 0.517,2.658 0.517,2.658 0.56,2.842 0.538,3.042 0.439,3.221 0.228,3.606 -0.257,3.747 -0.642,3.535 -1.027,3.323 -1.168,2.839 -0.956,2.454 -0.857,2.274 -0.7,2.149 -0.521,2.087 H -0.522 C -0.516,2.085 -0.511,2.083 -0.504,2.081 -0.495,2.078 -0.486,2.074 -0.477,2.072 0.246,1.828 -0.01,1.098 -0.057,0.979 -0.059,0.975 -0.061,0.97 -0.062,0.966 -0.063,0.964 -0.063,0.962 -0.063,0.962 -0.181,0.659 -0.169,0.308 0,0" />
      </g>
      <g
         transform="matrix(0.41906542,0,0,-0.41906542,82.860995,152.25285)"
         id="g7321">
        <path
           inkscape:connector-curvature="0"
           id="path7323"
           style="fill:#4255c5;fill-opacity:1;fill-rule:nonzero;stroke:none"
           d="M 0,0 C 0.549,-0.309 1.244,-0.114 1.553,0.435 1.862,0.983 1.668,1.679 1.119,1.988 0.812,2.16 0.462,2.176 0.157,2.062 0.154,2.061 0.152,2.06 0.149,2.059 0.148,2.059 0.148,2.058 0.147,2.058 -0.704,1.72 -0.963,2.531 -0.963,2.531 -1.023,2.71 -1.147,2.869 -1.325,2.969 -1.708,3.185 -2.194,3.049 -2.41,2.666 -2.626,2.282 -2.49,1.797 -2.106,1.581 -1.929,1.48 -1.729,1.457 -1.544,1.498 c 0.006,0.002 0.012,0.003 0.018,0.004 0.009,0.003 0.019,0.005 0.028,0.007 0.743,0.175 0.911,-0.581 0.934,-0.707 0.001,-0.005 0.001,-0.009 0.002,-0.014 0,-0.003 0,-0.004 0,-0.004 C -0.501,0.465 -0.306,0.172 0,0" />
      </g>
      <g
         transform="matrix(0.41906542,0,0,-0.41906542,77.569875,150.61958)"
         id="g7325">
        <path
           inkscape:connector-curvature="0"
           id="path7327"
           style="fill:#4255c5;fill-opacity:1;fill-rule:nonzero;stroke:none"
           d="m 0,0 c -0.342,-0.529 -0.188,-1.235 0.341,-1.576 0.529,-0.342 1.235,-0.189 1.576,0.341 0.19,0.295 0.227,0.644 0.131,0.955 l -0.003,0.009 v 0 C 1.758,0.601 2.583,0.811 2.583,0.811 2.766,0.86 2.932,0.975 3.042,1.146 3.28,1.516 3.174,2.009 2.804,2.247 2.434,2.485 1.941,2.378 1.703,2.009 1.593,1.837 1.557,1.639 1.587,1.452 1.588,1.446 1.589,1.44 1.59,1.434 1.592,1.424 1.593,1.415 1.595,1.405 1.725,0.653 0.961,0.531 0.834,0.516 0.829,0.516 0.824,0.515 0.819,0.515 0.817,0.514 0.815,0.514 0.815,0.514 0.493,0.473 0.189,0.295 0,0" />
      </g>
      <g
         transform="matrix(0.41906542,0,0,-0.41906542,86.241764,166.24079)"
         id="g7329">
        <path
           inkscape:connector-curvature="0"
           id="path7331"
           style="fill:#4255c5;fill-opacity:1;fill-rule:nonzero;stroke:none"
           d="M 0,0 C 0.603,-0.525 1.517,-0.463 2.042,0.14 2.567,0.742 2.505,1.656 1.903,2.182 1.567,2.475 1.135,2.584 0.728,2.521 0.724,2.52 0.72,2.52 0.716,2.519 H 0.714 C -0.432,2.318 -0.543,3.393 -0.543,3.393 -0.573,3.631 -0.686,3.859 -0.881,4.03 -1.302,4.396 -1.94,4.354 -2.307,3.933 -2.674,3.512 -2.63,2.874 -2.21,2.507 c 0.195,-0.17 0.438,-0.251 0.678,-0.248 0.008,10e-4 0.015,0 0.023,10e-4 0.013,0 0.026,0 0.037,0.001 C -0.504,2.286 -0.49,1.305 -0.494,1.142 -0.495,1.136 -0.495,1.13 -0.495,1.124 V 1.118 1.119 C -0.503,0.706 -0.335,0.293 0,0" />
      </g>
      <g
         transform="matrix(0.41906542,0,0,-0.41906542,83.300134,157.31683)"
         id="g7333">
        <path
           inkscape:connector-curvature="0"
           id="path7335"
           style="fill:#4255c5;fill-opacity:1;fill-rule:nonzero;stroke:none"
           d="M 0,0 C 0.626,-0.686 1.689,-0.733 2.375,-0.106 3.06,0.52 3.107,1.583 2.48,2.269 2.132,2.65 1.647,2.833 1.168,2.813 h 0.001 c -0.005,0 -0.009,0 -0.014,0 H 1.153 C -0.195,2.731 -0.184,3.986 -0.184,3.986 H -0.185 C -0.187,4.265 -0.287,4.544 -0.49,4.767 -0.928,5.244 -1.67,5.277 -2.148,4.841 -2.627,4.403 -2.66,3.66 -2.223,3.182 -2.02,2.96 -1.751,2.835 -1.474,2.808 V 2.807 c 0.01,0 0.019,-10e-4 0.028,-0.002 0.014,-0.001 0.028,-0.003 0.043,-0.003 1.12,-0.098 1.007,-1.233 0.981,-1.42 L -0.425,1.361 C -0.426,1.357 -0.426,1.355 -0.426,1.355 -0.488,0.88 -0.35,0.381 0,0" />
      </g>
      <g
         transform="matrix(0.41906542,0,0,-0.41906542,78.930623,149.40371)"
         id="g7337">
        <path
           inkscape:connector-curvature="0"
           id="path7339"
           style="fill:#4255c5;fill-opacity:1;fill-rule:nonzero;stroke:none"
           d="m 0,0 c -0.126,-0.92 0.518,-1.769 1.437,-1.895 0.92,-0.126 1.768,0.518 1.894,1.438 C 3.401,0.056 3.232,0.545 2.91,0.9 2.907,0.904 2.905,0.907 2.901,0.91 2.901,0.911 2.9,0.912 2.9,0.912 1.975,1.896 2.946,2.69 2.946,2.69 3.159,2.871 3.31,3.127 3.351,3.425 3.438,4.067 2.989,4.659 2.347,4.747 1.704,4.835 1.112,4.386 1.024,3.743 0.983,3.445 1.06,3.158 1.216,2.928 1.222,2.92 1.226,2.913 1.231,2.905 1.24,2.894 1.247,2.882 1.256,2.87 1.898,1.946 0.953,1.308 0.793,1.208 0.787,1.204 0.78,1.201 0.774,1.197 0.771,1.195 0.77,1.194 0.77,1.194 L 0.771,1.193 C 0.364,0.938 0.07,0.512 0,0" />
      </g>
      <g
         transform="matrix(0.41906542,0,0,-0.41906542,98.991745,162.36159)"
         id="g7533">
        <path
           inkscape:connector-curvature="0"
           id="path7535"
           style="fill:#fc504e;fill-opacity:1;fill-rule:nonzero;stroke:none"
           d="M 0,0 3.279,13.704 H -18.616 L -15.338,0 c 0.366,-1.528 1.732,-2.605 3.303,-2.605 h 8.733 c 1.571,0 2.937,1.077 3.302,2.605" />
      </g>
      <g
         transform="matrix(0.41906542,0,0,-0.41906542,90.589568,154.78442)"
         id="g7537">
        <path
           inkscape:connector-curvature="0"
           id="path7539"
           style="fill:#ff766d;fill-opacity:1;fill-rule:nonzero;stroke:none"
           d="m 0,0 h 23.678 c 1.244,0 2.253,-1.009 2.253,-2.253 0,-1.244 -1.009,-2.252 -2.253,-2.252 H 0 c -1.244,0 -2.252,1.008 -2.252,2.252 C -2.252,-1.009 -1.244,0 0,0" />
      </g>
      <g
         transform="matrix(0.41906542,0,0,-0.41906542,96.535477,154.78442)"
         id="g7541">
        <path
           inkscape:connector-curvature="0"
           id="path7543"
           style="fill:#1f184b;fill-opacity:1;fill-rule:nonzero;stroke:none"
           d="m 0,0 c 0,0 -1.866,4.695 2.695,8.22 4.561,3.524 14.409,1.347 15.653,14.304 0,0 -1.97,-1.554 -4.043,-0.622 -2.074,0.934 -10.677,-3.056 -11.818,-9.562 0,0 -0.725,-2.669 -1.658,-3.913 0,0 3.006,9.329 0.726,14.097 -2.281,4.769 14.097,1.245 12.543,15.446 0,0 -0.726,-2.488 -3.318,-2.074 -2.592,0.416 -9.64,-4.042 -10.262,-8.707 0,0 -1.347,13.269 -10.47,13.684 0,0 1.452,-0.83 0.518,-3.732 -0.932,-2.903 -3.317,-8.604 3.836,-11.61 C 1.555,22.524 1.451,19 1.451,19 c 0,0 -0.103,-3.213 -0.725,-5.286 0,0 -2.489,5.359 -7.775,6.723 -5.287,1.362 -7.982,-2.577 -11.195,-0.918 0,0 1.865,-5.288 8.188,-5.391 6.324,-0.104 9.744,-0.933 9.537,-3.317 C -0.726,8.427 -4.078,2.252 -3.214,0 Z" />
      </g>
    </g>
  </g>
</svg>
