<?xml version="1.0" encoding="UTF-8" standalone="no"?>
<!-- Created with Inkscape (http://www.inkscape.org/) -->

<svg
   xmlns:dc="http://purl.org/dc/elements/1.1/"
   xmlns:cc="http://creativecommons.org/ns#"
   xmlns:rdf="http://www.w3.org/1999/02/22-rdf-syntax-ns#"
   xmlns:svg="http://www.w3.org/2000/svg"
   xmlns="http://www.w3.org/2000/svg"
   xmlns:sodipodi="http://sodipodi.sourceforge.net/DTD/sodipodi-0.dtd"
   xmlns:inkscape="http://www.inkscape.org/namespaces/inkscape"
   width="81.732895mm"
   height="42.259884mm"
   viewBox="0 0 81.732896 42.259884"
   version="1.1"
   id="svg34910"
   inkscape:version="0.92.5 (2060ec1f9f, 2020-04-08)"
   sodipodi:docname="inmufortAdultsDrawing01.svg">
  <defs
     id="defs34904">
    <clipPath
       clipPathUnits="userSpaceOnUse"
       id="clipPath24989">
      <path
         d="m 663.81,513.309 h 24.797 V 475.556 H 663.81 Z"
         id="path24987"
         inkscape:connector-curvature="0" />
    </clipPath>
    <clipPath
       clipPathUnits="userSpaceOnUse"
       id="clipPath24969">
      <path
         d="m 695.359,500.64 h 14.924 v -4.62 h -14.924 z"
         id="path24967"
         inkscape:connector-curvature="0" />
    </clipPath>
    <clipPath
       clipPathUnits="userSpaceOnUse"
       id="clipPath24949">
      <path
         d="m 660.455,516.18 h 28.104 v -4.638 h -28.104 z"
         id="path24947"
         inkscape:connector-curvature="0" />
    </clipPath>
    <clipPath
       clipPathUnits="userSpaceOnUse"
       id="clipPath24929">
      <path
         d="m 698.428,448.657 h 4.425 v -14.595 h -4.425 z"
         id="path24927"
         inkscape:connector-curvature="0" />
    </clipPath>
    <clipPath
       clipPathUnits="userSpaceOnUse"
       id="clipPath24913">
      <path
         d="m 650.877,457.69 h 12.307 v -9.102 h -12.307 z"
         id="path24911"
         inkscape:connector-curvature="0" />
    </clipPath>
    <clipPath
       clipPathUnits="userSpaceOnUse"
       id="clipPath24897">
      <path
         d="m 650.305,518.454 h 2.544 v -4.985 h -2.544 z"
         id="path24895"
         inkscape:connector-curvature="0" />
    </clipPath>
    <clipPath
       clipPathUnits="userSpaceOnUse"
       id="clipPath24881">
      <path
         d="m 636.452,506.026 h 6.423 v -8.863 h -6.423 z"
         id="path24879"
         inkscape:connector-curvature="0" />
    </clipPath>
    <clipPath
       clipPathUnits="userSpaceOnUse"
       id="clipPath24865">
      <path
         d="m 642.657,503.732 h 7.648 v -10.988 h -7.648 z"
         id="path24863"
         inkscape:connector-curvature="0" />
    </clipPath>
    <clipPath
       clipPathUnits="userSpaceOnUse"
       id="clipPath24845">
      <path
         d="m 664.011,480.847 h 8.111 v -20.554 h -8.111 z"
         id="path24843"
         inkscape:connector-curvature="0" />
    </clipPath>
    <clipPath
       clipPathUnits="userSpaceOnUse"
       id="clipPath24797">
      <path
         d="m 560.333,440.075 h 2.167 v -2.31 h -2.167 z"
         id="path24795"
         inkscape:connector-curvature="0" />
    </clipPath>
    <clipPath
       clipPathUnits="userSpaceOnUse"
       id="clipPath24781">
      <path
         d="m 556.529,439.97 h 2.711 v -2.205 h -2.711 z"
         id="path24779"
         inkscape:connector-curvature="0" />
    </clipPath>
    <clipPath
       clipPathUnits="userSpaceOnUse"
       id="clipPath24765">
      <path
         d="m 552.998,439.668 h 2.578 v -2.311 h -2.578 z"
         id="path24763"
         inkscape:connector-curvature="0" />
    </clipPath>
    <clipPath
       clipPathUnits="userSpaceOnUse"
       id="clipPath24745">
      <path
         d="m 573.794,441.328 h 2.892 V 434.2 h -2.892 z"
         id="path24743"
         inkscape:connector-curvature="0" />
    </clipPath>
    <clipPath
       clipPathUnits="userSpaceOnUse"
       id="clipPath24721">
      <path
         d="m 587.984,442.638 h 2.892 v -7.127 h -2.892 z"
         id="path24719"
         inkscape:connector-curvature="0" />
    </clipPath>
    <clipPath
       clipPathUnits="userSpaceOnUse"
       id="clipPath24697">
      <path
         d="m 537.569,443.83 h 9.477 v -6.48 h -9.477 z"
         id="path24695"
         inkscape:connector-curvature="0" />
    </clipPath>
    <clipPath
       clipPathUnits="userSpaceOnUse"
       id="clipPath24677">
      <path
         d="m 541.501,447.524 h 3.503 v -3.956 h -3.503 z"
         id="path24675"
         inkscape:connector-curvature="0" />
    </clipPath>
    <clipPath
       clipPathUnits="userSpaceOnUse"
       id="clipPath24657">
      <path
         d="m 539.179,446.435 h 2.184 v -4.369 h -2.184 z"
         id="path24655"
         inkscape:connector-curvature="0" />
    </clipPath>
    <clipPath
       clipPathUnits="userSpaceOnUse"
       id="clipPath24637">
      <path
         d="m 535.727,448.426 h 2.666 v -5.333 h -2.666 z"
         id="path24635"
         inkscape:connector-curvature="0" />
    </clipPath>
    <clipPath
       clipPathUnits="userSpaceOnUse"
       id="clipPath24617">
      <path
         d="m 531.66,447.056 h 2.185 v -4.369 h -2.185 z"
         id="path24615"
         inkscape:connector-curvature="0" />
    </clipPath>
    <clipPath
       clipPathUnits="userSpaceOnUse"
       id="clipPath24597">
      <path
         d="m 605.773,482.746 h 13.542 v -17.907 h -13.542 z"
         id="path24595"
         inkscape:connector-curvature="0" />
    </clipPath>
    <clipPath
       clipPathUnits="userSpaceOnUse"
       id="clipPath24581">
      <path
         d="m 604.899,480.417 h 3.987 v -3.592 h -3.987 z"
         id="path24579"
         inkscape:connector-curvature="0" />
    </clipPath>
    <clipPath
       clipPathUnits="userSpaceOnUse"
       id="clipPath24565">
      <path
         d="m 587.382,468.093 h 15.052 v -18.766 h -15.052 z"
         id="path24563"
         inkscape:connector-curvature="0" />
    </clipPath>
    <clipPath
       clipPathUnits="userSpaceOnUse"
       id="clipPath24549">
      <path
         d="m 576.488,467.692 h 10.645 v -26.598 h -10.645 z"
         id="path24547"
         inkscape:connector-curvature="0" />
    </clipPath>
    <clipPath
       clipPathUnits="userSpaceOnUse"
       id="clipPath24533">
      <path
         d="m 593.432,444.142 h 22.891 v -6.822 h -22.891 z"
         id="path24531"
         inkscape:connector-curvature="0" />
    </clipPath>
    <clipPath
       clipPathUnits="userSpaceOnUse"
       id="clipPath24517">
      <path
         d="m 616.001,439.843 h 11.769 v -2.51 h -11.769 z"
         id="path24515"
         inkscape:connector-curvature="0" />
    </clipPath>
    <clipPath
       clipPathUnits="userSpaceOnUse"
       id="clipPath24501">
      <path
         d="m 614.529,459.108 h 5.263 V 445.18 h -5.263 z"
         id="path24499"
         inkscape:connector-curvature="0" />
    </clipPath>
    <clipPath
       clipPathUnits="userSpaceOnUse"
       id="clipPath24477">
      <path
         d="m 591.102,484.526 h 7.199 v -7.069 h -7.199 z"
         id="path24475"
         inkscape:connector-curvature="0" />
    </clipPath>
    <clipPath
       clipPathUnits="userSpaceOnUse"
       id="clipPath24453">
      <path
         d="m 599.181,466.528 h 15.348 v -19.647 h -15.348 z"
         id="path24451"
         inkscape:connector-curvature="0" />
    </clipPath>
    <clipPath
       clipPathUnits="userSpaceOnUse"
       id="clipPath24437">
      <path
         d="m 619.023,470.312 h 4.256 v -24.763 h -4.256 z"
         id="path24435"
         inkscape:connector-curvature="0" />
    </clipPath>
    <clipPath
       clipPathUnits="userSpaceOnUse"
       id="clipPath24401">
      <path
         d="m 564.927,443.83 h 18.799 v -2.383 h -18.799 z"
         id="path24399"
         inkscape:connector-curvature="0" />
    </clipPath>
    <clipPath
       clipPathUnits="userSpaceOnUse"
       id="clipPath24385">
      <path
         d="m 583.143,444.08 h 9.682 v -1.393 h -9.682 z"
         id="path24383"
         inkscape:connector-curvature="0" />
    </clipPath>
    <clipPath
       clipPathUnits="userSpaceOnUse"
       id="clipPath24369">
      <path
         d="m 560.447,455.852 h 15.027 v -5.595 h -15.027 z"
         id="path24367"
         inkscape:connector-curvature="0" />
    </clipPath>
    <clipPath
       clipPathUnits="userSpaceOnUse"
       id="clipPath24349">
      <path
         d="m 558.489,480.011 h 8.431 v -15.509 h -8.431 z"
         id="path24347"
         inkscape:connector-curvature="0" />
    </clipPath>
    <clipPath
       clipPathUnits="userSpaceOnUse"
       id="clipPath24333">
      <path
         d="m 564.927,484.294 h 5.974 v -5.611 h -5.974 z"
         id="path24331"
         inkscape:connector-curvature="0" />
    </clipPath>
    <clipPath
       clipPathUnits="userSpaceOnUse"
       id="clipPath24313">
      <path
         d="m 568.808,469.964 h 5.612 v -18.178 h -5.612 z"
         id="path24311"
         inkscape:connector-curvature="0" />
    </clipPath>
    <clipPath
       clipPathUnits="userSpaceOnUse"
       id="clipPath24293">
      <path
         d="m 545.392,473.083 h 11.289 v -24.072 h -11.289 z"
         id="path24291"
         inkscape:connector-curvature="0" />
    </clipPath>
    <clipPath
       clipPathUnits="userSpaceOnUse"
       id="clipPath24269">
      <path
         d="m 557.495,449.011 h 7.432 v -2.346 h -7.432 z"
         id="path24267"
         inkscape:connector-curvature="0" />
    </clipPath>
    <clipPath
       clipPathUnits="userSpaceOnUse"
       id="clipPath24253">
      <path
         d="m 553.656,446.665 h 11.271 v -5.67 h -11.271 z"
         id="path24251"
         inkscape:connector-curvature="0" />
    </clipPath>
    <clipPath
       clipPathUnits="userSpaceOnUse"
       id="clipPath24237">
      <path
         d="m 573.247,451.786 h 3.439 v -2.775 h -3.439 z"
         id="path24235"
         inkscape:connector-curvature="0" />
    </clipPath>
    <clipPath
       clipPathUnits="userSpaceOnUse"
       id="clipPath24045">
      <path
         d="m 654.807,482.08 h 27.191 v -29.484 h -27.191 z"
         id="path24043"
         inkscape:connector-curvature="0" />
    </clipPath>
    <clipPath
       clipPathUnits="userSpaceOnUse"
       id="clipPath24029">
      <path
         d="m 672.282,490.724 h 15.382 v -21.525 h -15.382 z"
         id="path24027"
         inkscape:connector-curvature="0" />
    </clipPath>
    <clipPath
       clipPathUnits="userSpaceOnUse"
       id="clipPath24013">
      <path
         d="m 685.014,472.888 h 9.601 V 454.92 h -9.601 z"
         id="path24011"
         inkscape:connector-curvature="0" />
    </clipPath>
    <clipPath
       clipPathUnits="userSpaceOnUse"
       id="clipPath23997">
      <path
         d="m 641.396,454.769 h 12.082 v -14.782 h -12.082 z"
         id="path23995"
         inkscape:connector-curvature="0" />
    </clipPath>
    <clipPath
       clipPathUnits="userSpaceOnUse"
       id="clipPath23981">
      <path
         d="M 502.387,465.22 H 638.904 V 423.758 H 502.387 Z"
         id="path23979"
         inkscape:connector-curvature="0" />
    </clipPath>
    <clipPath
       clipPathUnits="userSpaceOnUse"
       id="clipPath23965">
      <path
         d="m 606.348,471.836 h 74.531 v -27.242 h -74.531 z"
         id="path23963"
         inkscape:connector-curvature="0" />
    </clipPath>
    <clipPath
       clipPathUnits="userSpaceOnUse"
       id="clipPath23949">
      <path
         d="m 656.777,441.064 h 24.114 v -6.353 h -24.114 z"
         id="path23947"
         inkscape:connector-curvature="0" />
    </clipPath>
    <clipPath
       clipPathUnits="userSpaceOnUse"
       id="clipPath23929">
      <path
         d="m 755.665,496.569 h 6.314 v -15.255 h -6.314 z"
         id="path23927"
         inkscape:connector-curvature="0" />
    </clipPath>
    <clipPath
       clipPathUnits="userSpaceOnUse"
       id="clipPath23913">
      <path
         d="m 724.403,465.708 h 20.561 v -14.623 h -20.561 z"
         id="path23911"
         inkscape:connector-curvature="0" />
    </clipPath>
    <clipPath
       clipPathUnits="userSpaceOnUse"
       id="clipPath23897">
      <path
         d="m 738.109,479.822 h 21.864 v -24.473 h -21.864 z"
         id="path23895"
         inkscape:connector-curvature="0" />
    </clipPath>
    <clipPath
       clipPathUnits="userSpaceOnUse"
       id="clipPath23881">
      <path
         d="m 686.702,454.355 h 49.934 v -9.201 h -49.934 z"
         id="path23879"
         inkscape:connector-curvature="0" />
    </clipPath>
  </defs>
  <sodipodi:namedview
     id="base"
     pagecolor="#ffffff"
     bordercolor="#666666"
     borderopacity="1.0"
     inkscape:pageopacity="0.0"
     inkscape:pageshadow="2"
     inkscape:zoom="1.4"
     inkscape:cx="13.139003"
     inkscape:cy="112.47223"
     inkscape:document-units="mm"
     inkscape:current-layer="layer1"
     showgrid="false"
     inkscape:window-width="1920"
     inkscape:window-height="1016"
     inkscape:window-x="0"
     inkscape:window-y="27"
     inkscape:window-maximized="1" />
  <metadata
     id="metadata34907">
    <rdf:RDF>
      <cc:Work
         rdf:about="">
        <dc:format>image/svg+xml</dc:format>
        <dc:type
           rdf:resource="http://purl.org/dc/dcmitype/StillImage" />
        <dc:title></dc:title>
      </cc:Work>
    </rdf:RDF>
  </metadata>
  <g
     inkscape:label="Layer 1"
     inkscape:groupmode="layer"
     id="layer1"
     transform="translate(-58.061079,-137.85104)">
    <g
       id="g12846">
      <g
         transform="matrix(0.38423383,0,0,-0.38423383,135.77365,167.94228)"
         id="g23939">
        <path
           inkscape:connector-curvature="0"
           id="path23941"
           style="fill:#d9d8f4;fill-opacity:1;fill-rule:nonzero;stroke:none"
           d="m 0,0 c 2.603,-2.625 2.373,-6.9 -0.209,-9.545 -5.128,-5.251 -10.579,-8.489 -17.935,-10.742 -8.298,-2.541 -17.987,-1.533 -24.651,4.027 -4.119,3.439 -6.799,8.273 -10.434,12.219 -8.385,9.103 -22.148,12.832 -33.981,9.205 -9.433,-2.891 -17.003,-9.767 -24.893,-15.69 -17.2,-12.916 -38.137,-22.132 -59.62,-21.059 -7.266,0.363 -14.715,2.008 -20.541,6.367 -7.428,5.562 -11.344,15.504 -9.563,24.612 1.782,9.108 9.241,16.884 18.299,18.907 6.336,1.415 12.914,0.18 19.378,-0.417 9.345,-0.863 19.027,-0.326 27.667,3.34 20.463,8.681 31.334,32.937 52.183,40.649 8.02,2.966 16.928,3.145 25.266,1.247 5.894,-1.342 11.694,-3.791 15.993,-8.04 4.3,-4.25 6.89,-10.508 5.729,-16.44 4.329,7.057 13.529,10.22 21.675,8.743 C -7.49,45.904 -0.47,40.434 4.383,33.726 8.248,28.383 10.979,21.888 10.381,15.32 9.783,8.753 5.206,2.309 -1.255,0.991 -0.795,0.714 -0.375,0.379 0,0" />
      </g>
      <g
         id="g23959"
         transform="matrix(0.38423383,0,0,-0.38423383,-130.2868,340.21079)">
        <g
           id="g23961" />
        <g
           id="g23973">
          <g
             id="g23971"
             clip-path="url(#clipPath23965)">
            <g
               id="g23969"
               transform="translate(667.8523,444.5938)">
              <path
                 inkscape:connector-curvature="0"
                 id="path23967"
                 style="fill:#d9d8f4;fill-opacity:1;fill-rule:nonzero;stroke:none"
                 d="m 0,0 c -4.157,0 -8.361,1.527 -11.678,4.27 -1.898,1.57 -3.474,3.49 -4.999,5.347 -0.762,0.928 -1.55,1.888 -2.363,2.784 -9.335,10.29 -24.985,15.283 -41.864,13.359 -0.297,-0.036 -0.563,0.178 -0.596,0.473 -0.034,0.295 0.178,0.562 0.474,0.595 17.224,1.966 33.215,-3.157 42.783,-13.703 0.832,-0.917 1.628,-1.887 2.398,-2.825 1.491,-1.818 3.034,-3.696 4.854,-5.201 C -7.612,2.305 -3.257,0.847 0.955,1.105 5.297,1.369 9.45,3.492 12.066,6.784 12.252,7.017 12.59,7.055 12.822,6.871 13.056,6.686 13.095,6.347 12.909,6.114 10.106,2.587 5.661,0.313 1.021,0.031 0.682,0.011 0.341,0 0,0" />
            </g>
          </g>
        </g>
      </g>
      <g
         id="g23975"
         transform="matrix(0.38423383,0,0,-0.38423383,-130.2868,340.21079)">
        <g
           id="g23977" />
        <g
           id="g23989">
          <g
             id="g23987"
             clip-path="url(#clipPath23981)">
            <g
               id="g23985"
               transform="translate(524.7429,423.7579)">
              <path
                 inkscape:connector-curvature="0"
                 id="path23983"
                 style="fill:#d9d8f4;fill-opacity:1;fill-rule:nonzero;stroke:none"
                 d="m 0,0 c -4.646,0 -8.558,0.703 -11.57,1.543 -6.683,1.86 -10.42,4.697 -10.576,4.817 -0.235,0.181 -0.279,0.519 -0.098,0.754 0.181,0.237 0.518,0.281 0.755,0.1 0.146,-0.113 14.997,-11.206 37.826,-3.269 23.032,8.008 46.216,28.146 46.448,28.348 0.22,0.196 5.599,4.937 14.626,7.548 8.33,2.407 21.422,3.328 36.494,-5.962 0.253,-0.156 0.332,-0.487 0.176,-0.74 -0.156,-0.253 -0.487,-0.331 -0.74,-0.177 C 98.603,42.047 85.83,41.153 77.71,38.807 68.915,36.264 63.551,31.534 63.498,31.486 63.261,31.278 39.918,11.004 16.69,2.929 10.46,0.763 4.833,0 0,0" />
            </g>
          </g>
        </g>
      </g>
      <g
         transform="matrix(0.38423383,0,0,-0.38423383,70.310195,159.76794)"
         id="g24059">
        <path
           inkscape:connector-curvature="0"
           id="path24061"
           style="fill:#ff8600;fill-opacity:1;fill-rule:nonzero;stroke:none"
           d="m 0,0 h -5.657 l 5.255,2.095 -0.681,1.707 -5.558,-2.215 4.231,4.23 -1.299,1.3 -4.002,-4.002 2.235,5.198 -1.687,0.727 -2.364,-5.496 v 5.983 h -1.838 V 3.869 l -2.094,5.256 -1.708,-0.681 2.216,-5.558 -4.232,4.231 -1.299,-1.3 4.002,-4.001 -5.199,2.236 L -20.405,2.364 -14.909,0 h -5.983 v -1.838 h 5.659 l -5.257,-2.095 0.68,-1.707 5.559,2.215 -4.231,-4.23 1.299,-1.3 4.001,4.001 -2.235,-5.198 1.688,-0.726 2.364,5.497 v -5.983 h 1.838 v 5.657 l 2.094,-5.256 1.707,0.681 -2.214,5.558 4.231,-4.231 1.299,1.3 -4,4 5.197,-2.235 0.726,1.688 -5.497,2.364 H 0 Z" />
      </g>
      <g
         transform="matrix(0.38423383,0,0,-0.38423383,75.564131,155.32524)"
         id="g24063">
        <path
           inkscape:connector-curvature="0"
           id="path24065"
           style="fill:#6971d1;fill-opacity:1;fill-rule:nonzero;stroke:none"
           d="M 0,0 C -0.468,0.798 -0.2,1.823 0.598,2.29 1.396,2.758 2.422,2.49 2.889,1.692 3.149,1.248 3.181,0.732 3.021,0.283 3.02,0.279 3.019,0.275 3.017,0.271 3.017,0.271 3.016,0.27 3.016,0.269 2.541,-0.99 3.738,-1.349 3.738,-1.349 V -1.35 c 0.265,-0.084 0.5,-0.261 0.652,-0.52 0.327,-0.557 0.139,-1.274 -0.417,-1.6 -0.558,-0.326 -1.274,-0.139 -1.6,0.418 -0.151,0.259 -0.191,0.551 -0.136,0.823 H 2.236 c 0.003,0.009 0.004,0.018 0.007,0.027 0.003,0.014 0.005,0.028 0.009,0.042 0.237,1.095 -0.876,1.321 -1.062,1.351 L 1.17,-0.806 C 1.166,-0.805 1.164,-0.805 1.164,-0.805 0.693,-0.725 0.26,-0.445 0,0" />
      </g>
      <g
         transform="matrix(0.38423383,0,0,-0.38423383,76.063943,151.63297)"
         id="g24067">
        <path
           inkscape:connector-curvature="0"
           id="path24069"
           style="fill:#6971d1;fill-opacity:1;fill-rule:nonzero;stroke:none"
           d="M 0,0 C 0.02,1.101 0.928,1.977 2.028,1.957 3.129,1.937 4.005,1.029 3.985,-0.071 3.975,-0.685 3.688,-1.228 3.245,-1.585 H 3.246 C 3.242,-1.589 3.238,-1.592 3.234,-1.595 3.233,-1.596 3.232,-1.596 3.231,-1.597 1.969,-2.582 2.963,-3.688 2.963,-3.688 3.179,-3.938 3.309,-4.266 3.302,-4.622 3.288,-5.391 2.654,-6.002 1.886,-5.988 c -0.769,0.013 -1.38,0.647 -1.366,1.416 0.006,0.356 0.147,0.678 0.373,0.921 H 0.892 c 0.008,0.007 0.014,0.015 0.023,0.023 0.012,0.013 0.022,0.025 0.035,0.037 0.919,0.965 -0.07,1.886 -0.241,2.031 -0.006,0.005 -0.013,0.011 -0.019,0.016 -0.003,0.003 -0.005,0.005 -0.005,0.005 H 0.686 C 0.257,-1.166 -0.011,-0.613 0,0" />
      </g>
      <g
         transform="matrix(0.38423383,0,0,-0.38423383,76.096564,147.53136)"
         id="g24071">
        <path
           inkscape:connector-curvature="0"
           id="path24073"
           style="fill:#6971d1;fill-opacity:1;fill-rule:nonzero;stroke:none"
           d="M 0,0 C -0.791,0.765 -0.813,2.026 -0.049,2.818 0.716,3.609 1.978,3.632 2.77,2.867 3.21,2.44 3.412,1.86 3.372,1.294 H 3.373 C 3.372,1.289 3.372,1.284 3.372,1.278 3.372,1.277 3.371,1.276 3.371,1.275 3.231,-0.32 4.719,-0.347 4.719,-0.347 H 4.718 C 5.049,-0.359 5.376,-0.487 5.633,-0.735 6.186,-1.27 6.201,-2.15 5.667,-2.703 5.133,-3.256 4.252,-3.271 3.699,-2.737 3.442,-2.489 3.304,-2.166 3.279,-1.836 v -10e-4 c 0,0.012 -10e-4,0.022 -0.002,0.033 -0.001,0.017 -0.002,0.033 -0.002,0.05 C 3.196,-0.423 1.848,-0.52 1.625,-0.545 1.616,-0.546 1.608,-0.547 1.6,-0.548 c -0.004,0 -0.007,-0.001 -0.007,-0.001 l 0.001,0.001 C 1.028,-0.607 0.441,-0.426 0,0" />
      </g>
      <g
         transform="matrix(0.38423383,0,0,-0.38423383,78.428635,141.74986)"
         id="g24075">
        <path
           inkscape:connector-curvature="0"
           id="path24077"
           style="fill:#6971d1;fill-opacity:1;fill-rule:nonzero;stroke:none"
           d="M 0,0 C 0.518,0.971 1.725,1.338 2.696,0.82 3.667,0.303 4.035,-0.904 3.517,-1.876 3.229,-2.417 2.726,-2.77 2.17,-2.888 2.165,-2.889 2.16,-2.891 2.155,-2.892 H 2.152 C 0.579,-3.195 0.962,-4.633 0.962,-4.633 1.041,-4.953 1.008,-5.304 0.84,-5.618 0.479,-6.297 -0.365,-6.553 -1.043,-6.191 c -0.678,0.361 -0.935,1.204 -0.573,1.882 0.168,0.315 0.44,0.538 0.751,0.651 h -0.001 c 0.011,0.004 0.02,0.008 0.031,0.011 0.016,0.005 0.032,0.011 0.048,0.016 1.258,0.442 0.795,1.712 0.71,1.919 -0.004,0.008 -0.007,0.016 -0.01,0.023 -0.002,0.004 -0.003,0.006 -0.003,0.006 C -0.302,-1.155 -0.289,-0.541 0,0" />
      </g>
      <g
         transform="matrix(0.38423383,0,0,-0.38423383,75.718363,148.69985)"
         id="g24079">
        <path
           inkscape:connector-curvature="0"
           id="path24081"
           style="fill:#6971d1;fill-opacity:1;fill-rule:nonzero;stroke:none"
           d="M 0,0 C 0.944,1.04 2.554,1.119 3.594,0.175 4.635,-0.77 4.713,-2.379 3.77,-3.42 3.243,-3.999 2.511,-4.279 1.785,-4.252 L 1.786,-4.253 C 1.779,-4.252 1.773,-4.252 1.767,-4.252 H 1.763 c -2.042,0.116 -2.017,-1.783 -2.017,-1.783 -0.003,-0.423 -0.153,-0.846 -0.459,-1.183 -0.659,-0.726 -1.783,-0.781 -2.51,-0.122 -0.726,0.659 -0.781,1.782 -0.122,2.51 0.306,0.337 0.712,0.527 1.133,0.571 h -10e-4 c 0.015,0.001 0.027,0.003 0.042,0.004 0.022,0.002 0.043,0.004 0.065,0.005 1.695,0.154 1.517,1.872 1.476,2.154 -0.002,0.011 -0.003,0.022 -0.005,0.033 -0.001,0.004 -0.002,0.008 -0.002,0.008 l 0.001,-10e-4 C -0.733,-1.336 -0.526,-0.58 0,0" />
      </g>
      <g
         transform="matrix(0.38423383,0,0,-0.38423383,79.65676,143.26167)"
         id="g24083">
        <path
           inkscape:connector-curvature="0"
           id="path24085"
           style="fill:#6971d1;fill-opacity:1;fill-rule:nonzero;stroke:none"
           d="m 0,0 c 1.071,0.91 2.677,0.779 3.587,-0.292 0.91,-1.07 0.78,-2.676 -0.291,-3.586 -0.597,-0.507 -1.359,-0.69 -2.074,-0.569 -0.007,0.001 -0.013,0.002 -0.02,0.003 -10e-4,0 -0.002,0 -0.003,0.001 -2.011,0.378 -2.231,-1.509 -2.231,-1.509 v 0.001 C -1.089,-6.37 -1.293,-6.77 -1.64,-7.064 -2.388,-7.7 -3.509,-7.609 -4.144,-6.861 c -0.635,0.747 -0.544,1.868 0.204,2.504 0.346,0.295 0.774,0.431 1.196,0.42 v 10e-4 c 0.014,-10e-4 0.027,-10e-4 0.041,-0.002 0.022,-10e-4 0.044,-10e-4 0.065,-0.003 1.701,-0.067 1.747,1.659 1.743,1.945 -0.001,0.011 -0.001,0.021 -0.001,0.032 0,0.005 0,0.009 0,0.009 V -1.956 C -0.899,-1.23 -0.596,-0.507 0,0" />
      </g>
      <g
         transform="matrix(0.38423383,0,0,-0.38423383,74.541264,152.93802)"
         id="g24087">
        <path
           inkscape:connector-curvature="0"
           id="path24089"
           style="fill:#6971d1;fill-opacity:1;fill-rule:nonzero;stroke:none"
           d="M 0,0 C 0.344,0.858 1.318,1.275 2.177,0.931 3.035,0.587 3.452,-0.388 3.108,-1.246 2.916,-1.725 2.529,-2.064 2.075,-2.214 2.071,-2.215 2.067,-2.217 2.063,-2.218 2.063,-2.219 2.062,-2.219 2.061,-2.219 0.774,-2.615 1.226,-3.781 1.226,-3.781 H 1.225 c 0.095,-0.261 0.099,-0.556 -0.012,-0.834 -0.24,-0.6 -0.921,-0.891 -1.521,-0.651 -0.598,0.241 -0.889,0.921 -0.649,1.521 0.111,0.278 0.318,0.488 0.567,0.611 0.009,0.004 0.016,0.008 0.025,0.012 0.012,0.007 0.025,0.013 0.039,0.018 1.01,0.484 0.508,1.502 0.417,1.667 -0.003,0.006 -0.007,0.012 -0.01,0.019 C 0.079,-1.415 0.078,-1.413 0.078,-1.413 -0.146,-0.992 -0.191,-0.479 0,0" />
      </g>
      <g
         transform="matrix(0.38423383,0,0,-0.38423383,79.65749,146.02221)"
         id="g24091">
        <path
           inkscape:connector-curvature="0"
           id="path24093"
           style="fill:#6971d1;fill-opacity:1;fill-rule:nonzero;stroke:none"
           d="m 0,0 c 0.911,0.161 1.779,-0.446 1.94,-1.357 0.162,-0.911 -0.446,-1.78 -1.356,-1.941 -0.507,-0.09 -1.001,0.06 -1.367,0.366 v -10e-4 c -0.003,0.004 -0.007,0.006 -0.01,0.009 -0.001,10e-4 -0.002,10e-4 -0.002,0.002 -1.017,0.882 -1.768,-0.116 -1.768,-0.116 v 0 c -0.171,-0.219 -0.419,-0.378 -0.715,-0.43 -0.636,-0.113 -1.243,0.312 -1.355,0.947 -0.112,0.636 0.312,1.243 0.947,1.355 0.295,0.053 0.583,-0.013 0.82,-0.159 v 10e-4 c 0.008,-0.006 0.015,-0.01 0.022,-0.015 0.013,-0.008 0.025,-0.015 0.036,-0.023 0.945,-0.603 1.544,0.362 1.637,0.525 0.003,0.007 0.006,0.013 0.01,0.019 0.002,0.003 0.003,0.006 0.003,0.006 V -0.813 C -0.92,-0.399 -0.507,-0.09 0,0" />
      </g>
      <g
         transform="matrix(0.38423383,0,0,-0.38423383,76.265821,144.19298)"
         id="g24095">
        <path
           inkscape:connector-curvature="0"
           id="path24097"
           style="fill:#6971d1;fill-opacity:1;fill-rule:nonzero;stroke:none"
           d="M 0,0 C -0.154,0.912 0.461,1.775 1.372,1.93 2.284,2.083 3.147,1.468 3.302,0.557 3.387,0.049 3.233,-0.444 2.924,-0.808 H 2.925 C 2.922,-0.811 2.919,-0.814 2.916,-0.817 2.916,-0.818 2.915,-0.819 2.915,-0.819 2.023,-1.828 3.016,-2.588 3.016,-2.588 3.232,-2.762 3.391,-3.012 3.44,-3.307 3.548,-3.943 3.118,-4.547 2.481,-4.654 1.845,-4.761 1.242,-4.332 1.135,-3.695 c -0.05,0.296 0.016,0.583 0.165,0.818 0.006,0.007 0.01,0.015 0.014,0.023 0.009,0.011 0.016,0.024 0.025,0.035 0.61,0.939 -0.35,1.547 -0.513,1.64 C 0.82,-1.175 0.813,-1.172 0.808,-1.168 0.805,-1.166 0.803,-1.165 0.803,-1.165 0.392,-0.923 0.085,-0.508 0,0" />
      </g>
      <g
         transform="matrix(0.38423383,0,0,-0.38423383,81.70661,143.11459)"
         id="g24099">
        <path
           inkscape:connector-curvature="0"
           id="path24101"
           style="fill:#6971d1;fill-opacity:1;fill-rule:nonzero;stroke:none"
           d="M 0,0 C 0.336,1.045 1.456,1.62 2.501,1.283 3.546,0.947 4.121,-0.173 3.784,-1.218 3.598,-1.8 3.166,-2.235 2.642,-2.449 V -2.45 C 2.637,-2.452 2.633,-2.454 2.628,-2.456 c -0.001,0 -0.002,-10e-4 -0.003,-10e-4 -1.49,-0.576 -0.86,-1.92 -0.86,-1.92 0.134,-0.301 0.164,-0.65 0.054,-0.989 -0.234,-0.73 -1.016,-1.131 -1.746,-0.897 -0.73,0.236 -1.131,1.018 -0.896,1.747 0.109,0.339 0.337,0.606 0.622,0.772 h -0.001 c 0.01,0.006 0.018,0.011 0.028,0.016 0.015,0.008 0.029,0.017 0.044,0.025 1.157,0.656 0.478,1.821 0.357,2.009 -0.004,0.008 -0.009,0.014 -0.014,0.021 L 0.209,-1.667 H 0.21 C -0.092,-1.187 -0.187,-0.582 0,0" />
      </g>
      <g
         transform="matrix(0.38423383,0,0,-0.38423383,75.48233,145.22223)"
         id="g24103">
        <path
           inkscape:connector-curvature="0"
           id="path24105"
           style="fill:#6971d1;fill-opacity:1;fill-rule:nonzero;stroke:none"
           d="M 0,0 C 0.481,0.634 1.386,0.757 2.021,0.275 2.654,-0.206 2.777,-1.11 2.296,-1.744 2.027,-2.097 1.628,-2.291 1.218,-2.312 1.214,-2.312 1.21,-2.313 1.206,-2.313 H 1.204 c -1.158,-0.035 -1.05,-1.105 -1.05,-1.105 0.019,-0.238 -0.045,-0.484 -0.201,-0.69 -0.336,-0.443 -0.968,-0.529 -1.41,-0.193 -0.442,0.337 -0.528,0.968 -0.192,1.41 0.156,0.206 0.376,0.333 0.611,0.379 h -10e-4 c 0.008,10e-4 0.016,0.003 0.023,0.004 0.012,0.002 0.025,0.005 0.037,0.006 0.949,0.171 0.764,1.131 0.727,1.289 -0.001,0.006 -0.003,0.012 -0.004,0.018 -0.001,0.003 -0.002,0.005 -0.002,0.005 l 0.001,-0.001 C -0.348,-0.79 -0.268,-0.354 0,0" />
      </g>
      <g
         transform="matrix(0.38423383,0,0,-0.38423383,74.067735,148.63979)"
         id="g24107">
        <path
           inkscape:connector-curvature="0"
           id="path24109"
           style="fill:#6971d1;fill-opacity:1;fill-rule:nonzero;stroke:none"
           d="M 0,0 C -0.085,0.622 0.351,1.194 0.972,1.279 1.594,1.364 2.166,0.93 2.251,0.308 2.299,-0.038 2.185,-0.369 1.967,-0.609 1.965,-0.611 1.963,-0.613 1.961,-0.616 c 0,0 -0.001,0 -0.001,-0.001 C 1.334,-1.282 1.991,-1.818 1.991,-1.818 2.135,-1.94 2.236,-2.113 2.264,-2.314 2.323,-2.749 2.02,-3.148 1.585,-3.208 c -0.434,-0.06 -0.834,0.244 -0.893,0.679 -0.028,0.201 0.024,0.394 0.129,0.55 0.004,0.005 0.007,0.01 0.011,0.016 0.006,0.008 0.011,0.016 0.017,0.024 0.433,0.624 -0.204,1.055 -0.313,1.123 C 0.532,-0.813 0.527,-0.812 0.523,-0.809 0.521,-0.808 0.521,-0.807 0.521,-0.807 0.246,-0.634 0.048,-0.346 0,0" />
      </g>
      <g
         transform="matrix(0.38423383,0,0,-0.38423383,83.730985,140.48459)"
         id="g24111">
        <path
           inkscape:connector-curvature="0"
           id="path24113"
           style="fill:#6971d1;fill-opacity:1;fill-rule:nonzero;stroke:none"
           d="M 0,0 C 0.529,0.337 1.231,0.182 1.568,-0.348 1.905,-0.877 1.75,-1.579 1.221,-1.916 0.927,-2.104 0.578,-2.139 0.27,-2.041 v -10e-4 l -0.009,0.003 c -0.001,0 -0.001,0 -0.002,0.001 -0.865,0.289 -1.078,-0.531 -1.078,-0.531 -0.051,-0.182 -0.165,-0.346 -0.337,-0.455 -0.369,-0.236 -0.86,-0.127 -1.095,0.242 -0.235,0.369 -0.127,0.859 0.242,1.095 0.172,0.109 0.369,0.144 0.556,0.113 h -10e-4 c 0.007,-10e-4 0.013,-0.002 0.018,-0.003 0.01,-0.002 0.02,-0.003 0.029,-0.005 0.748,-0.134 0.874,0.627 0.889,0.754 0.001,0.004 0.001,0.009 0.002,0.014 v 0.003 C -0.473,-0.489 -0.295,-0.188 0,0" />
      </g>
      <g
         transform="matrix(0.38423383,0,0,-0.38423383,84.792507,139.2321)"
         id="g24115">
        <path
           inkscape:connector-curvature="0"
           id="path24117"
           style="fill:#6971d1;fill-opacity:1;fill-rule:nonzero;stroke:none"
           d="M 0,0 C -0.34,-0.527 -1.043,-0.68 -1.57,-0.34 -2.098,0 -2.25,0.703 -1.91,1.23 c 0.189,0.294 0.491,0.471 0.812,0.511 v 10e-4 c 0.003,0 0.006,0.001 0.009,0.001 h 0.002 c 0.907,0.099 0.758,0.934 0.758,0.934 -0.03,0.185 0.005,0.383 0.115,0.553 C 0.023,3.599 0.514,3.705 0.883,3.468 1.251,3.23 1.356,2.74 1.12,2.372 1.01,2.201 0.845,2.087 0.663,2.037 0.657,2.036 0.651,2.034 0.645,2.032 0.636,2.03 0.626,2.027 0.617,2.025 -0.118,1.834 0.085,1.09 0.124,0.969 0.126,0.964 0.127,0.96 0.129,0.955 0.129,0.953 0.13,0.951 0.13,0.951 0.226,0.642 0.189,0.294 0,0" />
      </g>
      <g
         transform="matrix(0.38423383,0,0,-0.38423383,78.459026,150.93809)"
         id="g24119">
        <path
           inkscape:connector-curvature="0"
           id="path24121"
           style="fill:#6971d1;fill-opacity:1;fill-rule:nonzero;stroke:none"
           d="M 0,0 C -0.009,0.627 0.492,1.144 1.119,1.152 1.747,1.162 2.263,0.661 2.271,0.033 2.277,-0.315 2.124,-0.631 1.879,-0.843 1.877,-0.845 1.875,-0.847 1.872,-0.849 c 0,0 -0.001,0 -0.001,-0.001 C 1.17,-1.435 1.757,-2.046 1.757,-2.046 1.885,-2.185 1.965,-2.368 1.968,-2.571 1.975,-3.01 1.624,-3.37 1.187,-3.376 0.748,-3.383 0.388,-3.033 0.382,-2.595 0.379,-2.392 0.453,-2.206 0.577,-2.063 H 0.576 c 0.005,0.004 0.009,0.008 0.013,0.013 0.007,0.007 0.013,0.015 0.019,0.022 0.506,0.567 -0.075,1.073 -0.174,1.153 L 0.422,-0.866 C 0.42,-0.865 0.419,-0.864 0.419,-0.864 H 0.42 C 0.168,-0.659 0.006,-0.35 0,0" />
      </g>
      <g
         transform="matrix(0.38423383,0,0,-0.38423383,82.180907,138.32892)"
         id="g24123">
        <path
           inkscape:connector-curvature="0"
           id="path24125"
           style="fill:#6971d1;fill-opacity:1;fill-rule:nonzero;stroke:none"
           d="M 0,0 C -0.01,0.627 0.491,1.144 1.119,1.152 1.746,1.162 2.263,0.661 2.271,0.034 2.276,-0.315 2.123,-0.63 1.878,-0.843 H 1.879 C 1.876,-0.845 1.874,-0.847 1.872,-0.849 c -0.001,0 -0.001,0 -0.001,-0.001 C 1.17,-1.434 1.757,-2.046 1.757,-2.046 1.885,-2.185 1.964,-2.368 1.967,-2.571 1.974,-3.01 1.624,-3.369 1.186,-3.376 0.748,-3.383 0.388,-3.033 0.381,-2.595 c -0.003,0.203 0.072,0.39 0.195,0.532 0.004,0.004 0.008,0.009 0.013,0.013 0.006,0.008 0.013,0.015 0.019,0.022 0.506,0.567 -0.076,1.073 -0.175,1.153 C 0.43,-0.872 0.426,-0.869 0.422,-0.866 0.42,-0.865 0.419,-0.864 0.419,-0.864 0.168,-0.659 0.005,-0.35 0,0" />
      </g>
      <g
         transform="matrix(0.38423383,0,0,-0.38423383,76.106325,157.22166)"
         id="g24127">
        <path
           inkscape:connector-curvature="0"
           id="path24129"
           style="fill:#6971d1;fill-opacity:1;fill-rule:nonzero;stroke:none"
           d="M 0,0 C 0.314,0.543 1.01,0.729 1.553,0.414 2.096,0.1 2.28,-0.596 1.966,-1.139 1.791,-1.44 1.498,-1.632 1.179,-1.687 1.176,-1.688 1.173,-1.688 1.17,-1.689 H 1.169 C 0.267,-1.831 0.456,-2.657 0.456,-2.657 c 0.038,-0.185 0.013,-0.384 -0.09,-0.56 -0.22,-0.379 -0.705,-0.508 -1.084,-0.289 -0.379,0.22 -0.508,0.705 -0.288,1.084 0.102,0.177 0.261,0.298 0.441,0.357 h -0.001 c 0.006,10e-4 0.011,0.002 0.018,0.004 0.009,0.003 0.018,0.006 0.027,0.009 0.726,0.227 0.488,0.959 0.443,1.079 -0.002,0.004 -0.003,0.009 -0.005,0.013 -0.001,0.003 -0.002,0.004 -0.002,0.004 h 0.001 C -0.194,-0.651 -0.175,-0.302 0,0" />
      </g>
      <g
         transform="matrix(0.38423383,0,0,-0.38423383,77.863541,153.58342)"
         id="g24131">
        <path
           inkscape:connector-curvature="0"
           id="path24133"
           style="fill:#6971d1;fill-opacity:1;fill-rule:nonzero;stroke:none"
           d="M 0,0 C 0.554,0.296 1.242,0.086 1.537,-0.467 1.833,-1.021 1.624,-1.709 1.07,-2.004 0.762,-2.169 0.412,-2.177 0.111,-2.056 c -0.003,10e-4 -0.005,0.002 -0.007,0.003 -0.001,0 -0.001,10e-4 -0.002,10e-4 -0.841,0.356 -1.116,-0.446 -1.116,-0.446 -0.065,-0.178 -0.191,-0.333 -0.371,-0.429 -0.386,-0.206 -0.867,-0.059 -1.073,0.326 -0.206,0.387 -0.061,0.868 0.326,1.074 0.18,0.095 0.379,0.115 0.562,0.07 0.006,-0.002 0.011,-0.003 0.018,-0.005 0.009,-0.002 0.019,-0.005 0.028,-0.007 0.736,-0.19 0.92,0.558 0.945,0.683 0.001,0.005 0.001,0.01 0.002,0.015 0.001,0.001 0.001,0.003 0.001,0.003 V -0.769 C -0.509,-0.451 -0.308,-0.165 0,0" />
      </g>
      <g
         transform="matrix(0.38423383,0,0,-0.38423383,72.999832,154.96651)"
         id="g24135">
        <path
           inkscape:connector-curvature="0"
           id="path24137"
           style="fill:#6971d1;fill-opacity:1;fill-rule:nonzero;stroke:none"
           d="M 0,0 C -0.327,0.535 -0.16,1.234 0.375,1.562 0.91,1.89 1.609,1.722 1.937,1.187 2.12,0.89 2.148,0.54 2.046,0.233 L 2.043,0.225 V 0.224 C 1.737,-0.638 2.555,-0.864 2.555,-0.864 2.735,-0.918 2.897,-1.035 3.004,-1.209 3.233,-1.582 3.116,-2.07 2.742,-2.3 2.369,-2.528 1.881,-2.411 1.651,-2.038 1.545,-1.864 1.515,-1.666 1.549,-1.481 H 1.548 c 0.002,0.006 0.003,0.012 0.004,0.018 0.002,0.01 0.004,0.019 0.006,0.028 C 1.704,-0.688 0.945,-0.55 0.819,-0.532 0.814,-0.531 0.81,-0.531 0.806,-0.53 H 0.801 l 0.001,0.001 C 0.481,-0.481 0.183,-0.298 0,0" />
      </g>
      <g
         transform="matrix(0.38423383,0,0,-0.38423383,81.235345,140.88234)"
         id="g24139">
        <path
           inkscape:connector-curvature="0"
           id="path24141"
           style="fill:#6971d1;fill-opacity:1;fill-rule:nonzero;stroke:none"
           d="M 0,0 C 0.612,0.51 1.521,0.427 2.03,-0.185 2.54,-0.796 2.458,-1.705 1.847,-2.215 1.506,-2.499 1.073,-2.599 0.668,-2.525 l 0.001,-10e-4 c -0.004,10e-4 -0.008,10e-4 -0.012,0.002 -0.001,0 -0.001,0 -0.002,10e-4 -1.136,0.224 -1.271,-0.843 -1.271,-0.843 -0.035,-0.237 -0.153,-0.462 -0.351,-0.627 -0.427,-0.357 -1.061,-0.299 -1.417,0.128 -0.356,0.427 -0.299,1.062 0.128,1.418 0.198,0.165 0.442,0.24 0.681,0.231 0.008,0 0.015,0 0.023,-10e-4 0.012,-10e-4 0.025,-10e-4 0.036,-0.002 0.964,-0.047 0.999,0.931 0.998,1.093 v 0.018 0.005 -0.001 C -0.517,-0.692 -0.34,-0.284 0,0" />
      </g>
      <g
         transform="matrix(0.38423383,0,0,-0.38423383,78.367847,148.96924)"
         id="g24143">
        <path
           inkscape:connector-curvature="0"
           id="path24145"
           style="fill:#6971d1;fill-opacity:1;fill-rule:nonzero;stroke:none"
           d="M 0,0 C 0.639,0.669 1.698,0.692 2.367,0.053 3.035,-0.586 3.059,-1.646 2.42,-2.314 2.064,-2.687 1.577,-2.858 1.101,-2.827 H 1.102 1.088 c -0.001,0 -0.001,10e-4 -0.002,10e-4 -1.341,0.11 -1.357,-1.139 -1.357,-1.139 -0.009,-0.277 -0.116,-0.554 -0.323,-0.769 -0.446,-0.467 -1.186,-0.484 -1.653,-0.037 -0.466,0.446 -0.482,1.185 -0.037,1.652 0.208,0.217 0.478,0.335 0.755,0.356 0.009,10e-4 0.017,0.002 0.027,0.002 0.015,0.001 0.028,0.002 0.043,0.002 1.117,0.072 1.03,1.205 1.008,1.392 0,0.007 -0.001,0.013 -0.002,0.021 -0.001,0.003 -0.001,0.006 -0.001,0.006 V -1.341 C -0.506,-0.866 -0.356,-0.372 0,0" />
      </g>
      <g
         transform="matrix(0.38423383,0,0,-0.38423383,74.21743,156.10423)"
         id="g24147">
        <path
           inkscape:connector-curvature="0"
           id="path24149"
           style="fill:#6971d1;fill-opacity:1;fill-rule:nonzero;stroke:none"
           d="M 0,0 C -0.104,0.919 0.555,1.749 1.474,1.854 2.393,1.959 3.222,1.299 3.327,0.381 3.386,-0.131 3.206,-0.615 2.878,-0.962 2.875,-0.965 2.872,-0.968 2.869,-0.972 L 2.868,-0.973 C 1.925,-1.933 2.875,-2.744 2.875,-2.744 H 2.874 C 3.082,-2.929 3.227,-3.187 3.26,-3.484 3.334,-4.126 2.873,-4.706 2.231,-4.779 1.59,-4.853 1.011,-4.392 0.937,-3.75 c -0.034,0.298 0.048,0.581 0.209,0.808 v 0 c 0.005,0.007 0.01,0.014 0.016,0.022 0.009,0.011 0.017,0.024 0.025,0.034 0.66,0.906 -0.266,1.563 -0.424,1.665 L 0.745,-1.209 C 0.742,-1.207 0.74,-1.206 0.74,-1.206 0.343,-0.942 0.059,-0.512 0,0" />
      </g>
      <g
         transform="matrix(0.38423383,0,0,-0.38423383,106.31483,142.89319)"
         id="g24151">
        <path
           inkscape:connector-curvature="0"
           id="path24153"
           style="fill:#1f184b;fill-opacity:1;fill-rule:nonzero;stroke:none"
           d="M 0,0 -1.263,1.263 -2.525,0 -1.263,-1.263 Z" />
      </g>
      <g
         transform="matrix(0.38423383,0,0,-0.38423383,106.31483,141.58965)"
         id="g24155">
        <path
           inkscape:connector-curvature="0"
           id="path24157"
           style="fill:#1f184b;fill-opacity:1;fill-rule:nonzero;stroke:none"
           d="M 0,0 -1.263,1.263 -2.525,0 -1.263,-1.263 Z" />
      </g>
      <g
         transform="matrix(0.38423383,0,0,-0.38423383,106.31483,140.28609)"
         id="g24159">
        <path
           inkscape:connector-curvature="0"
           id="path24161"
           style="fill:#1f184b;fill-opacity:1;fill-rule:nonzero;stroke:none"
           d="M 0,0 -1.263,1.263 -2.525,0 -1.263,-1.263 Z" />
      </g>
      <g
         transform="matrix(0.38423383,0,0,-0.38423383,108.30692,145.7149)"
         id="g24163">
        <path
           inkscape:connector-curvature="0"
           id="path24165"
           style="fill:#1f184b;fill-opacity:1;fill-rule:nonzero;stroke:none"
           d="M 0,0 -1.724,1.724 -3.447,0 -1.724,-1.724 Z" />
      </g>
      <g
         transform="matrix(0.38423383,0,0,-0.38423383,108.30692,143.93555)"
         id="g24167">
        <path
           inkscape:connector-curvature="0"
           id="path24169"
           style="fill:#1f184b;fill-opacity:1;fill-rule:nonzero;stroke:none"
           d="M 0,0 -1.724,1.724 -3.447,0 -1.724,-1.724 Z" />
      </g>
      <g
         transform="matrix(0.38423383,0,0,-0.38423383,108.30692,142.15623)"
         id="g24171">
        <path
           inkscape:connector-curvature="0"
           id="path24173"
           style="fill:#1f184b;fill-opacity:1;fill-rule:nonzero;stroke:none"
           d="M 0,0 -1.724,1.724 -3.447,0 -1.724,-1.724 Z" />
      </g>
      <g
         transform="matrix(0.38423383,0,0,-0.38423383,110.12189,146.4406)"
         id="g24175">
        <path
           inkscape:connector-curvature="0"
           id="path24177"
           style="fill:#1f184b;fill-opacity:1;fill-rule:nonzero;stroke:none"
           d="M 0,0 -1.724,1.724 -3.447,0 -1.724,-1.724 Z" />
      </g>
      <g
         transform="matrix(0.38423383,0,0,-0.38423383,110.12189,144.66125)"
         id="g24179">
        <path
           inkscape:connector-curvature="0"
           id="path24181"
           style="fill:#1f184b;fill-opacity:1;fill-rule:nonzero;stroke:none"
           d="M 0,0 -1.724,1.724 -3.447,0 -1.724,-1.724 Z" />
      </g>
      <g
         transform="matrix(0.38423383,0,0,-0.38423383,110.12189,142.88193)"
         id="g24183">
        <path
           inkscape:connector-curvature="0"
           id="path24185"
           style="fill:#1f184b;fill-opacity:1;fill-rule:nonzero;stroke:none"
           d="M 0,0 -1.724,1.724 -3.447,0 -1.724,-1.724 Z" />
      </g>
      <g
         transform="matrix(0.38423383,0,0,-0.38423383,106.31483,146.80382)"
         id="g24187">
        <path
           inkscape:connector-curvature="0"
           id="path24189"
           style="fill:#1f184b;fill-opacity:1;fill-rule:nonzero;stroke:none"
           d="M 0,0 -1.263,1.263 -2.525,0 -1.263,-1.263 Z" />
      </g>
      <g
         transform="matrix(0.38423383,0,0,-0.38423383,109.9448,153.38121)"
         id="g24191">
        <path
           inkscape:connector-curvature="0"
           id="path24193"
           style="fill:#1f184b;fill-opacity:1;fill-rule:nonzero;stroke:none"
           d="M 0,0 -1.263,1.263 -2.525,0 -1.263,-1.263 Z" />
      </g>
      <g
         transform="matrix(0.38423383,0,0,-0.38423383,106.31483,144.19671)"
         id="g24195">
        <path
           inkscape:connector-curvature="0"
           id="path24197"
           style="fill:#1f184b;fill-opacity:1;fill-rule:nonzero;stroke:none"
           d="M 0,0 -1.263,1.263 -2.525,0 -1.263,-1.263 Z" />
      </g>
      <g
         transform="matrix(0.38423383,0,0,-0.38423383,108.30692,151.05329)"
         id="g24199">
        <path
           inkscape:connector-curvature="0"
           id="path24201"
           style="fill:#1f184b;fill-opacity:1;fill-rule:nonzero;stroke:none"
           d="M 0,0 -1.724,1.724 -3.447,0 -1.724,-1.724 Z" />
      </g>
      <g
         transform="matrix(0.38423383,0,0,-0.38423383,108.30692,149.27394)"
         id="g24203">
        <path
           inkscape:connector-curvature="0"
           id="path24205"
           style="fill:#1f184b;fill-opacity:1;fill-rule:nonzero;stroke:none"
           d="M 0,0 -1.724,1.724 -3.447,0 -1.724,-1.724 Z" />
      </g>
      <g
         transform="matrix(0.38423383,0,0,-0.38423383,108.30692,147.49459)"
         id="g24207">
        <path
           inkscape:connector-curvature="0"
           id="path24209"
           style="fill:#1f184b;fill-opacity:1;fill-rule:nonzero;stroke:none"
           d="M 0,0 -1.724,1.724 -3.447,0 -1.724,-1.724 Z" />
      </g>
      <g
         transform="matrix(0.38423383,0,0,-0.38423383,110.12189,151.77894)"
         id="g24211">
        <path
           inkscape:connector-curvature="0"
           id="path24213"
           style="fill:#1f184b;fill-opacity:1;fill-rule:nonzero;stroke:none"
           d="M 0,0 -1.724,1.724 -3.447,0 -1.724,-1.724 Z" />
      </g>
      <g
         transform="matrix(0.38423383,0,0,-0.38423383,110.12189,148.21991)"
         id="g24215">
        <path
           inkscape:connector-curvature="0"
           id="path24217"
           style="fill:#1f184b;fill-opacity:1;fill-rule:nonzero;stroke:none"
           d="M 0,0 -1.724,1.724 -3.447,0 -1.724,-1.724 Z" />
      </g>
      <g
         transform="matrix(0.38423383,0,0,-0.38423383,115.0918,170.31035)"
         id="g24219">
        <path
           inkscape:connector-curvature="0"
           id="path24221"
           style="fill:#a1a2e3;fill-opacity:1;fill-rule:nonzero;stroke:none"
           d="m 0,0 h -106.511 c 0,0 -26.986,-9.365 -26.505,-9.204 0.483,0.16 10.602,-1.446 21.686,0.964 11.084,2.409 22.814,-4.98 33.253,-2.892 10.439,2.088 22.005,-1.717 33.57,-0.377 11.567,1.341 24.256,2.732 36.464,-0.293 12.208,-3.024 13.976,-1.739 13.976,-1.739 z" />
      </g>
      <g
         transform="matrix(0.38423383,0,0,-0.38423383,89.072718,156.04118)"
         id="g24223">
        <path
           inkscape:connector-curvature="0"
           id="path24225"
           style="fill:#ffe6cc;fill-opacity:1;fill-rule:nonzero;stroke:none"
           d="m 0,0 -1.612,0.531 c 0,0 2.492,-0.396 2.858,0.437 0.367,0.833 1.173,2.372 2.273,3.252 1.099,0.88 -0.293,2.565 0.513,4.105 0.806,1.539 0,5.424 0,5.424 0,0 -5.351,4.765 -9.677,0.514 C -9.969,10.011 -4.618,2.927 -8.576,0.531 -8.576,0.531 -7.99,-8.546 0,0" />
      </g>
      <g
         transform="matrix(0.38423383,0,0,-0.38423383,90.424682,165.93931)"
         id="g24227">
        <path
           inkscape:connector-curvature="0"
           id="path24229"
           style="fill:#1f184b;fill-opacity:1;fill-rule:nonzero;stroke:none"
           d="m 0,0 c 0,0 2.933,-1.319 1.979,-4.545 0,0 1.173,-0.66 5.278,-1.319 0,0 3.812,-1.506 1.467,-5.005 0,0 -2.17,-0.004 -3.981,-0.542 -1.81,-0.537 -12,-1.71 -14.235,1.441 0,0 -6.487,-3.371 -10.3,-2.419 -3.812,0.953 -5.243,4.304 -2.492,6.525 2.752,2.22 5.571,4.638 5.571,4.638 0,0 6.451,-2.953 16.713,1.226" />
      </g>
      <g
         id="g24231"
         transform="matrix(0.38423383,0,0,-0.38423383,-130.2868,340.21079)">
        <g
           id="g24233" />
        <g
           id="g24245">
          <g
             id="g24243"
             clip-path="url(#clipPath24237)">
            <g
               id="g24241"
               transform="translate(576.3992,449.0108)">
              <path
                 inkscape:connector-curvature="0"
                 id="path24239"
                 style="fill:#1f184b;fill-opacity:1;fill-rule:nonzero;stroke:none"
                 d="m 0,0 -3.152,0.88 2.984,1.895 C -0.168,2.775 0.733,1.246 0,0" />
            </g>
          </g>
        </g>
      </g>
      <g
         id="g24247"
         transform="matrix(0.38423383,0,0,-0.38423383,-130.2868,340.21079)">
        <g
           id="g24249" />
        <g
           id="g24261">
          <g
             id="g24259"
             clip-path="url(#clipPath24253)">
            <g
               id="g24257"
               transform="translate(564.9275,443.586)">
              <path
                 inkscape:connector-curvature="0"
                 id="path24255"
                 style="fill:#1f184b;fill-opacity:1;fill-rule:nonzero;stroke:none"
                 d="m 0,0 c 0,0 -2.09,1.394 -1.796,3.079 0,0 -2.238,-5.088 -9.475,-5.183 0,0 3.17,-2 11.271,2.104" />
            </g>
          </g>
        </g>
      </g>
      <g
         id="g24263"
         transform="matrix(0.38423383,0,0,-0.38423383,-130.2868,340.21079)">
        <g
           id="g24265" />
        <g
           id="g24277">
          <g
             id="g24275"
             clip-path="url(#clipPath24269)">
            <g
               id="g24273"
               transform="translate(557.4949,446.6651)">
              <path
                 inkscape:connector-curvature="0"
                 id="path24271"
                 style="fill:#1f184b;fill-opacity:1;fill-rule:nonzero;stroke:none"
                 d="m 0,0 c 0,0 1.751,0.88 5.637,0 0,0 0.195,1.173 1.796,2.346 C 7.433,2.346 2.788,1.31 0,0" />
            </g>
          </g>
        </g>
      </g>
      <g
         transform="matrix(0.38423383,0,0,-0.38423383,93.212992,168.19257)"
         id="g24279">
        <path
           inkscape:connector-curvature="0"
           id="path24281"
           style="fill:#ffe6cc;fill-opacity:1;fill-rule:nonzero;stroke:none"
           d="m 0,0 c 0,0 0.807,0.391 1.687,0.586 0.879,0.196 1.709,-1.808 3.518,-1.612 1.808,0.195 4.399,-1.245 5.522,-2.529 1.124,-1.283 -0.245,-0.843 -1.515,-0.843 -1.271,0 -7.745,-0.607 -7.745,-0.607 0,0 2.516,3.001 -1.467,5.005" />
      </g>
      <g
         transform="matrix(0.38423383,0,0,-0.38423383,82.223325,157.80512)"
         id="g24283">
        <path
           inkscape:connector-curvature="0"
           id="path24285"
           style="fill:#ffe6cc;fill-opacity:1;fill-rule:nonzero;stroke:none"
           d="m 0,0 -0.939,-11.934 -8.43,-11.801 c 0,0 -2.859,-1.54 -4.129,-1.98 -1.271,-0.439 0.293,-0.782 1.612,0 0,0 0.538,-0.244 -1.612,-1.173 -2.15,-0.928 -2.786,-2.206 -1.516,-2.348 1.272,-0.144 4.203,-0.926 7.331,3.521 0,0 8.357,7.917 10.703,11.509 l 0.585,10.775 z" />
      </g>
      <g
         id="g24287"
         transform="matrix(0.38423383,0,0,-0.38423383,-130.2868,340.21079)">
        <g
           id="g24289" />
        <g
           id="g24301">
          <g
             id="g24299"
             clip-path="url(#clipPath24293)">
            <g
               id="g24297"
               transform="translate(554.8015,473.0831)">
              <path
                 inkscape:connector-curvature="0"
                 id="path24295"
                 style="fill:#ffe6cc;fill-opacity:1;fill-rule:nonzero;stroke:none"
                 d="m 0,0 v -12.202 l -9.409,-11.87 c 0,0 9.113,8.73 10.702,11.509 l 0.586,10.775 z" />
            </g>
          </g>
        </g>
      </g>
      <g
         transform="matrix(0.38423383,0,0,-0.38423383,85.777491,155.83707)"
         id="g24303">
        <path
           inkscape:connector-curvature="0"
           id="path24305"
           style="fill:#ff8600;fill-opacity:1;fill-rule:nonzero;stroke:none"
           d="m 0,0 -3.412,0.4 c -1.881,0.221 -3.737,-0.576 -4.874,-2.09 l -1.903,-2.539 4.544,-4.324 c 0,0 -2.199,-3.811 0.954,-6.378 0,0 0.343,-1.524 0.709,-4.036 0.525,-3.616 0.39,-5.817 -0.636,-8.551 0,0 6.23,-2.953 16.713,1.226 l -2.199,16.408 4.764,0.085 -0.763,4.44 c -0.272,1.582 -1.298,2.931 -2.751,3.616 l -2.57,1.212 C 8.576,-0.531 1.319,-9.113 0,0" />
      </g>
      <g
         id="g24307"
         transform="matrix(0.38423383,0,0,-0.38423383,-130.2868,340.21079)">
        <g
           id="g24309" />
        <g
           id="g24321">
          <g
             id="g24319"
             clip-path="url(#clipPath24313)">
            <g
               id="g24317"
               transform="translate(572.2214,469.964)">
              <path
                 inkscape:connector-curvature="0"
                 id="path24315"
                 style="fill:#ff8600;fill-opacity:1;fill-rule:nonzero;stroke:none"
                 d="m 0,0 -3.413,-18.178 c 0,0 3.363,0.646 5.611,1.77 z" />
            </g>
          </g>
        </g>
      </g>
      <g
         transform="matrix(0.38423383,0,0,-0.38423383,90.283977,159.62235)"
         id="g24323">
        <path
           inkscape:connector-curvature="0"
           id="path24325"
           style="fill:#ffe6cc;fill-opacity:1;fill-rule:nonzero;stroke:none"
           d="m 0,0 -1.832,-0.032 -0.577,-12.549 -12.195,-3.622 c -0.31,-0.109 -0.595,-0.278 -0.838,-0.499 l -3.724,-3.382 c -0.643,-0.584 -1.07,-1.367 -1.215,-2.224 l -0.804,-4.786 c 0,0 2.053,-1.148 3.446,1.857 1.392,3.006 3.885,4.105 4.251,5.498 0.367,1.392 11.758,2.949 11.758,2.949 l 2.271,0.716 c 0.423,0.134 0.728,0.505 0.774,0.946 L 2.932,0.053 Z" />
      </g>
      <g
         id="g24327"
         transform="matrix(0.38423383,0,0,-0.38423383,-130.2868,340.21079)">
        <g
           id="g24329" />
        <g
           id="g24341">
          <g
             id="g24339"
             clip-path="url(#clipPath24333)">
            <g
               id="g24337"
               transform="translate(569.2888,479.8477)">
              <path
                 inkscape:connector-curvature="0"
                 id="path24335"
                 style="fill:#ffe6cc;fill-opacity:1;fill-rule:nonzero;stroke:none"
                 d="m 0,0 c 0,0 -3.348,0.781 -4.361,4.446 0,0 0.06,-7.854 5.973,-4.977 z" />
            </g>
          </g>
        </g>
      </g>
      <g
         id="g24343"
         transform="matrix(0.38423383,0,0,-0.38423383,-130.2868,340.21079)">
        <g
           id="g24345" />
        <g
           id="g24357">
          <g
             id="g24355"
             clip-path="url(#clipPath24349)">
            <g
               id="g24353"
               transform="translate(560.9363,480.0108)">
              <path
                 inkscape:connector-curvature="0"
                 id="path24351"
                 style="fill:#ff8600;fill-opacity:1;fill-rule:nonzero;stroke:none"
                 d="m 0,0 c 0,0 -1.666,-5.051 -0.884,-8.667 0.782,-3.616 -1.563,-6.842 -1.563,-6.842 0,0 8.688,1.356 8.425,11.575 0,0 -4.361,-1.67 -5.978,3.934" />
            </g>
          </g>
        </g>
      </g>
      <g
         transform="matrix(0.38423383,0,0,-0.38423383,89.346637,150.67393)"
         id="g24359">
        <path
           inkscape:connector-curvature="0"
           id="path24361"
           style="fill:#4255c5;fill-opacity:1;fill-rule:nonzero;stroke:none"
           d="m 0,0 c 0,0 -4.14,-0.244 -4.308,-6.743 -0.168,-6.5 0.761,-18.815 -6.765,-20.036 0,0 2.199,0.88 1.271,5.131 -0.928,4.252 -2.272,18.375 2.748,22.235 5.022,3.86 6.341,1.472 6.341,1.472 0,0 4.984,1.705 4.936,-4.6 C 4.174,-8.845 2.806,-15.638 2.806,-15.638 l -3.519,1.669 -1.612,0.531 c 0,0 2.461,-0.379 2.858,0.437 0,0 0.856,2.104 2.273,3.252 0,0 0.783,0.526 0.342,1.962 -0.44,1.434 -0.04,1.554 0.171,2.143 0,0 0.904,1.979 -0.171,3.983 C 2.073,0.343 0,0 0,0" />
      </g>
      <g
         id="g24363"
         transform="matrix(0.38423383,0,0,-0.38423383,-130.2868,340.21079)">
        <g
           id="g24365" />
        <g
           id="g24377">
          <g
             id="g24375"
             clip-path="url(#clipPath24369)">
            <g
               id="g24373"
               transform="translate(560.5652,450.2569)">
              <path
                 inkscape:connector-curvature="0"
                 id="path24371"
                 style="fill:#ffe6cc;fill-opacity:1;fill-rule:nonzero;stroke:none"
                 d="m 0,0 c 0,0 -1.099,0.989 3.409,2.309 4.508,1.32 11.499,3.287 11.499,3.287 L 14.804,4.611 c 0,0 -0.04,-0.715 -0.775,-0.946 C 13.295,3.434 11.758,2.949 11.758,2.949 11.758,2.949 0.646,1.529 0,0" />
            </g>
          </g>
        </g>
      </g>
      <g
         id="g24379"
         transform="matrix(0.38423383,0,0,-0.38423383,-130.2868,340.21079)">
        <g
           id="g24381" />
        <g
           id="g24393">
          <g
             id="g24391"
             clip-path="url(#clipPath24385)">
            <g
               id="g24389"
               transform="translate(583.7263,443.8302)">
              <path
                 inkscape:connector-curvature="0"
                 id="path24387"
                 style="fill:#ffe6cc;fill-opacity:1;fill-rule:nonzero;stroke:none"
                 d="m 0,0 c 0,0 4.744,0.791 9.094,-0.439 0,0 0.121,-0.293 -0.906,-0.196 C 7.162,-0.537 6.866,-0.488 3.522,-0.78 0.179,-1.073 -0.583,-1.144 -0.583,-1.144 Z" />
            </g>
          </g>
        </g>
      </g>
      <g
         id="g24395"
         transform="matrix(0.38423383,0,0,-0.38423383,-130.2868,340.21079)">
        <g
           id="g24397" />
        <g
           id="g24409">
          <g
             id="g24407"
             clip-path="url(#clipPath24401)">
            <g
               id="g24405"
               transform="translate(583.1433,442.6866)">
              <path
                 inkscape:connector-curvature="0"
                 id="path24403"
                 style="fill:#1f184b;fill-opacity:1;fill-rule:nonzero;stroke:none"
                 d="m 0,0 c 0,0 -1.827,0.069 -3.98,-0.542 -2.154,-0.61 -12.038,-1.724 -14.236,1.441 0,0 9.145,-3.08 18.799,0.245 C 0.583,1.144 0.464,0.371 0,0" />
            </g>
          </g>
        </g>
      </g>
      <g
         transform="matrix(0.38423383,0,0,-0.38423383,99.600878,154.38605)"
         id="g24411">
        <path
           inkscape:connector-curvature="0"
           id="path24413"
           style="fill:#4255c5;fill-opacity:1;fill-rule:nonzero;stroke:none"
           d="m 0,0 c 0,0 4.152,2.654 9.823,2.065 0,0 -6.71,-2.898 -1.14,-8.479 l 11.773,-16.199 c 0,0 -10.144,-1.344 -19.577,-11.684 0,0 -7.429,8.151 -11.799,18.766 l -0.249,-1.14 c 0,0 -5.754,0.835 -7.439,6.492 0,0 2.806,7.151 6.305,7.725 l 1.969,0.296 1.614,-0.011 c 0,0 7.551,-18.929 8.72,2.169" />
      </g>
      <g
         transform="matrix(0.38423383,0,0,-0.38423383,103.37532,153.59246)"
         id="g24415">
        <path
           inkscape:connector-curvature="0"
           id="path24417"
           style="fill:#ffe6cc;fill-opacity:1;fill-rule:nonzero;stroke:none"
           d="m 0,0 c 0,0 5.798,-0.07 11.19,-2.943 0,0 -4.135,-10.723 -13.542,-17.908 0,0 -1.068,-0.847 -1.093,-2.095 -0.025,-1.248 0.437,-1.818 0.127,-3.296 -0.117,-0.555 -0.068,-1.093 0.038,-1.549 0.214,-0.921 0.023,-1.889 -0.575,-2.621 l -0.034,-0.04 c -0.137,-0.169 -0.319,-0.299 -0.524,-0.375 l -0.993,-0.368 c -0.529,-0.197 -1.123,-0.008 -1.442,0.457 l -1.742,2.542 c -0.394,0.575 -0.477,1.308 -0.222,1.956 l 3,7.604 4.951,9.772 -0.28,0.385 c 0,0 -5.717,4.988 1.141,8.479" />
      </g>
      <g
         transform="matrix(0.38423383,0,0,-0.38423383,106.83643,156.43629)"
         id="g24419">
        <path
           inkscape:connector-curvature="0"
           id="path24421"
           style="fill:#ff8600;fill-opacity:1;fill-rule:nonzero;stroke:none"
           d="m 0,0 c 0,0 3.104,-3.625 4.014,-12.002 0.909,-8.376 5.703,-12.202 2.132,-17.278 -3.57,-5.077 -6.186,-3.173 -6.186,-3.173 l -1.092,-8.502 c 0,0 -21.926,-0.844 -22.562,6.809 0,0 -0.869,6.08 5.742,5.185 0,0 5.056,5.91 11.29,8.748 l -1.05,9.954 c 0,0 5.12,4.978 7.712,10.259" />
      </g>
      <g
         transform="matrix(0.38423383,0,0,-0.38423383,106.40151,172.17262)"
         id="g24423">
        <path
           inkscape:connector-curvature="0"
           id="path24425"
           style="fill:#ffe6cc;fill-opacity:1;fill-rule:nonzero;stroke:none"
           d="m 0,0 11.769,0.452 c 0,0 8.395,-0.85 8.946,0.1 0.55,0.951 3.613,5.225 1.902,5.209 -1.711,-0.018 -4.406,-1.149 -6.87,-0.657 -2.465,0.493 -3.313,-0.319 -5.094,0.198 -1.78,0.516 -9.561,3.2 -9.561,3.2 z" />
      </g>
      <g
         transform="matrix(0.38423383,0,0,-0.38423383,107.85814,163.88082)"
         id="g24427">
        <path
           inkscape:connector-curvature="0"
           id="path24429"
           style="fill:#ffe6cc;fill-opacity:1;fill-rule:nonzero;stroke:none"
           d="m 0,0 c 0,0 -3.556,0.903 -7.653,-1.273 0,0 2.399,-7.062 2.39,-10.657 l 2.637,0.102 -0.073,-1.25 1.909,-0.655 c 0,0 0.396,6.812 0.79,13.733" />
      </g>
      <g
         id="g24431"
         transform="matrix(0.38423383,0,0,-0.38423383,-130.2868,340.21079)">
        <g
           id="g24433" />
        <g
           id="g24445">
          <g
             id="g24443"
             clip-path="url(#clipPath24437)">
            <g
               id="g24441"
               transform="translate(619.0232,445.5489)">
              <path
                 inkscape:connector-curvature="0"
                 id="path24439"
                 style="fill:#ff8600;fill-opacity:1;fill-rule:nonzero;stroke:none"
                 d="m 0,0 1.459,24.763 c 0,0 0.433,-2.144 0.615,-3.597 0,0 -1.593,-15.578 -0.182,-16.955 C 3.302,2.835 4.256,3.459 4.256,3.459 4.256,3.459 2.225,0.348 0,0" />
            </g>
          </g>
        </g>
      </g>
      <g
         id="g24447"
         transform="matrix(0.38423383,0,0,-0.38423383,-130.2868,340.21079)">
        <g
           id="g24449" />
        <g
           id="g24461">
          <g
             id="g24459"
             clip-path="url(#clipPath24453)">
            <g
               id="g24457"
               transform="translate(614.5291,446.9835)">
              <path
                 inkscape:connector-curvature="0"
                 id="path24455"
                 style="fill:#ff8600;fill-opacity:1;fill-rule:nonzero;stroke:none"
                 d="m 0,0 c 0,0 -0.072,4.063 -2.391,10.656 0,0 -1.904,5.395 -2.559,8.889 l 0.891,-8.453 c 0,0 0.067,-8.385 -11.29,-8.748 0,0 8.162,-3.036 15.349,-2.344" />
            </g>
          </g>
        </g>
      </g>
      <g
         transform="matrix(0.38423383,0,0,-0.38423383,95.309411,160.79157)"
         id="g24463">
        <path
           inkscape:connector-curvature="0"
           id="path24465"
           style="fill:#ffe6cc;fill-opacity:1;fill-rule:nonzero;stroke:none"
           d="m 0,0 c 0,0 -0.058,-17.578 -10.645,-25.859 l -10.84,-0.417 c 0,0 -1.05,0.595 2.351,1.166 3.402,0.571 7.16,2.017 7.16,2.017 0,0 4.877,9.254 4.76,14.824 -0.116,5.572 -0.225,14.761 -0.225,14.761 0,0 1.177,-5.187 7.439,-6.492" />
      </g>
      <g
         transform="matrix(0.38423383,0,0,-0.38423383,99.429396,154.33127)"
         id="g24467">
        <path
           inkscape:connector-curvature="0"
           id="path24469"
           style="fill:#ffe6cc;fill-opacity:1;fill-rule:nonzero;stroke:none"
           d="m 0,0 0.446,-0.143 c 0,0 -0.362,-8.997 -2.543,-9.852 0,0 -1.688,-1.187 -4.656,4.432 0,0 3.651,7.071 6.753,5.563" />
      </g>
      <g
         id="g24471"
         transform="matrix(0.38423383,0,0,-0.38423383,-130.2868,340.21079)">
        <g
           id="g24473" />
        <g
           id="g24485">
          <g
             id="g24483"
             clip-path="url(#clipPath24477)">
            <g
               id="g24481"
               transform="translate(598.3015,483.6241)">
              <path
                 inkscape:connector-curvature="0"
                 id="path24479"
                 style="fill:#ffe6cc;fill-opacity:1;fill-rule:nonzero;stroke:none"
                 d="m 0,0 c 0,0 -1.699,-5.42 -6.806,-6.167 l -0.393,0.746 c 0,0 1.985,1.749 5.844,6.323 z" />
            </g>
          </g>
        </g>
      </g>
      <g
         transform="matrix(0.38423383,0,0,-0.38423383,95.192716,151.90617)"
         id="g24487">
        <path
           inkscape:connector-curvature="0"
           id="path24489"
           style="fill:#ffe6cc;fill-opacity:1;fill-rule:nonzero;stroke:none"
           d="m 0,0 c 0,0 -0.419,-1.482 -0.469,-3.062 0,0 1.165,-0.725 0.654,-1.735 -0.511,-1.011 -0.728,-2.046 0.306,-3.18 1.033,-1.133 -0.489,-3.502 1.179,-3.952 1.358,-0.366 4.97,0.158 6.867,2.171 0.588,0.624 0.881,1.459 0.949,2.315 0.036,0.46 0.218,0.978 0.85,0.982 1.137,0.007 1.579,0.904 1.994,2.498 C 12.746,-2.37 15.437,3.969 8.016,6.178 8.016,6.178 1.238,6.907 0,0" />
      </g>
      <g
         transform="matrix(0.38423383,0,0,-0.38423383,94.615983,151.5617)"
         id="g24491">
        <path
           inkscape:connector-curvature="0"
           id="path24493"
           style="fill:#1f184b;fill-opacity:1;fill-rule:nonzero;stroke:none"
           d="m 0,0 c 0,0 0.063,-0.694 1.501,-0.896 1.438,-0.202 1.018,-1.648 2.416,-0.824 1.399,0.824 3.655,-0.63 4.708,0.621 0,0 -1.143,-1.767 -0.214,-2.062 0.928,-0.294 1.741,-1.408 1.891,-2.444 l 0.892,-0.31 c 0,0 -0.218,0.909 0.883,1.831 1.102,0.923 1.958,0.589 1.754,-0.775 0,0 2.207,5.163 -0.476,7.876 0,0 -2.169,2.732 -6.493,2.602 0,0 -2.926,-0.186 -2.346,-0.971 C 5.096,3.864 1.109,3.563 1.335,2.472 1.561,1.38 -0.903,0.762 0,0" />
      </g>
      <g
         id="g24495"
         transform="matrix(0.38423383,0,0,-0.38423383,-130.2868,340.21079)">
        <g
           id="g24497" />
        <g
           id="g24509">
          <g
             id="g24507"
             clip-path="url(#clipPath24501)">
            <g
               id="g24505"
               transform="translate(619.0017,445.1798)">
              <path
                 inkscape:connector-curvature="0"
                 id="path24503"
                 style="fill:#ffe6cc;fill-opacity:1;fill-rule:nonzero;stroke:none"
                 d="m 0,0 0.79,13.733 c 0,0 -1.621,0.287 -2.671,0.165 L -4.473,1.804 -1.836,1.905 -1.909,0.655 Z" />
            </g>
          </g>
        </g>
      </g>
      <g
         id="g24511"
         transform="matrix(0.38423383,0,0,-0.38423383,-130.2868,340.21079)">
        <g
           id="g24513" />
        <g
           id="g24525">
          <g
             id="g24523"
             clip-path="url(#clipPath24517)">
            <g
               id="g24521"
               transform="translate(616.323,439.8429)">
              <path
                 inkscape:connector-curvature="0"
                 id="path24519"
                 style="fill:#ffe6cc;fill-opacity:1;fill-rule:nonzero;stroke:none"
                 d="M 0,0 11.446,-2.058 -0.322,-2.51 Z" />
            </g>
          </g>
        </g>
      </g>
      <g
         id="g24527"
         transform="matrix(0.38423383,0,0,-0.38423383,-130.2868,340.21079)">
        <g
           id="g24529" />
        <g
           id="g24541">
          <g
             id="g24539"
             clip-path="url(#clipPath24533)">
            <g
               id="g24537"
               transform="translate(616.323,439.8429)">
              <path
                 inkscape:connector-curvature="0"
                 id="path24535"
                 style="fill:#ff8600;fill-opacity:1;fill-rule:nonzero;stroke:none"
                 d="m 0,0 c 0,0 -15.319,-0.397 -22.885,4.3 0,0 -0.407,-2.845 5.508,-4.969 5.916,-2.123 17.055,-1.841 17.055,-1.841 z" />
            </g>
          </g>
        </g>
      </g>
      <g
         id="g24543"
         transform="matrix(0.38423383,0,0,-0.38423383,-130.2868,340.21079)">
        <g
           id="g24545" />
        <g
           id="g24557">
          <g
             id="g24555"
             clip-path="url(#clipPath24549)">
            <g
               id="g24553"
               transform="translate(587.1326,466.9532)">
              <path
                 inkscape:connector-curvature="0"
                 id="path24551"
                 style="fill:#ffe6cc;fill-opacity:1;fill-rule:nonzero;stroke:none"
                 d="m 0,0 c 0,0 0.343,-17.172 -10.645,-25.859 0,0 10.028,11.176 8.338,26.598 z" />
            </g>
          </g>
        </g>
      </g>
      <g
         id="g24559"
         transform="matrix(0.38423383,0,0,-0.38423383,-130.2868,340.21079)">
        <g
           id="g24561" />
        <g
           id="g24573">
          <g
             id="g24571"
             clip-path="url(#clipPath24565)">
            <g
               id="g24569"
               transform="translate(587.3816,468.0929)">
              <path
                 inkscape:connector-curvature="0"
                 id="path24567"
                 style="fill:#6971d1;fill-opacity:1;fill-rule:nonzero;stroke:none"
                 d="m 0,0 15.053,-15.504 c 0,0 -1.994,-1.673 -3.254,-3.262 0,0 -7.922,8.89 -11.799,18.766" />
            </g>
          </g>
        </g>
      </g>
      <g
         id="g24575"
         transform="matrix(0.38423383,0,0,-0.38423383,-130.2868,340.21079)">
        <g
           id="g24577" />
        <g
           id="g24589">
          <g
             id="g24587"
             clip-path="url(#clipPath24581)">
            <g
               id="g24585"
               transform="translate(607.2634,476.8253)">
              <path
                 inkscape:connector-curvature="0"
                 id="path24583"
                 style="fill:#ffe6cc;fill-opacity:1;fill-rule:nonzero;stroke:none"
                 d="M 0,0 1.622,3.099 -2.365,3.592 C -2.365,3.592 -2.055,2.13 0,0" />
            </g>
          </g>
        </g>
      </g>
      <g
         id="g24591"
         transform="matrix(0.38423383,0,0,-0.38423383,-130.2868,340.21079)">
        <g
           id="g24593" />
        <g
           id="g24605">
          <g
             id="g24603"
             clip-path="url(#clipPath24597)">
            <g
               id="g24601"
               transform="translate(619.3152,482.7462)">
              <path
                 inkscape:connector-curvature="0"
                 id="path24599"
                 style="fill:#ffe6cc;fill-opacity:1;fill-rule:nonzero;stroke:none"
                 d="m 0,0 c 0,0 -3.889,-10.469 -13.542,-17.907 0,0 7.165,14.911 13.542,17.907" />
            </g>
          </g>
        </g>
      </g>
      <g
         transform="matrix(0.38423383,0,0,-0.38423383,74.834319,169.27622)"
         id="g24607">
        <path
           inkscape:connector-curvature="0"
           id="path24609"
           style="fill:#ff8600;fill-opacity:1;fill-rule:nonzero;stroke:none"
           d="m 0,0 c 0,1.207 -0.978,2.185 -2.185,2.185 -1.207,0 -2.184,-0.978 -2.184,-2.185 0,-1.206 0.977,-2.185 2.184,-2.185 C -0.978,-2.185 0,-1.206 0,0" />
      </g>
      <g
         id="g24611"
         transform="matrix(0.38423383,0,0,-0.38423383,-130.2868,340.21079)">
        <g
           id="g24613" />
        <g
           id="g24625">
          <g
             id="g24623"
             clip-path="url(#clipPath24617)">
            <g
               id="g24621"
               transform="translate(531.6599,442.6866)">
              <path
                 inkscape:connector-curvature="0"
                 id="path24619"
                 style="fill:#ff8600;fill-opacity:1;fill-rule:nonzero;stroke:none"
                 d="m 0,0 c 0,0 2.185,0.006 2.185,2.185 0,0 0.032,1.998 -2.185,2.184 0,0 3.148,-2.371 0,-4.369" />
            </g>
          </g>
        </g>
      </g>
      <g
         transform="matrix(0.38423383,0,0,-0.38423383,76.581736,168.93476)"
         id="g24627">
        <path
           inkscape:connector-curvature="0"
           id="path24629"
           style="fill:#ff8600;fill-opacity:1;fill-rule:nonzero;stroke:none"
           d="m 0,0 c 0,1.472 -1.193,2.666 -2.666,2.666 -1.473,0 -2.666,-1.194 -2.666,-2.666 0,-1.473 1.193,-2.666 2.666,-2.666 C -1.193,-2.666 0,-1.473 0,0" />
      </g>
      <g
         id="g24631"
         transform="matrix(0.38423383,0,0,-0.38423383,-130.2868,340.21079)">
        <g
           id="g24633" />
        <g
           id="g24645">
          <g
             id="g24643"
             clip-path="url(#clipPath24637)">
            <g
               id="g24641"
               transform="translate(535.7263,443.0938)">
              <path
                 inkscape:connector-curvature="0"
                 id="path24639"
                 style="fill:#ff8600;fill-opacity:1;fill-rule:nonzero;stroke:none"
                 d="m 0,0 c 0,0 2.666,0.007 2.666,2.666 0,0 0.04,2.438 -2.666,2.666 0,0 1.843,-2.115 0,-5.332" />
            </g>
          </g>
        </g>
      </g>
      <g
         transform="matrix(0.38423383,0,0,-0.38423383,77.723182,169.51487)"
         id="g24647">
        <path
           inkscape:connector-curvature="0"
           id="path24649"
           style="fill:#ff8600;fill-opacity:1;fill-rule:nonzero;stroke:none"
           d="m 0,0 c 0,1.207 -0.978,2.186 -2.185,2.186 -1.206,0 -2.184,-0.979 -2.184,-2.186 0,-1.206 0.978,-2.185 2.184,-2.185 C -0.978,-2.185 0,-1.206 0,0" />
      </g>
      <g
         id="g24651"
         transform="matrix(0.38423383,0,0,-0.38423383,-130.2868,340.21079)">
        <g
           id="g24653" />
        <g
           id="g24665">
          <g
             id="g24663"
             clip-path="url(#clipPath24657)">
            <g
               id="g24661"
               transform="translate(539.1785,442.0655)">
              <path
                 inkscape:connector-curvature="0"
                 id="path24659"
                 style="fill:#ff8600;fill-opacity:1;fill-rule:nonzero;stroke:none"
                 d="M 0,0 C 0,0 2.185,0.006 2.185,2.185 2.185,2.185 2.217,4.183 0,4.37 0,4.37 3.148,1.998 0,0" />
            </g>
          </g>
        </g>
      </g>
      <g
         transform="matrix(0.38423383,0,0,-0.38423383,78.947195,168.60608)"
         id="g24667">
        <path
           inkscape:connector-curvature="0"
           id="path24669"
           style="fill:#ff8600;fill-opacity:1;fill-rule:nonzero;stroke:none"
           d="m 0,0 c -0.7,0.981 -2.065,1.21 -3.047,0.509 -0.982,-0.7 -1.211,-2.065 -0.51,-3.047 0.702,-0.983 2.066,-1.21 3.048,-0.51 C 0.473,-2.347 0.701,-0.982 0,0" />
      </g>
      <g
         id="g24671"
         transform="matrix(0.38423383,0,0,-0.38423383,-130.2868,340.21079)">
        <g
           id="g24673" />
        <g
           id="g24685">
          <g
             id="g24683"
             clip-path="url(#clipPath24677)">
            <g
               id="g24681"
               transform="translate(544.0398,443.5675)">
              <path
                 inkscape:connector-curvature="0"
                 id="path24679"
                 style="fill:#ff8600;fill-opacity:1;fill-rule:nonzero;stroke:none"
                 d="m 0,0 c 0,0 1.774,1.273 0.509,3.048 0,0 -1.134,1.644 -3.047,0.509 0,0 3.94,-0.102 2.538,-3.557" />
            </g>
          </g>
        </g>
      </g>
      <g
         transform="matrix(0.38423383,0,0,-0.38423383,72.624206,169.67621)"
         id="g24687">
        <path
           inkscape:connector-curvature="0"
           id="path24689"
           style="fill:#6971d1;fill-opacity:1;fill-rule:nonzero;stroke:none"
           d="M 0,0 H 18.953 C 18.953,0 10.556,-14.563 0,0" />
      </g>
      <g
         id="g24691"
         transform="matrix(0.38423383,0,0,-0.38423383,-130.2868,340.21079)">
        <g
           id="g24693" />
        <g
           id="g24705">
          <g
             id="g24703"
             clip-path="url(#clipPath24697)">
            <g
               id="g24701"
               transform="translate(547.0457,443.8302)">
              <path
                 inkscape:connector-curvature="0"
                 id="path24699"
                 style="fill:#6971d1;fill-opacity:1;fill-rule:nonzero;stroke:none"
                 d="m 0,0 h -2.715 c 0,0 -0.779,-5.101 -6.762,-6.472 0,0 5.047,-0.517 9.477,6.472" />
            </g>
          </g>
        </g>
      </g>
      <g
         transform="matrix(0.38423383,0,0,-0.38423383,96.1563,172.74147)"
         id="g24707">
        <path
           inkscape:connector-curvature="0"
           id="path24709"
           style="fill:#6971d1;fill-opacity:1;fill-rule:nonzero;stroke:none"
           d="m 0,0 1.54,6.786 c 0,0 -3.189,-0.738 -5.937,0.215 L -3.921,0 c 0,0 1.796,-0.77 3.921,0" />
      </g>
      <g
         transform="matrix(0.38423383,0,0,-0.38423383,96.748019,170.13399)"
         id="g24711">
        <path
           inkscape:connector-curvature="0"
           id="path24713"
           style="fill:#1f184b;fill-opacity:1;fill-rule:nonzero;stroke:none"
           d="m 0,0 c 0,0 -3.592,-0.738 -5.937,0.215 0,0 2.711,0.963 5.937,-0.215" />
      </g>
      <g
         id="g24715"
         transform="matrix(0.38423383,0,0,-0.38423383,-130.2868,340.21079)">
        <g
           id="g24717" />
        <g
           id="g24729">
          <g
             id="g24727"
             clip-path="url(#clipPath24721)">
            <g
               id="g24725"
               transform="translate(589.3367,435.8526)">
              <path
                 inkscape:connector-curvature="0"
                 id="path24723"
                 style="fill:#6971d1;fill-opacity:1;fill-rule:nonzero;stroke:none"
                 d="M 0,0 -1.353,-0.342 0.74,6.657 1.54,6.786 Z" />
            </g>
          </g>
        </g>
      </g>
      <g
         transform="matrix(0.38423383,0,0,-0.38423383,90.704212,173.24502)"
         id="g24731">
        <path
           inkscape:connector-curvature="0"
           id="path24733"
           style="fill:#6971d1;fill-opacity:1;fill-rule:nonzero;stroke:none"
           d="m 0,0 1.539,6.786 c 0,0 -3.188,-0.738 -5.937,0.215 L -3.922,0 c 0,0 1.796,-0.77 3.922,0" />
      </g>
      <g
         transform="matrix(0.38423383,0,0,-0.38423383,91.295588,170.63756)"
         id="g24735">
        <path
           inkscape:connector-curvature="0"
           id="path24737"
           style="fill:#1f184b;fill-opacity:1;fill-rule:nonzero;stroke:none"
           d="m 0,0 c 0,0 -3.592,-0.738 -5.937,0.215 0,0 2.711,0.963 5.937,-0.215" />
      </g>
      <g
         id="g24739"
         transform="matrix(0.38423383,0,0,-0.38423383,-130.2868,340.21079)">
        <g
           id="g24741" />
        <g
           id="g24753">
          <g
             id="g24751"
             clip-path="url(#clipPath24745)">
            <g
               id="g24749"
               transform="translate(575.1472,434.5421)">
              <path
                 inkscape:connector-curvature="0"
                 id="path24747"
                 style="fill:#6971d1;fill-opacity:1;fill-rule:nonzero;stroke:none"
                 d="m 0,0 -1.354,-0.342 2.093,6.999 0.8,0.129 z" />
            </g>
          </g>
        </g>
      </g>
      <g
         transform="matrix(0.38423383,0,0,-0.38423383,87.467503,172.31897)"
         id="g24755">
        <path
           inkscape:connector-curvature="0"
           id="path24757"
           style="fill:#ffb66d;fill-opacity:1;fill-rule:nonzero;stroke:none"
           d="m 0,0 c 0,0 0.109,3.299 -5.241,3.115 -5.352,-0.182 -11.179,0.037 -11.472,-3.628 0,0 4.984,-3.079 16.713,0.513" />
      </g>
      <g
         id="g24759"
         transform="matrix(0.38423383,0,0,-0.38423383,-130.2868,340.21079)">
        <g
           id="g24761" />
        <g
           id="g24773">
          <g
             id="g24771"
             clip-path="url(#clipPath24765)">
            <g
               id="g24769"
               transform="translate(552.9988,439.3575)">
              <path
                 inkscape:connector-curvature="0"
                 id="path24767"
                 style="fill:#ffb66d;fill-opacity:1;fill-rule:nonzero;stroke:none"
                 d="m 0,0 c 0,0 2.105,-0.312 2.546,-2 0,0 0.317,1.434 -1.069,2.311 z" />
            </g>
          </g>
        </g>
      </g>
      <g
         id="g24775"
         transform="matrix(0.38423383,0,0,-0.38423383,-130.2868,340.21079)">
        <g
           id="g24777" />
        <g
           id="g24789">
          <g
             id="g24787"
             clip-path="url(#clipPath24781)">
            <g
               id="g24785"
               transform="translate(556.5291,439.8849)">
              <path
                 inkscape:connector-curvature="0"
                 id="path24783"
                 style="fill:#ffb66d;fill-opacity:1;fill-rule:nonzero;stroke:none"
                 d="m 0,0 c 0,0 2.258,-0.433 2.697,-2.12 0,0 0.222,1.329 -1.165,2.205 z" />
            </g>
          </g>
        </g>
      </g>
      <g
         id="g24791"
         transform="matrix(0.38423383,0,0,-0.38423383,-130.2868,340.21079)">
        <g
           id="g24793" />
        <g
           id="g24805">
          <g
             id="g24803"
             clip-path="url(#clipPath24797)">
            <g
               id="g24801"
               transform="translate(560.3328,440.0333)">
              <path
                 inkscape:connector-curvature="0"
                 id="path24799"
                 style="fill:#ffb66d;fill-opacity:1;fill-rule:nonzero;stroke:none"
                 d="m 0,0 c 0,0 1.695,-0.581 2.136,-2.269 0,0 0.317,1.434 -1.07,2.311 z" />
            </g>
          </g>
        </g>
      </g>
    </g>
  </g>
</svg>
