<?xml version="1.0" encoding="UTF-8" standalone="no"?>
<!-- Created with Inkscape (http://www.inkscape.org/) -->

<svg
   xmlns:dc="http://purl.org/dc/elements/1.1/"
   xmlns:cc="http://creativecommons.org/ns#"
   xmlns:rdf="http://www.w3.org/1999/02/22-rdf-syntax-ns#"
   xmlns:svg="http://www.w3.org/2000/svg"
   xmlns="http://www.w3.org/2000/svg"
   xmlns:sodipodi="http://sodipodi.sourceforge.net/DTD/sodipodi-0.dtd"
   xmlns:inkscape="http://www.inkscape.org/namespaces/inkscape"
   width="105.83333mm"
   height="59.383057mm"
   viewBox="0 0 105.83333 59.383057"
   version="1.1"
   id="svg34910"
   inkscape:version="0.92.5 (2060ec1f9f, 2020-04-08)"
   sodipodi:docname="inmufortAdultsDrawing02.svg">
  <defs
     id="defs34904">
    <clipPath
       clipPathUnits="userSpaceOnUse"
       id="clipPath24989">
      <path
         d="m 663.81,513.309 h 24.797 V 475.556 H 663.81 Z"
         id="path24987"
         inkscape:connector-curvature="0" />
    </clipPath>
    <clipPath
       clipPathUnits="userSpaceOnUse"
       id="clipPath24969">
      <path
         d="m 695.359,500.64 h 14.924 v -4.62 h -14.924 z"
         id="path24967"
         inkscape:connector-curvature="0" />
    </clipPath>
    <clipPath
       clipPathUnits="userSpaceOnUse"
       id="clipPath24949">
      <path
         d="m 660.455,516.18 h 28.104 v -4.638 h -28.104 z"
         id="path24947"
         inkscape:connector-curvature="0" />
    </clipPath>
    <clipPath
       clipPathUnits="userSpaceOnUse"
       id="clipPath24929">
      <path
         d="m 698.428,448.657 h 4.425 v -14.595 h -4.425 z"
         id="path24927"
         inkscape:connector-curvature="0" />
    </clipPath>
    <clipPath
       clipPathUnits="userSpaceOnUse"
       id="clipPath24913">
      <path
         d="m 650.877,457.69 h 12.307 v -9.102 h -12.307 z"
         id="path24911"
         inkscape:connector-curvature="0" />
    </clipPath>
    <clipPath
       clipPathUnits="userSpaceOnUse"
       id="clipPath24897">
      <path
         d="m 650.305,518.454 h 2.544 v -4.985 h -2.544 z"
         id="path24895"
         inkscape:connector-curvature="0" />
    </clipPath>
    <clipPath
       clipPathUnits="userSpaceOnUse"
       id="clipPath24881">
      <path
         d="m 636.452,506.026 h 6.423 v -8.863 h -6.423 z"
         id="path24879"
         inkscape:connector-curvature="0" />
    </clipPath>
    <clipPath
       clipPathUnits="userSpaceOnUse"
       id="clipPath24865">
      <path
         d="m 642.657,503.732 h 7.648 v -10.988 h -7.648 z"
         id="path24863"
         inkscape:connector-curvature="0" />
    </clipPath>
    <clipPath
       clipPathUnits="userSpaceOnUse"
       id="clipPath24845">
      <path
         d="m 664.011,480.847 h 8.111 v -20.554 h -8.111 z"
         id="path24843"
         inkscape:connector-curvature="0" />
    </clipPath>
    <clipPath
       clipPathUnits="userSpaceOnUse"
       id="clipPath24797">
      <path
         d="m 560.333,440.075 h 2.167 v -2.31 h -2.167 z"
         id="path24795"
         inkscape:connector-curvature="0" />
    </clipPath>
    <clipPath
       clipPathUnits="userSpaceOnUse"
       id="clipPath24781">
      <path
         d="m 556.529,439.97 h 2.711 v -2.205 h -2.711 z"
         id="path24779"
         inkscape:connector-curvature="0" />
    </clipPath>
    <clipPath
       clipPathUnits="userSpaceOnUse"
       id="clipPath24765">
      <path
         d="m 552.998,439.668 h 2.578 v -2.311 h -2.578 z"
         id="path24763"
         inkscape:connector-curvature="0" />
    </clipPath>
    <clipPath
       clipPathUnits="userSpaceOnUse"
       id="clipPath24745">
      <path
         d="m 573.794,441.328 h 2.892 V 434.2 h -2.892 z"
         id="path24743"
         inkscape:connector-curvature="0" />
    </clipPath>
    <clipPath
       clipPathUnits="userSpaceOnUse"
       id="clipPath24721">
      <path
         d="m 587.984,442.638 h 2.892 v -7.127 h -2.892 z"
         id="path24719"
         inkscape:connector-curvature="0" />
    </clipPath>
    <clipPath
       clipPathUnits="userSpaceOnUse"
       id="clipPath24697">
      <path
         d="m 537.569,443.83 h 9.477 v -6.48 h -9.477 z"
         id="path24695"
         inkscape:connector-curvature="0" />
    </clipPath>
    <clipPath
       clipPathUnits="userSpaceOnUse"
       id="clipPath24677">
      <path
         d="m 541.501,447.524 h 3.503 v -3.956 h -3.503 z"
         id="path24675"
         inkscape:connector-curvature="0" />
    </clipPath>
    <clipPath
       clipPathUnits="userSpaceOnUse"
       id="clipPath24657">
      <path
         d="m 539.179,446.435 h 2.184 v -4.369 h -2.184 z"
         id="path24655"
         inkscape:connector-curvature="0" />
    </clipPath>
    <clipPath
       clipPathUnits="userSpaceOnUse"
       id="clipPath24637">
      <path
         d="m 535.727,448.426 h 2.666 v -5.333 h -2.666 z"
         id="path24635"
         inkscape:connector-curvature="0" />
    </clipPath>
    <clipPath
       clipPathUnits="userSpaceOnUse"
       id="clipPath24617">
      <path
         d="m 531.66,447.056 h 2.185 v -4.369 h -2.185 z"
         id="path24615"
         inkscape:connector-curvature="0" />
    </clipPath>
    <clipPath
       clipPathUnits="userSpaceOnUse"
       id="clipPath24597">
      <path
         d="m 605.773,482.746 h 13.542 v -17.907 h -13.542 z"
         id="path24595"
         inkscape:connector-curvature="0" />
    </clipPath>
    <clipPath
       clipPathUnits="userSpaceOnUse"
       id="clipPath24581">
      <path
         d="m 604.899,480.417 h 3.987 v -3.592 h -3.987 z"
         id="path24579"
         inkscape:connector-curvature="0" />
    </clipPath>
    <clipPath
       clipPathUnits="userSpaceOnUse"
       id="clipPath24565">
      <path
         d="m 587.382,468.093 h 15.052 v -18.766 h -15.052 z"
         id="path24563"
         inkscape:connector-curvature="0" />
    </clipPath>
    <clipPath
       clipPathUnits="userSpaceOnUse"
       id="clipPath24549">
      <path
         d="m 576.488,467.692 h 10.645 v -26.598 h -10.645 z"
         id="path24547"
         inkscape:connector-curvature="0" />
    </clipPath>
    <clipPath
       clipPathUnits="userSpaceOnUse"
       id="clipPath24533">
      <path
         d="m 593.432,444.142 h 22.891 v -6.822 h -22.891 z"
         id="path24531"
         inkscape:connector-curvature="0" />
    </clipPath>
    <clipPath
       clipPathUnits="userSpaceOnUse"
       id="clipPath24517">
      <path
         d="m 616.001,439.843 h 11.769 v -2.51 h -11.769 z"
         id="path24515"
         inkscape:connector-curvature="0" />
    </clipPath>
    <clipPath
       clipPathUnits="userSpaceOnUse"
       id="clipPath24501">
      <path
         d="m 614.529,459.108 h 5.263 V 445.18 h -5.263 z"
         id="path24499"
         inkscape:connector-curvature="0" />
    </clipPath>
    <clipPath
       clipPathUnits="userSpaceOnUse"
       id="clipPath24477">
      <path
         d="m 591.102,484.526 h 7.199 v -7.069 h -7.199 z"
         id="path24475"
         inkscape:connector-curvature="0" />
    </clipPath>
    <clipPath
       clipPathUnits="userSpaceOnUse"
       id="clipPath24453">
      <path
         d="m 599.181,466.528 h 15.348 v -19.647 h -15.348 z"
         id="path24451"
         inkscape:connector-curvature="0" />
    </clipPath>
    <clipPath
       clipPathUnits="userSpaceOnUse"
       id="clipPath24437">
      <path
         d="m 619.023,470.312 h 4.256 v -24.763 h -4.256 z"
         id="path24435"
         inkscape:connector-curvature="0" />
    </clipPath>
    <clipPath
       clipPathUnits="userSpaceOnUse"
       id="clipPath24401">
      <path
         d="m 564.927,443.83 h 18.799 v -2.383 h -18.799 z"
         id="path24399"
         inkscape:connector-curvature="0" />
    </clipPath>
    <clipPath
       clipPathUnits="userSpaceOnUse"
       id="clipPath24385">
      <path
         d="m 583.143,444.08 h 9.682 v -1.393 h -9.682 z"
         id="path24383"
         inkscape:connector-curvature="0" />
    </clipPath>
    <clipPath
       clipPathUnits="userSpaceOnUse"
       id="clipPath24369">
      <path
         d="m 560.447,455.852 h 15.027 v -5.595 h -15.027 z"
         id="path24367"
         inkscape:connector-curvature="0" />
    </clipPath>
    <clipPath
       clipPathUnits="userSpaceOnUse"
       id="clipPath24349">
      <path
         d="m 558.489,480.011 h 8.431 v -15.509 h -8.431 z"
         id="path24347"
         inkscape:connector-curvature="0" />
    </clipPath>
    <clipPath
       clipPathUnits="userSpaceOnUse"
       id="clipPath24333">
      <path
         d="m 564.927,484.294 h 5.974 v -5.611 h -5.974 z"
         id="path24331"
         inkscape:connector-curvature="0" />
    </clipPath>
    <clipPath
       clipPathUnits="userSpaceOnUse"
       id="clipPath24313">
      <path
         d="m 568.808,469.964 h 5.612 v -18.178 h -5.612 z"
         id="path24311"
         inkscape:connector-curvature="0" />
    </clipPath>
    <clipPath
       clipPathUnits="userSpaceOnUse"
       id="clipPath24293">
      <path
         d="m 545.392,473.083 h 11.289 v -24.072 h -11.289 z"
         id="path24291"
         inkscape:connector-curvature="0" />
    </clipPath>
    <clipPath
       clipPathUnits="userSpaceOnUse"
       id="clipPath24269">
      <path
         d="m 557.495,449.011 h 7.432 v -2.346 h -7.432 z"
         id="path24267"
         inkscape:connector-curvature="0" />
    </clipPath>
    <clipPath
       clipPathUnits="userSpaceOnUse"
       id="clipPath24253">
      <path
         d="m 553.656,446.665 h 11.271 v -5.67 h -11.271 z"
         id="path24251"
         inkscape:connector-curvature="0" />
    </clipPath>
    <clipPath
       clipPathUnits="userSpaceOnUse"
       id="clipPath24237">
      <path
         d="m 573.247,451.786 h 3.439 v -2.775 h -3.439 z"
         id="path24235"
         inkscape:connector-curvature="0" />
    </clipPath>
    <clipPath
       clipPathUnits="userSpaceOnUse"
       id="clipPath24045">
      <path
         d="m 654.807,482.08 h 27.191 v -29.484 h -27.191 z"
         id="path24043"
         inkscape:connector-curvature="0" />
    </clipPath>
    <clipPath
       clipPathUnits="userSpaceOnUse"
       id="clipPath24029">
      <path
         d="m 672.282,490.724 h 15.382 v -21.525 h -15.382 z"
         id="path24027"
         inkscape:connector-curvature="0" />
    </clipPath>
    <clipPath
       clipPathUnits="userSpaceOnUse"
       id="clipPath24013">
      <path
         d="m 685.014,472.888 h 9.601 V 454.92 h -9.601 z"
         id="path24011"
         inkscape:connector-curvature="0" />
    </clipPath>
    <clipPath
       clipPathUnits="userSpaceOnUse"
       id="clipPath23997">
      <path
         d="m 641.396,454.769 h 12.082 v -14.782 h -12.082 z"
         id="path23995"
         inkscape:connector-curvature="0" />
    </clipPath>
    <clipPath
       clipPathUnits="userSpaceOnUse"
       id="clipPath23981">
      <path
         d="M 502.387,465.22 H 638.904 V 423.758 H 502.387 Z"
         id="path23979"
         inkscape:connector-curvature="0" />
    </clipPath>
    <clipPath
       clipPathUnits="userSpaceOnUse"
       id="clipPath23965">
      <path
         d="m 606.348,471.836 h 74.531 v -27.242 h -74.531 z"
         id="path23963"
         inkscape:connector-curvature="0" />
    </clipPath>
    <clipPath
       clipPathUnits="userSpaceOnUse"
       id="clipPath23949">
      <path
         d="m 656.777,441.064 h 24.114 v -6.353 h -24.114 z"
         id="path23947"
         inkscape:connector-curvature="0" />
    </clipPath>
    <clipPath
       clipPathUnits="userSpaceOnUse"
       id="clipPath23929">
      <path
         d="m 755.665,496.569 h 6.314 v -15.255 h -6.314 z"
         id="path23927"
         inkscape:connector-curvature="0" />
    </clipPath>
    <clipPath
       clipPathUnits="userSpaceOnUse"
       id="clipPath23913">
      <path
         d="m 724.403,465.708 h 20.561 v -14.623 h -20.561 z"
         id="path23911"
         inkscape:connector-curvature="0" />
    </clipPath>
    <clipPath
       clipPathUnits="userSpaceOnUse"
       id="clipPath23897">
      <path
         d="m 738.109,479.822 h 21.864 v -24.473 h -21.864 z"
         id="path23895"
         inkscape:connector-curvature="0" />
    </clipPath>
    <clipPath
       clipPathUnits="userSpaceOnUse"
       id="clipPath23881">
      <path
         d="m 686.702,454.355 h 49.934 v -9.201 h -49.934 z"
         id="path23879"
         inkscape:connector-curvature="0" />
    </clipPath>
  </defs>
  <sodipodi:namedview
     id="base"
     pagecolor="#ffffff"
     bordercolor="#666666"
     borderopacity="1.0"
     inkscape:pageopacity="0.0"
     inkscape:pageshadow="2"
     inkscape:zoom="1.4"
     inkscape:cx="13.139003"
     inkscape:cy="112.47223"
     inkscape:document-units="mm"
     inkscape:current-layer="layer1"
     showgrid="false"
     inkscape:window-width="1920"
     inkscape:window-height="1016"
     inkscape:window-x="0"
     inkscape:window-y="27"
     inkscape:window-maximized="1" />
  <metadata
     id="metadata34907">
    <rdf:RDF>
      <cc:Work
         rdf:about="">
        <dc:format>image/svg+xml</dc:format>
        <dc:type
           rdf:resource="http://purl.org/dc/dcmitype/StillImage" />
        <dc:title></dc:title>
      </cc:Work>
    </rdf:RDF>
  </metadata>
  <g
     inkscape:label="Layer 1"
     inkscape:groupmode="layer"
     id="layer1"
     transform="translate(-58.061081,-120.72786)">
    <g
       id="g23859"
       transform="matrix(0.38423383,0,0,-0.38423383,135.76389,130.90353)">
      <path
         d="m 0,0 c 0,2.989 1.481,5.631 3.749,7.236 -1.018,1.443 -1.618,3.202 -1.618,5.103 0,4.893 3.968,8.86 8.861,8.86 0.126,0 0.251,-0.004 0.376,-0.009 0.55,3.011 3.185,5.293 6.354,5.293 3.569,0 6.462,-2.893 6.462,-6.462 0,-0.887 -0.179,-1.734 -0.503,-2.503 0.037,0 0.074,0.003 0.111,0.003 3.569,0 6.462,-2.894 6.462,-6.462 0,-1.086 -0.27,-2.109 -0.742,-3.007 3.045,-1.403 5.161,-4.48 5.161,-8.052 0,-2.831 -1.329,-5.35 -3.396,-6.972 0.87,-1.371 1.376,-2.997 1.376,-4.741 0,-4.893 -3.966,-8.861 -8.861,-8.861 -2.311,0 -4.413,0.886 -5.991,2.334 -1.625,-1.95 -4.072,-3.192 -6.809,-3.192 -4.893,0 -8.861,3.967 -8.861,8.862 0,1.967 0.642,3.785 1.728,5.256 C 1.529,-5.718 0,-3.038 0,0"
         style="fill:#1f184b;fill-opacity:1;fill-rule:nonzero;stroke:none"
         id="path23861"
         inkscape:connector-curvature="0" />
    </g>
    <g
       id="g23863"
       transform="matrix(0.38423383,0,0,-0.38423383,143.42867,163.15177)">
      <path
         d="m 0,0 v 64.237 c 0,0 -1.748,24.029 3.728,29.971 l -0.477,0.437 c 0,0 -6.121,-5.164 -5.466,-20.958 0,0 -4.426,6.722 -8.525,8.143 l -0.446,-0.671 c 0,0 7.083,-3.197 7.083,-17.212 V 0.116 Z"
         style="fill:#ffb66d;fill-opacity:1;fill-rule:nonzero;stroke:none"
         id="path23865"
         inkscape:connector-curvature="0" />
    </g>
    <g
       id="g23867"
       transform="matrix(0.38423383,0,0,-0.38423383,160.00967,130.2889)">
      <path
         d="m 0,0 c -3.047,0 -5.526,-2.479 -5.526,-5.526 v -5.527 h 6.408 c 3.047,0 5.526,2.48 5.526,5.527 C 6.408,-2.479 3.929,0 0.882,0 Z m -23.653,-41.86 c 0,1.261 -1.028,2.289 -2.289,2.289 h -5.363 c -1.819,0 -3.299,-1.481 -3.299,-3.3 0,-1.819 1.48,-3.3 3.299,-3.3 h 7.652 z m -5.308,-20.384 c -2.972,0 -5.445,-2.244 -5.632,-5.109 -0.102,-1.58 0.478,-3.125 1.592,-4.239 1.114,-1.114 2.662,-1.695 4.239,-1.593 2.865,0.188 5.109,2.662 5.109,5.632 v 5.309 z m -9.542,48.824 c 0.276,0.053 0.543,0.453 0.79,1.191 0.057,0.165 0.144,0.309 0.228,0.448 0.12,0.199 0.223,0.371 0.223,0.573 v 0.155 h 31.425 v 5.527 c 0,3.218 2.618,5.838 5.837,5.838 h 0.882 c 3.219,0 5.838,-2.62 5.838,-5.838 0,-3.219 -2.619,-5.837 -5.838,-5.837 h -6.408 v -30.723 c 0,-2.424 -1.972,-4.396 -4.397,-4.396 h -13.419 v -15.452 h 4.789 c 1.647,0 2.986,-1.338 2.986,-2.984 v -37.528 h -0.312 v 37.528 c 0,1.474 -1.199,2.674 -2.674,2.674 h -4.789 v -5.309 c 0,-3.134 -2.372,-5.744 -5.399,-5.941 -1.675,-0.113 -3.302,0.504 -4.48,1.683 -1.177,1.176 -1.791,2.81 -1.682,4.478 0.197,3.027 2.807,5.399 5.942,5.399 h 5.308 v 15.452 h -7.652 c -1.991,0 -3.611,1.62 -3.611,3.611 0,1.991 1.62,3.611 3.611,3.611 h 5.363 c 1.433,0 2.6,-1.167 2.6,-2.6 v -4.311 h 13.419 c 2.253,0 4.086,1.832 4.086,4.085 v 30.723 h -31.127 c -0.037,-0.218 -0.147,-0.401 -0.256,-0.578 -0.078,-0.131 -0.152,-0.254 -0.197,-0.388 -0.295,-0.875 -0.622,-1.318 -1.027,-1.397"
         style="fill:#1f184b;fill-opacity:1;fill-rule:nonzero;stroke:none"
         id="path23869"
         inkscape:connector-curvature="0" />
    </g>
    <g
       id="g23871"
       transform="matrix(0.38423383,0,0,-0.38423383,162.17021,149.08332)">
      <path
         d="m 0,0 c 3.652,-2.755 5.403,-7.593 4.01,-12.237 -6.877,-22.989 -30.733,-35.986 -33.429,-37.386 -31.182,-13.595 -54.917,2.762 -63.222,13.218 -3.86,4.883 -3.038,11.971 1.842,15.836 4.853,3.855 11.875,3.083 15.782,-1.767 1.452,-1.715 14.366,-16.31 35.892,-6.948 4.259,2.291 18.01,11.737 21.536,23.517 1.782,5.965 8.066,9.35 14.03,7.568 C -2.233,1.408 -1.042,0.785 0,0"
         style="fill:#6971d1;fill-opacity:1;fill-rule:nonzero;stroke:none"
         id="path23873"
         inkscape:connector-curvature="0" />
    </g>
    <g
       transform="matrix(0.38423383,0,0,-0.38423383,-130.2868,340.21079)"
       id="g23875">
      <g
         id="g23877" />
      <g
         id="g23889">
        <g
           clip-path="url(#clipPath23881)"
           id="g23887">
          <g
             transform="translate(720.4373,446.421)"
             id="g23885">
            <path
               d="m 0,0 c -6.437,-1.495 -12.49,-1.463 -17.286,-0.944 -9.425,1.018 -16.17,4.088 -16.236,4.119 -0.184,0.085 -0.264,0.302 -0.18,0.485 0.085,0.184 0.302,0.264 0.486,0.18 0.066,-0.03 6.721,-3.056 16.033,-4.059 8.575,-0.924 21.225,-0.27 32.802,8.083 0.163,0.119 0.393,0.082 0.511,-0.082 C 16.248,7.618 16.211,7.39 16.048,7.271 10.759,3.455 5.251,1.22 0,0"
               style="fill:#6971d1;fill-opacity:1;fill-rule:nonzero;stroke:none"
               id="path23883"
               inkscape:connector-curvature="0" />
          </g>
        </g>
      </g>
    </g>
    <g
       transform="matrix(0.38423383,0,0,-0.38423383,-130.2868,340.21079)"
       id="g23891">
      <g
         id="g23893" />
      <g
         id="g23905">
        <g
           clip-path="url(#clipPath23897)"
           id="g23903">
          <g
             transform="translate(738.5583,455.3585)"
             id="g23901">
            <path
               d="m 0,0 c -0.136,-0.031 -0.283,0.017 -0.373,0.134 -0.123,0.16 -0.093,0.389 0.067,0.513 0.155,0.12 15.573,12.061 21.024,23.607 0.086,0.183 0.303,0.261 0.487,0.175 0.183,-0.087 0.261,-0.305 0.175,-0.488 C 15.854,12.235 0.297,0.187 0.14,0.066 0.098,0.033 0.05,0.012 0,0"
               style="fill:#6971d1;fill-opacity:1;fill-rule:nonzero;stroke:none"
               id="path23899"
               inkscape:connector-curvature="0" />
          </g>
        </g>
      </g>
    </g>
    <g
       transform="matrix(0.38423383,0,0,-0.38423383,-130.2868,340.21079)"
       id="g23907">
      <g
         id="g23909" />
      <g
         id="g23921">
        <g
           clip-path="url(#clipPath23913)"
           id="g23919">
          <g
             transform="translate(724.8513,451.0938)"
             id="g23917">
            <path
               d="m 0,0 c -0.172,-0.04 -0.353,0.05 -0.421,0.219 -0.076,0.186 0.013,0.4 0.2,0.476 0.114,0.047 11.443,4.75 19.697,13.8 0.136,0.15 0.368,0.159 0.517,0.024 0.15,-0.136 0.16,-0.368 0.024,-0.517 C 11.648,4.827 0.171,0.065 0.057,0.019 0.038,0.011 0.019,0.005 0,0"
               style="fill:#6971d1;fill-opacity:1;fill-rule:nonzero;stroke:none"
               id="path23915"
               inkscape:connector-curvature="0" />
          </g>
        </g>
      </g>
    </g>
    <g
       transform="matrix(0.38423383,0,0,-0.38423383,-130.2868,340.21079)"
       id="g23923">
      <g
         id="g23925" />
      <g
         id="g23937">
        <g
           clip-path="url(#clipPath23929)"
           id="g23935">
          <g
             transform="translate(760.5798,481.3233)"
             id="g23933">
            <path
               d="m 0,0 c -0.075,-0.018 -0.156,-0.011 -0.231,0.022 -0.185,0.083 -0.268,0.3 -0.186,0.485 0.012,0.024 1.104,2.508 1.106,5.476 0.001,3.922 -1.815,6.805 -5.4,8.569 -0.181,0.089 -0.256,0.308 -0.167,0.489 0.09,0.182 0.309,0.256 0.49,0.167 C 4.812,10.682 0.298,0.312 0.251,0.207 0.202,0.099 0.107,0.025 0,0"
               style="fill:#6971d1;fill-opacity:1;fill-rule:nonzero;stroke:none"
               id="path23931"
               inkscape:connector-curvature="0" />
          </g>
        </g>
      </g>
    </g>
    <g
       id="g23939"
       transform="matrix(0.38423383,0,0,-0.38423383,135.77365,167.94228)">
      <path
         d="m 0,0 c 2.603,-2.625 2.373,-6.9 -0.209,-9.545 -5.128,-5.251 -10.579,-8.489 -17.935,-10.742 -8.298,-2.541 -17.987,-1.533 -24.651,4.027 -4.119,3.439 -6.799,8.273 -10.434,12.219 -8.385,9.103 -22.148,12.832 -33.981,9.205 -9.433,-2.891 -17.003,-9.767 -24.893,-15.69 -17.2,-12.916 -38.137,-22.132 -59.62,-21.059 -7.266,0.363 -14.715,2.008 -20.541,6.367 -7.428,5.562 -11.344,15.504 -9.563,24.612 1.782,9.108 9.241,16.884 18.299,18.907 6.336,1.415 12.914,0.18 19.378,-0.417 9.345,-0.863 19.027,-0.326 27.667,3.34 20.463,8.681 31.334,32.937 52.183,40.649 8.02,2.966 16.928,3.145 25.266,1.247 5.894,-1.342 11.694,-3.791 15.993,-8.04 4.3,-4.25 6.89,-10.508 5.729,-16.44 4.329,7.057 13.529,10.22 21.675,8.743 C -7.49,45.904 -0.47,40.434 4.383,33.726 8.248,28.383 10.979,21.888 10.381,15.32 9.783,8.753 5.206,2.309 -1.255,0.991 -0.795,0.714 -0.375,0.379 0,0"
         style="fill:#d9d8f4;fill-opacity:1;fill-rule:nonzero;stroke:none"
         id="path23941"
         inkscape:connector-curvature="0" />
    </g>
    <g
       transform="matrix(0.38423383,0,0,-0.38423383,-130.2868,340.21079)"
       id="g23943">
      <g
         id="g23945" />
      <g
         id="g23957">
        <g
           clip-path="url(#clipPath23949)"
           id="g23955">
          <g
             transform="translate(667.364,434.711)"
             id="g23953">
            <path
               d="m 0,0 c -3.037,0 -6.299,0.571 -10.208,1.785 -0.284,0.088 -0.443,0.39 -0.355,0.673 0.087,0.284 0.388,0.442 0.673,0.355 4.022,-1.249 7.319,-1.799 10.391,-1.731 2.652,0.058 6.501,0.643 9.768,3.103 0.631,0.475 1.238,1.021 1.824,1.55 0.178,0.161 0.358,0.323 0.538,0.482 0.222,0.197 0.562,0.178 0.76,-0.045 C 13.588,5.949 13.568,5.608 13.346,5.412 13.168,5.254 12.99,5.095 12.813,4.935 12.21,4.391 11.585,3.828 10.916,3.324 7.421,0.692 3.336,0.066 0.523,0.006 0.35,0.002 0.176,0 0,0"
               style="fill:#d9d8f4;fill-opacity:1;fill-rule:nonzero;stroke:none"
               id="path23951"
               inkscape:connector-curvature="0" />
          </g>
        </g>
      </g>
    </g>
    <g
       transform="matrix(0.38423383,0,0,-0.38423383,-130.2868,340.21079)"
       id="g23959">
      <g
         id="g23961" />
      <g
         id="g23973">
        <g
           clip-path="url(#clipPath23965)"
           id="g23971">
          <g
             transform="translate(667.8523,444.5938)"
             id="g23969">
            <path
               d="m 0,0 c -4.157,0 -8.361,1.527 -11.678,4.27 -1.898,1.57 -3.474,3.49 -4.999,5.347 -0.762,0.928 -1.55,1.888 -2.363,2.784 -9.335,10.29 -24.985,15.283 -41.864,13.359 -0.297,-0.036 -0.563,0.178 -0.596,0.473 -0.034,0.295 0.178,0.562 0.474,0.595 17.224,1.966 33.215,-3.157 42.783,-13.703 0.832,-0.917 1.628,-1.887 2.398,-2.825 1.491,-1.818 3.034,-3.696 4.854,-5.201 C -7.612,2.305 -3.257,0.847 0.955,1.105 5.297,1.369 9.45,3.492 12.066,6.784 12.252,7.017 12.59,7.055 12.822,6.871 13.056,6.686 13.095,6.347 12.909,6.114 10.106,2.587 5.661,0.313 1.021,0.031 0.682,0.011 0.341,0 0,0"
               style="fill:#d9d8f4;fill-opacity:1;fill-rule:nonzero;stroke:none"
               id="path23967"
               inkscape:connector-curvature="0" />
          </g>
        </g>
      </g>
    </g>
    <g
       transform="matrix(0.38423383,0,0,-0.38423383,-130.2868,340.21079)"
       id="g23975">
      <g
         id="g23977" />
      <g
         id="g23989">
        <g
           clip-path="url(#clipPath23981)"
           id="g23987">
          <g
             transform="translate(524.7429,423.7579)"
             id="g23985">
            <path
               d="m 0,0 c -4.646,0 -8.558,0.703 -11.57,1.543 -6.683,1.86 -10.42,4.697 -10.576,4.817 -0.235,0.181 -0.279,0.519 -0.098,0.754 0.181,0.237 0.518,0.281 0.755,0.1 0.146,-0.113 14.997,-11.206 37.826,-3.269 23.032,8.008 46.216,28.146 46.448,28.348 0.22,0.196 5.599,4.937 14.626,7.548 8.33,2.407 21.422,3.328 36.494,-5.962 0.253,-0.156 0.332,-0.487 0.176,-0.74 -0.156,-0.253 -0.487,-0.331 -0.74,-0.177 C 98.603,42.047 85.83,41.153 77.71,38.807 68.915,36.264 63.551,31.534 63.498,31.486 63.261,31.278 39.918,11.004 16.69,2.929 10.46,0.763 4.833,0 0,0"
               style="fill:#d9d8f4;fill-opacity:1;fill-rule:nonzero;stroke:none"
               id="path23983"
               inkscape:connector-curvature="0" />
          </g>
        </g>
      </g>
    </g>
    <g
       transform="matrix(0.38423383,0,0,-0.38423383,-130.2868,340.21079)"
       id="g23991">
      <g
         id="g23993" />
      <g
         id="g24005">
        <g
           clip-path="url(#clipPath23997)"
           id="g24003">
          <g
             transform="translate(652.9402,439.9874)"
             id="g24001">
            <path
               d="m 0,0 c -0.119,0 -0.237,0.039 -0.337,0.118 -4.392,3.529 -10.848,13.412 -11.12,13.831 -0.162,0.25 -0.092,0.583 0.157,0.745 0.251,0.162 0.583,0.091 0.745,-0.157 C -10.488,14.436 -3.92,4.379 0.337,0.957 0.568,0.771 0.605,0.433 0.42,0.201 0.313,0.068 0.157,0 0,0"
               style="fill:#d9d8f4;fill-opacity:1;fill-rule:nonzero;stroke:none"
               id="path23999"
               inkscape:connector-curvature="0" />
          </g>
        </g>
      </g>
    </g>
    <g
       transform="matrix(0.38423383,0,0,-0.38423383,-130.2868,340.21079)"
       id="g24007">
      <g
         id="g24009" />
      <g
         id="g24021">
        <g
           clip-path="url(#clipPath24013)"
           id="g24019">
          <g
             transform="translate(685.5515,454.92)"
             id="g24017">
            <path
               d="m 0,0 c -0.22,0 -0.426,0.136 -0.505,0.354 -0.101,0.28 0.042,0.588 0.321,0.69 0.448,0.163 10.918,4.136 7.491,16.238 -0.081,0.286 0.085,0.584 0.371,0.665 0.283,0.082 0.583,-0.085 0.664,-0.371 C 12.046,4.496 0.303,0.075 0.184,0.032 0.123,0.011 0.062,0 0,0"
               style="fill:#d9d8f4;fill-opacity:1;fill-rule:nonzero;stroke:none"
               id="path24015"
               inkscape:connector-curvature="0" />
          </g>
        </g>
      </g>
    </g>
    <g
       transform="matrix(0.38423383,0,0,-0.38423383,-130.2868,340.21079)"
       id="g24023">
      <g
         id="g24025" />
      <g
         id="g24037">
        <g
           clip-path="url(#clipPath24029)"
           id="g24035">
          <g
             transform="translate(686.9636,469.1993)"
             id="g24033">
            <path
               d="m 0,0 c -0.032,0 -0.066,0.003 -0.1,0.009 -0.292,0.054 -0.484,0.336 -0.429,0.629 0.111,0.598 2.549,14.719 -13.775,19.835 -0.284,0.088 -0.441,0.39 -0.353,0.673 0.089,0.285 0.388,0.444 0.675,0.353 C 3.271,16.093 0.558,0.594 0.528,0.438 0.48,0.18 0.254,0 0,0"
               style="fill:#d9d8f4;fill-opacity:1;fill-rule:nonzero;stroke:none"
               id="path24031"
               inkscape:connector-curvature="0" />
          </g>
        </g>
      </g>
    </g>
    <g
       transform="matrix(0.38423383,0,0,-0.38423383,-130.2868,340.21079)"
       id="g24039">
      <g
         id="g24041" />
      <g
         id="g24053">
        <g
           clip-path="url(#clipPath24045)"
           id="g24051">
          <g
             transform="translate(668.7371,452.5958)"
             id="g24049">
            <path
               d="m 0,0 c -7.571,0 -13.726,7.066 -13.801,7.153 -0.193,0.227 -0.166,0.567 0.06,0.759 0.225,0.193 0.564,0.167 0.759,-0.058 0.085,-0.099 8.664,-9.933 17.617,-5.732 4.628,2.172 7.661,7.5 7.547,13.257 C 12.064,21.274 8.716,26.038 2.995,28.45 2.721,28.565 2.593,28.882 2.708,29.155 2.823,29.43 3.14,29.556 3.413,29.442 9.544,26.857 13.132,21.739 13.258,15.4 13.381,9.226 10.1,3.497 5.092,1.147 3.36,0.335 1.646,0 0,0"
               style="fill:#d9d8f4;fill-opacity:1;fill-rule:nonzero;stroke:none"
               id="path24047"
               inkscape:connector-curvature="0" />
          </g>
        </g>
      </g>
    </g>
    <g
       id="g24055"
       transform="matrix(0.38423383,0,0,-0.38423383,158.42131,167.58471)">
      <path
         d="M 0,0 H -5.588 L -0.396,2.068 -1.069,3.755 -6.559,1.567 -2.38,5.746 -3.663,7.029 -7.616,3.077 -5.408,8.212 -7.075,8.93 -9.41,3.501 V 9.41 h -1.816 V 3.822 l -2.068,5.192 -1.686,-0.673 2.187,-5.49 -4.18,4.178 -1.283,-1.283 3.952,-3.952 -5.134,2.208 L -20.155,2.335 -14.727,0 h -5.909 v -1.815 h 5.589 l -5.192,-2.07 0.672,-1.686 5.491,2.188 -4.18,-4.179 1.283,-1.284 3.952,3.952 -2.208,-5.134 1.668,-0.717 2.335,5.43 v -5.911 h 1.816 v 5.588 l 2.068,-5.191 1.687,0.672 -2.188,5.491 4.18,-4.18 1.283,1.284 -3.952,3.952 5.134,-2.208 0.718,1.668 -5.431,2.335 H 0 Z"
         style="fill:#ff8600;fill-opacity:1;fill-rule:nonzero;stroke:none"
         id="path24057"
         inkscape:connector-curvature="0" />
    </g>
    <g
       id="g24151"
       transform="matrix(0.38423383,0,0,-0.38423383,106.31483,142.89319)">
      <path
         d="M 0,0 -1.263,1.263 -2.525,0 -1.263,-1.263 Z"
         style="fill:#1f184b;fill-opacity:1;fill-rule:nonzero;stroke:none"
         id="path24153"
         inkscape:connector-curvature="0" />
    </g>
    <g
       id="g24155"
       transform="matrix(0.38423383,0,0,-0.38423383,106.31483,141.58965)">
      <path
         d="M 0,0 -1.263,1.263 -2.525,0 -1.263,-1.263 Z"
         style="fill:#1f184b;fill-opacity:1;fill-rule:nonzero;stroke:none"
         id="path24157"
         inkscape:connector-curvature="0" />
    </g>
    <g
       id="g24159"
       transform="matrix(0.38423383,0,0,-0.38423383,106.31483,140.28609)">
      <path
         d="M 0,0 -1.263,1.263 -2.525,0 -1.263,-1.263 Z"
         style="fill:#1f184b;fill-opacity:1;fill-rule:nonzero;stroke:none"
         id="path24161"
         inkscape:connector-curvature="0" />
    </g>
    <g
       id="g24163"
       transform="matrix(0.38423383,0,0,-0.38423383,108.30692,145.7149)">
      <path
         d="M 0,0 -1.724,1.724 -3.447,0 -1.724,-1.724 Z"
         style="fill:#1f184b;fill-opacity:1;fill-rule:nonzero;stroke:none"
         id="path24165"
         inkscape:connector-curvature="0" />
    </g>
    <g
       id="g24167"
       transform="matrix(0.38423383,0,0,-0.38423383,108.30692,143.93555)">
      <path
         d="M 0,0 -1.724,1.724 -3.447,0 -1.724,-1.724 Z"
         style="fill:#1f184b;fill-opacity:1;fill-rule:nonzero;stroke:none"
         id="path24169"
         inkscape:connector-curvature="0" />
    </g>
    <g
       id="g24171"
       transform="matrix(0.38423383,0,0,-0.38423383,108.30692,142.15623)">
      <path
         d="M 0,0 -1.724,1.724 -3.447,0 -1.724,-1.724 Z"
         style="fill:#1f184b;fill-opacity:1;fill-rule:nonzero;stroke:none"
         id="path24173"
         inkscape:connector-curvature="0" />
    </g>
    <g
       id="g24175"
       transform="matrix(0.38423383,0,0,-0.38423383,110.12189,146.4406)">
      <path
         d="M 0,0 -1.724,1.724 -3.447,0 -1.724,-1.724 Z"
         style="fill:#1f184b;fill-opacity:1;fill-rule:nonzero;stroke:none"
         id="path24177"
         inkscape:connector-curvature="0" />
    </g>
    <g
       id="g24179"
       transform="matrix(0.38423383,0,0,-0.38423383,110.12189,144.66125)">
      <path
         d="M 0,0 -1.724,1.724 -3.447,0 -1.724,-1.724 Z"
         style="fill:#1f184b;fill-opacity:1;fill-rule:nonzero;stroke:none"
         id="path24181"
         inkscape:connector-curvature="0" />
    </g>
    <g
       id="g24183"
       transform="matrix(0.38423383,0,0,-0.38423383,110.12189,142.88193)">
      <path
         d="M 0,0 -1.724,1.724 -3.447,0 -1.724,-1.724 Z"
         style="fill:#1f184b;fill-opacity:1;fill-rule:nonzero;stroke:none"
         id="path24185"
         inkscape:connector-curvature="0" />
    </g>
    <g
       id="g24187"
       transform="matrix(0.38423383,0,0,-0.38423383,106.31483,146.80382)">
      <path
         d="M 0,0 -1.263,1.263 -2.525,0 -1.263,-1.263 Z"
         style="fill:#1f184b;fill-opacity:1;fill-rule:nonzero;stroke:none"
         id="path24189"
         inkscape:connector-curvature="0" />
    </g>
    <g
       id="g24191"
       transform="matrix(0.38423383,0,0,-0.38423383,109.9448,153.38121)">
      <path
         d="M 0,0 -1.263,1.263 -2.525,0 -1.263,-1.263 Z"
         style="fill:#1f184b;fill-opacity:1;fill-rule:nonzero;stroke:none"
         id="path24193"
         inkscape:connector-curvature="0" />
    </g>
    <g
       id="g24195"
       transform="matrix(0.38423383,0,0,-0.38423383,106.31483,144.19671)">
      <path
         d="M 0,0 -1.263,1.263 -2.525,0 -1.263,-1.263 Z"
         style="fill:#1f184b;fill-opacity:1;fill-rule:nonzero;stroke:none"
         id="path24197"
         inkscape:connector-curvature="0" />
    </g>
    <g
       id="g24199"
       transform="matrix(0.38423383,0,0,-0.38423383,108.30692,151.05329)">
      <path
         d="M 0,0 -1.724,1.724 -3.447,0 -1.724,-1.724 Z"
         style="fill:#1f184b;fill-opacity:1;fill-rule:nonzero;stroke:none"
         id="path24201"
         inkscape:connector-curvature="0" />
    </g>
    <g
       id="g24203"
       transform="matrix(0.38423383,0,0,-0.38423383,108.30692,149.27394)">
      <path
         d="M 0,0 -1.724,1.724 -3.447,0 -1.724,-1.724 Z"
         style="fill:#1f184b;fill-opacity:1;fill-rule:nonzero;stroke:none"
         id="path24205"
         inkscape:connector-curvature="0" />
    </g>
    <g
       id="g24207"
       transform="matrix(0.38423383,0,0,-0.38423383,108.30692,147.49459)">
      <path
         d="M 0,0 -1.724,1.724 -3.447,0 -1.724,-1.724 Z"
         style="fill:#1f184b;fill-opacity:1;fill-rule:nonzero;stroke:none"
         id="path24209"
         inkscape:connector-curvature="0" />
    </g>
    <g
       id="g24211"
       transform="matrix(0.38423383,0,0,-0.38423383,110.12189,151.77894)">
      <path
         d="M 0,0 -1.724,1.724 -3.447,0 -1.724,-1.724 Z"
         style="fill:#1f184b;fill-opacity:1;fill-rule:nonzero;stroke:none"
         id="path24213"
         inkscape:connector-curvature="0" />
    </g>
    <g
       id="g24215"
       transform="matrix(0.38423383,0,0,-0.38423383,110.12189,148.21991)">
      <path
         d="M 0,0 -1.724,1.724 -3.447,0 -1.724,-1.724 Z"
         style="fill:#1f184b;fill-opacity:1;fill-rule:nonzero;stroke:none"
         id="path24217"
         inkscape:connector-curvature="0" />
    </g>
    <g
       id="g24807"
       transform="matrix(0.38423383,0,0,-0.38423383,125.26124,140.62307)">
      <path
         d="m 0,0 c 0,0 -6.888,0.604 -6.888,-1.662 0,0 0.041,-1.75 5.614,-4.472 z"
         style="fill:#ffe6cc;fill-opacity:1;fill-rule:nonzero;stroke:none"
         id="path24809"
         inkscape:connector-curvature="0" />
    </g>
    <g
       id="g24811"
       transform="matrix(0.38423383,0,0,-0.38423383,136.66293,169.02294)">
      <path
         d="m 0,0 -23.655,14.763 c 0,0 -6.889,12.454 -7.293,22.302 l 8.432,8.634 c 0,0 6.272,-4.637 2.63,-12.707 l 2.293,-14.497 c 0,0 6.862,-2.949 18.194,-15.466 z"
         style="fill:#ffe6cc;fill-opacity:1;fill-rule:nonzero;stroke:none"
         id="path24813"
         inkscape:connector-curvature="0" />
    </g>
    <g
       id="g24815"
       transform="matrix(0.38423383,0,0,-0.38423383,127.24735,150.42402)">
      <path
         d="m 0,0 c 0,0 -21.433,-6.98 -28.046,-14.084 l 14.024,-21.311 3.563,1.254 c 0,0 -5.34,15.771 -9.626,18.097 0,0 18.493,3.063 23.515,4.409 C 8.451,-10.287 2.817,-1.837 0,0"
         style="fill:#ffe6cc;fill-opacity:1;fill-rule:nonzero;stroke:none"
         id="path24817"
         inkscape:connector-curvature="0" />
    </g>
    <g
       id="g24819"
       transform="matrix(0.38423383,0,0,-0.38423383,119.38854,143.65901)">
      <path
         d="m 0,0 -6.926,-12.701 -6.423,7.184 c 0,0 1.307,3.739 -0.871,5.517 -2.176,1.777 -4.898,-1.053 -3.048,-3.665 1.851,-2.613 5.008,-11.214 10.125,-15.133 l 7.648,8.536 z"
         style="fill:#ffe6cc;fill-opacity:1;fill-rule:nonzero;stroke:none"
         id="path24821"
         inkscape:connector-curvature="0" />
    </g>
    <g
       id="g24823"
       transform="matrix(0.38423383,0,0,-0.38423383,119.38854,143.65901)">
      <path
         d="M 0,0 C 0,0 3.347,1.481 1.74,3.768 L 0.505,5.312 c 0,0 -3.151,-2.039 -3.46,0 -0.309,2.039 -0.788,2.689 -0.788,2.689 0,0 -0.756,-0.216 -1.436,0 0,0 1.174,1.759 1.113,3.118 -0.063,1.359 -0.186,3.522 0.679,4.51 0.865,0.989 6.049,3.954 9.202,0.247 C 8.969,12.17 4.873,6.979 6.303,6.022 6.303,6.022 4.685,-2.595 0,0"
         style="fill:#ffe6cc;fill-opacity:1;fill-rule:nonzero;stroke:none"
         id="path24825"
         inkscape:connector-curvature="0" />
    </g>
    <g
       id="g24827"
       transform="matrix(0.38423383,0,0,-0.38423383,121.6992,140.92773)">
      <path
         d="M 0,0 C 0,0 -2.46,0.254 -2.028,2.67 -1.597,5.086 -3.884,6.078 -4.53,5.13 -5.178,4.181 -6.21,4.181 -6.427,5.776 -6.645,7.373 -8.23,8.633 -9.4,8.521 c 0,0 -0.36,0.385 0.217,0.985 0.578,0.599 6.859,3.383 8.985,-0.738 0,0 3.129,6.723 10.581,1.277 7.451,-5.445 8.741,2.055 15.429,-0.859 0,0 -1.386,0.286 -3.058,-0.43 0,0 4.395,0.43 7.834,-1.959 0,0 -4.633,1.433 -7.691,0.621 0,0 3.44,0.144 4.539,-0.859 0,0 -3.63,0.525 -5.112,-0.144 0,0 5.303,0.334 6.831,-2.866 0,0 -3.725,2.866 -6.783,1.481 C 19.315,3.645 13,0.205 8.802,5.65 4.603,11.096 0.065,7.8 0.065,7.8 0.065,7.8 2.801,5.623 0,0"
         style="fill:#ff8600;fill-opacity:1;fill-rule:nonzero;stroke:none"
         id="path24829"
         inkscape:connector-curvature="0" />
    </g>
    <g
       id="g24831"
       transform="matrix(0.38423383,0,0,-0.38423383,123.0594,163.22381)">
      <path
         d="m 0,0 c 0,0 2.534,-1.365 3.83,-4.013 0,0 -5.457,-5.181 -10.856,-7.961 0,0 -2.264,-0.456 -1.568,1.634 0,0 4.746,5.613 4.239,8.258 0,0 0.754,1.146 2.147,0.856 C -0.814,-1.517 0,0 0,0"
         style="fill:#a1a2e3;fill-opacity:1;fill-rule:nonzero;stroke:none"
         id="path24833"
         inkscape:connector-curvature="0" />
    </g>
    <g
       id="g24835"
       transform="matrix(0.38423383,0,0,-0.38423383,136.4348,168.88074)">
      <path
         d="m 0,0 c 0,0 -0.676,-0.781 0.674,-2.934 1.349,-2.152 3.056,-8.904 5.134,-8.904 2.078,0 3.711,4.749 2.375,7.643 C 6.847,-1.301 8.999,1.828 6.995,2.749 4.992,3.671 0.872,4.323 0.674,3.344 0.477,2.364 1.686,1.524 0,0"
         style="fill:#a1a2e3;fill-opacity:1;fill-rule:nonzero;stroke:none"
         id="path24837"
         inkscape:connector-curvature="0" />
    </g>
    <g
       transform="matrix(0.38423383,0,0,-0.38423383,-130.2868,340.21079)"
       id="g24839">
      <g
         id="g24841" />
      <g
         id="g24853">
        <g
           clip-path="url(#clipPath24845)"
           id="g24851">
          <g
             transform="translate(664.0105,480.3097)"
             id="g24849">
            <path
               d="m 0,0 8.111,0.538 c 0,0 -5.031,-6.852 -1.018,-20.555 0,0 -5.881,10.736 -7.093,20.017"
               style="fill:#ffe6cc;fill-opacity:1;fill-rule:nonzero;stroke:none"
               id="path24847"
               inkscape:connector-curvature="0" />
          </g>
        </g>
      </g>
    </g>
    <g
       id="g24855"
       transform="matrix(0.38423383,0,0,-0.38423383,128.10134,150.17973)">
      <path
         d="m 0,0 c 0,0 -5.392,-4.546 -13.873,-4.028 0,0 -1.515,5.508 -5.05,8.628 0,0 -4.367,1.351 -4.471,5.198 -0.104,3.848 0.728,7.175 0.728,7.175 0,0 3.847,-2.457 5.822,4.282 L -8.656,18.74 C -8.656,18.74 -4.679,4.863 0,0"
         style="fill:#a1a2e3;fill-opacity:1;fill-rule:nonzero;stroke:none"
         id="path24857"
         inkscape:connector-curvature="0" />
    </g>
    <g
       transform="matrix(0.38423383,0,0,-0.38423383,-130.2868,340.21079)"
       id="g24859">
      <g
         id="g24861" />
      <g
         id="g24873">
        <g
           clip-path="url(#clipPath24865)"
           id="g24871">
          <g
             transform="translate(649.1326,503.7315)"
             id="g24869">
            <path
               d="m 0,0 -6.475,-10.987 7.648,8.536 c 0,0 -0.978,0.882 -1.173,2.451"
               style="fill:#ffe6cc;fill-opacity:1;fill-rule:nonzero;stroke:none"
               id="path24867"
               inkscape:connector-curvature="0" />
          </g>
        </g>
      </g>
    </g>
    <g
       transform="matrix(0.38423383,0,0,-0.38423383,-130.2868,340.21079)"
       id="g24875">
      <g
         id="g24877" />
      <g
         id="g24889">
        <g
           clip-path="url(#clipPath24881)"
           id="g24887">
          <g
             transform="translate(642.8748,498.8409)"
             id="g24885">
            <path
               d="M 0,0 -0.667,-1.678 -6.423,7.185 Z"
               style="fill:#ffe6cc;fill-opacity:1;fill-rule:nonzero;stroke:none"
               id="path24883"
               inkscape:connector-curvature="0" />
          </g>
        </g>
      </g>
    </g>
    <g
       transform="matrix(0.38423383,0,0,-0.38423383,-130.2868,340.21079)"
       id="g24891">
      <g
         id="g24893" />
      <g
         id="g24905">
        <g
           clip-path="url(#clipPath24897)"
           id="g24903">
          <g
             transform="translate(651.865,513.4698)"
             id="g24901">
            <path
               d="M 0,0 C 0,0 1.798,2.257 0.532,4.983 L -1.56,3.385 -0.324,1.84 C -0.324,1.84 0.381,0.979 0,0"
               style="fill:#ffe6cc;fill-opacity:1;fill-rule:nonzero;stroke:none"
               id="path24899"
               inkscape:connector-curvature="0" />
          </g>
        </g>
      </g>
    </g>
    <g
       transform="matrix(0.38423383,0,0,-0.38423383,-130.2868,340.21079)"
       id="g24907">
      <g
         id="g24909" />
      <g
         id="g24921">
        <g
           clip-path="url(#clipPath24913)"
           id="g24919">
          <g
             transform="translate(663.1843,456.6104)"
             id="g24917">
            <path
               d="m 0,0 c 0,0 -6.27,-5.741 -10.856,-7.961 0,0 -1.21,-0.251 -1.451,0.262 l 11.669,8.778 z"
               style="fill:#a1a2e3;fill-opacity:1;fill-rule:nonzero;stroke:none"
               id="path24915"
               inkscape:connector-curvature="0" />
          </g>
        </g>
      </g>
    </g>
    <g
       transform="matrix(0.38423383,0,0,-0.38423383,-130.2868,340.21079)"
       id="g24923">
      <g
         id="g24925" />
      <g
         id="g24937">
        <g
           clip-path="url(#clipPath24929)"
           id="g24935">
          <g
             transform="translate(699.9724,434.0626)"
             id="g24933">
            <path
               d="m 0,0 c 0,0 -2.561,1.303 -1.087,6.406 1.473,5.104 -1.711,8.365 2.274,8.181 0,0 1.408,-0.029 0.75,-3.763 C 1.28,7.09 4.208,7.76 2.112,1.848 2.112,1.848 1.141,-0.041 0,0"
               style="fill:#a1a2e3;fill-opacity:1;fill-rule:nonzero;stroke:none"
               id="path24931"
               inkscape:connector-curvature="0" />
          </g>
        </g>
      </g>
    </g>
    <g
       id="g24939"
       transform="matrix(0.38423383,0,0,-0.38423383,125.26124,140.62307)">
      <path
         d="m 0,0 h 11.155 c 0,0 11.764,-5.564 14.635,-5.75 0.979,-0.063 1.85,-0.083 2.573,-0.082 1.616,0.002 3.118,-0.869 3.872,-2.298 0.657,-1.243 0.94,-2.528 -0.61,-2.622 -3.057,-0.184 -8.15,2.851 -8.15,2.851 L 10.784,-4.36 -1.274,-6.134 c 0,0 0.678,3.27 1.274,6.134"
         style="fill:#ffe6cc;fill-opacity:1;fill-rule:nonzero;stroke:none"
         id="path24941"
         inkscape:connector-curvature="0" />
    </g>
    <g
       transform="matrix(0.38423383,0,0,-0.38423383,-130.2868,340.21079)"
       id="g24943">
      <g
         id="g24945" />
      <g
         id="g24957">
        <g
           clip-path="url(#clipPath24949)"
           id="g24955">
          <g
             transform="translate(663.8103,513.3096)"
             id="g24953">
            <path
               d="M 0,0 -3.355,1.937 11.882,2.87 24.749,-1.768 12.059,1.773 Z"
               style="fill:#ffe6cc;fill-opacity:1;fill-rule:nonzero;stroke:none"
               id="path24951"
               inkscape:connector-curvature="0" />
          </g>
        </g>
      </g>
    </g>
    <g
       id="g24959"
       transform="matrix(0.38423383,0,0,-0.38423383,136.28395,148.14786)">
      <path
         d="m 0,0 c -4.538,8.275 -1.566,13.882 -1.566,13.882 l -1.331,-0.048 c 0,0 -1.936,-6.339 1.336,-14.108 0,0 8.454,-16.594 18.19,-16.926 9.736,-0.332 9.183,8.63 5.311,12.613 C 18.067,-0.604 2.938,8.832 2.938,8.832 c 0,0 -1.206,-0.008 -2.08,0.239 L 12.335,0.78 C 12.335,0.78 3.86,-7.04 0,0"
         style="fill:#6971d1;fill-opacity:1;fill-rule:nonzero;stroke:none"
         id="path24961"
         inkscape:connector-curvature="0" />
    </g>
    <g
       transform="matrix(0.38423383,0,0,-0.38423383,-130.2868,340.21079)"
       id="g24963">
      <g
         id="g24965" />
      <g
         id="g24977">
        <g
           clip-path="url(#clipPath24969)"
           id="g24975">
          <g
             transform="translate(706.1072,500.6397)"
             id="g24973">
            <path
               d="m 0,0 4.176,-2.81 c 0,0 -10.933,-4.073 -14.924,0 0,0 1.575,-1.465 4.709,-0.692 C -3.533,-2.884 0,0 0,0"
               style="fill:#6971d1;fill-opacity:1;fill-rule:nonzero;stroke:none"
               id="path24971"
               inkscape:connector-curvature="0" />
          </g>
        </g>
      </g>
    </g>
    <g
       id="g24979"
       transform="matrix(0.38423383,0,0,-0.38423383,122.76711,151.72831)">
      <path
         d="m 0,0 -7.966,-4.936 c 0,0 4.613,-7.883 8.322,-8.363 3.709,-0.48 4.274,-0.26 13.517,-4.207 9.244,-3.948 16.141,3.731 16.141,3.731 -3.95,-0.822 -6.57,1.103 -8.159,3.088 -1.114,1.394 -1.826,3.054 -2.256,4.786 C 17.883,1.004 13.873,4.028 13.873,4.028 13.873,4.028 7.34,-0.55 0,0"
         style="fill:#a1a2e3;fill-opacity:1;fill-rule:nonzero;stroke:none"
         id="path24981"
         inkscape:connector-curvature="0" />
    </g>
    <g
       transform="matrix(0.38423383,0,0,-0.38423383,-130.2868,340.21079)"
       id="g24983">
      <g
         id="g24985" />
      <g
         id="g24997">
        <g
           clip-path="url(#clipPath24989)"
           id="g24995">
          <g
             transform="translate(688.6072,476.7657)"
             id="g24993">
            <path
               d="m 0,0 c 0,0 -6.99,-2.064 -10.053,6.64 0,0 -1.131,6.725 -6.088,11.164 0,0 -4.627,4.645 -8.656,18.74 0,0 1.335,-13.512 6.114,-18.341 C -13.903,13.373 -12.755,-6.228 0,0"
               style="fill:#a1a2e3;fill-opacity:1;fill-rule:nonzero;stroke:none"
               id="path24991"
               inkscape:connector-curvature="0" />
          </g>
        </g>
      </g>
    </g>
    <g
       id="g24999"
       transform="matrix(0.38423383,0,0,-0.38423383,96.887228,134.2877)">
      <path
         d="m 0,0 h 35.663 c 2.772,0 5.018,-2.246 5.018,-5.018 v -1.594 c 0,-2.771 -2.246,-5.017 -5.018,-5.017 -2.77,0 -5.017,2.246 -5.017,5.017 v 16.86 c 0,1.132 0.917,2.049 2.049,2.049 h 58.778 c 1.271,0 2.301,1.03 2.301,2.302 v 6.062 c 0,1.576 1.279,2.854 2.855,2.854 h 7.682"
         style="fill:none;stroke:#1f184b;stroke-width:0.30000001;stroke-linecap:butt;stroke-linejoin:miter;stroke-miterlimit:10;stroke-dasharray:none;stroke-opacity:1"
         id="path25001"
         inkscape:connector-curvature="0" />
    </g>
    <g
       id="g25003"
       transform="matrix(0.38423383,0,0,-0.38423383,123.95735,130.10052)">
      <path
         d="m 0,0 c 0,-0.927 -0.7,-1.691 -1.599,-1.798 0.112,0.253 0.174,0.533 0.175,0.827 v 0.001 c 0,0.304 -0.067,0.592 -0.185,0.852 0.598,0.058 1.122,0.374 1.462,0.834 C -0.053,0.495 0,0.254 0,0 M -3.491,4.728 C -2.899,4.728 -2.374,4.44 -2.044,4 -2.64,3.933 -3.159,3.611 -3.492,3.147 -3.825,3.612 -4.344,3.934 -4.94,4.002 c 0.332,0.44 0.857,0.727 1.449,0.726 m 0.71,-3.755 c 0.43,0.158 0.795,0.455 1.037,0.837 C -1.13,1.787 -0.595,1.458 -0.284,0.971 -0.595,0.483 -1.132,0.156 -1.745,0.134 -1.987,0.517 -2.351,0.813 -2.781,0.973 m -1.101,0.971 c 0,-0.12 0.012,-0.238 0.032,-0.352 -0.34,0.284 -0.772,0.459 -1.245,0.478 -0.134,0.253 -0.21,0.541 -0.21,0.846 0,0.303 0.076,0.587 0.207,0.838 C -4.485,3.729 -3.95,3.397 -3.643,2.908 -3.794,2.62 -3.882,2.293 -3.882,1.944 m 0.387,-3.145 c 0.332,-0.465 0.851,-0.787 1.446,-0.855 -0.331,-0.44 -0.855,-0.726 -1.448,-0.725 -0.591,0 -1.116,0.287 -1.446,0.727 0.595,0.067 1.114,0.388 1.448,0.853 m -1.813,0.233 c 0,0.306 0.077,0.594 0.211,0.846 0.473,0.018 0.906,0.193 1.246,0.476 -0.02,-0.114 -0.033,-0.231 -0.033,-0.352 0,-0.348 0.087,-0.676 0.239,-0.964 -0.309,-0.488 -0.843,-0.818 -1.456,-0.844 -0.132,0.251 -0.207,0.536 -0.207,0.838 m -0.072,0.853 c -0.118,-0.26 -0.185,-0.548 -0.186,-0.852 v -0.001 c 0,-0.294 0.062,-0.574 0.172,-0.827 -0.897,0.108 -1.596,0.873 -1.595,1.8 0,0.254 0.052,0.495 0.148,0.715 0.339,-0.46 0.862,-0.776 1.461,-0.835 M -6.841,1.231 C -6.936,1.45 -6.988,1.692 -6.988,1.946 -6.987,2.873 -6.287,3.638 -5.39,3.744 -5.501,3.49 -5.563,3.211 -5.563,2.917 c 0,-0.305 0.067,-0.593 0.185,-0.854 -0.6,-0.057 -1.123,-0.373 -1.463,-0.832 m 1.599,0.581 C -5,1.43 -4.638,1.133 -4.207,0.974 -4.638,0.815 -5.001,0.519 -5.244,0.136 c -0.613,0.023 -1.15,0.352 -1.46,0.84 0.311,0.486 0.848,0.814 1.462,0.836 m 3.352,-3.62 c -0.613,0.026 -1.147,0.357 -1.456,0.846 0.153,0.288 0.241,0.615 0.241,0.964 0,0.12 -0.012,0.237 -0.033,0.352 0.34,-0.284 0.773,-0.459 1.245,-0.478 0.134,-0.253 0.211,-0.54 0.21,-0.846 0,-0.302 -0.075,-0.587 -0.207,-0.838 m 0.21,4.722 C -1.68,2.608 -1.757,2.32 -1.891,2.067 -2.363,2.05 -2.796,1.875 -3.137,1.591 c 0.02,0.115 0.033,0.232 0.033,0.353 0,0.348 -0.087,0.675 -0.239,0.964 0.309,0.488 0.844,0.819 1.457,0.844 C -1.755,3.501 -1.68,3.217 -1.68,2.914 M 0.002,1.941 c 0,-0.254 -0.054,-0.496 -0.148,-0.715 -0.34,0.461 -0.864,0.776 -1.462,0.836 0.119,0.259 0.186,0.547 0.186,0.852 10e-4,0.294 -0.062,0.573 -0.173,0.827 0.898,-0.107 1.597,-0.873 1.597,-1.8 m 0.258,0 C 0.261,3.059 -0.63,3.972 -1.738,4.011 -2.104,4.595 -2.752,4.985 -3.491,4.985 -4.23,4.986 -4.879,4.597 -5.245,4.013 -6.354,3.975 -7.246,3.064 -7.246,1.947 c 0,-0.351 0.087,-0.681 0.242,-0.971 -0.155,-0.29 -0.243,-0.621 -0.243,-0.971 -0.001,-1.118 0.889,-2.03 1.998,-2.069 0.365,-0.584 1.013,-0.975 1.752,-0.976 0.739,0 1.388,0.39 1.755,0.974 1.108,0.037 2,0.948 2,2.065 0.001,0.351 -0.088,0.682 -0.241,0.972 0.154,0.29 0.242,0.62 0.243,0.97"
         style="fill:#1f184b;fill-opacity:1;fill-rule:nonzero;stroke:none"
         id="path25005"
         inkscape:connector-curvature="0" />
    </g>
  </g>
</svg>
