<?xml version="1.0" encoding="UTF-8" standalone="no"?>
<!-- Created with Inkscape (http://www.inkscape.org/) -->

<svg
   xmlns:dc="http://purl.org/dc/elements/1.1/"
   xmlns:cc="http://creativecommons.org/ns#"
   xmlns:rdf="http://www.w3.org/1999/02/22-rdf-syntax-ns#"
   xmlns:svg="http://www.w3.org/2000/svg"
   xmlns="http://www.w3.org/2000/svg"
   xmlns:sodipodi="http://sodipodi.sourceforge.net/DTD/sodipodi-0.dtd"
   xmlns:inkscape="http://www.inkscape.org/namespaces/inkscape"
   width="105.83334mm"
   height="13.093183mm"
   viewBox="0 0 105.83334 13.093183"
   version="1.1"
   id="svg13579"
   inkscape:version="0.92.5 (2060ec1f9f, 2020-04-08)"
   sodipodi:docname="logoInmufort.svg">
  <defs
     id="defs13573" />
  <sodipodi:namedview
     id="base"
     pagecolor="#ffffff"
     bordercolor="#666666"
     borderopacity="1.0"
     inkscape:pageopacity="0.0"
     inkscape:pageshadow="2"
     inkscape:zoom="0.35"
     inkscape:cx="-1085.1945"
     inkscape:cy="-211.65846"
     inkscape:document-units="mm"
     inkscape:current-layer="layer1"
     showgrid="false"
     inkscape:window-width="1920"
     inkscape:window-height="1016"
     inkscape:window-x="0"
     inkscape:window-y="27"
     inkscape:window-maximized="1" />
  <metadata
     id="metadata13576">
    <rdf:RDF>
      <cc:Work
         rdf:about="">
        <dc:format>image/svg+xml</dc:format>
        <dc:type
           rdf:resource="http://purl.org/dc/dcmitype/StillImage" />
        <dc:title></dc:title>
      </cc:Work>
    </rdf:RDF>
  </metadata>
  <g
     inkscape:label="Layer 1"
     inkscape:groupmode="layer"
     id="layer1"
     transform="translate(-254.9964,-79.73885)">
    <g
       id="g14173"
       transform="matrix(2.2094615,0,0,2.2094615,-308.40833,-112.27676)">
      <path
         inkscape:connector-curvature="0"
         id="path1497"
         style="fill:#4255c5;fill-opacity:1;fill-rule:nonzero;stroke:none;stroke-width:0.35277775"
         d="m 254.9964,87.004352 h 1.26047 v 5.729463 h -1.26047 z" />
      <g
         transform="matrix(0.35277777,0,0,-0.35277777,262.11803,92.733993)"
         id="g1499">
        <path
           inkscape:connector-curvature="0"
           id="path1501"
           style="fill:#4255c5;fill-opacity:1;fill-rule:nonzero;stroke:none"
           d="M 0,0 -7.867,10.325 V 0 h -3.526 v 16.241 h 3.294 l 7.611,-10 v 10 H 3.039 V 0 Z" />
      </g>
      <g
         transform="matrix(0.35277777,0,0,-0.35277777,269.45986,92.733993)"
         id="g1503">
        <path
           inkscape:connector-curvature="0"
           id="path1505"
           style="fill:#4255c5;fill-opacity:1;fill-rule:nonzero;stroke:none"
           d="M 0,0 V 10.604 L -4.571,3.666 h -0.093 l -4.524,6.868 V 0 h -3.527 v 16.241 h 3.852 l 4.269,-6.867 4.269,6.867 H 3.526 V 0 Z" />
      </g>
      <g
         transform="matrix(0.35277777,0,0,-0.35277777,277.21547,91.375233)"
         id="g1507">
        <path
           inkscape:connector-curvature="0"
           id="path1509"
           style="fill:#4255c5;fill-opacity:1;fill-rule:nonzero;stroke:none"
           d="m 0,0 c -0.333,-0.913 -0.809,-1.675 -1.427,-2.285 -0.619,-0.611 -1.369,-1.068 -2.251,-1.369 -0.882,-0.302 -1.864,-0.452 -2.947,-0.452 -2.181,0 -3.897,0.602 -5.15,1.809 -1.253,1.206 -1.88,3.008 -1.88,5.406 v 9.281 h 3.573 V 3.202 c 0,-1.331 0.31,-2.332 0.929,-3.005 0.618,-0.673 1.476,-1.009 2.575,-1.009 1.098,0 1.957,0.325 2.575,0.974 0.619,0.65 0.929,1.624 0.929,2.924 V 12.39 H 0.499 V 3.226 C 0.499,1.987 0.332,0.912 0,0" />
      </g>
      <g
         transform="matrix(0.35277777,0,0,-0.35277777,280.34638,88.142025)"
         id="g1511">
        <path
           inkscape:connector-curvature="0"
           id="path1513"
           style="fill:#4255c5;fill-opacity:1;fill-rule:nonzero;stroke:none"
           d="M 0,0 V -3.504 H 7.749 V -6.729 H 0 v -6.288 H -3.573 V 3.225 H 8.793 V 0 Z" />
      </g>
      <g
         transform="matrix(0.35277777,0,0,-0.35277777,289.38288,89.869048)"
         id="g1515">
        <path
           inkscape:connector-curvature="0"
           id="path1517"
           style="fill:#4255c5;fill-opacity:1;fill-rule:nonzero;stroke:none"
           d="M 0,0 C 0,0.696 -0.12,1.354 -0.359,1.972 -0.6,2.591 -0.939,3.132 -1.381,3.596 -1.821,4.061 -2.344,4.428 -2.947,4.698 -3.55,4.969 -4.208,5.104 -4.919,5.104 -5.646,5.104 -6.308,4.973 -6.902,4.71 -7.498,4.446 -8.009,4.083 -8.435,3.619 -8.859,3.155 -9.192,2.617 -9.432,2.007 -9.672,1.396 -9.792,0.742 -9.792,0.046 V 0 c 0,-0.696 0.12,-1.354 0.36,-1.973 0.24,-0.619 0.58,-1.16 1.021,-1.624 0.441,-0.464 0.959,-0.832 1.555,-1.102 0.595,-0.271 1.256,-0.405 1.983,-0.405 0.712,0 1.369,0.13 1.973,0.394 0.603,0.263 1.117,0.626 1.543,1.09 0.424,0.464 0.757,1.002 0.998,1.613 C -0.12,-1.396 0,-0.743 0,-0.047 Z M 3.086,-3.26 C 2.652,-4.273 2.054,-5.163 1.288,-5.929 0.521,-6.694 -0.391,-7.298 -1.45,-7.738 c -1.06,-0.441 -2.216,-0.661 -3.469,-0.661 -1.253,0 -2.405,0.22 -3.457,0.661 -1.053,0.44 -1.961,1.036 -2.727,1.786 -0.765,0.751 -1.361,1.632 -1.786,2.645 -0.425,1.013 -0.638,2.1 -0.638,3.26 V 0 c 0,1.16 0.216,2.246 0.649,3.26 0.434,1.012 1.033,1.902 1.799,2.668 0.766,0.765 1.678,1.369 2.737,1.809 1.06,0.442 2.216,0.662 3.469,0.662 1.253,0 2.405,-0.22 3.458,-0.662 C -0.363,7.297 0.545,6.701 1.311,5.951 2.076,5.201 2.672,4.319 3.098,3.306 3.522,2.293 3.735,1.206 3.735,0.046 V 0 c 0,-1.16 -0.216,-2.247 -0.649,-3.26" />
      </g>
      <g
         transform="matrix(0.35277777,0,0,-0.35277777,295.73458,88.960574)"
         id="g1519">
        <path
           inkscape:connector-curvature="0"
           id="path1521"
           style="fill:#4255c5;fill-opacity:1;fill-rule:nonzero;stroke:none"
           d="m 0,0 c 0,0.773 -0.248,1.354 -0.743,1.74 -0.495,0.387 -1.183,0.58 -2.065,0.58 h -3.549 v -4.664 h 3.619 c 0.882,0 1.558,0.209 2.03,0.627 C -0.236,-1.3 0,-0.742 0,-0.047 Z m -0.07,-10.696 -3.48,5.197 h -2.807 v -5.197 H -9.931 V 5.545 h 7.425 C -0.572,5.545 0.932,5.073 2.007,4.13 3.082,3.187 3.619,1.871 3.619,0.186 V 0.14 C 3.619,-1.176 3.298,-2.247 2.656,-3.074 2.015,-3.902 1.175,-4.509 0.139,-4.896 l 3.967,-5.8 z" />
      </g>
      <g
         transform="matrix(0.35277777,0,0,-0.35277777,301.15303,88.166473)"
         id="g1523">
        <path
           inkscape:connector-curvature="0"
           id="path1525"
           style="fill:#4255c5;fill-opacity:1;fill-rule:nonzero;stroke:none"
           d="M 0,0 V -12.947 H -3.572 V 0 H -8.515 V 3.294 H 4.942 V 0 Z" />
      </g>
    </g>
  </g>
</svg>
