<?xml version="1.0" encoding="UTF-8" standalone="no"?>
<!-- Created with Inkscape (http://www.inkscape.org/) -->

<svg
   xmlns:dc="http://purl.org/dc/elements/1.1/"
   xmlns:cc="http://creativecommons.org/ns#"
   xmlns:rdf="http://www.w3.org/1999/02/22-rdf-syntax-ns#"
   xmlns:svg="http://www.w3.org/2000/svg"
   xmlns="http://www.w3.org/2000/svg"
   xmlns:sodipodi="http://sodipodi.sourceforge.net/DTD/sodipodi-0.dtd"
   xmlns:inkscape="http://www.inkscape.org/namespaces/inkscape"
   width="105.83333mm"
   height="110.87933mm"
   viewBox="0 0 105.83333 110.87933"
   version="1.1"
   id="svg14435"
   inkscape:version="0.92.5 (2060ec1f9f, 2020-04-08)"
   sodipodi:docname="stampBionutrec_blue.svg">
  <defs
     id="defs14429" />
  <sodipodi:namedview
     id="base"
     pagecolor="#ffffff"
     bordercolor="#666666"
     borderopacity="1.0"
     inkscape:pageopacity="0.0"
     inkscape:pageshadow="2"
     inkscape:zoom="0.35"
     inkscape:cx="779.97986"
     inkscape:cy="-548.31813"
     inkscape:document-units="mm"
     inkscape:current-layer="layer1"
     showgrid="false"
     inkscape:window-width="1920"
     inkscape:window-height="1016"
     inkscape:window-x="0"
     inkscape:window-y="27"
     inkscape:window-maximized="1" />
  <metadata
     id="metadata14432">
    <rdf:RDF>
      <cc:Work
         rdf:about="">
        <dc:format>image/svg+xml</dc:format>
        <dc:type
           rdf:resource="http://purl.org/dc/dcmitype/StillImage" />
        <dc:title></dc:title>
      </cc:Work>
    </rdf:RDF>
  </metadata>
  <g
     inkscape:label="Layer 1"
     inkscape:groupmode="layer"
     id="layer1"
     transform="translate(238.49765,107.12183)">
    <g
       transform="matrix(1.9766709,0,0,-1.9766709,-906.65412,1163.7227)"
       id="g14276"
       style="fill:#1f184b;fill-opacity:1">
      <g
         transform="translate(339.8561,614.5266)"
         id="g5235"
         style="fill:#1f184b;fill-opacity:1">
        <path
           inkscape:connector-curvature="0"
           id="path5237"
           style="fill:#1f184b;fill-opacity:1;fill-rule:nonzero;stroke:none"
           d="M 0,0 -0.542,0.003 -0.533,1.656 0.01,1.653 Z" />
      </g>
      <g
         transform="translate(341.8282,619.8166)"
         id="g5239"
         style="fill:#1f184b;fill-opacity:1">
        <path
           inkscape:connector-curvature="0"
           id="path5241"
           style="fill:#1f184b;fill-opacity:1;fill-rule:nonzero;stroke:none"
           d="m 0,0 -2.803,-0.45 c -0.078,-0.014 -0.096,-0.035 -0.128,-0.103 l -0.11,-0.245 -0.312,0.143 0.27,1.253 0.329,-0.071 -0.042,-0.423 2.402,0.325 -2.05,1.3 -0.134,-0.39 -0.315,0.137 0.251,1.157 0.329,-0.07 -0.007,-0.206 c 0,-0.087 0.004,-0.125 0.068,-0.171 L 0.134,0.62 Z" />
      </g>
      <g
         transform="translate(342.4552,622.2853)"
         id="g5243"
         style="fill:#1f184b;fill-opacity:1">
        <path
           inkscape:connector-curvature="0"
           id="path5245"
           style="fill:#1f184b;fill-opacity:1;fill-rule:nonzero;stroke:none"
           d="m 0,0 -0.316,0.112 0.099,0.392 c 0.023,0.083 0.004,0.101 -0.082,0.133 l -1.954,0.692 c -0.064,0.023 -0.11,0.02 -0.148,-0.032 l -0.225,-0.289 -0.286,0.16 0.309,0.874 2.49,-0.882 C -0.022,1.127 -0.008,1.129 0.033,1.211 L 0.204,1.564 0.515,1.455 Z M -3.361,1.929 C -3.445,1.693 -3.626,1.602 -3.862,1.686 c -0.23,0.081 -0.313,0.265 -0.23,0.501 0.085,0.236 0.262,0.321 0.493,0.24 0.235,-0.083 0.321,-0.263 0.238,-0.498" />
      </g>
      <g
         transform="translate(342.0499,627.4504)"
         id="g5247"
         style="fill:#1f184b;fill-opacity:1">
        <path
           inkscape:connector-curvature="0"
           id="path5249"
           style="fill:#1f184b;fill-opacity:1;fill-rule:nonzero;stroke:none"
           d="m 0,0 c -0.218,-0.095 -0.526,-0.309 -0.673,-0.597 -0.26,-0.511 0.084,-0.939 0.732,-1.269 0.755,-0.384 1.131,-0.253 1.325,0.128 0.163,0.32 0.083,0.69 -0.034,1.051 z M 2.197,-1.001 1.815,-0.862 1.799,-0.881 c 0.113,-0.373 0.159,-0.752 -0.057,-1.177 -0.315,-0.62 -0.926,-0.824 -1.927,-0.314 -1.072,0.545 -1.267,1.254 -0.935,1.907 0.167,0.326 0.425,0.565 0.685,0.7 L -1.452,0.753 C -1.506,0.78 -1.556,0.777 -1.598,0.737 L -1.867,0.463 -2.13,0.658 -1.707,1.492 1.962,-0.374 c 0.087,-0.045 0.1,-0.045 0.153,0.031 l 0.179,0.258 0.293,-0.149 z" />
      </g>
      <g
         transform="translate(345.0382,630.2199)"
         id="g5251"
         style="fill:#1f184b;fill-opacity:1">
        <path
           inkscape:connector-curvature="0"
           id="path5253"
           style="fill:#1f184b;fill-opacity:1;fill-rule:nonzero;stroke:none"
           d="m 0,0 -0.351,-0.597 c -0.264,-0.456 -0.226,-0.664 0.033,-0.847 0.268,-0.192 0.459,-0.156 0.625,0.078 0.209,0.294 0.194,0.776 0.16,1.033 z M 1.202,-0.73 0.848,-0.545 0.832,-0.556 c 0.054,-0.398 0.02,-0.794 -0.253,-1.176 -0.443,-0.622 -0.927,-0.396 -1.181,-0.214 -0.497,0.353 -0.51,0.828 -0.134,1.46 l 0.423,0.71 -0.264,0.187 c -0.362,0.259 -0.591,0.318 -0.9,-0.115 -0.216,-0.303 -0.362,-0.529 0.008,-0.8 l -0.35,-0.395 c -0.611,0.435 -0.276,1.051 0.004,1.445 0.503,0.705 0.871,0.802 1.557,0.312 L 1.06,-0.081 c 0.079,-0.056 0.093,-0.059 0.155,0.009 l 0.216,0.228 0.268,-0.19 z" />
      </g>
      <g
         transform="translate(348.6139,633.1808)"
         id="g5255"
         style="fill:#1f184b;fill-opacity:1">
        <path
           inkscape:connector-curvature="0"
           id="path5257"
           style="fill:#1f184b;fill-opacity:1;fill-rule:nonzero;stroke:none"
           d="M 0,0 C 0.289,-0.019 0.648,0.03 0.896,0.239 1.336,0.616 1.19,1.126 0.692,1.712 0.154,2.344 -0.263,2.334 -0.551,2.089 -0.849,1.835 -0.974,1.416 -1.017,1.194 Z m 0.659,-2.167 -0.219,0.256 0.168,0.19 c 0.057,0.065 0.059,0.091 -0.001,0.16 l -2.185,2.567 c -0.043,0.051 -0.085,0.071 -0.144,0.046 l -0.339,-0.138 -0.168,0.282 0.613,0.523 0.271,-0.235 0.019,0.008 c 0.093,0.408 0.242,0.76 0.558,1.029 0.521,0.444 1.161,0.41 1.856,-0.408 C 1.682,1.415 1.991,0.572 1.261,-0.049 0.997,-0.274 0.718,-0.399 0.337,-0.396 L 1.022,-1.2 c 0.063,-0.073 0.08,-0.084 0.153,-0.029 l 0.469,0.334 0.213,-0.251 z" />
      </g>
      <g
         transform="translate(351.505,634.4787)"
         id="g5259"
         style="fill:#1f184b;fill-opacity:1">
        <path
           inkscape:connector-curvature="0"
           id="path5261"
           style="fill:#1f184b;fill-opacity:1;fill-rule:nonzero;stroke:none"
           d="m 0,0 -0.177,0.285 0.24,0.193 C 0.129,0.533 0.13,0.555 0.082,0.633 l -1.093,1.764 c -0.035,0.057 -0.073,0.084 -0.135,0.067 l -0.357,-0.084 -0.123,0.305 0.68,0.419 0.273,-0.326 0.018,0.005 c 0.053,0.298 0.17,0.679 0.522,0.898 0.12,0.073 0.294,0.152 0.404,0.183 L 0.755,3.081 0.377,2.869 0.093,3.188 C 0.063,3.227 0.045,3.23 -0.001,3.201 -0.235,3.057 -0.368,2.681 -0.417,2.492 L 0.55,0.931 C 0.602,0.848 0.617,0.835 0.699,0.878 l 0.503,0.254 0.173,-0.28 z" />
      </g>
      <g
         transform="translate(355.5411,638.3986)"
         id="g5263"
         style="fill:#1f184b;fill-opacity:1">
        <path
           inkscape:connector-curvature="0"
           id="path5265"
           style="fill:#1f184b;fill-opacity:1;fill-rule:nonzero;stroke:none"
           d="M 0,0 C -0.321,0.731 -0.732,0.938 -1.275,0.7 -1.822,0.46 -1.999,-0.004 -1.674,-0.742 -1.348,-1.486 -0.905,-1.719 -0.352,-1.476 0.19,-1.237 0.336,-0.766 0,0 m -2.203,-0.968 c -0.385,0.878 -0.203,1.678 0.754,2.098 0.954,0.42 1.591,-0.026 1.96,-0.865 0.413,-0.94 0.256,-1.736 -0.7,-2.156 -0.974,-0.426 -1.623,0.035 -2.014,0.923" />
      </g>
      <g
         transform="translate(359.4645,638.09)"
         id="g5267"
         style="fill:#1f184b;fill-opacity:1">
        <path
           inkscape:connector-curvature="0"
           id="path5269"
           style="fill:#1f184b;fill-opacity:1;fill-rule:nonzero;stroke:none"
           d="m 0,0 c -0.208,-0.159 -0.466,-0.327 -0.766,-0.41 -0.564,-0.156 -0.89,0.038 -1.038,0.566 L -2.313,1.99 c -0.01,0.035 -0.016,0.059 -0.063,0.045 L -2.805,1.916 -2.9,2.257 c 0.442,0.186 0.521,0.405 0.43,1.025 l 0.346,0.097 0.2,-0.717 c 0.01,-0.035 0.017,-0.059 0.064,-0.046 l 0.863,0.24 0.113,-0.405 -0.911,-0.254 0.482,-1.733 c 0.103,-0.37 0.231,-0.487 0.565,-0.394 0.183,0.051 0.374,0.161 0.516,0.27 z" />
      </g>
      <g
         transform="translate(361.8282,640.2463)"
         id="g5271"
         style="fill:#1f184b;fill-opacity:1">
        <path
           inkscape:connector-curvature="0"
           id="path5273"
           style="fill:#1f184b;fill-opacity:1;fill-rule:nonzero;stroke:none"
           d="M 0,0 C -0.113,0.687 -0.456,0.839 -0.825,0.785 -1.229,0.726 -1.535,0.459 -1.485,-0.219 Z M 0.718,-1.566 C 0.44,-1.779 0.094,-1.936 -0.341,-2 c -1.093,-0.16 -1.555,0.506 -1.687,1.405 -0.162,1.106 0.378,1.708 1.139,1.821 0.736,0.108 1.302,-0.215 1.455,-1.26 0.012,-0.078 0.024,-0.2 0.033,-0.304 L -1.43,-0.637 c 0.108,-0.606 0.417,-0.987 1.075,-0.889 0.337,0.049 0.54,0.14 0.837,0.344 z" />
      </g>
      <g
         transform="translate(364.816,641.3)"
         id="g5275"
         style="fill:#1f184b;fill-opacity:1">
        <path
           inkscape:connector-curvature="0"
           id="path5277"
           style="fill:#1f184b;fill-opacity:1;fill-rule:nonzero;stroke:none"
           d="m 0,0 c -0.445,0.001 -0.762,-0.219 -0.764,-0.693 -0.001,-0.361 0.206,-0.654 0.743,-0.656 0.457,-0.001 0.745,0.267 0.746,0.688 C 0.726,-0.246 0.457,-0.002 0,0 M -0.641,-2.78 C -0.75,-2.896 -0.91,-3.072 -0.91,-3.285 c -0.001,-0.33 0.34,-0.403 0.937,-0.411 0.324,0 0.945,0.046 0.947,0.509 0.001,0.288 -0.237,0.312 -0.633,0.35 z m 1.684,2.727 C 1.171,-0.211 1.268,-0.4 1.267,-0.687 1.266,-1.406 0.709,-1.808 -0.004,-1.806 -0.212,-1.805 -0.395,-1.78 -0.523,-1.73 l -0.275,-0.531 0.75,-0.045 c 1.097,-0.063 1.591,-0.12 1.589,-0.839 -10e-4,-0.604 -0.52,-0.981 -1.582,-0.978 -1.054,0.003 -1.42,0.29 -1.418,0.754 0,0.299 0.166,0.474 0.373,0.688 -0.171,0.055 -0.268,0.165 -0.268,0.33 0,0.104 0.05,0.207 0.136,0.335 0.097,0.14 0.226,0.291 0.336,0.438 -0.267,0.147 -0.456,0.453 -0.455,0.867 10e-4,0.684 0.496,1.158 1.326,1.155 C 0.209,0.443 0.404,0.419 0.531,0.383 L 1.617,0.38 v -0.391 z" />
      </g>
      <g
         transform="translate(368.1666,642.1476)"
         id="g5279"
         style="fill:#1f184b;fill-opacity:1">
        <path
           inkscape:connector-curvature="0"
           id="path5281"
           style="fill:#1f184b;fill-opacity:1;fill-rule:nonzero;stroke:none"
           d="M 0,0 C -0.248,0.031 -0.376,0.189 -0.344,0.437 -0.313,0.68 -0.15,0.801 0.099,0.769 0.347,0.737 0.468,0.58 0.437,0.338 0.405,0.09 0.249,-0.031 0,0 m -1.173,-3.693 0.042,0.332 0.404,-0.015 c 0.085,-0.005 0.101,0.018 0.113,0.109 l 0.262,2.057 c 0.009,0.067 -0.003,0.111 -0.063,0.138 l -0.329,0.158 0.097,0.314 0.918,-0.118 -0.335,-2.62 C -0.076,-3.435 -0.071,-3.447 0.018,-3.472 L 0.399,-3.563 0.357,-3.89 Z" />
      </g>
      <g
         transform="translate(371.6227,639.4611)"
         id="g5283"
         style="fill:#1f184b;fill-opacity:1">
        <path
           inkscape:connector-curvature="0"
           id="path5285"
           style="fill:#1f184b;fill-opacity:1;fill-rule:nonzero;stroke:none"
           d="m 0,0 c 0.157,0.678 -0.102,0.951 -0.462,1.042 -0.397,0.1 -0.782,-0.03 -0.996,-0.676 z m 0.064,-1.722 c -0.338,-0.091 -0.718,-0.102 -1.145,0.004 -1.071,0.27 -1.244,1.062 -1.022,1.945 0.271,1.084 1.002,1.435 1.749,1.248 C 0.368,1.293 0.768,0.777 0.511,-0.248 0.491,-0.325 0.455,-0.441 0.424,-0.541 l -1.99,0.5 c -0.132,-0.603 0.008,-1.072 0.653,-1.234 0.331,-0.083 0.555,-0.077 0.907,-0.001 z" />
      </g>
      <g
         transform="translate(374.316,636.4982)"
         id="g5287"
         style="fill:#1f184b;fill-opacity:1">
        <path
           inkscape:connector-curvature="0"
           id="path5289"
           style="fill:#1f184b;fill-opacity:1;fill-rule:nonzero;stroke:none"
           d="M 0,0 0.134,0.308 0.416,0.225 C 0.491,0.199 0.531,0.216 0.565,0.294 L 1.14,1.621 C 1.297,1.984 1.376,2.368 0.962,2.548 0.644,2.686 0.272,2.66 -0.061,2.564 L -0.789,0.88 C -0.828,0.79 -0.827,0.777 -0.748,0.729 l 0.296,-0.174 -0.13,-0.304 -1.283,0.556 0.134,0.307 0.294,-0.087 C -1.354,1.004 -1.335,1.016 -1.299,1.1 l 0.824,1.903 c 0.026,0.061 0.026,0.108 -0.023,0.149 L -0.77,3.397 -0.591,3.672 0.142,3.354 0.043,3.005 0.058,2.992 C 0.438,3.073 0.859,3.11 1.263,2.936 1.907,2.657 1.967,2.14 1.705,1.529 L 1.075,0.073 C 1.037,-0.017 1.038,-0.03 1.117,-0.077 l 0.301,-0.178 -0.13,-0.302 z" />
      </g>
      <g
         transform="translate(379.3888,636.3898)"
         id="g5291"
         style="fill:#1f184b;fill-opacity:1">
        <path
           inkscape:connector-curvature="0"
           id="path5293"
           style="fill:#1f184b;fill-opacity:1;fill-rule:nonzero;stroke:none"
           d="m 0,0 c -0.068,0.229 -0.248,0.557 -0.517,0.733 -0.48,0.315 -0.943,0.02 -1.341,-0.587 -0.464,-0.708 -0.375,-1.095 -0.018,-1.33 0.301,-0.197 0.676,-0.159 1.047,-0.081 z m -1.234,-2.071 0.18,0.363 -0.016,0.019 c -0.383,-0.071 -0.764,-0.076 -1.162,0.185 -0.582,0.381 -0.717,1.01 -0.101,1.948 0.658,1.004 1.383,1.12 1.995,0.719 C -0.031,0.962 0.176,0.68 0.283,0.406 L 0.907,1.36 c 0.033,0.052 0.037,0.101 0,0.147 l -0.241,0.297 0.223,0.24 0.78,-0.512 -2.253,-3.437 c -0.054,-0.082 -0.055,-0.096 0.015,-0.157 l 0.236,-0.206 -0.181,-0.275 z" />
      </g>
      <g
         transform="translate(382.2872,632.9318)"
         id="g5295"
         style="fill:#1f184b;fill-opacity:1">
        <path
           inkscape:connector-curvature="0"
           id="path5297"
           style="fill:#1f184b;fill-opacity:1;fill-rule:nonzero;stroke:none"
           d="M 0,0 C 0.54,0.589 0.562,1.048 0.126,1.447 -0.314,1.851 -0.809,1.825 -1.354,1.231 -1.902,0.634 -1.935,0.136 -1.49,-0.272 -1.054,-0.672 -0.565,-0.616 0,0 M -1.771,1.623 C -1.125,2.329 -0.321,2.485 0.45,1.78 1.218,1.076 1.065,0.314 0.448,-0.36 -0.245,-1.115 -1.036,-1.292 -1.804,-0.588 -2.587,0.129 -2.427,0.908 -1.771,1.623" />
      </g>
      <g
         transform="translate(383.9689,628.4572)"
         id="g5299"
         style="fill:#1f184b;fill-opacity:1">
        <path
           inkscape:connector-curvature="0"
           id="path5301"
           style="fill:#1f184b;fill-opacity:1;fill-rule:nonzero;stroke:none"
           d="m 0,0 1.618,2.33 c 0.043,0.066 0.04,0.094 0.014,0.164 L 1.532,2.743 1.851,2.869 2.565,1.806 2.287,1.619 2.012,1.941 0.582,-0.013 2.938,0.562 2.75,0.93 3.066,1.061 3.727,0.078 3.448,-0.108 3.305,0.038 C 3.243,0.099 3.213,0.122 3.134,0.106 l -2.78,-0.632 z" />
      </g>
      <g
         transform="translate(389.0265,627.3859)"
         id="g5303"
         style="fill:#1f184b;fill-opacity:1">
        <path
           inkscape:connector-curvature="0"
           id="path5305"
           style="fill:#1f184b;fill-opacity:1;fill-rule:nonzero;stroke:none"
           d="M 0,0 C -0.112,0.225 -0.053,0.418 0.171,0.53 0.389,0.64 0.581,0.571 0.693,0.348 0.804,0.123 0.742,-0.065 0.523,-0.175 0.3,-0.287 0.111,-0.224 0,0 m -3.727,-1.084 0.301,0.149 0.213,-0.342 c 0.044,-0.076 0.071,-0.076 0.153,-0.035 l 1.857,0.929 c 0.06,0.03 0.091,0.067 0.079,0.129 l -0.051,0.363 0.314,0.096 0.415,-0.83 -2.366,-1.183 C -2.899,-1.852 -2.907,-1.862 -2.877,-1.95 l 0.137,-0.368 -0.296,-0.149 z" />
      </g>
      <g
         transform="translate(389.3063,622.9914)"
         id="g5307"
         style="fill:#1f184b;fill-opacity:1">
        <path
           inkscape:connector-curvature="0"
           id="path5309"
           style="fill:#1f184b;fill-opacity:1;fill-rule:nonzero;stroke:none"
           d="M 0,0 C 0.083,0.223 0.143,0.592 0.038,0.897 -0.15,1.439 -0.697,1.488 -1.383,1.251 -2.184,0.974 -2.35,0.612 -2.21,0.209 c 0.118,-0.34 0.439,-0.539 0.78,-0.705 z m -2.243,-0.887 0.365,0.178 -0.003,0.024 c -0.346,0.177 -0.651,0.408 -0.807,0.858 -0.228,0.656 0.048,1.237 1.11,1.604 1.136,0.394 1.78,0.042 2.02,-0.649 C 0.561,0.781 0.554,0.431 0.47,0.149 l 1.078,0.374 c 0.058,0.02 0.09,0.058 0.09,0.116 L 1.627,1.022 1.952,1.076 2.256,0.194 -1.628,-1.151 C -1.721,-1.185 -1.731,-1.194 -1.711,-1.284 L -1.65,-1.592 -1.961,-1.7 Z" />
      </g>
      <g
         transform="translate(389.2267,618.8976)"
         id="g5311"
         style="fill:#1f184b;fill-opacity:1">
        <path
           inkscape:connector-curvature="0"
           id="path5313"
           style="fill:#1f184b;fill-opacity:1;fill-rule:nonzero;stroke:none"
           d="M 0,0 -0.179,0.668 C -0.318,1.178 -0.494,1.295 -0.806,1.24 -1.131,1.184 -1.239,1.021 -1.19,0.738 -1.127,0.385 -0.772,0.057 -0.565,-0.1 Z m -1.365,-0.345 0.382,0.122 0.003,0.02 C -1.302,0.037 -1.56,0.34 -1.641,0.803 -1.773,1.554 -1.272,1.741 -0.966,1.795 -0.364,1.9 -0.017,1.577 0.17,0.866 l 0.208,-0.8 0.32,0.057 C 1.136,0.199 1.337,0.321 1.247,0.845 1.182,1.212 1.123,1.474 0.671,1.4 L 0.634,1.927 c 0.74,0.13 0.945,-0.54 1.028,-1.016 0.15,-0.853 -0.04,-1.183 -0.87,-1.33 l -1.593,-0.279 c -0.096,-0.017 -0.107,-0.026 -0.103,-0.117 l 0.011,-0.315 -0.325,-0.057 z" />
      </g>
      <g
         transform="translate(389.6173,615.3566)"
         id="g5315"
         style="fill:#1f184b;fill-opacity:1">
        <path
           inkscape:connector-curvature="0"
           id="path5317"
           style="fill:#1f184b;fill-opacity:1;fill-rule:nonzero;stroke:none"
           d="M 0,0 0.543,-0.013 0.503,-1.666 -0.04,-1.652 Z" />
      </g>
      <g
         transform="translate(338.0211,610.756)"
         id="g5319"
         style="fill:#1f184b;fill-opacity:1">
        <path
           inkscape:connector-curvature="0"
           id="path5321"
           style="fill:#1f184b;fill-opacity:1;fill-rule:nonzero;stroke:none"
           d="M 0,0 2.42,1.479 C 2.487,1.522 2.495,1.549 2.5,1.624 L 2.508,1.892 2.851,1.878 3.076,0.616 2.746,0.558 2.624,0.964 0.527,-0.247 2.916,-0.67 2.892,-0.259 3.234,-0.267 3.442,-1.432 3.112,-1.491 3.04,-1.299 c -0.033,0.081 -0.05,0.115 -0.128,0.132 l -2.801,0.542 z" />
      </g>
      <g
         transform="translate(342.5338,608.2775)"
         id="g5323"
         style="fill:#1f184b;fill-opacity:1">
        <path
           inkscape:connector-curvature="0"
           id="path5325"
           style="fill:#1f184b;fill-opacity:1;fill-rule:nonzero;stroke:none"
           d="M 0,0 C -0.076,0.238 0.015,0.421 0.253,0.497 0.485,0.569 0.664,0.473 0.74,0.234 0.815,-0.005 0.724,-0.182 0.49,-0.254 0.252,-0.33 0.076,-0.238 0,0 m -3.848,-0.488 0.32,0.101 0.157,-0.373 c 0.031,-0.08 0.058,-0.084 0.146,-0.056 l 1.978,0.627 c 0.064,0.02 0.1,0.05 0.099,0.114 l 0.006,0.367 0.325,0.045 0.28,-0.885 -2.522,-0.798 c -0.092,-0.029 -0.102,-0.039 -0.086,-0.13 l 0.077,-0.385 -0.314,-0.1 z" />
      </g>
      <g
         transform="translate(342.649,604.2189)"
         id="g5327"
         style="fill:#1f184b;fill-opacity:1">
        <path
           inkscape:connector-curvature="0"
           id="path5329"
           style="fill:#1f184b;fill-opacity:1;fill-rule:nonzero;stroke:none"
           d="m 0,0 c 0.061,0.229 0.082,0.604 -0.054,0.896 -0.241,0.52 -0.79,0.512 -1.448,0.207 -0.768,-0.359 -0.896,-0.734 -0.716,-1.121 0.152,-0.326 0.491,-0.491 0.848,-0.621 z m -2.139,-1.111 0.344,0.214 -0.005,0.025 c -0.362,0.141 -0.689,0.338 -0.889,0.769 -0.294,0.63 -0.079,1.236 0.939,1.709 C -0.662,2.113 0.015,1.83 0.325,1.166 0.479,0.835 0.508,0.484 0.454,0.197 L 1.486,0.68 C 1.542,0.704 1.57,0.745 1.563,0.802 L 1.514,1.183 1.83,1.27 2.224,0.424 -1.501,-1.312 C -1.59,-1.353 -1.598,-1.363 -1.57,-1.451 l 0.091,-0.3 -0.296,-0.14 z" />
      </g>
      <g
         transform="translate(343.8087,600.3537)"
         id="g5331"
         style="fill:#1f184b;fill-opacity:1">
        <path
           inkscape:connector-curvature="0"
           id="path5333"
           style="fill:#1f184b;fill-opacity:1;fill-rule:nonzero;stroke:none"
           d="M 0,0 -0.44,0.536 C -0.775,0.942 -0.984,0.978 -1.247,0.799 -1.519,0.613 -1.551,0.422 -1.389,0.184 c 0.202,-0.297 0.661,-0.451 0.914,-0.507 z m -1.103,-0.877 0.297,0.269 -0.005,0.018 c -0.392,0.088 -0.751,0.257 -1.016,0.646 -0.43,0.631 -0.05,1.007 0.207,1.183 0.504,0.344 0.955,0.193 1.418,-0.379 L 0.318,0.217 0.585,0.398 C 0.955,0.649 1.087,0.844 0.789,1.283 0.579,1.591 0.418,1.806 0.036,1.554 L -0.215,2.019 C 0.406,2.441 0.869,1.914 1.141,1.516 1.629,0.799 1.591,0.419 0.895,-0.056 L -0.443,-0.968 C -0.524,-1.022 -0.53,-1.034 -0.488,-1.116 l 0.139,-0.282 -0.272,-0.186 z" />
      </g>
      <g
         transform="translate(346.5822,596.2111)"
         id="g5335"
         style="fill:#1f184b;fill-opacity:1">
        <path
           inkscape:connector-curvature="0"
           id="path5337"
           style="fill:#1f184b;fill-opacity:1;fill-rule:nonzero;stroke:none"
           d="M 0,0 C 0.019,-0.289 0.114,-0.639 0.354,-0.855 0.785,-1.244 1.271,-1.034 1.786,-0.463 2.344,0.152 2.28,0.563 1.998,0.818 1.709,1.08 1.278,1.148 1.052,1.163 Z m -2.062,-0.934 0.225,0.249 0.211,-0.14 c 0.071,-0.049 0.096,-0.047 0.158,0.02 l 2.26,2.5 c 0.044,0.049 0.06,0.093 0.027,0.149 L 0.639,2.163 0.897,2.366 1.495,1.825 1.298,1.526 1.307,1.509 C 1.723,1.47 2.092,1.367 2.4,1.089 2.907,0.63 2.958,-0.007 2.236,-0.804 1.622,-1.483 0.826,-1.899 0.115,-1.256 c -0.258,0.234 -0.419,0.493 -0.463,0.871 l -0.708,-0.783 c -0.066,-0.072 -0.074,-0.09 -0.01,-0.156 l 0.393,-0.422 -0.221,-0.243 z" />
      </g>
      <g
         transform="translate(348.8082,593.3322)"
         id="g5339"
         style="fill:#1f184b;fill-opacity:1">
        <path
           inkscape:connector-curvature="0"
           id="path5341"
           style="fill:#1f184b;fill-opacity:1;fill-rule:nonzero;stroke:none"
           d="M 0,0 0.187,0.279 0.46,0.141 C 0.539,0.103 0.559,0.111 0.61,0.187 L 1.764,1.914 C 1.801,1.97 1.81,2.016 1.769,2.064 L 1.544,2.354 1.77,2.593 2.435,2.148 2.252,1.764 2.264,1.749 C 2.556,1.824 2.951,1.877 3.296,1.646 3.413,1.568 3.557,1.442 3.631,1.356 L 3.119,0.59 2.768,0.846 2.941,1.237 C 2.963,1.281 2.961,1.298 2.914,1.328 2.686,1.48 2.289,1.445 2.097,1.412 L 1.075,-0.116 c -0.053,-0.082 -0.058,-0.1 0.014,-0.156 l 0.44,-0.353 -0.182,-0.274 z" />
      </g>
      <g
         transform="translate(354.5323,591.8732)"
         id="g5343"
         style="fill:#1f184b;fill-opacity:1">
        <path
           inkscape:connector-curvature="0"
           id="path5345"
           style="fill:#1f184b;fill-opacity:1;fill-rule:nonzero;stroke:none"
           d="M 0,0 C 0.346,0.721 0.235,1.167 -0.299,1.422 -0.838,1.681 -1.305,1.511 -1.653,0.784 -2.003,0.053 -1.891,-0.434 -1.346,-0.694 -0.812,-0.95 -0.359,-0.755 0,0 m -2.167,1.038 c 0.414,0.864 1.138,1.247 2.079,0.797 0.941,-0.45 1.018,-1.224 0.622,-2.05 -0.442,-0.924 -1.148,-1.324 -2.089,-0.873 -0.958,0.458 -1.031,1.251 -0.612,2.126" />
      </g>
      <g
         transform="translate(357.6769,589.2121)"
         id="g5347"
         style="fill:#1f184b;fill-opacity:1">
        <path
           inkscape:connector-curvature="0"
           id="path5349"
           style="fill:#1f184b;fill-opacity:1;fill-rule:nonzero;stroke:none"
           d="m 0,0 c -0.262,-0.02 -0.569,-0.019 -0.866,0.074 -0.558,0.176 -0.725,0.517 -0.561,1.04 l 0.571,1.815 c 0.011,0.034 0.018,0.057 -0.029,0.073 l -0.425,0.133 0.106,0.338 c 0.473,-0.084 0.659,0.054 0.92,0.624 L 0.059,3.989 -0.165,3.279 C -0.175,3.245 -0.182,3.222 -0.136,3.207 L 0.719,2.938 0.592,2.537 -0.308,2.82 -0.849,1.104 c -0.114,-0.366 -0.072,-0.533 0.26,-0.637 0.18,-0.057 0.4,-0.069 0.577,-0.054 z" />
      </g>
      <g
         transform="translate(360.9879,590.3078)"
         id="g5351"
         style="fill:#1f184b;fill-opacity:1">
        <path
           inkscape:connector-curvature="0"
           id="path5353"
           style="fill:#1f184b;fill-opacity:1;fill-rule:nonzero;stroke:none"
           d="M 0,0 C 0.111,0.687 -0.166,0.941 -0.532,1.007 -0.935,1.08 -1.311,0.924 -1.478,0.266 Z m 0.181,-1.714 c -0.331,-0.113 -0.709,-0.15 -1.142,-0.072 -1.086,0.195 -1.312,0.974 -1.152,1.869 0.199,1.099 0.903,1.499 1.659,1.363 C 0.279,1.313 0.712,0.826 0.526,-0.213 0.512,-0.291 0.483,-0.41 0.459,-0.511 l -2.017,0.364 c -0.091,-0.611 0.08,-1.069 0.735,-1.187 0.336,-0.061 0.557,-0.038 0.903,0.061 z" />
      </g>
      <g
         transform="translate(364.0187,590.9533)"
         id="g5355"
         style="fill:#1f184b;fill-opacity:1">
        <path
           inkscape:connector-curvature="0"
           id="path5357"
           style="fill:#1f184b;fill-opacity:1;fill-rule:nonzero;stroke:none"
           d="M 0,0 C -0.445,0.012 -0.769,-0.199 -0.781,-0.675 -0.792,-1.034 -0.592,-1.333 -0.057,-1.348 0.401,-1.36 0.696,-1.101 0.708,-0.68 0.72,-0.265 0.458,-0.014 0,0 m -0.712,-2.765 c -0.113,-0.113 -0.277,-0.285 -0.283,-0.499 -0.009,-0.329 0.331,-0.412 0.929,-0.434 0.324,-0.009 0.947,0.021 0.96,0.485 0.008,0.287 -0.229,0.317 -0.624,0.366 z m 1.754,2.687 C 1.166,-0.24 1.258,-0.433 1.251,-0.719 1.23,-1.439 0.665,-1.826 -0.05,-1.807 c -0.207,0.006 -0.39,0.036 -0.517,0.089 l -0.289,-0.523 0.75,-0.065 c 1.096,-0.09 1.588,-0.16 1.568,-0.88 -0.016,-0.604 -0.545,-0.967 -1.607,-0.938 -1.055,0.029 -1.414,0.326 -1.401,0.79 0.009,0.299 0.178,0.472 0.392,0.68 -0.17,0.059 -0.264,0.172 -0.259,0.337 0.002,0.102 0.054,0.206 0.143,0.331 0.102,0.137 0.233,0.287 0.347,0.43 -0.264,0.154 -0.444,0.464 -0.432,0.879 C -1.336,0.006 -0.829,0.469 0,0.445 0.22,0.439 0.415,0.409 0.542,0.369 L 1.628,0.339 1.617,-0.052 Z" />
      </g>
      <g
         transform="translate(366.8693,592.1125)"
         id="g5359"
         style="fill:#1f184b;fill-opacity:1">
        <path
           inkscape:connector-curvature="0"
           id="path5361"
           style="fill:#1f184b;fill-opacity:1;fill-rule:nonzero;stroke:none"
           d="m 0,0 c -0.25,-0.023 -0.408,0.103 -0.432,0.352 -0.023,0.243 0.11,0.396 0.359,0.42 C 0.176,0.796 0.33,0.67 0.353,0.426 0.376,0.178 0.25,0.023 0,0 m -0.33,-3.866 -0.032,0.334 0.398,0.075 c 0.084,0.014 0.093,0.04 0.085,0.13 l -0.197,2.068 c -0.006,0.067 -0.028,0.108 -0.091,0.12 l -0.357,0.082 0.023,0.328 0.925,0.088 0.251,-2.632 C 0.684,-3.37 0.691,-3.383 0.784,-3.386 L 1.176,-3.392 1.208,-3.72 Z" />
      </g>
      <g
         transform="translate(370.7985,590.7824)"
         id="g5363"
         style="fill:#1f184b;fill-opacity:1">
        <path
           inkscape:connector-curvature="0"
           id="path5365"
           style="fill:#1f184b;fill-opacity:1;fill-rule:nonzero;stroke:none"
           d="M 0,0 C -0.159,0.678 -0.512,0.807 -0.876,0.729 -1.275,0.643 -1.562,0.356 -1.468,-0.316 Z m 0.818,-1.514 c -0.261,-0.232 -0.598,-0.41 -1.027,-0.503 -1.08,-0.232 -1.585,0.403 -1.775,1.29 -0.236,1.091 0.263,1.729 1.015,1.891 0.727,0.157 1.313,-0.13 1.535,-1.16 0.017,-0.078 0.038,-0.198 0.053,-0.301 l -2.005,-0.432 c 0.149,-0.597 0.481,-0.957 1.132,-0.817 0.333,0.072 0.529,0.177 0.812,0.4 z" />
      </g>
      <g
         transform="translate(374.9503,590.2033)"
         id="g5367"
         style="fill:#1f184b;fill-opacity:1">
        <path
           inkscape:connector-curvature="0"
           id="path5369"
           style="fill:#1f184b;fill-opacity:1;fill-rule:nonzero;stroke:none"
           d="m 0,0 -0.123,0.312 0.259,0.142 c 0.072,0.035 0.091,0.074 0.058,0.154 l -0.528,1.348 c -0.144,0.37 -0.358,0.7 -0.781,0.535 -0.324,-0.128 -0.569,-0.407 -0.739,-0.71 l 0.672,-1.713 c 0.035,-0.09 0.045,-0.099 0.136,-0.078 l 0.334,0.085 0.121,-0.307 -1.303,-0.511 -0.124,0.313 0.271,0.146 c 0.076,0.043 0.081,0.064 0.047,0.15 L -2.458,1.8 c -0.025,0.062 -0.058,0.096 -0.121,0.091 l -0.366,-0.02 -0.067,0.322 0.744,0.292 0.177,-0.318 0.02,0.002 c 0.214,0.326 0.487,0.649 0.897,0.81 0.653,0.256 1.064,-0.068 1.307,-0.688 L 0.712,0.812 C 0.748,0.72 0.757,0.711 0.848,0.733 l 0.34,0.087 0.12,-0.307 z" />
      </g>
      <g
         transform="translate(378.1085,594.551)"
         id="g5371"
         style="fill:#1f184b;fill-opacity:1">
        <path
           inkscape:connector-curvature="0"
           id="path5373"
           style="fill:#1f184b;fill-opacity:1;fill-rule:nonzero;stroke:none"
           d="m 0,0 c -0.234,0.035 -0.608,0.016 -0.886,-0.153 -0.489,-0.298 -0.423,-0.843 -0.045,-1.464 0.441,-0.725 0.829,-0.812 1.194,-0.589 0.308,0.186 0.434,0.543 0.524,0.911 z m 1.342,-2.007 -0.25,0.319 -0.025,-0.007 c -0.101,-0.376 -0.26,-0.724 -0.668,-0.971 -0.595,-0.361 -1.22,-0.213 -1.804,0.746 -0.625,1.028 -0.417,1.733 0.209,2.113 0.313,0.192 0.658,0.258 0.951,0.236 L -0.838,1.404 C -0.871,1.456 -0.913,1.48 -0.97,1.468 L -1.343,1.376 -1.464,1.682 -0.666,2.167 1.471,-1.35 c 0.051,-0.084 0.063,-0.091 0.147,-0.053 l 0.288,0.125 0.172,-0.283 z" />
      </g>
      <g
         transform="translate(382.0309,596.5441)"
         id="g5375"
         style="fill:#1f184b;fill-opacity:1">
        <path
           inkscape:connector-curvature="0"
           id="path5377"
           style="fill:#1f184b;fill-opacity:1;fill-rule:nonzero;stroke:none"
           d="M 0,0 C -0.522,0.605 -0.975,0.683 -1.424,0.296 -1.876,-0.095 -1.909,-0.591 -1.383,-1.2 -0.853,-1.815 -0.362,-1.908 0.096,-1.514 0.544,-1.127 0.546,-0.634 0,0 m -1.821,-1.57 c -0.627,0.724 -0.687,1.544 0.104,2.225 0.789,0.682 1.53,0.441 2.128,-0.253 0.669,-0.776 0.752,-1.583 -0.038,-2.265 -0.805,-0.694 -1.56,-0.443 -2.194,0.293" />
      </g>
      <g
         transform="translate(386.5182,599.2521)"
         id="g5379"
         style="fill:#1f184b;fill-opacity:1">
        <path
           inkscape:connector-curvature="0"
           id="path5381"
           style="fill:#1f184b;fill-opacity:1;fill-rule:nonzero;stroke:none"
           d="M 0,0 -2.739,0.736 C -2.816,0.756 -2.84,0.742 -2.898,0.695 l -0.201,-0.179 -0.226,0.258 0.76,1.033 0.27,-0.2 -0.21,-0.368 2.321,-0.686 -1.337,2.022 -0.281,-0.3 -0.231,0.253 0.702,0.954 0.27,-0.199 L -1.15,3.1 C -1.187,3.02 -1.198,2.982 -1.157,2.915 L 0.377,0.511 Z" />
      </g>
      <g
         transform="translate(388.1515,601.7238)"
         id="g5383"
         style="fill:#1f184b;fill-opacity:1">
        <path
           inkscape:connector-curvature="0"
           id="path5385"
           style="fill:#1f184b;fill-opacity:1;fill-rule:nonzero;stroke:none"
           d="m 0,0 -0.296,0.16 0.16,0.372 C -0.1,0.61 -0.117,0.633 -0.197,0.677 l -1.825,0.99 C -2.08,1.699 -2.128,1.703 -2.172,1.658 L -2.441,1.408 -2.7,1.61 -2.256,2.427 0.069,1.165 C 0.155,1.118 0.168,1.117 0.223,1.192 l 0.224,0.324 0.29,-0.158 z m -3.024,2.434 c -0.12,-0.22 -0.313,-0.283 -0.534,-0.163 -0.214,0.117 -0.268,0.313 -0.148,0.532 0.12,0.22 0.31,0.277 0.525,0.16 0.22,-0.119 0.275,-0.31 0.157,-0.529" />
      </g>
      <g
         transform="translate(387.9733,607.0744)"
         id="g5387"
         style="fill:#1f184b;fill-opacity:1">
        <path
           inkscape:connector-curvature="0"
           id="path5389"
           style="fill:#1f184b;fill-opacity:1;fill-rule:nonzero;stroke:none"
           d="m 0,0 c -0.208,-0.115 -0.491,-0.359 -0.606,-0.662 -0.206,-0.535 0.181,-0.924 0.859,-1.185 0.79,-0.302 1.149,-0.133 1.302,0.266 0.129,0.336 0.012,0.693 -0.142,1.04 z M 2.287,-0.765 1.894,-0.666 1.878,-0.687 c 0.151,-0.358 0.237,-0.731 0.067,-1.174 -0.249,-0.65 -0.834,-0.915 -1.883,-0.513 -1.122,0.43 -1.388,1.112 -1.126,1.796 0.13,0.342 0.363,0.606 0.608,0.766 l -1.065,0.409 c -0.058,0.022 -0.106,0.014 -0.144,-0.03 l -0.238,-0.3 -0.282,0.167 0.334,0.871 3.837,-1.472 C 2.078,-0.201 2.091,-0.2 2.136,-0.119 L 2.287,0.156 2.595,0.038 Z" />
      </g>
      <g
         transform="translate(389.9459,610.591)"
         id="g5391"
         style="fill:#1f184b;fill-opacity:1">
        <path
           inkscape:connector-curvature="0"
           id="path5393"
           style="fill:#1f184b;fill-opacity:1;fill-rule:nonzero;stroke:none"
           d="m 0,0 -0.08,-0.687 c -0.059,-0.524 0.06,-0.698 0.371,-0.762 0.323,-0.068 0.483,0.043 0.542,0.323 0.073,0.353 -0.137,0.789 -0.271,1.011 z m 1.396,-0.184 -0.4,0.028 -0.011,-0.017 C 1.196,-0.516 1.323,-0.892 1.227,-1.351 1.073,-2.098 0.539,-2.087 0.234,-2.024 c -0.598,0.125 -0.801,0.553 -0.712,1.283 l 0.102,0.82 -0.317,0.066 c -0.436,0.089 -0.668,0.051 -0.777,-0.469 -0.075,-0.364 -0.118,-0.63 0.329,-0.729 l -0.16,-0.503 c -0.735,0.153 -0.678,0.852 -0.58,1.324 0.176,0.848 0.474,1.086 1.3,0.914 L 1.002,0.354 C 1.098,0.333 1.111,0.338 1.141,0.424 L 1.246,0.72 1.569,0.653 Z" />
      </g>
      <g
         transform="translate(377.8527,611.5627)"
         id="g5395"
         style="fill:#1f184b;fill-opacity:1">
        <path
           inkscape:connector-curvature="0"
           id="path5397"
           style="fill:#1f184b;fill-opacity:1;fill-rule:nonzero;stroke:none"
           d="m 0,0 c -0.001,-3.481 -2.632,-6.354 -6.007,-6.754 0.419,0.953 0.654,2.004 0.656,3.109 v 10e-4 c 0.002,1.143 -0.252,2.225 -0.695,3.204 2.25,0.218 4.215,1.403 5.492,3.129 C -0.198,1.863 0.001,0.954 0,0 m -13.117,17.763 c 2.224,0 4.197,-1.08 5.438,-2.735 -2.239,-0.252 -4.188,-1.46 -5.443,-3.203 -1.25,1.747 -3.197,2.955 -5.437,3.211 1.245,1.653 3.219,2.729 5.442,2.727 m 2.669,-14.108 c 1.619,0.596 2.986,1.71 3.896,3.146 2.306,-0.086 4.318,-1.322 5.485,-3.153 -1.168,-1.83 -3.184,-3.06 -5.489,-3.144 -0.91,1.436 -2.274,2.555 -3.892,3.151 m -4.137,3.651 c 0,-0.452 0.046,-0.894 0.122,-1.326 -1.279,1.07 -2.903,1.727 -4.677,1.798 -0.505,0.951 -0.791,2.033 -0.791,3.179 0,1.136 0.285,2.206 0.78,3.147 2.302,-0.096 4.312,-1.34 5.468,-3.178 -0.572,-1.082 -0.9,-2.312 -0.902,-3.62 m 1.453,-11.818 c 1.25,-1.744 3.199,-2.955 5.436,-3.211 -1.243,-1.651 -3.216,-2.726 -5.44,-2.724 -2.222,10e-4 -4.195,1.078 -5.436,2.733 2.239,0.251 4.188,1.458 5.44,3.202 m -6.809,0.878 c 0,1.149 0.289,2.23 0.795,3.179 1.775,0.066 3.399,0.723 4.678,1.79 -0.075,-0.432 -0.122,-0.873 -0.122,-1.325 -10e-4,-1.307 0.327,-2.538 0.897,-3.622 -1.161,-1.835 -3.169,-3.075 -5.471,-3.171 -0.495,0.942 -0.777,2.014 -0.777,3.149 m -0.271,3.201 c -0.444,-0.976 -0.697,-2.057 -0.7,-3.2 v -10e-4 c 0,-1.105 0.236,-2.156 0.651,-3.109 -3.373,0.403 -5.999,3.281 -5.996,6.762 0,0.953 0.199,1.861 0.556,2.686 1.275,-1.726 3.239,-2.914 5.489,-3.138 m -5.486,5.059 c -0.358,0.825 -0.554,1.733 -0.554,2.687 0.002,3.482 2.633,6.355 6.006,6.755 -0.419,-0.954 -0.655,-2.004 -0.654,-3.11 -0.001,-1.143 0.251,-2.225 0.696,-3.203 -2.251,-0.219 -4.218,-1.403 -5.494,-3.129 m 6.003,2.185 c 0.909,-1.438 2.273,-2.554 3.891,-3.151 -1.619,-0.596 -2.985,-1.711 -3.897,-3.148 -2.306,0.087 -4.319,1.323 -5.484,3.153 1.17,1.829 3.185,3.062 5.49,3.146 M -7.101,-6.791 c -2.303,0.098 -4.311,1.341 -5.469,3.179 0.573,1.082 0.903,2.312 0.903,3.621 -10e-4,0.452 -0.045,0.892 -0.12,1.325 1.277,-1.069 2.903,-1.729 4.676,-1.798 0.503,-0.95 0.792,-2.031 0.79,-3.178 -0.002,-1.137 -0.284,-2.206 -0.78,-3.149 M -6.31,10.948 C -6.311,9.8 -6.601,8.719 -7.104,7.77 -8.88,7.702 -10.505,7.046 -11.785,5.979 c 0.075,0.432 0.123,0.873 0.123,1.326 0,1.306 -0.326,2.537 -0.898,3.622 1.161,1.835 3.172,3.074 5.475,3.17 0.493,-0.944 0.775,-2.013 0.775,-3.149 M 0.005,7.295 c 0,-0.954 -0.201,-1.863 -0.557,-2.689 -1.275,1.73 -3.24,2.917 -5.489,3.139 0.445,0.978 0.699,2.06 0.7,3.203 0.001,1.105 -0.234,2.156 -0.651,3.11 3.373,-0.405 5.999,-3.281 5.997,-6.763 M 0.976,7.294 c 0.002,4.199 -3.342,7.627 -7.506,7.773 -1.375,2.196 -3.81,3.662 -6.585,3.665 -2.778,0.001 -5.213,-1.462 -6.591,-3.656 -4.166,-0.141 -7.515,-3.562 -7.517,-7.761 -0.001,-1.318 0.328,-2.56 0.911,-3.649 -0.584,-1.089 -0.915,-2.33 -0.915,-3.647 -0.004,-4.2 3.339,-7.625 7.506,-7.772 1.375,-2.195 3.807,-3.663 6.585,-3.666 2.775,-0.002 5.212,1.464 6.591,3.657 4.163,0.142 7.512,3.562 7.514,7.76 0.001,1.318 -0.33,2.561 -0.908,3.65 0.58,1.089 0.913,2.329 0.915,3.646" />
      </g>
    </g>
  </g>
</svg>
