<?xml version="1.0" encoding="UTF-8" standalone="no"?>
<!-- Created with Inkscape (http://www.inkscape.org/) -->

<svg
   xmlns:dc="http://purl.org/dc/elements/1.1/"
   xmlns:cc="http://creativecommons.org/ns#"
   xmlns:rdf="http://www.w3.org/1999/02/22-rdf-syntax-ns#"
   xmlns:svg="http://www.w3.org/2000/svg"
   xmlns="http://www.w3.org/2000/svg"
   xmlns:sodipodi="http://sodipodi.sourceforge.net/DTD/sodipodi-0.dtd"
   xmlns:inkscape="http://www.inkscape.org/namespaces/inkscape"
   width="105.83334mm"
   height="105.83334mm"
   viewBox="0 0 105.83334 105.83334"
   version="1.1"
   id="svg17622"
   inkscape:version="0.92.5 (2060ec1f9f, 2020-04-08)"
   sodipodi:docname="symbolBionutrec01.svg">
  <defs
     id="defs17616" />
  <sodipodi:namedview
     id="base"
     pagecolor="#ffffff"
     bordercolor="#666666"
     borderopacity="1.0"
     inkscape:pageopacity="0.0"
     inkscape:pageshadow="2"
     inkscape:zoom="0.35"
     inkscape:cx="161.24935"
     inkscape:cy="-83.036381"
     inkscape:document-units="mm"
     inkscape:current-layer="layer1"
     showgrid="false"
     inkscape:window-width="1920"
     inkscape:window-height="1016"
     inkscape:window-x="0"
     inkscape:window-y="27"
     inkscape:window-maximized="1" />
  <metadata
     id="metadata17619">
    <rdf:RDF>
      <cc:Work
         rdf:about="">
        <dc:format>image/svg+xml</dc:format>
        <dc:type
           rdf:resource="http://purl.org/dc/dcmitype/StillImage" />
        <dc:title></dc:title>
      </cc:Work>
    </rdf:RDF>
  </metadata>
  <g
     inkscape:label="Layer 1"
     inkscape:groupmode="layer"
     id="layer1"
     transform="translate(-390.11885,37.934328)">
    <g
       id="g5819"
       transform="matrix(6.2719766,0,0,-6.2719766,495.95218,10.328532)">
      <path
         d="m 0,0 h -4.569 l 4.244,1.692 -0.55,1.379 -4.488,-1.789 3.417,3.417 -1.05,1.049 -3.232,-3.231 1.806,4.198 -1.364,0.587 -1.908,-4.439 V 7.695 H -9.179 V 3.126 l -1.692,4.244 -1.379,-0.55 1.79,-4.489 -3.418,3.417 -1.049,-1.049 3.231,-3.231 -4.198,1.805 L -16.481,1.909 -12.042,0 h -4.832 v -1.484 h 4.57 l -4.245,-1.692 0.549,-1.379 4.49,1.789 -3.417,-3.417 1.049,-1.049 3.232,3.231 -1.806,-4.198 1.364,-0.587 1.909,4.44 v -4.833 h 1.485 v 4.57 l 1.691,-4.245 1.379,0.549 -1.789,4.49 3.417,-3.417 1.05,1.049 -3.231,3.231 4.198,-1.805 0.586,1.363 -4.44,1.91 H 0 Z"
         style="fill:#ffada3;fill-opacity:1;fill-rule:nonzero;stroke:none"
         id="path5821"
         inkscape:connector-curvature="0" />
    </g>
  </g>
</svg>
